M48
; DRILL file {KiCad 9.0.7} date 2026-02-23T17:10:44-0500
; FORMAT={-:-/ absolute / metric / decimal}
; #@! TF.CreationDate,2026-02-23T17:10:44-05:00
; #@! TF.GenerationSoftware,Kicad,Pcbnew,9.0.7
; #@! TF.FileFunction,Plated,1,2,PTH
FMAT,2
METRIC
; #@! TA.AperFunction,Plated,PTH,ComponentDrill
T1C0.200
; #@! TA.AperFunction,Plated,PTH,ComponentDrill
T2C0.800
; #@! TA.AperFunction,Plated,PTH,ComponentDrill
T3C0.900
; #@! TA.AperFunction,Plated,PTH,ComponentDrill
T4C1.000
; #@! TA.AperFunction,Plated,PTH,ComponentDrill
T5C1.100
%
G90
G05
T1
X143.25Y-97.19
X143.25Y-98.59
X143.95Y-96.49
X143.95Y-97.89
X143.95Y-99.29
X144.65Y-97.19
X144.65Y-98.59
X145.35Y-96.49
X145.35Y-97.89
X145.35Y-99.29
X146.05Y-97.19
X146.05Y-98.59
T2
X97.028Y-103.378
X107.188Y-103.378
X110.744Y-103.378
X111.731Y-109.474
X113.345Y-98.298
X113.731Y-109.474
X115.345Y-98.298
X117.5Y-108.0
X119.5Y-108.0
X120.904Y-103.378
X170.0Y-103.0
X172.0Y-103.0
X175.768Y-100.838
X175.768Y-110.998
X179.324Y-102.87
X189.484Y-102.87
X189.992Y-97.253
X189.992Y-99.253
T3
X106.68Y-107.701
X106.68Y-110.241
X189.484Y-107.95
X192.024Y-107.95
T4
X107.95Y-91.44
X107.95Y-114.3
X110.49Y-91.44
X110.49Y-114.3
X113.03Y-91.44
X113.03Y-114.3
X115.57Y-91.44
X115.57Y-114.3
X118.11Y-91.44
X118.11Y-114.3
X120.65Y-91.44
X120.65Y-97.79
X120.65Y-114.3
X123.19Y-91.44
X123.19Y-97.79
X123.19Y-114.3
X125.73Y-91.44
X125.73Y-97.79
X125.73Y-114.3
X126.492Y-104.902
X128.27Y-91.44
X128.27Y-97.79
X128.27Y-114.3
X129.032Y-104.902
X130.81Y-91.44
X130.81Y-97.79
X130.81Y-114.3
X131.572Y-104.902
X137.426Y-120.884
X139.7Y-116.84
X139.966Y-120.884
X142.24Y-116.84
X142.506Y-120.884
X144.78Y-116.84
X147.32Y-116.84
X149.86Y-116.84
X152.4Y-116.84
X154.94Y-116.84
X155.206Y-120.884
X160.02Y-107.95
X161.29Y-91.44
X161.29Y-97.01
X161.29Y-114.3
X162.56Y-107.95
X163.83Y-91.44
X163.83Y-97.01
X163.83Y-114.3
X165.1Y-107.95
X166.37Y-91.44
X166.37Y-97.01
X166.37Y-114.3
X167.64Y-107.95
X168.91Y-91.44
X168.91Y-97.01
X168.91Y-114.3
X170.18Y-107.95
X171.45Y-91.44
X171.45Y-97.01
X171.45Y-114.3
X173.99Y-91.44
X173.99Y-114.3
X176.53Y-91.44
X176.53Y-114.3
X179.07Y-91.44
X179.07Y-114.3
X181.61Y-91.44
X181.61Y-114.3
X184.15Y-91.44
X184.15Y-114.3
T5
X103.43Y-95.54
X103.43Y-100.04
X109.93Y-95.54
X109.93Y-100.04
X179.428Y-106.208
X179.428Y-110.708
X185.928Y-106.208
X185.928Y-110.708
M30
