%TF.GenerationSoftware,KiCad,Pcbnew,9.0.7*%
%TF.CreationDate,2026-02-23T17:10:25-05:00*%
%TF.ProjectId,Stencil,5374656e-6369-46c2-9e6b-696361645f70,rev?*%
%TF.SameCoordinates,Original*%
%TF.FileFunction,Copper,L1,Top*%
%TF.FilePolarity,Positive*%
%FSLAX46Y46*%
G04 Gerber Fmt 4.6, Leading zero omitted, Abs format (unit mm)*
G04 Created by KiCad (PCBNEW 9.0.7) date 2026-02-23 17:10:25*
%MOMM*%
%LPD*%
G01*
G04 APERTURE LIST*
G04 Aperture macros list*
%AMRoundRect*
0 Rectangle with rounded corners*
0 $1 Rounding radius*
0 $2 $3 $4 $5 $6 $7 $8 $9 X,Y pos of 4 corners*
0 Add a 4 corners polygon primitive as box body*
4,1,4,$2,$3,$4,$5,$6,$7,$8,$9,$2,$3,0*
0 Add four circle primitives for the rounded corners*
1,1,$1+$1,$2,$3*
1,1,$1+$1,$4,$5*
1,1,$1+$1,$6,$7*
1,1,$1+$1,$8,$9*
0 Add four rect primitives between the rounded corners*
20,1,$1+$1,$2,$3,$4,$5,0*
20,1,$1+$1,$4,$5,$6,$7,0*
20,1,$1+$1,$6,$7,$8,$9,0*
20,1,$1+$1,$8,$9,$2,$3,0*%
G04 Aperture macros list end*
%TA.AperFunction,ComponentPad*%
%ADD10R,1.700000X1.700000*%
%TD*%
%TA.AperFunction,ComponentPad*%
%ADD11C,1.700000*%
%TD*%
%TA.AperFunction,SMDPad,CuDef*%
%ADD12R,1.500000X0.900000*%
%TD*%
%TA.AperFunction,SMDPad,CuDef*%
%ADD13R,0.900000X1.500000*%
%TD*%
%TA.AperFunction,HeatsinkPad*%
%ADD14C,0.600000*%
%TD*%
%TA.AperFunction,HeatsinkPad*%
%ADD15R,3.900000X3.900000*%
%TD*%
%TA.AperFunction,ComponentPad*%
%ADD16RoundRect,0.250000X0.550000X0.550000X-0.550000X0.550000X-0.550000X-0.550000X0.550000X-0.550000X0*%
%TD*%
%TA.AperFunction,ComponentPad*%
%ADD17C,1.600000*%
%TD*%
%TA.AperFunction,ComponentPad*%
%ADD18C,2.000000*%
%TD*%
%TA.AperFunction,ComponentPad*%
%ADD19RoundRect,0.250000X0.550000X-0.550000X0.550000X0.550000X-0.550000X0.550000X-0.550000X-0.550000X0*%
%TD*%
%TA.AperFunction,ComponentPad*%
%ADD20R,1.800000X1.800000*%
%TD*%
%TA.AperFunction,ComponentPad*%
%ADD21C,1.800000*%
%TD*%
%TA.AperFunction,ComponentPad*%
%ADD22RoundRect,0.250000X-0.550000X-0.550000X0.550000X-0.550000X0.550000X0.550000X-0.550000X0.550000X0*%
%TD*%
%TA.AperFunction,SMDPad,CuDef*%
%ADD23RoundRect,0.375000X0.625000X0.375000X-0.625000X0.375000X-0.625000X-0.375000X0.625000X-0.375000X0*%
%TD*%
%TA.AperFunction,SMDPad,CuDef*%
%ADD24RoundRect,0.500000X0.500000X1.400000X-0.500000X1.400000X-0.500000X-1.400000X0.500000X-1.400000X0*%
%TD*%
%TA.AperFunction,Conductor*%
%ADD25C,0.600000*%
%TD*%
G04 APERTURE END LIST*
D10*
%TO.P,J6,1,Pin_1*%
%TO.N,IO2*%
X161290000Y-91440000D03*
D11*
%TO.P,J6,2,Pin_2*%
%TO.N,IO1*%
X163830000Y-91440000D03*
%TO.P,J6,3,Pin_3*%
%TO.N,TXD0*%
X166370000Y-91440000D03*
%TO.P,J6,4,Pin_4*%
%TO.N,RXD0*%
X168910000Y-91440000D03*
%TO.P,J6,5,Pin_5*%
%TO.N,IO42*%
X171450000Y-91440000D03*
%TO.P,J6,6,Pin_6*%
%TO.N,IO41*%
X173990000Y-91440000D03*
%TO.P,J6,7,Pin_7*%
%TO.N,IO40*%
X176530000Y-91440000D03*
%TO.P,J6,8,Pin_8*%
%TO.N,IO38*%
X179070000Y-91440000D03*
%TO.P,J6,9,Pin_9*%
%TO.N,IO39*%
X181610000Y-91440000D03*
%TO.P,J6,10,Pin_10*%
%TO.N,GND*%
X184150000Y-91440000D03*
%TD*%
D10*
%TO.P,J7,1,Pin_1*%
%TO.N,3V3*%
X184150000Y-114300000D03*
D11*
%TO.P,J7,2,Pin_2*%
%TO.N,IO36*%
X181610000Y-114300000D03*
%TO.P,J7,3,Pin_3*%
%TO.N,IO37*%
X179070000Y-114300000D03*
%TO.P,J7,4,Pin_4*%
%TO.N,IO35*%
X176530000Y-114300000D03*
%TO.P,J7,5,Pin_5*%
%TO.N,IO45*%
X173990000Y-114300000D03*
%TO.P,J7,6,Pin_6*%
%TO.N,IO0*%
X171450000Y-114300000D03*
%TO.P,J7,7,Pin_7*%
%TO.N,IO48*%
X168910000Y-114300000D03*
%TO.P,J7,8,Pin_8*%
%TO.N,IO47*%
X166370000Y-114300000D03*
%TO.P,J7,9,Pin_9*%
%TO.N,IO14*%
X163830000Y-114300000D03*
%TO.P,J7,10,Pin_10*%
%TO.N,IO21*%
X161290000Y-114300000D03*
%TD*%
D12*
%TO.P,U1,1,GND*%
%TO.N,GND*%
X137400000Y-90170000D03*
%TO.P,U1,2,3V3*%
%TO.N,3V3*%
X137400000Y-91440000D03*
%TO.P,U1,3,EN*%
%TO.N,EN*%
X137400000Y-92710000D03*
%TO.P,U1,4,IO4*%
%TO.N,IO4*%
X137400000Y-93980000D03*
%TO.P,U1,5,IO5*%
%TO.N,IO5*%
X137400000Y-95250000D03*
%TO.P,U1,6,IO6*%
%TO.N,IO6*%
X137400000Y-96520000D03*
%TO.P,U1,7,IO7*%
%TO.N,IO7*%
X137400000Y-97790000D03*
%TO.P,U1,8,IO15*%
%TO.N,IO15*%
X137400000Y-99060000D03*
%TO.P,U1,9,IO16*%
%TO.N,IO16*%
X137400000Y-100330000D03*
%TO.P,U1,10,IO17*%
%TO.N,IO17*%
X137400000Y-101600000D03*
%TO.P,U1,11,IO18*%
%TO.N,IO18*%
X137400000Y-102870000D03*
%TO.P,U1,12,IO8*%
%TO.N,IO8*%
X137400000Y-104140000D03*
%TO.P,U1,13,USB_D-*%
%TO.N,D-*%
X137400000Y-105410000D03*
%TO.P,U1,14,USB_D+*%
%TO.N,D+*%
X137400000Y-106680000D03*
D13*
%TO.P,U1,15,IO3*%
%TO.N,IO3*%
X139165000Y-107930000D03*
%TO.P,U1,16,IO46*%
%TO.N,IO46*%
X140435000Y-107930000D03*
%TO.P,U1,17,IO9*%
%TO.N,IO9*%
X141705000Y-107930000D03*
%TO.P,U1,18,IO10*%
%TO.N,IO10*%
X142975000Y-107930000D03*
%TO.P,U1,19,IO11*%
%TO.N,IO11*%
X144245000Y-107930000D03*
%TO.P,U1,20,IO12*%
%TO.N,IO12*%
X145515000Y-107930000D03*
%TO.P,U1,21,IO13*%
%TO.N,IO13*%
X146785000Y-107930000D03*
%TO.P,U1,22,IO14*%
%TO.N,IO14*%
X148055000Y-107930000D03*
%TO.P,U1,23,IO21*%
%TO.N,IO21*%
X149325000Y-107930000D03*
%TO.P,U1,24,IO47*%
%TO.N,IO47*%
X150595000Y-107930000D03*
%TO.P,U1,25,IO48*%
%TO.N,IO48*%
X151865000Y-107930000D03*
%TO.P,U1,26,IO45*%
%TO.N,IO45*%
X153135000Y-107930000D03*
D12*
%TO.P,U1,27,IO0*%
%TO.N,IO0*%
X154900000Y-106680000D03*
%TO.P,U1,28,IO35*%
%TO.N,IO35*%
X154900000Y-105410000D03*
%TO.P,U1,29,IO36*%
%TO.N,IO36*%
X154900000Y-104140000D03*
%TO.P,U1,30,IO37*%
%TO.N,IO37*%
X154900000Y-102870000D03*
%TO.P,U1,31,IO38*%
%TO.N,IO38*%
X154900000Y-101600000D03*
%TO.P,U1,32,IO39*%
%TO.N,IO39*%
X154900000Y-100330000D03*
%TO.P,U1,33,IO40*%
%TO.N,IO40*%
X154900000Y-99060000D03*
%TO.P,U1,34,IO41*%
%TO.N,IO41*%
X154900000Y-97790000D03*
%TO.P,U1,35,IO42*%
%TO.N,IO42*%
X154900000Y-96520000D03*
%TO.P,U1,36,RXD0*%
%TO.N,RXD0*%
X154900000Y-95250000D03*
%TO.P,U1,37,TXD0*%
%TO.N,TXD0*%
X154900000Y-93980000D03*
%TO.P,U1,38,IO2*%
%TO.N,IO2*%
X154900000Y-92710000D03*
%TO.P,U1,39,IO1*%
%TO.N,IO1*%
X154900000Y-91440000D03*
%TO.P,U1,40,GND*%
%TO.N,GND*%
X154900000Y-90170000D03*
D14*
%TO.P,U1,41,GND*%
X143250000Y-97190000D03*
X143250000Y-98590000D03*
X143950000Y-96490000D03*
X143950000Y-97890000D03*
X143950000Y-99290000D03*
X144650000Y-97190000D03*
D15*
X144650000Y-97890000D03*
D14*
X144650000Y-98590000D03*
X145350000Y-96490000D03*
X145350000Y-97890000D03*
X145350000Y-99290000D03*
X146050000Y-97190000D03*
X146050000Y-98590000D03*
%TD*%
D16*
%TO.P,C2,1*%
%TO.N,VIN*%
X119500000Y-108000000D03*
D17*
%TO.P,C2,2*%
%TO.N,GND*%
X117500000Y-108000000D03*
%TD*%
D18*
%TO.P,SW3,1,1*%
%TO.N,GND*%
X109930000Y-100040000D03*
X103430000Y-100040000D03*
%TO.P,SW3,2,2*%
%TO.N,EN*%
X109930000Y-95540000D03*
X103430000Y-95540000D03*
%TD*%
D16*
%TO.P,C4,1*%
%TO.N,3V3*%
X172000000Y-103000000D03*
D17*
%TO.P,C4,2*%
%TO.N,GND*%
X170000000Y-103000000D03*
%TD*%
D10*
%TO.P,J10,1,Pin_1*%
%TO.N,GND*%
X126492000Y-104902000D03*
D11*
%TO.P,J10,2,Pin_2*%
%TO.N,EN*%
X129032000Y-104902000D03*
%TO.P,J10,3,Pin_3*%
%TO.N,3V3*%
X131572000Y-104902000D03*
%TD*%
D10*
%TO.P,J9,1,Pin_1*%
%TO.N,IO13*%
X154940000Y-116840000D03*
D11*
%TO.P,J9,2,Pin_2*%
%TO.N,IO12*%
X152400000Y-116840000D03*
%TO.P,J9,3,Pin_3*%
%TO.N,IO11*%
X149860000Y-116840000D03*
%TO.P,J9,4,Pin_4*%
%TO.N,IO10*%
X147320000Y-116840000D03*
%TO.P,J9,5,Pin_5*%
%TO.N,IO9*%
X144780000Y-116840000D03*
%TO.P,J9,6,Pin_6*%
%TO.N,IO46*%
X142240000Y-116840000D03*
%TO.P,J9,7,Pin_7*%
%TO.N,IO3*%
X139700000Y-116840000D03*
%TD*%
D18*
%TO.P,SW2,1,1*%
%TO.N,GND*%
X179428000Y-106208000D03*
X185928000Y-106208000D03*
%TO.P,SW2,2,2*%
%TO.N,IO0*%
X179428000Y-110708000D03*
X185928000Y-110708000D03*
%TD*%
D19*
%TO.P,C5,1*%
%TO.N,3V3*%
X189992000Y-99253113D03*
D17*
%TO.P,C5,2*%
%TO.N,GND*%
X189992000Y-97253113D03*
%TD*%
D10*
%TO.P,J5,1,Pin_1*%
%TO.N,IO18*%
X107950000Y-114300000D03*
D11*
%TO.P,J5,2,Pin_2*%
%TO.N,IO8*%
X110490000Y-114300000D03*
%TO.P,J5,3,Pin_3*%
%TO.N,IO13*%
X113030000Y-114300000D03*
%TO.P,J5,4,Pin_4*%
%TO.N,IO12*%
X115570000Y-114300000D03*
%TO.P,J5,5,Pin_5*%
%TO.N,IO11*%
X118110000Y-114300000D03*
%TO.P,J5,6,Pin_6*%
%TO.N,IO10*%
X120650000Y-114300000D03*
%TO.P,J5,7,Pin_7*%
%TO.N,IO9*%
X123190000Y-114300000D03*
%TO.P,J5,8,Pin_8*%
%TO.N,IO46*%
X125730000Y-114300000D03*
%TO.P,J5,9,Pin_9*%
%TO.N,IO3*%
X128270000Y-114300000D03*
%TO.P,J5,10,Pin_10*%
%TO.N,VIN*%
X130810000Y-114300000D03*
%TD*%
D16*
%TO.P,C1,1*%
%TO.N,EN*%
X113731112Y-109474000D03*
D17*
%TO.P,C1,2*%
%TO.N,GND*%
X111731112Y-109474000D03*
%TD*%
D11*
%TO.P,J4,1,Pin_1*%
%TO.N,VIN*%
X137426000Y-120884000D03*
%TO.P,J4,2,Pin_2*%
%TO.N,D-*%
X139966000Y-120884000D03*
%TO.P,J4,3,Pin_3*%
%TO.N,D+*%
X142506000Y-120884000D03*
D10*
%TO.P,J4,4,Pin_4*%
%TO.N,GND*%
X155206000Y-120884000D03*
%TD*%
D17*
%TO.P,R7,1*%
%TO.N,3V3*%
X120904000Y-103378000D03*
%TO.P,R7,2*%
%TO.N,EN*%
X110744000Y-103378000D03*
%TD*%
D20*
%TO.P,D1,1,K*%
%TO.N,GND*%
X189484000Y-107950000D03*
D21*
%TO.P,D1,2,A*%
%TO.N,Net-(D1-A)*%
X192024000Y-107950000D03*
%TD*%
D17*
%TO.P,R8,1*%
%TO.N,Net-(D1-A)*%
X175768000Y-110998000D03*
%TO.P,R8,2*%
%TO.N,VIN*%
X175768000Y-100838000D03*
%TD*%
D10*
%TO.P,J2,1,Pin_1*%
%TO.N,IO42*%
X161290000Y-97010000D03*
D11*
%TO.P,J2,2,Pin_2*%
%TO.N,IO41*%
X163830000Y-97010000D03*
%TO.P,J2,3,Pin_3*%
%TO.N,IO40*%
X166370000Y-97010000D03*
%TO.P,J2,4,Pin_4*%
%TO.N,IO39*%
X168910000Y-97010000D03*
%TO.P,J2,5,Pin_5*%
%TO.N,IO38*%
X171450000Y-97010000D03*
%TD*%
D10*
%TO.P,J8,1,Pin_1*%
%TO.N,IO6*%
X130810000Y-97790000D03*
D11*
%TO.P,J8,2,Pin_2*%
%TO.N,IO7*%
X128270000Y-97790000D03*
%TO.P,J8,3,Pin_3*%
%TO.N,IO15*%
X125730000Y-97790000D03*
%TO.P,J8,4,Pin_4*%
%TO.N,IO16*%
X123190000Y-97790000D03*
%TO.P,J8,5,Pin_5*%
%TO.N,IO17*%
X120650000Y-97790000D03*
%TD*%
D22*
%TO.P,C3,1*%
%TO.N,VIN*%
X113344887Y-98298000D03*
D17*
%TO.P,C3,2*%
%TO.N,GND*%
X115344887Y-98298000D03*
%TD*%
D10*
%TO.P,J3,1,Pin_1*%
%TO.N,IO37*%
X170180000Y-107950000D03*
D11*
%TO.P,J3,2,Pin_2*%
%TO.N,IO36*%
X167640000Y-107950000D03*
%TO.P,J3,3,Pin_3*%
%TO.N,IO35*%
X165100000Y-107950000D03*
%TO.P,J3,4,Pin_4*%
%TO.N,IO45*%
X162560000Y-107950000D03*
%TO.P,J3,5,Pin_5*%
%TO.N,IO0*%
X160020000Y-107950000D03*
%TD*%
D17*
%TO.P,R6,1*%
%TO.N,3V3*%
X189484000Y-102870000D03*
%TO.P,R6,2*%
%TO.N,IO0*%
X179324000Y-102870000D03*
%TD*%
D20*
%TO.P,D2,1,K*%
%TO.N,GND*%
X106680000Y-110241000D03*
D21*
%TO.P,D2,2,A*%
%TO.N,Net-(D2-A)*%
X106680000Y-107701000D03*
%TD*%
D23*
%TO.P,U3,1,GND*%
%TO.N,GND*%
X185522000Y-99582000D03*
%TO.P,U3,2,VO*%
%TO.N,3V3*%
X185522000Y-97282000D03*
D24*
X179222000Y-97282000D03*
D23*
%TO.P,U3,3,VI*%
%TO.N,VIN*%
X185522000Y-94982000D03*
%TD*%
D17*
%TO.P,R9,1*%
%TO.N,Net-(D2-A)*%
X107188000Y-103378000D03*
%TO.P,R9,2*%
%TO.N,3V3*%
X97028000Y-103378000D03*
%TD*%
D10*
%TO.P,J1,1,Pin_1*%
%TO.N,3V3*%
X130810000Y-91440000D03*
D11*
%TO.P,J1,2,Pin_2*%
%TO.N,EN*%
X128270000Y-91440000D03*
%TO.P,J1,3,Pin_3*%
%TO.N,GND*%
X125730000Y-91440000D03*
%TO.P,J1,4,Pin_4*%
%TO.N,IO4*%
X123190000Y-91440000D03*
%TO.P,J1,5,Pin_5*%
%TO.N,IO5*%
X120650000Y-91440000D03*
%TO.P,J1,6,Pin_6*%
%TO.N,IO6*%
X118110000Y-91440000D03*
%TO.P,J1,7,Pin_7*%
%TO.N,IO7*%
X115570000Y-91440000D03*
%TO.P,J1,8,Pin_8*%
%TO.N,IO15*%
X113030000Y-91440000D03*
%TO.P,J1,9,Pin_9*%
%TO.N,IO17*%
X110490000Y-91440000D03*
%TO.P,J1,10,Pin_10*%
%TO.N,IO16*%
X107950000Y-91440000D03*
%TD*%
D25*
%TO.N,GND*%
X154940000Y-120762500D02*
X154940000Y-120650000D01*
X127381000Y-89789000D02*
X132546000Y-89789000D01*
X184150000Y-91440000D02*
X184150000Y-93177000D01*
X137019000Y-89789000D02*
X137400000Y-90170000D01*
X133265000Y-90170000D02*
X137400000Y-90170000D01*
X153070000Y-90170000D02*
X154900000Y-90170000D01*
X185522000Y-99582000D02*
X186168000Y-99582000D01*
X133096000Y-90339000D02*
X133265000Y-90170000D01*
X184150000Y-93177000D02*
X184404000Y-93431000D01*
X115344887Y-98891266D02*
X115344887Y-98298000D01*
X177768787Y-93431000D02*
X184404000Y-93431000D01*
X170151112Y-101048675D02*
X177768787Y-93431000D01*
X124134034Y-101643000D02*
X124723950Y-101643000D01*
X185522000Y-105802000D02*
X185928000Y-106208000D01*
X170151112Y-102870000D02*
X170151112Y-101048675D01*
X185522000Y-99582000D02*
X185522000Y-105802000D01*
X185928000Y-106208000D02*
X187742000Y-106208000D01*
X189992000Y-97253113D02*
X190585266Y-97253113D01*
X191593000Y-98260847D02*
X191593000Y-105841000D01*
X116487887Y-99441000D02*
X115344887Y-98298000D01*
X120949083Y-99441000D02*
X122506132Y-100998049D01*
X187742000Y-106208000D02*
X189484000Y-107950000D01*
X114196153Y-100040000D02*
X115344887Y-98891266D01*
X123489084Y-100998049D02*
X124134034Y-101643000D01*
X126492000Y-103411050D02*
X126492000Y-104902000D01*
X191593000Y-105841000D02*
X189484000Y-107950000D01*
X125730000Y-91440000D02*
X127381000Y-89789000D01*
X132546000Y-89789000D02*
X133096000Y-90339000D01*
X190585266Y-97253113D02*
X191593000Y-98260847D01*
X124723950Y-101643000D02*
X126492000Y-103411050D01*
X120949083Y-99441000D02*
X116487887Y-99441000D01*
X109930000Y-100040000D02*
X114196153Y-100040000D01*
X185522000Y-101172156D02*
X185522000Y-99582000D01*
X145350000Y-97890000D02*
X145350000Y-96588000D01*
X145350000Y-97890000D02*
X153070000Y-90170000D01*
X138932000Y-90170000D02*
X137400000Y-90170000D01*
X122506132Y-100998049D02*
X123489084Y-100998049D01*
X145350000Y-96588000D02*
X138932000Y-90170000D01*
%TO.N,EN*%
X133350000Y-92710000D02*
X137400000Y-92710000D01*
X109930000Y-95540000D02*
X108129000Y-97341000D01*
X124267900Y-102744000D02*
X123580951Y-102744000D01*
X128270000Y-92642081D02*
X128718919Y-93091000D01*
X108129000Y-97341000D02*
X108129000Y-102054844D01*
X112345000Y-101777000D02*
X110744000Y-103378000D01*
X124841000Y-106552998D02*
X124841000Y-103317100D01*
X121728033Y-101777000D02*
X112345000Y-101777000D01*
X122936000Y-102099049D02*
X122050082Y-102099049D01*
X126533000Y-108245000D02*
X124841000Y-106552998D01*
X108129000Y-102054844D02*
X109452156Y-103378000D01*
X132969000Y-93091000D02*
X133350000Y-92710000D01*
X109452156Y-103378000D02*
X110744000Y-103378000D01*
X122050082Y-102099049D02*
X121728033Y-101777000D01*
X129032000Y-104902000D02*
X129032000Y-108245000D01*
X123580951Y-102744000D02*
X122936000Y-102099049D01*
X129032000Y-108245000D02*
X126533000Y-108245000D01*
X128270000Y-91440000D02*
X128270000Y-92642081D01*
X124841000Y-103317100D02*
X124267900Y-102744000D01*
X128718919Y-93091000D02*
X132969000Y-93091000D01*
%TO.N,Net-(D1-A)*%
X177279000Y-112509000D02*
X188327000Y-112509000D01*
X175768000Y-110998000D02*
X177279000Y-112509000D01*
X188327000Y-112509000D02*
X192024000Y-108812000D01*
X192024000Y-108812000D02*
X192024000Y-107950000D01*
%TO.N,IO9*%
X144780000Y-116840000D02*
X144780000Y-114874100D01*
X144780000Y-114874100D02*
X141705000Y-111799100D01*
X141705000Y-111799100D02*
X141705000Y-107930000D01*
%TO.N,IO8*%
X118519156Y-106349000D02*
X118596156Y-106426000D01*
X130716050Y-112649000D02*
X131493867Y-112649000D01*
X118596156Y-106426000D02*
X118786734Y-106426000D01*
X118863734Y-106349000D02*
X120848266Y-106349000D01*
X121538000Y-107038734D02*
X121538000Y-107921147D01*
X129615050Y-111548000D02*
X130716050Y-112649000D01*
X120848266Y-106349000D02*
X121538000Y-107038734D01*
X117115844Y-106426000D02*
X117192844Y-106349000D01*
X110490000Y-114300000D02*
X113715000Y-111075000D01*
X125164853Y-111548000D02*
X129615050Y-111548000D01*
X131493867Y-112649000D02*
X132043867Y-113199000D01*
X115901000Y-107132844D02*
X116607844Y-106426000D01*
X117192844Y-106349000D02*
X118519156Y-106349000D01*
X115901000Y-110466266D02*
X115901000Y-107132844D01*
X132043867Y-113199000D02*
X134998000Y-113199000D01*
X134998000Y-105010000D02*
X135849000Y-104159000D01*
X137400000Y-104140000D02*
X135684867Y-104140000D01*
X113715000Y-111075000D02*
X115292266Y-111075000D01*
X134998000Y-113199000D02*
X134998000Y-105010000D01*
X118786734Y-106426000D02*
X118863734Y-106349000D01*
X116607844Y-106426000D02*
X117115844Y-106426000D01*
X121538000Y-107921147D02*
X125164853Y-111548000D01*
X115292266Y-111075000D02*
X115901000Y-110466266D01*
%TO.N,3V3*%
X131572000Y-107950000D02*
X130176000Y-109346000D01*
X130176000Y-109346000D02*
X126076951Y-109346000D01*
X130810000Y-91440000D02*
X137400000Y-91440000D01*
X176000156Y-102870000D02*
X179222000Y-99648156D01*
X185522000Y-97282000D02*
X186968725Y-97282000D01*
X113008156Y-103378000D02*
X111407156Y-104979000D01*
X98629000Y-104979000D02*
X97028000Y-103378000D01*
X188939838Y-99253113D02*
X189992000Y-99253113D01*
X121371000Y-103845000D02*
X120904000Y-103378000D01*
X123740000Y-107009047D02*
X123740000Y-103845000D01*
X179222000Y-99648156D02*
X179222000Y-97282000D01*
X120904000Y-103378000D02*
X113008156Y-103378000D01*
X186968725Y-97282000D02*
X188939838Y-99253113D01*
X126076951Y-109346000D02*
X123740000Y-107009047D01*
X123740000Y-103845000D02*
X121371000Y-103845000D01*
X179222000Y-97282000D02*
X185522000Y-97282000D01*
X111407156Y-104979000D02*
X98629000Y-104979000D01*
X131572000Y-104902000D02*
X131572000Y-107950000D01*
X172151112Y-102870000D02*
X176000156Y-102870000D01*
%TO.N,IO13*%
X151985000Y-113885000D02*
X150059805Y-113885000D01*
X154940000Y-116840000D02*
X151985000Y-113885000D01*
X146785000Y-110610195D02*
X146785000Y-107930000D01*
X150059805Y-113885000D02*
X146785000Y-110610195D01*
%TO.N,IO3*%
X139700000Y-116840000D02*
X139165000Y-116305000D01*
X139165000Y-116305000D02*
X139165000Y-107930000D01*
%TO.N,IO11*%
X144245000Y-107930000D02*
X144245000Y-111225000D01*
X144245000Y-111225000D02*
X149860000Y-116840000D01*
%TO.N,IO14*%
X148074000Y-107930000D02*
X148074000Y-109481000D01*
X150515854Y-112784000D02*
X155754150Y-112783999D01*
X148224000Y-109481000D02*
X148224000Y-110492148D01*
X159131000Y-115951000D02*
X162179000Y-115951000D01*
X162179000Y-115951000D02*
X163830000Y-114300000D01*
X148055000Y-107930000D02*
X148074000Y-107930000D01*
X155859074Y-112679074D02*
X159131000Y-115951000D01*
X155754150Y-112783999D02*
X155859074Y-112679074D01*
X148224000Y-110492148D02*
X150515854Y-112784000D01*
X148074000Y-109481000D02*
X148224000Y-109481000D01*
%TO.N,IO12*%
X149603755Y-114986000D02*
X150546000Y-114986000D01*
X145515000Y-110897245D02*
X149603755Y-114986000D01*
X145515000Y-107930000D02*
X145515000Y-110897245D01*
X150546000Y-114986000D02*
X152400000Y-116840000D01*
%TO.N,IO6*%
X130810000Y-97790000D02*
X132080000Y-96520000D01*
X132080000Y-96520000D02*
X137400000Y-96520000D01*
%TO.N,IO5*%
X135871000Y-95231000D02*
X135890000Y-95250000D01*
X120650000Y-91440000D02*
X124503000Y-95293000D01*
X134093100Y-95081000D02*
X135721000Y-95081000D01*
X136624100Y-95250000D02*
X136605100Y-95269000D01*
X135849000Y-95209000D02*
X135849000Y-95231000D01*
X120869131Y-91440000D02*
X120650000Y-91659131D01*
X135849000Y-95231000D02*
X135871000Y-95231000D01*
X120650000Y-91659131D02*
X120650000Y-91440000D01*
X137400000Y-95250000D02*
X136624100Y-95250000D01*
X133881100Y-95293000D02*
X134093100Y-95081000D01*
X135721000Y-95081000D02*
X135849000Y-95209000D01*
X135890000Y-95250000D02*
X137400000Y-95250000D01*
X124503000Y-95293000D02*
X133881100Y-95293000D01*
%TO.N,IO10*%
X147320000Y-115857050D02*
X142975000Y-111512050D01*
X142975000Y-111512050D02*
X142975000Y-107930000D01*
X147320000Y-116840000D02*
X147320000Y-115857050D01*
%TO.N,IO7*%
X132461000Y-97696050D02*
X132536050Y-97621000D01*
X128270000Y-97790000D02*
X129159000Y-97790000D01*
X132461000Y-99441000D02*
X132461000Y-97696050D01*
X129159000Y-97790000D02*
X129159000Y-99441000D01*
X132536050Y-97621000D02*
X135699000Y-97621000D01*
X135868000Y-97790000D02*
X137400000Y-97790000D01*
X129159000Y-99441000D02*
X132461000Y-99441000D01*
X135699000Y-97621000D02*
X135868000Y-97790000D01*
%TO.N,VIN*%
X119856000Y-107950000D02*
X119856000Y-108242000D01*
X134998000Y-114300000D02*
X130810000Y-114300000D01*
X129159000Y-112649000D02*
X130810000Y-114300000D01*
X137160000Y-119779550D02*
X134998000Y-117617549D01*
X130810000Y-114300000D02*
X130620000Y-114300000D01*
X134998000Y-117617549D02*
X134998000Y-114300000D01*
X185121000Y-94581000D02*
X185522000Y-94982000D01*
X178175836Y-94581000D02*
X185121000Y-94581000D01*
X137160000Y-120762500D02*
X137160000Y-119779550D01*
X175768000Y-96988836D02*
X178175836Y-94581000D01*
X124263000Y-112649000D02*
X129159000Y-112649000D01*
X119856000Y-108242000D02*
X124263000Y-112649000D01*
X175768000Y-100838000D02*
X175768000Y-96988836D01*
%TO.N,IO4*%
X123190000Y-91440000D02*
X125942000Y-94192000D01*
X125942000Y-94192000D02*
X133425050Y-94192000D01*
X133637050Y-93980000D02*
X137400000Y-93980000D01*
X133425050Y-94192000D02*
X133637050Y-93980000D01*
%TO.N,IO1*%
X163381081Y-89789000D02*
X163830000Y-90237919D01*
X163830000Y-90237919D02*
X163830000Y-91440000D01*
X157988000Y-91440000D02*
X159639000Y-89789000D01*
X154900000Y-91440000D02*
X157988000Y-91440000D01*
X159639000Y-89789000D02*
X163381081Y-89789000D01*
%TO.N,IO2*%
X160020000Y-92710000D02*
X161290000Y-91440000D01*
X154900000Y-92710000D02*
X160020000Y-92710000D01*
%TO.N,IO0*%
X177627000Y-104567000D02*
X177627000Y-108907000D01*
X177627000Y-108907000D02*
X179428000Y-110708000D01*
X185928000Y-109474000D02*
X179324000Y-102870000D01*
X154900000Y-106680000D02*
X158750000Y-106680000D01*
X179324000Y-102870000D02*
X177627000Y-104567000D01*
X185928000Y-110708000D02*
X185928000Y-109474000D01*
X158750000Y-106680000D02*
X160020000Y-107950000D01*
%TO.N,IO39*%
X154900000Y-100330000D02*
X158193901Y-100330000D01*
X168910000Y-97229131D02*
X168910000Y-97010000D01*
X158726901Y-100863000D02*
X165276131Y-100863000D01*
X158193901Y-100330000D02*
X158726901Y-100863000D01*
X165276131Y-100863000D02*
X168910000Y-97229131D01*
%TO.N,IO41*%
X154900000Y-97790000D02*
X158768000Y-97790000D01*
X158768000Y-97790000D02*
X159639000Y-98661000D01*
X159639000Y-98661000D02*
X163381081Y-98661000D01*
X163381081Y-98661000D02*
X163830000Y-98212081D01*
X163830000Y-98212081D02*
X163830000Y-97010000D01*
%TO.N,IO40*%
X166370000Y-98212081D02*
X166370000Y-97010000D01*
X164820081Y-99762000D02*
X166370000Y-98212081D01*
X158480950Y-99060000D02*
X159182950Y-99762000D01*
X154900000Y-99060000D02*
X158480950Y-99060000D01*
X159182950Y-99762000D02*
X164820081Y-99762000D01*
%TO.N,IO47*%
X158524560Y-111903525D02*
X164956475Y-111903525D01*
X150764000Y-109580049D02*
X150764000Y-109918050D01*
X150764000Y-109918050D02*
X151427951Y-110582000D01*
X166370000Y-113317050D02*
X166370000Y-114300000D01*
X150595000Y-107930000D02*
X150595000Y-109749049D01*
X151427951Y-110582000D02*
X154842049Y-110582000D01*
X156942034Y-110321000D02*
X158524560Y-111903525D01*
X164956475Y-111903525D02*
X166370000Y-113317050D01*
X155103049Y-110321000D02*
X156942034Y-110321000D01*
X154842049Y-110582000D02*
X155103049Y-110321000D01*
X150595000Y-109749049D02*
X150764000Y-109580049D01*
%TO.N,TXD0*%
X163830000Y-93980000D02*
X166370000Y-91440000D01*
X154900000Y-93980000D02*
X163830000Y-93980000D01*
%TO.N,IO45*%
X161671000Y-108633867D02*
X161671000Y-107950000D01*
X161671000Y-107950000D02*
X162560000Y-107950000D01*
X153135000Y-107930000D02*
X153155000Y-107950000D01*
X153155000Y-107950000D02*
X158369000Y-107950000D01*
X158369000Y-107950000D02*
X158369000Y-108633867D01*
X159336133Y-109601000D02*
X160703867Y-109601000D01*
X158369000Y-108633866D02*
X159336134Y-109601000D01*
X158369000Y-108633867D02*
X159336133Y-109601000D01*
X160703867Y-109601000D02*
X161671000Y-108633867D01*
X158369000Y-107950000D02*
X158369000Y-108633866D01*
%TO.N,IO18*%
X135636000Y-102870000D02*
X135260197Y-102870000D01*
X133897000Y-110197000D02*
X133897000Y-104553950D01*
X116736795Y-105248000D02*
X121304316Y-105248000D01*
X116659794Y-105325000D02*
X116736795Y-105248000D01*
X114800000Y-106676794D02*
X116151795Y-105325000D01*
X133897000Y-104553950D02*
X134583867Y-103867083D01*
X135397818Y-102870000D02*
X135636000Y-102870000D01*
X108381000Y-113869000D02*
X108381000Y-110559956D01*
X112264162Y-106676794D02*
X114800000Y-106676794D01*
X107950000Y-114300000D02*
X108381000Y-113869000D01*
X122639000Y-107465097D02*
X125620903Y-110447000D01*
X122639000Y-106582685D02*
X122639000Y-107465097D01*
X134583867Y-103867083D02*
X134583867Y-103683951D01*
X137400000Y-102870000D02*
X135636000Y-102870000D01*
X108381000Y-110559956D02*
X112264162Y-106676794D01*
X134583867Y-103683951D02*
X135397818Y-102870000D01*
X121304316Y-105248000D02*
X122639000Y-106582685D01*
X116151795Y-105325000D02*
X116659794Y-105325000D01*
X133647000Y-110447000D02*
X133897000Y-110197000D01*
X125620903Y-110447000D02*
X133647000Y-110447000D01*
%TO.N,IO21*%
X155559098Y-111422000D02*
X156485985Y-111422000D01*
X149494000Y-109867098D02*
X149494000Y-110205099D01*
X159363985Y-114300000D02*
X161290000Y-114300000D01*
X149325000Y-110036098D02*
X149494000Y-109867098D01*
X149494000Y-110205099D02*
X150971903Y-111683000D01*
X149325000Y-107930000D02*
X149325000Y-110036098D01*
X156485985Y-111422000D02*
X159363985Y-114300000D01*
X150971903Y-111683000D02*
X155298099Y-111683000D01*
X155298099Y-111683000D02*
X155559098Y-111422000D01*
%TO.N,IO48*%
X165312000Y-110702000D02*
X168910000Y-114300000D01*
X157398084Y-109220000D02*
X158880084Y-110702000D01*
X151884000Y-109443000D02*
X151884000Y-109481000D01*
X151865000Y-107930000D02*
X151865000Y-109462000D01*
X158880084Y-110702000D02*
X165312000Y-110702000D01*
X151865000Y-109462000D02*
X151884000Y-109443000D01*
X151884000Y-109481000D02*
X154386000Y-109481000D01*
X154386000Y-109481000D02*
X154386000Y-109220000D01*
X154386000Y-109220000D02*
X157398084Y-109220000D01*
%TO.N,IO17*%
X127382000Y-102744000D02*
X133829147Y-102744000D01*
X133829147Y-102744000D02*
X134973148Y-101600000D01*
X122506133Y-99441000D02*
X123489084Y-99441000D01*
X125180000Y-100542000D02*
X127382000Y-102744000D01*
X120650000Y-97790000D02*
X121539000Y-97790000D01*
X121539000Y-97790000D02*
X121539000Y-98473867D01*
X134973148Y-101600000D02*
X137400000Y-101600000D01*
X123489084Y-99441000D02*
X124590084Y-100542000D01*
X124590084Y-100542000D02*
X125180000Y-100542000D01*
X121539000Y-98473867D02*
X122506133Y-99441000D01*
%TO.N,RXD0*%
X154900000Y-95250000D02*
X165100000Y-95250000D01*
X165100000Y-95250000D02*
X168910000Y-91440000D01*
%TO.N,IO38*%
X157906852Y-101600000D02*
X158270852Y-101964000D01*
X158270852Y-101964000D02*
X166496000Y-101964000D01*
X154900000Y-101600000D02*
X157906852Y-101600000D01*
X166496000Y-101964000D02*
X171450000Y-97010000D01*
%TO.N,IO35*%
X154900000Y-105410000D02*
X162560000Y-105410000D01*
X162560000Y-105410000D02*
X165100000Y-107950000D01*
%TO.N,IO36*%
X154900000Y-104140000D02*
X157332754Y-104140000D01*
X154900000Y-104140000D02*
X154919000Y-104159000D01*
X157358753Y-104165999D02*
X163856000Y-104166000D01*
X163856000Y-104166000D02*
X167640000Y-107950000D01*
X157332754Y-104140000D02*
X157358753Y-104165999D01*
%TO.N,IO46*%
X142240000Y-116840000D02*
X140435000Y-115035000D01*
X140435000Y-115035000D02*
X140435000Y-107930000D01*
%TO.N,IO37*%
X157814803Y-103065000D02*
X165295000Y-103065000D01*
X157619802Y-102870000D02*
X157814803Y-103065000D01*
X154900000Y-102870000D02*
X157619802Y-102870000D01*
X165295000Y-103065000D02*
X170180000Y-107950000D01*
%TO.N,IO42*%
X160800000Y-96520000D02*
X161290000Y-97010000D01*
X154900000Y-96520000D02*
X160800000Y-96520000D01*
%TO.N,D-*%
X137400000Y-105410000D02*
X136368000Y-105410000D01*
X136368000Y-105410000D02*
X136099000Y-105679000D01*
X136099000Y-105679000D02*
X136099000Y-117161500D01*
X136099000Y-117161500D02*
X139700000Y-120762500D01*
%TO.N,D+*%
X137400000Y-116874867D02*
X139016133Y-118491000D01*
X137400000Y-106680000D02*
X137400000Y-116874867D01*
X139968500Y-118491000D02*
X142240000Y-120762500D01*
X139016133Y-118491000D02*
X139968500Y-118491000D01*
%TO.N,IO16*%
X128025950Y-101643000D02*
X125823950Y-99441000D01*
X125823950Y-99441000D02*
X125046133Y-99441000D01*
X124079000Y-97790000D02*
X123190000Y-97790000D01*
X133373098Y-101643000D02*
X128025950Y-101643000D01*
X134663000Y-100353099D02*
X133373098Y-101643000D01*
X134738050Y-100161000D02*
X134663000Y-100161000D01*
X124079000Y-98473867D02*
X124079000Y-97790000D01*
X134663000Y-100161000D02*
X134663000Y-100353099D01*
X137400000Y-100330000D02*
X134907050Y-100330000D01*
X125046133Y-99441000D02*
X124079000Y-98473867D01*
X134907050Y-100330000D02*
X134738050Y-100161000D01*
%TO.N,IO15*%
X132917049Y-100542000D02*
X133562000Y-99897049D01*
X133562000Y-99060000D02*
X137400000Y-99060000D01*
X133562000Y-99897049D02*
X133562000Y-99060000D01*
X125730000Y-97790000D02*
X128482000Y-100542000D01*
X128482000Y-100542000D02*
X132917049Y-100542000D01*
%TD*%
%TA.AperFunction,Conductor*%
%TO.N,VIN*%
G36*
X135219900Y-113991114D02*
G01*
X135275077Y-114033977D01*
X135298322Y-114099867D01*
X135298500Y-114106504D01*
X135298500Y-117240346D01*
X135329261Y-117394989D01*
X135329264Y-117395001D01*
X135389602Y-117540672D01*
X135389609Y-117540685D01*
X135477210Y-117671788D01*
X135477213Y-117671792D01*
X137165221Y-119359799D01*
X137198706Y-119421122D01*
X137193722Y-119490814D01*
X137151850Y-119546747D01*
X137114101Y-119564488D01*
X137114507Y-119565736D01*
X136907782Y-119632904D01*
X136718439Y-119729380D01*
X136664282Y-119768727D01*
X136664282Y-119768728D01*
X137296591Y-120401037D01*
X137233007Y-120418075D01*
X137118993Y-120483901D01*
X137025901Y-120576993D01*
X136960075Y-120691007D01*
X136943037Y-120754591D01*
X136310728Y-120122282D01*
X136310727Y-120122282D01*
X136271380Y-120176439D01*
X136174904Y-120365782D01*
X136109242Y-120567869D01*
X136109242Y-120567872D01*
X136076000Y-120777753D01*
X136076000Y-120990246D01*
X136109242Y-121200127D01*
X136109242Y-121200130D01*
X136174904Y-121402217D01*
X136271375Y-121591550D01*
X136310728Y-121645716D01*
X136943037Y-121013408D01*
X136960075Y-121076993D01*
X137025901Y-121191007D01*
X137118993Y-121284099D01*
X137233007Y-121349925D01*
X137296590Y-121366962D01*
X136664282Y-121999269D01*
X136664282Y-121999270D01*
X136718449Y-122038624D01*
X136907782Y-122135095D01*
X137109870Y-122200757D01*
X137319754Y-122234000D01*
X137532246Y-122234000D01*
X137742127Y-122200757D01*
X137742130Y-122200757D01*
X137944217Y-122135095D01*
X138133554Y-122038622D01*
X138187716Y-121999270D01*
X138187717Y-121999270D01*
X137555408Y-121366962D01*
X137618993Y-121349925D01*
X137733007Y-121284099D01*
X137826099Y-121191007D01*
X137891925Y-121076993D01*
X137908962Y-121013408D01*
X138541270Y-121645717D01*
X138541270Y-121645716D01*
X138580622Y-121591555D01*
X138585232Y-121582507D01*
X138633205Y-121531709D01*
X138701025Y-121514912D01*
X138767161Y-121537447D01*
X138806204Y-121582504D01*
X138810949Y-121591817D01*
X138935890Y-121763786D01*
X139086213Y-121914109D01*
X139258179Y-122039048D01*
X139258181Y-122039049D01*
X139258184Y-122039051D01*
X139447588Y-122135557D01*
X139649757Y-122201246D01*
X139859713Y-122234500D01*
X139859714Y-122234500D01*
X140072286Y-122234500D01*
X140072287Y-122234500D01*
X140282243Y-122201246D01*
X140484412Y-122135557D01*
X140673816Y-122039051D01*
X140728572Y-121999269D01*
X140845786Y-121914109D01*
X140845788Y-121914106D01*
X140845792Y-121914104D01*
X140996104Y-121763792D01*
X140996106Y-121763788D01*
X140996109Y-121763786D01*
X141121048Y-121591820D01*
X141121050Y-121591817D01*
X141121051Y-121591816D01*
X141125514Y-121583054D01*
X141173488Y-121532259D01*
X141241308Y-121515463D01*
X141307444Y-121537999D01*
X141346486Y-121583056D01*
X141350951Y-121591820D01*
X141475890Y-121763786D01*
X141626213Y-121914109D01*
X141798179Y-122039048D01*
X141798181Y-122039049D01*
X141798184Y-122039051D01*
X141987588Y-122135557D01*
X142189757Y-122201246D01*
X142399713Y-122234500D01*
X142399714Y-122234500D01*
X142612286Y-122234500D01*
X142612287Y-122234500D01*
X142822243Y-122201246D01*
X143024412Y-122135557D01*
X143213816Y-122039051D01*
X143268572Y-121999269D01*
X143385786Y-121914109D01*
X143385788Y-121914106D01*
X143385792Y-121914104D01*
X143536104Y-121763792D01*
X143536106Y-121763788D01*
X143536109Y-121763786D01*
X143661048Y-121591820D01*
X143661050Y-121591817D01*
X143661051Y-121591816D01*
X143757557Y-121402412D01*
X143823246Y-121200243D01*
X143856500Y-120990287D01*
X143856500Y-120777713D01*
X143823246Y-120567757D01*
X143757557Y-120365588D01*
X143661051Y-120176184D01*
X143661049Y-120176181D01*
X143661048Y-120176179D01*
X143536109Y-120004213D01*
X143385786Y-119853890D01*
X143213820Y-119728951D01*
X143024414Y-119632444D01*
X143024413Y-119632443D01*
X143024412Y-119632443D01*
X142822243Y-119566754D01*
X142822241Y-119566753D01*
X142822240Y-119566753D01*
X142660957Y-119541208D01*
X142612287Y-119533500D01*
X142399713Y-119533500D01*
X142240569Y-119558705D01*
X142171276Y-119549750D01*
X142133491Y-119523913D01*
X140617418Y-118007840D01*
X140583933Y-117946517D01*
X140588917Y-117876825D01*
X140617418Y-117832478D01*
X140730104Y-117719792D01*
X140730106Y-117719788D01*
X140730109Y-117719786D01*
X140855048Y-117547820D01*
X140855047Y-117547820D01*
X140855051Y-117547816D01*
X140859514Y-117539054D01*
X140907488Y-117488259D01*
X140975308Y-117471463D01*
X141041444Y-117493999D01*
X141080486Y-117539056D01*
X141084951Y-117547820D01*
X141209890Y-117719786D01*
X141360213Y-117870109D01*
X141532179Y-117995048D01*
X141532181Y-117995049D01*
X141532184Y-117995051D01*
X141721588Y-118091557D01*
X141923757Y-118157246D01*
X142133713Y-118190500D01*
X142133714Y-118190500D01*
X142346286Y-118190500D01*
X142346287Y-118190500D01*
X142556243Y-118157246D01*
X142758412Y-118091557D01*
X142947816Y-117995051D01*
X143014618Y-117946517D01*
X143119786Y-117870109D01*
X143119788Y-117870106D01*
X143119792Y-117870104D01*
X143270104Y-117719792D01*
X143270106Y-117719788D01*
X143270109Y-117719786D01*
X143395048Y-117547820D01*
X143395047Y-117547820D01*
X143395051Y-117547816D01*
X143399514Y-117539054D01*
X143447488Y-117488259D01*
X143515308Y-117471463D01*
X143581444Y-117493999D01*
X143620486Y-117539056D01*
X143624951Y-117547820D01*
X143749890Y-117719786D01*
X143900213Y-117870109D01*
X144072179Y-117995048D01*
X144072181Y-117995049D01*
X144072184Y-117995051D01*
X144261588Y-118091557D01*
X144463757Y-118157246D01*
X144673713Y-118190500D01*
X144673714Y-118190500D01*
X144886286Y-118190500D01*
X144886287Y-118190500D01*
X145096243Y-118157246D01*
X145298412Y-118091557D01*
X145487816Y-117995051D01*
X145554618Y-117946517D01*
X145659786Y-117870109D01*
X145659788Y-117870106D01*
X145659792Y-117870104D01*
X145810104Y-117719792D01*
X145810106Y-117719788D01*
X145810109Y-117719786D01*
X145935048Y-117547820D01*
X145935047Y-117547820D01*
X145935051Y-117547816D01*
X145939514Y-117539054D01*
X145987488Y-117488259D01*
X146055308Y-117471463D01*
X146121444Y-117493999D01*
X146160486Y-117539056D01*
X146164951Y-117547820D01*
X146289890Y-117719786D01*
X146440213Y-117870109D01*
X146612179Y-117995048D01*
X146612181Y-117995049D01*
X146612184Y-117995051D01*
X146801588Y-118091557D01*
X147003757Y-118157246D01*
X147213713Y-118190500D01*
X147213714Y-118190500D01*
X147426286Y-118190500D01*
X147426287Y-118190500D01*
X147636243Y-118157246D01*
X147838412Y-118091557D01*
X148027816Y-117995051D01*
X148094618Y-117946517D01*
X148199786Y-117870109D01*
X148199788Y-117870106D01*
X148199792Y-117870104D01*
X148350104Y-117719792D01*
X148350106Y-117719788D01*
X148350109Y-117719786D01*
X148475048Y-117547820D01*
X148475047Y-117547820D01*
X148475051Y-117547816D01*
X148479514Y-117539054D01*
X148527488Y-117488259D01*
X148595308Y-117471463D01*
X148661444Y-117493999D01*
X148700486Y-117539056D01*
X148704951Y-117547820D01*
X148829890Y-117719786D01*
X148980213Y-117870109D01*
X149152179Y-117995048D01*
X149152181Y-117995049D01*
X149152184Y-117995051D01*
X149341588Y-118091557D01*
X149366838Y-118099761D01*
X149424511Y-118139195D01*
X149451711Y-118203553D01*
X149452520Y-118217691D01*
X149452520Y-122565500D01*
X149432835Y-122632539D01*
X149380031Y-122678294D01*
X149328520Y-122689500D01*
X133974500Y-122689500D01*
X133907461Y-122669815D01*
X133861706Y-122617011D01*
X133850500Y-122565500D01*
X133850500Y-116774110D01*
X133850500Y-116774108D01*
X133816392Y-116646814D01*
X133750500Y-116532686D01*
X133657314Y-116439500D01*
X133551398Y-116378349D01*
X133543187Y-116373608D01*
X133479539Y-116356554D01*
X133415892Y-116339500D01*
X133415891Y-116339500D01*
X131576520Y-116339500D01*
X131509481Y-116319815D01*
X131463726Y-116267011D01*
X131452520Y-116215500D01*
X131452520Y-115563746D01*
X131472205Y-115496707D01*
X131514302Y-115458627D01*
X131513406Y-115457164D01*
X131517557Y-115454620D01*
X131571716Y-115415270D01*
X131571717Y-115415270D01*
X131452520Y-115296073D01*
X131452520Y-114588966D01*
X131925270Y-115061717D01*
X131925270Y-115061716D01*
X131964622Y-115007554D01*
X132061095Y-114818217D01*
X132126757Y-114616130D01*
X132126757Y-114616127D01*
X132160000Y-114406246D01*
X132160000Y-114193754D01*
X132151945Y-114142898D01*
X132160899Y-114073605D01*
X132205895Y-114020153D01*
X132272647Y-113999513D01*
X132274418Y-113999500D01*
X135076844Y-113999500D01*
X135076845Y-113999499D01*
X135109555Y-113992993D01*
X135150309Y-113984887D01*
X135219900Y-113991114D01*
G37*
%TD.AperFunction*%
%TA.AperFunction,Conductor*%
G36*
X131363554Y-114500000D02*
G01*
X131271880Y-114500000D01*
X131275925Y-114492993D01*
X131292962Y-114429408D01*
X131363554Y-114500000D01*
G37*
%TD.AperFunction*%
%TA.AperFunction,Conductor*%
G36*
X119750000Y-109299999D02*
G01*
X120099972Y-109299999D01*
X120099986Y-109299998D01*
X120202697Y-109289505D01*
X120369119Y-109234358D01*
X120369124Y-109234356D01*
X120518345Y-109142315D01*
X120642315Y-109018345D01*
X120734356Y-108869124D01*
X120734358Y-108869119D01*
X120789505Y-108702697D01*
X120789506Y-108702689D01*
X120799873Y-108601217D01*
X120826269Y-108536525D01*
X120883449Y-108496374D01*
X120953260Y-108493510D01*
X121010912Y-108526138D01*
X124654560Y-112169786D01*
X124654564Y-112169789D01*
X124785667Y-112257390D01*
X124785671Y-112257392D01*
X124785674Y-112257394D01*
X124931356Y-112317738D01*
X125051015Y-112341539D01*
X125086006Y-112348499D01*
X125086010Y-112348500D01*
X125086011Y-112348500D01*
X125243696Y-112348500D01*
X129232110Y-112348500D01*
X129299149Y-112368185D01*
X129319791Y-112384819D01*
X130013071Y-113078099D01*
X130046556Y-113139422D01*
X130049008Y-113175510D01*
X130048282Y-113184728D01*
X130680591Y-113817037D01*
X130617007Y-113834075D01*
X130502993Y-113899901D01*
X130409901Y-113992993D01*
X130344075Y-114107007D01*
X130327037Y-114170591D01*
X129694728Y-113538282D01*
X129694727Y-113538282D01*
X129655380Y-113592440D01*
X129655376Y-113592446D01*
X129650760Y-113601505D01*
X129602781Y-113652297D01*
X129534959Y-113669087D01*
X129468826Y-113646543D01*
X129429794Y-113601493D01*
X129425051Y-113592184D01*
X129425049Y-113592181D01*
X129425048Y-113592179D01*
X129300109Y-113420213D01*
X129149786Y-113269890D01*
X128977820Y-113144951D01*
X128788414Y-113048444D01*
X128788413Y-113048443D01*
X128788412Y-113048443D01*
X128586243Y-112982754D01*
X128586241Y-112982753D01*
X128586240Y-112982753D01*
X128424957Y-112957208D01*
X128376287Y-112949500D01*
X128163713Y-112949500D01*
X128115042Y-112957208D01*
X127953760Y-112982753D01*
X127751585Y-113048444D01*
X127562179Y-113144951D01*
X127390213Y-113269890D01*
X127239890Y-113420213D01*
X127114949Y-113592182D01*
X127110484Y-113600946D01*
X127062509Y-113651742D01*
X126994688Y-113668536D01*
X126928553Y-113645998D01*
X126889516Y-113600946D01*
X126885050Y-113592182D01*
X126760109Y-113420213D01*
X126609786Y-113269890D01*
X126437820Y-113144951D01*
X126248414Y-113048444D01*
X126248413Y-113048443D01*
X126248412Y-113048443D01*
X126046243Y-112982754D01*
X126046241Y-112982753D01*
X126046240Y-112982753D01*
X125884957Y-112957208D01*
X125836287Y-112949500D01*
X125623713Y-112949500D01*
X125575042Y-112957208D01*
X125413760Y-112982753D01*
X125211585Y-113048444D01*
X125022179Y-113144951D01*
X124850213Y-113269890D01*
X124699890Y-113420213D01*
X124574949Y-113592182D01*
X124570484Y-113600946D01*
X124522509Y-113651742D01*
X124454688Y-113668536D01*
X124388553Y-113645998D01*
X124349516Y-113600946D01*
X124345050Y-113592182D01*
X124220109Y-113420213D01*
X124069786Y-113269890D01*
X123897820Y-113144951D01*
X123708414Y-113048444D01*
X123708413Y-113048443D01*
X123708412Y-113048443D01*
X123506243Y-112982754D01*
X123506241Y-112982753D01*
X123506240Y-112982753D01*
X123344957Y-112957208D01*
X123296287Y-112949500D01*
X123083713Y-112949500D01*
X123035042Y-112957208D01*
X122873760Y-112982753D01*
X122671585Y-113048444D01*
X122482179Y-113144951D01*
X122310213Y-113269890D01*
X122159890Y-113420213D01*
X122034949Y-113592182D01*
X122030484Y-113600946D01*
X121982509Y-113651742D01*
X121914688Y-113668536D01*
X121848553Y-113645998D01*
X121809516Y-113600946D01*
X121805050Y-113592182D01*
X121680109Y-113420213D01*
X121529786Y-113269890D01*
X121357820Y-113144951D01*
X121168414Y-113048444D01*
X121168413Y-113048443D01*
X121168412Y-113048443D01*
X120966243Y-112982754D01*
X120966241Y-112982753D01*
X120966240Y-112982753D01*
X120804957Y-112957208D01*
X120756287Y-112949500D01*
X120543713Y-112949500D01*
X120495042Y-112957208D01*
X120333760Y-112982753D01*
X120131585Y-113048444D01*
X119942179Y-113144951D01*
X119770213Y-113269890D01*
X119619890Y-113420213D01*
X119494949Y-113592182D01*
X119490484Y-113600946D01*
X119442509Y-113651742D01*
X119374688Y-113668536D01*
X119308553Y-113645998D01*
X119269516Y-113600946D01*
X119265050Y-113592182D01*
X119140109Y-113420213D01*
X118989786Y-113269890D01*
X118817820Y-113144951D01*
X118628414Y-113048444D01*
X118628413Y-113048443D01*
X118628412Y-113048443D01*
X118426243Y-112982754D01*
X118426241Y-112982753D01*
X118426240Y-112982753D01*
X118264957Y-112957208D01*
X118216287Y-112949500D01*
X118003713Y-112949500D01*
X117955042Y-112957208D01*
X117793760Y-112982753D01*
X117591585Y-113048444D01*
X117402179Y-113144951D01*
X117230213Y-113269890D01*
X117079890Y-113420213D01*
X116954949Y-113592182D01*
X116950484Y-113600946D01*
X116902509Y-113651742D01*
X116834688Y-113668536D01*
X116768553Y-113645998D01*
X116729516Y-113600946D01*
X116725050Y-113592182D01*
X116600109Y-113420213D01*
X116449786Y-113269890D01*
X116277820Y-113144951D01*
X116088414Y-113048444D01*
X116088413Y-113048443D01*
X116088412Y-113048443D01*
X115886243Y-112982754D01*
X115886241Y-112982753D01*
X115886240Y-112982753D01*
X115724957Y-112957208D01*
X115676287Y-112949500D01*
X115463713Y-112949500D01*
X115415042Y-112957208D01*
X115253760Y-112982753D01*
X115051585Y-113048444D01*
X114862179Y-113144951D01*
X114690213Y-113269890D01*
X114690209Y-113269894D01*
X114664201Y-113295903D01*
X114602878Y-113329388D01*
X114533186Y-113324404D01*
X114477253Y-113282532D01*
X114452836Y-113217068D01*
X114452520Y-113208222D01*
X114452520Y-111999500D01*
X114472205Y-111932461D01*
X114525009Y-111886706D01*
X114576520Y-111875500D01*
X115371110Y-111875500D01*
X115371111Y-111875499D01*
X115525763Y-111844737D01*
X115671445Y-111784394D01*
X115802555Y-111696789D01*
X116522789Y-110976555D01*
X116610394Y-110845445D01*
X116670737Y-110699763D01*
X116701500Y-110545108D01*
X116701500Y-110387424D01*
X116701500Y-109255078D01*
X116721185Y-109188039D01*
X116773989Y-109142284D01*
X116843147Y-109132340D01*
X116881792Y-109144592D01*
X116939232Y-109173859D01*
X117000776Y-109205218D01*
X117000778Y-109205218D01*
X117000781Y-109205220D01*
X117090459Y-109234358D01*
X117195465Y-109268477D01*
X117296557Y-109284488D01*
X117397648Y-109300500D01*
X117397649Y-109300500D01*
X117602351Y-109300500D01*
X117602352Y-109300500D01*
X117804534Y-109268477D01*
X117999219Y-109205220D01*
X118181610Y-109112287D01*
X118252323Y-109060911D01*
X118318128Y-109037432D01*
X118386181Y-109053257D01*
X118412888Y-109073549D01*
X118481654Y-109142315D01*
X118630875Y-109234356D01*
X118630880Y-109234358D01*
X118797302Y-109289505D01*
X118797309Y-109289506D01*
X118900019Y-109299999D01*
X119249999Y-109299999D01*
X119250000Y-109299998D01*
X119250000Y-108315686D01*
X119254394Y-108320080D01*
X119345606Y-108372741D01*
X119447339Y-108400000D01*
X119552661Y-108400000D01*
X119654394Y-108372741D01*
X119745606Y-108320080D01*
X119750000Y-108315686D01*
X119750000Y-109299999D01*
G37*
%TD.AperFunction*%
%TD*%
%TA.AperFunction,Conductor*%
%TO.N,3V3*%
G36*
X189825308Y-94519685D02*
G01*
X189867627Y-94565547D01*
X189993893Y-94801775D01*
X189993904Y-94801793D01*
X190184975Y-95087751D01*
X190184985Y-95087765D01*
X190403176Y-95353632D01*
X190646367Y-95596823D01*
X190646372Y-95596827D01*
X190646373Y-95596828D01*
X190912240Y-95815019D01*
X191198213Y-96006100D01*
X191198222Y-96006105D01*
X191198224Y-96006106D01*
X191501530Y-96168227D01*
X191501532Y-96168227D01*
X191501538Y-96168231D01*
X191819295Y-96299850D01*
X191886557Y-96320253D01*
X191944995Y-96358551D01*
X191973451Y-96422363D01*
X191974550Y-96440540D01*
X191964556Y-97202600D01*
X191943994Y-97269376D01*
X191890595Y-97314434D01*
X191821312Y-97323470D01*
X191758142Y-97293614D01*
X191752886Y-97288655D01*
X191189390Y-96725159D01*
X191166586Y-96693772D01*
X191104286Y-96571501D01*
X190983971Y-96405899D01*
X190839213Y-96261141D01*
X190673613Y-96140828D01*
X190673612Y-96140827D01*
X190673610Y-96140826D01*
X190616653Y-96111804D01*
X190491223Y-96047894D01*
X190296534Y-95984635D01*
X190121995Y-95956991D01*
X190094352Y-95952613D01*
X189889648Y-95952613D01*
X189865329Y-95956464D01*
X189687465Y-95984635D01*
X189492776Y-96047894D01*
X189310386Y-96140828D01*
X189144786Y-96261141D01*
X189000028Y-96405899D01*
X188879715Y-96571499D01*
X188786781Y-96753889D01*
X188723522Y-96948578D01*
X188710310Y-97032000D01*
X188691500Y-97150761D01*
X188691500Y-97355465D01*
X188694083Y-97371775D01*
X188723522Y-97557647D01*
X188786781Y-97752336D01*
X188852680Y-97881668D01*
X188879713Y-97934723D01*
X188931087Y-98005434D01*
X188954567Y-98071240D01*
X188938742Y-98139294D01*
X188918451Y-98165999D01*
X188849684Y-98234767D01*
X188757643Y-98383988D01*
X188757641Y-98383993D01*
X188702494Y-98550415D01*
X188702493Y-98550422D01*
X188692000Y-98653126D01*
X188692000Y-99003113D01*
X189676314Y-99003113D01*
X189671920Y-99007507D01*
X189619259Y-99098719D01*
X189592000Y-99200452D01*
X189592000Y-99305774D01*
X189619259Y-99407507D01*
X189671920Y-99498719D01*
X189676314Y-99503113D01*
X188692001Y-99503113D01*
X188692001Y-99853099D01*
X188702494Y-99955810D01*
X188757641Y-100122232D01*
X188757643Y-100122237D01*
X188849684Y-100271458D01*
X188973654Y-100395428D01*
X189122875Y-100487469D01*
X189122880Y-100487471D01*
X189289302Y-100542618D01*
X189289309Y-100542619D01*
X189392019Y-100553112D01*
X189741999Y-100553112D01*
X189742000Y-100553111D01*
X189742000Y-99568799D01*
X189746394Y-99573193D01*
X189837606Y-99625854D01*
X189939339Y-99653113D01*
X190044661Y-99653113D01*
X190146394Y-99625854D01*
X190237606Y-99573193D01*
X190242000Y-99568799D01*
X190242000Y-100553112D01*
X190591972Y-100553112D01*
X190591986Y-100553111D01*
X190655898Y-100546582D01*
X190724591Y-100559351D01*
X190775475Y-100607232D01*
X190792500Y-100669940D01*
X190792500Y-102077669D01*
X190772815Y-102144708D01*
X190720011Y-102190463D01*
X190650853Y-102200407D01*
X190587297Y-102171382D01*
X190568183Y-102150556D01*
X190563475Y-102144077D01*
X190563474Y-102144076D01*
X189884000Y-102823551D01*
X189884000Y-102817339D01*
X189856741Y-102715606D01*
X189804080Y-102624394D01*
X189729606Y-102549920D01*
X189638394Y-102497259D01*
X189536661Y-102470000D01*
X189530446Y-102470000D01*
X190209922Y-101790524D01*
X190209921Y-101790523D01*
X190165359Y-101758147D01*
X190165350Y-101758141D01*
X189983031Y-101665244D01*
X189788417Y-101602009D01*
X189586317Y-101570000D01*
X189381683Y-101570000D01*
X189179582Y-101602009D01*
X188984968Y-101665244D01*
X188802644Y-101758143D01*
X188758077Y-101790523D01*
X188758077Y-101790524D01*
X189437554Y-102470000D01*
X189431339Y-102470000D01*
X189329606Y-102497259D01*
X189238394Y-102549920D01*
X189163920Y-102624394D01*
X189111259Y-102715606D01*
X189084000Y-102817339D01*
X189084000Y-102823553D01*
X188404524Y-102144077D01*
X188404523Y-102144077D01*
X188372143Y-102188644D01*
X188279244Y-102370968D01*
X188216009Y-102565582D01*
X188184000Y-102767682D01*
X188184000Y-102972317D01*
X188216009Y-103174417D01*
X188279244Y-103369031D01*
X188372141Y-103551350D01*
X188372147Y-103551359D01*
X188404523Y-103595921D01*
X188404524Y-103595922D01*
X189084000Y-102916446D01*
X189084000Y-102922661D01*
X189111259Y-103024394D01*
X189163920Y-103115606D01*
X189238394Y-103190080D01*
X189329606Y-103242741D01*
X189431339Y-103270000D01*
X189437553Y-103270000D01*
X188758076Y-103949474D01*
X188802650Y-103981859D01*
X188984968Y-104074755D01*
X189179582Y-104137990D01*
X189381683Y-104170000D01*
X189586317Y-104170000D01*
X189788417Y-104137990D01*
X189983031Y-104074755D01*
X190165349Y-103981859D01*
X190209921Y-103949474D01*
X189530447Y-103270000D01*
X189536661Y-103270000D01*
X189638394Y-103242741D01*
X189729606Y-103190080D01*
X189804080Y-103115606D01*
X189856741Y-103024394D01*
X189884000Y-102922661D01*
X189884000Y-102916447D01*
X190563473Y-103595921D01*
X190568182Y-103589442D01*
X190623513Y-103546777D01*
X190693126Y-103540798D01*
X190754921Y-103573404D01*
X190789278Y-103634243D01*
X190792500Y-103662328D01*
X190792500Y-105458059D01*
X190772815Y-105525098D01*
X190756181Y-105545740D01*
X189788740Y-106513181D01*
X189727417Y-106546666D01*
X189701059Y-106549500D01*
X189266940Y-106549500D01*
X189199901Y-106529815D01*
X189179259Y-106513181D01*
X188252292Y-105586213D01*
X188252288Y-105586210D01*
X188121185Y-105498609D01*
X188121172Y-105498602D01*
X187975501Y-105438264D01*
X187975489Y-105438261D01*
X187820845Y-105407500D01*
X187820842Y-105407500D01*
X187264304Y-105407500D01*
X187197265Y-105387815D01*
X187163986Y-105356386D01*
X187158181Y-105348396D01*
X187072517Y-105230490D01*
X186905510Y-105063483D01*
X186714433Y-104924657D01*
X186503996Y-104817433D01*
X186450500Y-104800051D01*
X186408180Y-104786300D01*
X186350506Y-104746863D01*
X186323308Y-104682504D01*
X186322500Y-104668370D01*
X186322500Y-100912460D01*
X186342185Y-100845421D01*
X186394989Y-100799666D01*
X186416567Y-100792127D01*
X186450693Y-100783641D01*
X186621296Y-100699030D01*
X186769722Y-100579722D01*
X186889030Y-100431296D01*
X186973641Y-100260693D01*
X187019600Y-100075889D01*
X187022500Y-100033123D01*
X187022499Y-99130878D01*
X187019600Y-99088111D01*
X186973641Y-98903307D01*
X186948747Y-98853113D01*
X186889032Y-98732707D01*
X186889030Y-98732704D01*
X186769724Y-98584280D01*
X186769722Y-98584278D01*
X186700112Y-98528324D01*
X186660196Y-98470985D01*
X186657616Y-98401163D01*
X186693194Y-98341030D01*
X186700115Y-98335033D01*
X186769366Y-98279367D01*
X186769367Y-98279366D01*
X186888607Y-98131025D01*
X186888609Y-98131022D01*
X186973168Y-97960523D01*
X187019102Y-97775824D01*
X187022000Y-97733096D01*
X187022000Y-97532000D01*
X184022000Y-97532000D01*
X184022000Y-97733096D01*
X184024897Y-97775824D01*
X184070831Y-97960523D01*
X184155390Y-98131022D01*
X184155392Y-98131025D01*
X184274630Y-98279364D01*
X184343884Y-98335031D01*
X184383803Y-98392375D01*
X184386383Y-98462197D01*
X184350805Y-98522329D01*
X184343885Y-98528326D01*
X184274276Y-98584280D01*
X184154969Y-98732704D01*
X184154967Y-98732707D01*
X184070360Y-98903302D01*
X184024400Y-99088107D01*
X184021500Y-99130879D01*
X184021500Y-100033122D01*
X184021501Y-100033125D01*
X184024399Y-100075886D01*
X184024399Y-100075887D01*
X184070360Y-100260696D01*
X184154967Y-100431292D01*
X184154969Y-100431295D01*
X184274277Y-100579721D01*
X184274278Y-100579722D01*
X184422704Y-100699030D01*
X184422707Y-100699032D01*
X184496538Y-100735648D01*
X184593307Y-100783641D01*
X184627427Y-100792126D01*
X184687732Y-100827406D01*
X184719392Y-100889691D01*
X184721500Y-100912460D01*
X184721500Y-105275511D01*
X184701815Y-105342550D01*
X184697818Y-105348396D01*
X184644659Y-105421563D01*
X184537433Y-105632003D01*
X184464446Y-105856631D01*
X184427500Y-106089902D01*
X184427500Y-106191570D01*
X184407815Y-106258609D01*
X184355011Y-106304364D01*
X184285853Y-106314308D01*
X184271457Y-106311358D01*
X183792973Y-106183364D01*
X183737335Y-106151257D01*
X180660100Y-103074022D01*
X180626615Y-103012699D01*
X180624165Y-102976592D01*
X180624498Y-102972359D01*
X180624500Y-102972352D01*
X180624500Y-102767648D01*
X180602264Y-102627259D01*
X180592477Y-102565465D01*
X180538718Y-102400013D01*
X180529220Y-102370781D01*
X180529218Y-102370778D01*
X180529218Y-102370776D01*
X180495503Y-102304607D01*
X180436287Y-102188390D01*
X180408799Y-102150556D01*
X180315971Y-102022786D01*
X180171213Y-101878028D01*
X180005613Y-101757715D01*
X180005612Y-101757714D01*
X180005610Y-101757713D01*
X179912936Y-101710493D01*
X179823223Y-101664781D01*
X179628534Y-101601522D01*
X179453995Y-101573878D01*
X179426352Y-101569500D01*
X179221648Y-101569500D01*
X179197329Y-101573351D01*
X179019465Y-101601522D01*
X178824776Y-101664781D01*
X178642386Y-101757715D01*
X178476786Y-101878028D01*
X178332028Y-102022786D01*
X178211715Y-102188386D01*
X178118781Y-102370776D01*
X178055522Y-102565465D01*
X178023500Y-102767648D01*
X178023500Y-102972359D01*
X178023835Y-102976619D01*
X178009467Y-103044996D01*
X177987898Y-103074022D01*
X177275101Y-103786821D01*
X177116711Y-103945211D01*
X177080063Y-103981859D01*
X177005209Y-104056712D01*
X176917609Y-104187814D01*
X176917602Y-104187827D01*
X176857264Y-104333498D01*
X176857261Y-104333510D01*
X176826500Y-104488153D01*
X176826500Y-108985846D01*
X176857261Y-109140489D01*
X176857264Y-109140501D01*
X176917602Y-109286172D01*
X176917609Y-109286185D01*
X177005210Y-109417288D01*
X177005213Y-109417292D01*
X177410383Y-109822461D01*
X177443868Y-109883784D01*
X177446696Y-109911363D01*
X177433673Y-111233460D01*
X177427398Y-111254076D01*
X177425861Y-111275573D01*
X177417426Y-111286839D01*
X177413329Y-111300303D01*
X177396903Y-111314254D01*
X177383989Y-111331506D01*
X177370803Y-111336423D01*
X177360077Y-111345535D01*
X177338716Y-111348391D01*
X177318525Y-111355923D01*
X177304773Y-111352931D01*
X177290824Y-111354797D01*
X177271309Y-111345651D01*
X177250252Y-111341071D01*
X177231366Y-111326933D01*
X177227557Y-111325148D01*
X177221998Y-111319920D01*
X177104100Y-111202022D01*
X177070615Y-111140699D01*
X177068165Y-111104592D01*
X177068498Y-111100359D01*
X177068500Y-111100352D01*
X177068500Y-110895648D01*
X177036477Y-110693466D01*
X176973220Y-110498781D01*
X176973218Y-110498778D01*
X176973218Y-110498776D01*
X176939503Y-110432607D01*
X176880287Y-110316390D01*
X176872556Y-110305749D01*
X176759971Y-110150786D01*
X176615213Y-110006028D01*
X176449613Y-109885715D01*
X176449612Y-109885714D01*
X176449610Y-109885713D01*
X176392653Y-109856691D01*
X176267223Y-109792781D01*
X176072534Y-109729522D01*
X175887083Y-109700150D01*
X175870352Y-109697500D01*
X175665648Y-109697500D01*
X175648917Y-109700150D01*
X175463465Y-109729522D01*
X175268776Y-109792781D01*
X175086386Y-109885715D01*
X174920786Y-110006028D01*
X174776028Y-110150786D01*
X174655715Y-110316386D01*
X174562781Y-110498776D01*
X174499522Y-110693465D01*
X174467500Y-110895648D01*
X174467500Y-111100351D01*
X174499522Y-111302534D01*
X174562781Y-111497223D01*
X174655715Y-111679613D01*
X174776028Y-111845213D01*
X174920786Y-111989971D01*
X175075749Y-112102556D01*
X175086390Y-112110287D01*
X175202607Y-112169503D01*
X175268776Y-112203218D01*
X175268778Y-112203218D01*
X175268781Y-112203220D01*
X175360182Y-112232918D01*
X175463465Y-112266477D01*
X175564557Y-112282488D01*
X175665648Y-112298500D01*
X175665649Y-112298500D01*
X175870344Y-112298500D01*
X175870352Y-112298500D01*
X175870359Y-112298498D01*
X175874592Y-112298165D01*
X175942972Y-112312518D01*
X175972022Y-112334100D01*
X176392954Y-112755032D01*
X176426439Y-112816355D01*
X176421455Y-112886047D01*
X176379583Y-112941980D01*
X176324672Y-112965186D01*
X176213759Y-112982753D01*
X176011585Y-113048444D01*
X175822179Y-113144951D01*
X175650215Y-113269889D01*
X175525803Y-113394301D01*
X175464480Y-113427785D01*
X175439278Y-113430614D01*
X175086325Y-113433905D01*
X175019105Y-113414846D01*
X174997488Y-113397592D01*
X174994197Y-113394301D01*
X174869792Y-113269896D01*
X174869788Y-113269893D01*
X174869784Y-113269889D01*
X174697820Y-113144951D01*
X174508414Y-113048444D01*
X174508413Y-113048443D01*
X174508412Y-113048443D01*
X174306243Y-112982754D01*
X174306241Y-112982753D01*
X174306240Y-112982753D01*
X174130684Y-112954948D01*
X174096287Y-112949500D01*
X173883713Y-112949500D01*
X173849316Y-112954948D01*
X173673760Y-112982753D01*
X173471585Y-113048444D01*
X173282179Y-113144951D01*
X173110215Y-113269889D01*
X172961889Y-113418214D01*
X172900565Y-113451698D01*
X172875364Y-113454527D01*
X172569796Y-113457377D01*
X172502576Y-113438318D01*
X172480959Y-113421063D01*
X172329786Y-113269890D01*
X172157820Y-113144951D01*
X171968414Y-113048444D01*
X171968413Y-113048443D01*
X171968412Y-113048443D01*
X171766243Y-112982754D01*
X171766241Y-112982753D01*
X171766240Y-112982753D01*
X171590684Y-112954948D01*
X171556287Y-112949500D01*
X171343713Y-112949500D01*
X171309316Y-112954948D01*
X171133760Y-112982753D01*
X170931585Y-113048444D01*
X170742179Y-113144951D01*
X170570213Y-113269890D01*
X170419898Y-113420205D01*
X170419891Y-113420214D01*
X170414743Y-113427299D01*
X170359410Y-113469961D01*
X170315586Y-113478402D01*
X170048535Y-113480892D01*
X169981315Y-113461833D01*
X169947061Y-113429783D01*
X169940105Y-113420209D01*
X169789786Y-113269890D01*
X169617820Y-113144951D01*
X169428414Y-113048444D01*
X169428413Y-113048443D01*
X169428412Y-113048443D01*
X169226243Y-112982754D01*
X169226241Y-112982753D01*
X169226240Y-112982753D01*
X169050684Y-112954948D01*
X169016287Y-112949500D01*
X168803713Y-112949500D01*
X168803711Y-112949500D01*
X168769310Y-112954948D01*
X168700016Y-112945992D01*
X168662233Y-112920155D01*
X168036319Y-112294241D01*
X168002834Y-112232918D01*
X168000000Y-112206560D01*
X168000000Y-109343119D01*
X168019685Y-109276080D01*
X168072489Y-109230325D01*
X168085679Y-109225189D01*
X168110635Y-109217080D01*
X168158407Y-109201559D01*
X168158409Y-109201557D01*
X168158412Y-109201557D01*
X168347816Y-109105051D01*
X168511889Y-108985846D01*
X168519784Y-108980110D01*
X168519784Y-108980109D01*
X168519792Y-108980104D01*
X168633329Y-108866566D01*
X168694648Y-108833084D01*
X168764340Y-108838068D01*
X168820274Y-108879939D01*
X168837189Y-108910917D01*
X168886202Y-109042328D01*
X168886206Y-109042335D01*
X168972452Y-109157544D01*
X168972455Y-109157547D01*
X169087664Y-109243793D01*
X169087671Y-109243797D01*
X169222517Y-109294091D01*
X169222516Y-109294091D01*
X169229444Y-109294835D01*
X169282127Y-109300500D01*
X171077872Y-109300499D01*
X171137483Y-109294091D01*
X171272331Y-109243796D01*
X171387546Y-109157546D01*
X171473796Y-109042331D01*
X171524091Y-108907483D01*
X171530500Y-108847873D01*
X171530499Y-107052128D01*
X171524091Y-106992517D01*
X171473796Y-106857669D01*
X171473795Y-106857668D01*
X171473793Y-106857664D01*
X171387547Y-106742455D01*
X171387544Y-106742452D01*
X171272335Y-106656206D01*
X171272328Y-106656202D01*
X171137482Y-106605908D01*
X171137483Y-106605908D01*
X171077883Y-106599501D01*
X171077881Y-106599500D01*
X171077873Y-106599500D01*
X171077865Y-106599500D01*
X170012940Y-106599500D01*
X169945901Y-106579815D01*
X169925259Y-106563181D01*
X168606389Y-105244311D01*
X168572904Y-105182988D01*
X168577888Y-105113296D01*
X168579587Y-105108991D01*
X169009691Y-104076740D01*
X169053643Y-104022433D01*
X169119983Y-104000507D01*
X169187646Y-104017928D01*
X169197035Y-104024119D01*
X169306309Y-104103510D01*
X169318390Y-104112287D01*
X169414909Y-104161466D01*
X169500776Y-104205218D01*
X169500778Y-104205218D01*
X169500781Y-104205220D01*
X169590459Y-104234358D01*
X169695465Y-104268477D01*
X169796557Y-104284488D01*
X169897648Y-104300500D01*
X169897649Y-104300500D01*
X170102351Y-104300500D01*
X170102352Y-104300500D01*
X170304534Y-104268477D01*
X170499219Y-104205220D01*
X170681610Y-104112287D01*
X170752323Y-104060911D01*
X170818128Y-104037432D01*
X170886181Y-104053257D01*
X170912888Y-104073549D01*
X170981654Y-104142315D01*
X171130875Y-104234356D01*
X171130880Y-104234358D01*
X171297302Y-104289505D01*
X171297309Y-104289506D01*
X171400019Y-104299999D01*
X171749999Y-104299999D01*
X171750000Y-104299998D01*
X171750000Y-103315686D01*
X171754394Y-103320080D01*
X171845606Y-103372741D01*
X171947339Y-103400000D01*
X172052661Y-103400000D01*
X172154394Y-103372741D01*
X172245606Y-103320080D01*
X172250000Y-103315686D01*
X172250000Y-104299999D01*
X172599972Y-104299999D01*
X172599986Y-104299998D01*
X172702697Y-104289505D01*
X172869119Y-104234358D01*
X172869124Y-104234356D01*
X173018345Y-104142315D01*
X173142315Y-104018345D01*
X173234356Y-103869124D01*
X173234358Y-103869119D01*
X173289505Y-103702697D01*
X173289506Y-103702690D01*
X173299999Y-103599986D01*
X173300000Y-103599973D01*
X173300000Y-103250000D01*
X172315686Y-103250000D01*
X172320080Y-103245606D01*
X172372741Y-103154394D01*
X172400000Y-103052661D01*
X172400000Y-102947339D01*
X172372741Y-102845606D01*
X172320080Y-102754394D01*
X172315686Y-102750000D01*
X173299999Y-102750000D01*
X173299999Y-102400028D01*
X173299998Y-102400013D01*
X173289505Y-102297302D01*
X173234358Y-102130880D01*
X173234356Y-102130875D01*
X173142315Y-101981654D01*
X173018345Y-101857684D01*
X172869124Y-101765643D01*
X172869119Y-101765641D01*
X172702697Y-101710494D01*
X172702690Y-101710493D01*
X172599986Y-101700000D01*
X172250000Y-101700000D01*
X172250000Y-102684314D01*
X172245606Y-102679920D01*
X172154394Y-102627259D01*
X172052661Y-102600000D01*
X171947339Y-102600000D01*
X171845606Y-102627259D01*
X171754394Y-102679920D01*
X171750000Y-102684314D01*
X171750000Y-101700000D01*
X171400028Y-101700000D01*
X171400012Y-101700001D01*
X171297302Y-101710494D01*
X171130876Y-101765642D01*
X171128011Y-101766979D01*
X171127506Y-101767055D01*
X171127123Y-101767388D01*
X171124450Y-101767772D01*
X171124023Y-101767914D01*
X171123997Y-101767837D01*
X171093028Y-101772290D01*
X171058933Y-101777467D01*
X171058469Y-101777259D01*
X171057965Y-101777332D01*
X171026571Y-101762995D01*
X170995151Y-101748944D01*
X170994873Y-101748518D01*
X170994409Y-101748307D01*
X170975756Y-101719283D01*
X170956914Y-101690466D01*
X170956817Y-101689812D01*
X170956635Y-101689529D01*
X170951612Y-101654594D01*
X170951612Y-101431614D01*
X170971297Y-101364575D01*
X170987931Y-101343933D01*
X174755819Y-97576045D01*
X174817142Y-97542560D01*
X174886834Y-97547544D01*
X174942767Y-97589416D01*
X174967184Y-97654880D01*
X174967500Y-97663726D01*
X174967500Y-99748966D01*
X174947815Y-99816005D01*
X174924046Y-99843244D01*
X174920784Y-99846030D01*
X174776028Y-99990786D01*
X174655715Y-100156386D01*
X174562781Y-100338776D01*
X174499522Y-100533465D01*
X174467500Y-100735648D01*
X174467500Y-100940351D01*
X174499522Y-101142534D01*
X174562781Y-101337223D01*
X174655715Y-101519613D01*
X174776028Y-101685213D01*
X174920786Y-101829971D01*
X175075749Y-101942556D01*
X175086390Y-101950287D01*
X175199725Y-102008034D01*
X175268776Y-102043218D01*
X175268778Y-102043218D01*
X175268781Y-102043220D01*
X175373137Y-102077127D01*
X175463465Y-102106477D01*
X175501032Y-102112427D01*
X175665648Y-102138500D01*
X175665649Y-102138500D01*
X175870351Y-102138500D01*
X175870352Y-102138500D01*
X176072534Y-102106477D01*
X176267219Y-102043220D01*
X176449610Y-101950287D01*
X176558334Y-101871295D01*
X176615213Y-101829971D01*
X176615215Y-101829968D01*
X176615219Y-101829966D01*
X176759966Y-101685219D01*
X176759968Y-101685215D01*
X176759971Y-101685213D01*
X176841937Y-101572394D01*
X176880287Y-101519610D01*
X176973220Y-101337219D01*
X177036477Y-101142534D01*
X177068500Y-100940352D01*
X177068500Y-100735648D01*
X177039589Y-100553111D01*
X177036477Y-100533465D01*
X176973218Y-100338776D01*
X176933432Y-100260693D01*
X176880287Y-100156390D01*
X176855470Y-100122232D01*
X176759971Y-99990786D01*
X176615215Y-99846030D01*
X176611954Y-99843244D01*
X176573770Y-99784731D01*
X176568500Y-99748966D01*
X176568500Y-98740000D01*
X177722000Y-98740000D01*
X177732608Y-98859325D01*
X177732609Y-98859328D01*
X177788557Y-99054861D01*
X177882721Y-99235129D01*
X178011246Y-99392753D01*
X178168870Y-99521278D01*
X178349138Y-99615442D01*
X178544671Y-99671390D01*
X178544674Y-99671391D01*
X178663999Y-99681999D01*
X178664002Y-99682000D01*
X178972000Y-99682000D01*
X179472000Y-99682000D01*
X179779998Y-99682000D01*
X179780000Y-99681999D01*
X179899325Y-99671391D01*
X179899328Y-99671390D01*
X180094861Y-99615442D01*
X180275129Y-99521278D01*
X180432753Y-99392753D01*
X180561278Y-99235129D01*
X180655442Y-99054861D01*
X180711390Y-98859328D01*
X180711391Y-98859325D01*
X180721999Y-98740000D01*
X180722000Y-98739998D01*
X180722000Y-97532000D01*
X179472000Y-97532000D01*
X179472000Y-99682000D01*
X178972000Y-99682000D01*
X178972000Y-97532000D01*
X177722000Y-97532000D01*
X177722000Y-98740000D01*
X176568500Y-98740000D01*
X176568500Y-97371775D01*
X176588185Y-97304736D01*
X176604819Y-97284094D01*
X177510319Y-96378594D01*
X177571642Y-96345109D01*
X177641334Y-96350093D01*
X177697267Y-96391965D01*
X177721684Y-96457429D01*
X177722000Y-96466275D01*
X177722000Y-97032000D01*
X180722000Y-97032000D01*
X180722000Y-95824002D01*
X180721999Y-95823999D01*
X180711391Y-95704674D01*
X180711390Y-95704671D01*
X180664162Y-95539611D01*
X180664645Y-95469743D01*
X180702825Y-95411228D01*
X180766580Y-95382643D01*
X180783378Y-95381500D01*
X183903987Y-95381500D01*
X183971026Y-95401185D01*
X184016781Y-95453989D01*
X184024322Y-95475574D01*
X184024399Y-95475887D01*
X184024400Y-95475889D01*
X184070359Y-95660693D01*
X184070360Y-95660696D01*
X184154967Y-95831292D01*
X184154969Y-95831295D01*
X184274277Y-95979721D01*
X184274278Y-95979722D01*
X184343884Y-96035673D01*
X184383803Y-96093016D01*
X184386383Y-96162838D01*
X184350804Y-96222971D01*
X184343885Y-96228967D01*
X184274631Y-96284635D01*
X184155392Y-96432974D01*
X184155390Y-96432977D01*
X184070831Y-96603476D01*
X184024897Y-96788175D01*
X184022000Y-96830903D01*
X184022000Y-97032000D01*
X187022000Y-97032000D01*
X187022000Y-96830903D01*
X187019102Y-96788175D01*
X186973168Y-96603476D01*
X186888609Y-96432977D01*
X186888607Y-96432974D01*
X186769367Y-96284633D01*
X186769366Y-96284632D01*
X186700115Y-96228967D01*
X186660196Y-96171624D01*
X186657616Y-96101802D01*
X186693194Y-96041669D01*
X186700089Y-96035694D01*
X186769722Y-95979722D01*
X186889030Y-95831296D01*
X186973641Y-95660693D01*
X187019600Y-95475889D01*
X187022500Y-95433123D01*
X187022499Y-94623999D01*
X187042183Y-94556961D01*
X187094987Y-94511206D01*
X187146499Y-94500000D01*
X189758269Y-94500000D01*
X189825308Y-94519685D01*
G37*
%TD.AperFunction*%
%TD*%
%TA.AperFunction,Conductor*%
%TO.N,GND*%
G36*
X155616582Y-113604690D02*
G01*
X155710006Y-113662535D01*
X155719996Y-113672074D01*
X158271859Y-116223937D01*
X158333957Y-116314590D01*
X158359115Y-116421553D01*
X158343934Y-116530382D01*
X158319377Y-116584860D01*
X158283609Y-116646812D01*
X158283606Y-116646819D01*
X158249500Y-116774107D01*
X158249500Y-122390500D01*
X158229309Y-122498511D01*
X158171464Y-122591935D01*
X158083776Y-122658154D01*
X157978088Y-122688225D01*
X157950500Y-122689500D01*
X156512292Y-122689500D01*
X156404281Y-122669309D01*
X156310857Y-122611464D01*
X156244638Y-122523776D01*
X156214567Y-122418088D01*
X156224706Y-122308675D01*
X156273685Y-122210312D01*
X156333106Y-122151140D01*
X156413186Y-122091191D01*
X156413191Y-122091186D01*
X156499352Y-121976090D01*
X156549596Y-121841382D01*
X156549596Y-121841379D01*
X156555999Y-121781828D01*
X156556000Y-121781822D01*
X156556000Y-121184000D01*
X155610144Y-121184000D01*
X155671925Y-121076993D01*
X155706000Y-120949826D01*
X155706000Y-120818174D01*
X155671925Y-120691007D01*
X155610144Y-120584000D01*
X156556000Y-120584000D01*
X156556000Y-119986177D01*
X156555999Y-119986171D01*
X156549596Y-119926620D01*
X156549596Y-119926617D01*
X156499352Y-119791909D01*
X156413191Y-119676813D01*
X156413186Y-119676808D01*
X156298090Y-119590647D01*
X156163381Y-119540403D01*
X156103828Y-119534000D01*
X155506000Y-119534000D01*
X155506000Y-120479855D01*
X155398993Y-120418075D01*
X155271826Y-120384000D01*
X155140174Y-120384000D01*
X155013007Y-120418075D01*
X154906000Y-120479855D01*
X154906000Y-119534000D01*
X154308171Y-119534000D01*
X154248620Y-119540403D01*
X154248617Y-119540403D01*
X154113909Y-119590647D01*
X153998813Y-119676808D01*
X153998808Y-119676813D01*
X153912647Y-119791909D01*
X153862403Y-119926617D01*
X153862403Y-119926620D01*
X153856000Y-119986171D01*
X153856000Y-120584000D01*
X154801856Y-120584000D01*
X154740075Y-120691007D01*
X154706000Y-120818174D01*
X154706000Y-120949826D01*
X154740075Y-121076993D01*
X154801856Y-121184000D01*
X153856000Y-121184000D01*
X153856000Y-121781828D01*
X153862403Y-121841379D01*
X153862403Y-121841382D01*
X153912647Y-121976090D01*
X153998808Y-122091186D01*
X153998813Y-122091191D01*
X154078894Y-122151140D01*
X154153261Y-122232033D01*
X154193384Y-122334327D01*
X154193845Y-122444209D01*
X154154580Y-122546836D01*
X154080894Y-122628350D01*
X153982738Y-122677740D01*
X153899708Y-122689500D01*
X150257020Y-122689500D01*
X150149009Y-122669309D01*
X150055585Y-122611464D01*
X149989366Y-122523776D01*
X149959295Y-122418088D01*
X149958020Y-122390500D01*
X149958020Y-118445349D01*
X149978211Y-118337338D01*
X150036056Y-118243914D01*
X150123744Y-118177695D01*
X150165595Y-118162490D01*
X150165071Y-118160876D01*
X150176246Y-118157245D01*
X150378412Y-118091557D01*
X150567816Y-117995051D01*
X150739792Y-117870104D01*
X150890104Y-117719792D01*
X150890113Y-117719778D01*
X150897728Y-117710864D01*
X150899159Y-117712086D01*
X150967911Y-117647038D01*
X151069620Y-117605451D01*
X151179483Y-117603414D01*
X151282663Y-117641202D01*
X151362126Y-117710988D01*
X151362272Y-117710864D01*
X151363135Y-117711875D01*
X151365226Y-117713711D01*
X151369217Y-117718996D01*
X151369891Y-117719786D01*
X151369896Y-117719792D01*
X151520208Y-117870104D01*
X151692184Y-117995051D01*
X151881588Y-118091557D01*
X152083754Y-118157245D01*
X152083757Y-118157246D01*
X152293713Y-118190500D01*
X152293714Y-118190500D01*
X152506286Y-118190500D01*
X152506287Y-118190500D01*
X152716243Y-118157246D01*
X152918412Y-118091557D01*
X153107816Y-117995051D01*
X153248487Y-117892847D01*
X153347734Y-117845697D01*
X153457316Y-117837581D01*
X153562430Y-117869599D01*
X153648879Y-117937427D01*
X153663593Y-117955560D01*
X153732452Y-118047544D01*
X153732454Y-118047546D01*
X153847669Y-118133796D01*
X153910539Y-118157245D01*
X153982514Y-118184090D01*
X153982516Y-118184091D01*
X154005419Y-118186553D01*
X154042127Y-118190500D01*
X155837872Y-118190499D01*
X155837873Y-118190499D01*
X155849794Y-118189217D01*
X155897483Y-118184091D01*
X155897487Y-118184089D01*
X155897489Y-118184089D01*
X155969461Y-118157245D01*
X156032331Y-118133796D01*
X156147546Y-118047546D01*
X156233796Y-117932331D01*
X156284091Y-117797483D01*
X156290500Y-117737873D01*
X156290499Y-115942128D01*
X156284091Y-115882517D01*
X156284089Y-115882513D01*
X156284089Y-115882510D01*
X156233798Y-115747674D01*
X156233797Y-115747673D01*
X156233796Y-115747669D01*
X156161055Y-115650500D01*
X156147547Y-115632455D01*
X156147544Y-115632452D01*
X156039483Y-115551558D01*
X156032331Y-115546204D01*
X156032329Y-115546203D01*
X156032327Y-115546202D01*
X155897485Y-115495909D01*
X155897483Y-115495908D01*
X155837889Y-115489501D01*
X155837876Y-115489500D01*
X155837873Y-115489500D01*
X155837869Y-115489500D01*
X154845428Y-115489500D01*
X154737417Y-115469309D01*
X154643993Y-115411464D01*
X154634003Y-115401925D01*
X153327002Y-114094924D01*
X153264904Y-114004271D01*
X153239746Y-113897308D01*
X153254927Y-113788479D01*
X153308396Y-113692484D01*
X153392932Y-113622286D01*
X153497118Y-113587366D01*
X153538427Y-113584499D01*
X155508571Y-113584499D01*
X155616582Y-113604690D01*
G37*
%TD.AperFunction*%
%TA.AperFunction,Conductor*%
G36*
X153575091Y-89020191D02*
G01*
X153668515Y-89078036D01*
X153734734Y-89165724D01*
X153764805Y-89271412D01*
X153754666Y-89380825D01*
X153716093Y-89458699D01*
X153716897Y-89459138D01*
X153706647Y-89477909D01*
X153656403Y-89612617D01*
X153656403Y-89612620D01*
X153650000Y-89672171D01*
X153650000Y-89870000D01*
X156150000Y-89870000D01*
X156150000Y-89699500D01*
X156170191Y-89591489D01*
X156228036Y-89498065D01*
X156315724Y-89431846D01*
X156421412Y-89401775D01*
X156449000Y-89400500D01*
X158173572Y-89400500D01*
X158281583Y-89420691D01*
X158375007Y-89478536D01*
X158441226Y-89566224D01*
X158471297Y-89671912D01*
X158461158Y-89781325D01*
X158412179Y-89879688D01*
X158384997Y-89910925D01*
X157743997Y-90551925D01*
X157653344Y-90614023D01*
X157546381Y-90639181D01*
X157532572Y-90639500D01*
X156443350Y-90639500D01*
X156335339Y-90619309D01*
X156241915Y-90561464D01*
X156231925Y-90551925D01*
X156150000Y-90470000D01*
X153650000Y-90470000D01*
X153650000Y-90667837D01*
X153656401Y-90727373D01*
X153658236Y-90735137D01*
X153663427Y-90844897D01*
X153658238Y-90872659D01*
X153655908Y-90882516D01*
X153649501Y-90942110D01*
X153649500Y-90942130D01*
X153649500Y-91937873D01*
X153655909Y-91997485D01*
X153657980Y-92006251D01*
X153663165Y-92116011D01*
X153657980Y-92143748D01*
X153655909Y-92152513D01*
X153649501Y-92212110D01*
X153649500Y-92212130D01*
X153649500Y-93207873D01*
X153655909Y-93267485D01*
X153657980Y-93276251D01*
X153663165Y-93386011D01*
X153657980Y-93413748D01*
X153655909Y-93422513D01*
X153649501Y-93482110D01*
X153649500Y-93482130D01*
X153649500Y-94477873D01*
X153655909Y-94537485D01*
X153657980Y-94546251D01*
X153663165Y-94656011D01*
X153657980Y-94683748D01*
X153655909Y-94692513D01*
X153649501Y-94752110D01*
X153649500Y-94752130D01*
X153649500Y-95747873D01*
X153655909Y-95807485D01*
X153657980Y-95816251D01*
X153663165Y-95926011D01*
X153657980Y-95953748D01*
X153655909Y-95962513D01*
X153649501Y-96022110D01*
X153649500Y-96022130D01*
X153649500Y-97017873D01*
X153655909Y-97077485D01*
X153657980Y-97086251D01*
X153663165Y-97196011D01*
X153657980Y-97223748D01*
X153655909Y-97232513D01*
X153649501Y-97292110D01*
X153649500Y-97292130D01*
X153649500Y-98287873D01*
X153655909Y-98347485D01*
X153657980Y-98356251D01*
X153663165Y-98466011D01*
X153657980Y-98493748D01*
X153655909Y-98502513D01*
X153649501Y-98562110D01*
X153649500Y-98562130D01*
X153649500Y-99557873D01*
X153655909Y-99617485D01*
X153657980Y-99626251D01*
X153663165Y-99736011D01*
X153657980Y-99763748D01*
X153655909Y-99772513D01*
X153649501Y-99832110D01*
X153649500Y-99832130D01*
X153649500Y-100827873D01*
X153655909Y-100887485D01*
X153657980Y-100896251D01*
X153663165Y-101006011D01*
X153657980Y-101033748D01*
X153655909Y-101042513D01*
X153649501Y-101102110D01*
X153649500Y-101102130D01*
X153649500Y-102097873D01*
X153655909Y-102157485D01*
X153657980Y-102166251D01*
X153663165Y-102276011D01*
X153657980Y-102303748D01*
X153655909Y-102312513D01*
X153649501Y-102372110D01*
X153649500Y-102372130D01*
X153649500Y-103367873D01*
X153655909Y-103427485D01*
X153657980Y-103436251D01*
X153663165Y-103546011D01*
X153657980Y-103573748D01*
X153655909Y-103582513D01*
X153649501Y-103642110D01*
X153649500Y-103642130D01*
X153649500Y-104637873D01*
X153655909Y-104697485D01*
X153657980Y-104706251D01*
X153663165Y-104816011D01*
X153657980Y-104843748D01*
X153655909Y-104852513D01*
X153649501Y-104912110D01*
X153649500Y-104912130D01*
X153649500Y-105907873D01*
X153655909Y-105967485D01*
X153657980Y-105976251D01*
X153665630Y-106059679D01*
X153663548Y-106102034D01*
X153655909Y-106122517D01*
X153649500Y-106182127D01*
X153649500Y-106387834D01*
X153649139Y-106395179D01*
X153638078Y-106441596D01*
X153629309Y-106488511D01*
X153625393Y-106494834D01*
X153623670Y-106502069D01*
X153596587Y-106541358D01*
X153571464Y-106581935D01*
X153565528Y-106586417D01*
X153561308Y-106592540D01*
X153521863Y-106619391D01*
X153483776Y-106648154D01*
X153476621Y-106650189D01*
X153470475Y-106654374D01*
X153423996Y-106665162D01*
X153378088Y-106678225D01*
X153365148Y-106678823D01*
X153363438Y-106679220D01*
X153361752Y-106678979D01*
X153350500Y-106679500D01*
X152637126Y-106679500D01*
X152577515Y-106685909D01*
X152568745Y-106687981D01*
X152458985Y-106693165D01*
X152431249Y-106687980D01*
X152422481Y-106685908D01*
X152362889Y-106679501D01*
X152362876Y-106679500D01*
X152362873Y-106679500D01*
X152362869Y-106679500D01*
X151367126Y-106679500D01*
X151307515Y-106685909D01*
X151298745Y-106687981D01*
X151188985Y-106693165D01*
X151161249Y-106687980D01*
X151152481Y-106685908D01*
X151092889Y-106679501D01*
X151092876Y-106679500D01*
X151092873Y-106679500D01*
X151092869Y-106679500D01*
X150097126Y-106679500D01*
X150037515Y-106685909D01*
X150028745Y-106687981D01*
X149918985Y-106693165D01*
X149891249Y-106687980D01*
X149882481Y-106685908D01*
X149822889Y-106679501D01*
X149822876Y-106679500D01*
X149822873Y-106679500D01*
X149822869Y-106679500D01*
X148827126Y-106679500D01*
X148767515Y-106685909D01*
X148758745Y-106687981D01*
X148648985Y-106693165D01*
X148621249Y-106687980D01*
X148612481Y-106685908D01*
X148552889Y-106679501D01*
X148552876Y-106679500D01*
X148552873Y-106679500D01*
X148552869Y-106679500D01*
X147557126Y-106679500D01*
X147497515Y-106685909D01*
X147488745Y-106687981D01*
X147378985Y-106693165D01*
X147351249Y-106687980D01*
X147342481Y-106685908D01*
X147282889Y-106679501D01*
X147282876Y-106679500D01*
X147282873Y-106679500D01*
X147282869Y-106679500D01*
X146287126Y-106679500D01*
X146227515Y-106685909D01*
X146218745Y-106687981D01*
X146108985Y-106693165D01*
X146081249Y-106687980D01*
X146072481Y-106685908D01*
X146012889Y-106679501D01*
X146012876Y-106679500D01*
X146012873Y-106679500D01*
X146012869Y-106679500D01*
X145017126Y-106679500D01*
X144957515Y-106685909D01*
X144948745Y-106687981D01*
X144838985Y-106693165D01*
X144811249Y-106687980D01*
X144802481Y-106685908D01*
X144742889Y-106679501D01*
X144742876Y-106679500D01*
X144742873Y-106679500D01*
X144742869Y-106679500D01*
X143747126Y-106679500D01*
X143687515Y-106685909D01*
X143678745Y-106687981D01*
X143568985Y-106693165D01*
X143541249Y-106687980D01*
X143532481Y-106685908D01*
X143472889Y-106679501D01*
X143472876Y-106679500D01*
X143472873Y-106679500D01*
X143472869Y-106679500D01*
X142477126Y-106679500D01*
X142417515Y-106685909D01*
X142408745Y-106687981D01*
X142298985Y-106693165D01*
X142271249Y-106687980D01*
X142262481Y-106685908D01*
X142202889Y-106679501D01*
X142202876Y-106679500D01*
X142202873Y-106679500D01*
X142202869Y-106679500D01*
X141207126Y-106679500D01*
X141147515Y-106685909D01*
X141138745Y-106687981D01*
X141028985Y-106693165D01*
X141001249Y-106687980D01*
X140992481Y-106685908D01*
X140932889Y-106679501D01*
X140932876Y-106679500D01*
X140932873Y-106679500D01*
X140932869Y-106679500D01*
X139937126Y-106679500D01*
X139877515Y-106685909D01*
X139868745Y-106687981D01*
X139758985Y-106693165D01*
X139731249Y-106687980D01*
X139722481Y-106685908D01*
X139662889Y-106679501D01*
X139662876Y-106679500D01*
X139662873Y-106679500D01*
X139662869Y-106679500D01*
X138949499Y-106679500D01*
X138915968Y-106673232D01*
X138881891Y-106671756D01*
X138862401Y-106663218D01*
X138841488Y-106659309D01*
X138812488Y-106641353D01*
X138781243Y-106627666D01*
X138766154Y-106612664D01*
X138748064Y-106601464D01*
X138727507Y-106574243D01*
X138703318Y-106550194D01*
X138694667Y-106530755D01*
X138681845Y-106513776D01*
X138672509Y-106480965D01*
X138658642Y-106449804D01*
X138655123Y-106419861D01*
X138651774Y-106408088D01*
X138650860Y-106395179D01*
X138650499Y-106387834D01*
X138650499Y-106182128D01*
X138644091Y-106122517D01*
X138636450Y-106102032D01*
X138634369Y-106059679D01*
X138638153Y-106031956D01*
X138636832Y-106003999D01*
X138642021Y-105976242D01*
X138644087Y-105967491D01*
X138644091Y-105967483D01*
X138650500Y-105907873D01*
X138650499Y-104912128D01*
X138644091Y-104852517D01*
X138644087Y-104852508D01*
X138642021Y-104843759D01*
X138636832Y-104733999D01*
X138642021Y-104706242D01*
X138644087Y-104697491D01*
X138644091Y-104697483D01*
X138650500Y-104637873D01*
X138650499Y-103642128D01*
X138644091Y-103582517D01*
X138644087Y-103582508D01*
X138642021Y-103573759D01*
X138636832Y-103463999D01*
X138642021Y-103436242D01*
X138644087Y-103427491D01*
X138644091Y-103427483D01*
X138650500Y-103367873D01*
X138650499Y-102372128D01*
X138644091Y-102312517D01*
X138644087Y-102312508D01*
X138642021Y-102303759D01*
X138636832Y-102193999D01*
X138642021Y-102166242D01*
X138644087Y-102157491D01*
X138644091Y-102157483D01*
X138650500Y-102097873D01*
X138650499Y-101102128D01*
X138644091Y-101042517D01*
X138644087Y-101042508D01*
X138642021Y-101033759D01*
X138636832Y-100923999D01*
X138642021Y-100896242D01*
X138644087Y-100887491D01*
X138644091Y-100887483D01*
X138650500Y-100827873D01*
X138650499Y-99832128D01*
X138644091Y-99772517D01*
X138644087Y-99772508D01*
X138642021Y-99763759D01*
X138636832Y-99653999D01*
X138642021Y-99626242D01*
X138644087Y-99617491D01*
X138644091Y-99617483D01*
X138650500Y-99557873D01*
X138650499Y-98562128D01*
X138644091Y-98502517D01*
X138644087Y-98502508D01*
X138642021Y-98493759D01*
X138636832Y-98383999D01*
X138642021Y-98356242D01*
X138644087Y-98347491D01*
X138644091Y-98347483D01*
X138650500Y-98287873D01*
X138650499Y-97292128D01*
X138644091Y-97232517D01*
X138644087Y-97232508D01*
X138642021Y-97223759D01*
X138636832Y-97113999D01*
X138642021Y-97086242D01*
X138644087Y-97077491D01*
X138644091Y-97077483D01*
X138650500Y-97017873D01*
X138650499Y-96022128D01*
X138644091Y-95962517D01*
X138644087Y-95962508D01*
X138642021Y-95953759D01*
X138636832Y-95843999D01*
X138642021Y-95816242D01*
X138644087Y-95807491D01*
X138644091Y-95807483D01*
X138650500Y-95747873D01*
X138650499Y-94752128D01*
X138644091Y-94692517D01*
X138644087Y-94692508D01*
X138642021Y-94683759D01*
X138636832Y-94573999D01*
X138642021Y-94546242D01*
X138644087Y-94537491D01*
X138644091Y-94537483D01*
X138650500Y-94477873D01*
X138650499Y-93482128D01*
X138644091Y-93422517D01*
X138644087Y-93422508D01*
X138642021Y-93413759D01*
X138636832Y-93303999D01*
X138642021Y-93276242D01*
X138644087Y-93267491D01*
X138644091Y-93267483D01*
X138650500Y-93207873D01*
X138650499Y-92212128D01*
X138644091Y-92152517D01*
X138644087Y-92152508D01*
X138642021Y-92143759D01*
X138636832Y-92033999D01*
X138642021Y-92006242D01*
X138644087Y-91997491D01*
X138644091Y-91997483D01*
X138650500Y-91937873D01*
X138650499Y-90942128D01*
X138650270Y-90940000D01*
X138644092Y-90882524D01*
X138644091Y-90882522D01*
X138644091Y-90882517D01*
X138644089Y-90882512D01*
X138641763Y-90872669D01*
X138636571Y-90762909D01*
X138641764Y-90735131D01*
X138643597Y-90727371D01*
X138649999Y-90667830D01*
X138650000Y-90667822D01*
X138650000Y-90470000D01*
X136150000Y-90470000D01*
X136068075Y-90551925D01*
X135977422Y-90614023D01*
X135870459Y-90639181D01*
X135856650Y-90639500D01*
X132420242Y-90639500D01*
X132312231Y-90619309D01*
X132218807Y-90561464D01*
X132152588Y-90473776D01*
X132140097Y-90444997D01*
X132103796Y-90347669D01*
X132017546Y-90232454D01*
X132017545Y-90232453D01*
X132017544Y-90232452D01*
X131902332Y-90146205D01*
X131902331Y-90146204D01*
X131902329Y-90146203D01*
X131902327Y-90146202D01*
X131767485Y-90095909D01*
X131767483Y-90095908D01*
X131707889Y-90089501D01*
X131707876Y-90089500D01*
X131707873Y-90089500D01*
X131707869Y-90089500D01*
X129912126Y-90089500D01*
X129852520Y-90095908D01*
X129852510Y-90095910D01*
X129717674Y-90146201D01*
X129717667Y-90146205D01*
X129602455Y-90232452D01*
X129602454Y-90232453D01*
X129533592Y-90324441D01*
X129452699Y-90398807D01*
X129350404Y-90438930D01*
X129240523Y-90439391D01*
X129137895Y-90400126D01*
X129118491Y-90387154D01*
X129033797Y-90325621D01*
X128977818Y-90284950D01*
X128977813Y-90284947D01*
X128788411Y-90188442D01*
X128788407Y-90188441D01*
X128586244Y-90122754D01*
X128586246Y-90122754D01*
X128376288Y-90089500D01*
X128376287Y-90089500D01*
X128163713Y-90089500D01*
X128163711Y-90089500D01*
X127953754Y-90122754D01*
X127751592Y-90188441D01*
X127751588Y-90188442D01*
X127562186Y-90284947D01*
X127562181Y-90284950D01*
X127390209Y-90409895D01*
X127390202Y-90409901D01*
X127239901Y-90560202D01*
X127239895Y-90560209D01*
X127209291Y-90602332D01*
X127129468Y-90677846D01*
X127027756Y-90719425D01*
X126943940Y-90724659D01*
X126875027Y-90719235D01*
X126227905Y-91366357D01*
X126195925Y-91247007D01*
X126130099Y-91132993D01*
X126037007Y-91039901D01*
X125922993Y-90974075D01*
X125803640Y-90942093D01*
X126450761Y-90294973D01*
X126437552Y-90285376D01*
X126437551Y-90285375D01*
X126248218Y-90188905D01*
X126248212Y-90188902D01*
X126046128Y-90123242D01*
X125836248Y-90090000D01*
X125623751Y-90090000D01*
X125413871Y-90123242D01*
X125211787Y-90188902D01*
X125211781Y-90188905D01*
X125022450Y-90285374D01*
X125022436Y-90285383D01*
X125009236Y-90294972D01*
X125656358Y-90942094D01*
X125537007Y-90974075D01*
X125422993Y-91039901D01*
X125329901Y-91132993D01*
X125264075Y-91247007D01*
X125232094Y-91366358D01*
X124584972Y-90719236D01*
X124516068Y-90724661D01*
X124501513Y-90723108D01*
X124487080Y-90725532D01*
X124447250Y-90717322D01*
X124406805Y-90713009D01*
X124393792Y-90706303D01*
X124379460Y-90703349D01*
X124345284Y-90681304D01*
X124309130Y-90662673D01*
X124297040Y-90650186D01*
X124287121Y-90643788D01*
X124250711Y-90602336D01*
X124220104Y-90560208D01*
X124069792Y-90409896D01*
X123953797Y-90325621D01*
X123897818Y-90284950D01*
X123897813Y-90284947D01*
X123708411Y-90188442D01*
X123708407Y-90188441D01*
X123506244Y-90122754D01*
X123506246Y-90122754D01*
X123296288Y-90089500D01*
X123296287Y-90089500D01*
X123083713Y-90089500D01*
X123083711Y-90089500D01*
X122873754Y-90122754D01*
X122671592Y-90188441D01*
X122671588Y-90188442D01*
X122482186Y-90284947D01*
X122482181Y-90284950D01*
X122310209Y-90409895D01*
X122310202Y-90409901D01*
X122159901Y-90560202D01*
X122152272Y-90569136D01*
X122150841Y-90567914D01*
X122082071Y-90632973D01*
X121980360Y-90674552D01*
X121870496Y-90676581D01*
X121767318Y-90638787D01*
X121687876Y-90569008D01*
X121687728Y-90569136D01*
X121686846Y-90568103D01*
X121684761Y-90566272D01*
X121680786Y-90561007D01*
X121680108Y-90560214D01*
X121680104Y-90560208D01*
X121529792Y-90409896D01*
X121413797Y-90325621D01*
X121357818Y-90284950D01*
X121357813Y-90284947D01*
X121168411Y-90188442D01*
X121168407Y-90188441D01*
X120966244Y-90122754D01*
X120966246Y-90122754D01*
X120756288Y-90089500D01*
X120756287Y-90089500D01*
X120543713Y-90089500D01*
X120543711Y-90089500D01*
X120333754Y-90122754D01*
X120131592Y-90188441D01*
X120131588Y-90188442D01*
X119942186Y-90284947D01*
X119942181Y-90284950D01*
X119770209Y-90409895D01*
X119770202Y-90409901D01*
X119619901Y-90560202D01*
X119612272Y-90569136D01*
X119610841Y-90567914D01*
X119542071Y-90632973D01*
X119440360Y-90674552D01*
X119330496Y-90676581D01*
X119227318Y-90638787D01*
X119147876Y-90569008D01*
X119147728Y-90569136D01*
X119146846Y-90568103D01*
X119144761Y-90566272D01*
X119140786Y-90561007D01*
X119140108Y-90560214D01*
X119140104Y-90560208D01*
X118989792Y-90409896D01*
X118873797Y-90325621D01*
X118817818Y-90284950D01*
X118817813Y-90284947D01*
X118628411Y-90188442D01*
X118628407Y-90188441D01*
X118426244Y-90122754D01*
X118426246Y-90122754D01*
X118216288Y-90089500D01*
X118216287Y-90089500D01*
X118003713Y-90089500D01*
X118003711Y-90089500D01*
X117793754Y-90122754D01*
X117591592Y-90188441D01*
X117591588Y-90188442D01*
X117402186Y-90284947D01*
X117402181Y-90284950D01*
X117230209Y-90409895D01*
X117230202Y-90409901D01*
X117079901Y-90560202D01*
X117072272Y-90569136D01*
X117070841Y-90567914D01*
X117002071Y-90632973D01*
X116900360Y-90674552D01*
X116790496Y-90676581D01*
X116687318Y-90638787D01*
X116607876Y-90569008D01*
X116607728Y-90569136D01*
X116606846Y-90568103D01*
X116604761Y-90566272D01*
X116600786Y-90561007D01*
X116600108Y-90560214D01*
X116600104Y-90560208D01*
X116449792Y-90409896D01*
X116333797Y-90325621D01*
X116277818Y-90284950D01*
X116277813Y-90284947D01*
X116088411Y-90188442D01*
X116088407Y-90188441D01*
X115886244Y-90122754D01*
X115886246Y-90122754D01*
X115676288Y-90089500D01*
X115676287Y-90089500D01*
X115463713Y-90089500D01*
X115463711Y-90089500D01*
X115253754Y-90122754D01*
X115051592Y-90188441D01*
X115051588Y-90188442D01*
X114862186Y-90284947D01*
X114862181Y-90284950D01*
X114690209Y-90409895D01*
X114690202Y-90409901D01*
X114539901Y-90560202D01*
X114532272Y-90569136D01*
X114530841Y-90567914D01*
X114462071Y-90632973D01*
X114360360Y-90674552D01*
X114250496Y-90676581D01*
X114147318Y-90638787D01*
X114067876Y-90569008D01*
X114067728Y-90569136D01*
X114066846Y-90568103D01*
X114064761Y-90566272D01*
X114060786Y-90561007D01*
X114060108Y-90560214D01*
X114060104Y-90560208D01*
X113909792Y-90409896D01*
X113793797Y-90325621D01*
X113737818Y-90284950D01*
X113737813Y-90284947D01*
X113548411Y-90188442D01*
X113548407Y-90188441D01*
X113346244Y-90122754D01*
X113346246Y-90122754D01*
X113136288Y-90089500D01*
X113136287Y-90089500D01*
X112923713Y-90089500D01*
X112923711Y-90089500D01*
X112713754Y-90122754D01*
X112511592Y-90188441D01*
X112511588Y-90188442D01*
X112322186Y-90284947D01*
X112322181Y-90284950D01*
X112150209Y-90409895D01*
X112150202Y-90409901D01*
X111999901Y-90560202D01*
X111992272Y-90569136D01*
X111990841Y-90567914D01*
X111922071Y-90632973D01*
X111820360Y-90674552D01*
X111710496Y-90676581D01*
X111607318Y-90638787D01*
X111527876Y-90569008D01*
X111527728Y-90569136D01*
X111526846Y-90568103D01*
X111524761Y-90566272D01*
X111520786Y-90561007D01*
X111520108Y-90560214D01*
X111520104Y-90560208D01*
X111369792Y-90409896D01*
X111253797Y-90325621D01*
X111197818Y-90284950D01*
X111197813Y-90284947D01*
X111008411Y-90188442D01*
X111008407Y-90188441D01*
X110806244Y-90122754D01*
X110806246Y-90122754D01*
X110596288Y-90089500D01*
X110596287Y-90089500D01*
X110383713Y-90089500D01*
X110383711Y-90089500D01*
X110173754Y-90122754D01*
X109971592Y-90188441D01*
X109971588Y-90188442D01*
X109782186Y-90284947D01*
X109782181Y-90284950D01*
X109610209Y-90409895D01*
X109610202Y-90409901D01*
X109459901Y-90560202D01*
X109452272Y-90569136D01*
X109450841Y-90567914D01*
X109382071Y-90632973D01*
X109280360Y-90674552D01*
X109170496Y-90676581D01*
X109067318Y-90638787D01*
X108987876Y-90569008D01*
X108987728Y-90569136D01*
X108986846Y-90568103D01*
X108984761Y-90566272D01*
X108980786Y-90561007D01*
X108980108Y-90560214D01*
X108980104Y-90560208D01*
X108829792Y-90409896D01*
X108713797Y-90325621D01*
X108657818Y-90284950D01*
X108657813Y-90284947D01*
X108468411Y-90188442D01*
X108468407Y-90188441D01*
X108266244Y-90122754D01*
X108266246Y-90122754D01*
X108056288Y-90089500D01*
X108056287Y-90089500D01*
X107843713Y-90089500D01*
X107843711Y-90089500D01*
X107633754Y-90122754D01*
X107431592Y-90188441D01*
X107431588Y-90188442D01*
X107242186Y-90284947D01*
X107242181Y-90284950D01*
X107070209Y-90409895D01*
X107070202Y-90409901D01*
X106919901Y-90560202D01*
X106919895Y-90560209D01*
X106794950Y-90732181D01*
X106794947Y-90732186D01*
X106698442Y-90921588D01*
X106698441Y-90921592D01*
X106632754Y-91123754D01*
X106599500Y-91333711D01*
X106599500Y-91546288D01*
X106632754Y-91756245D01*
X106698441Y-91958407D01*
X106698442Y-91958411D01*
X106794947Y-92147813D01*
X106794950Y-92147818D01*
X106842753Y-92213613D01*
X106919896Y-92319792D01*
X107070208Y-92470104D01*
X107242184Y-92595051D01*
X107431588Y-92691557D01*
X107633754Y-92757245D01*
X107633757Y-92757246D01*
X107843713Y-92790500D01*
X107843714Y-92790500D01*
X108056286Y-92790500D01*
X108056287Y-92790500D01*
X108266243Y-92757246D01*
X108468412Y-92691557D01*
X108657816Y-92595051D01*
X108829792Y-92470104D01*
X108980104Y-92319792D01*
X108980113Y-92319778D01*
X108987728Y-92310864D01*
X108989159Y-92312086D01*
X109057911Y-92247038D01*
X109159620Y-92205451D01*
X109269483Y-92203414D01*
X109372663Y-92241202D01*
X109452126Y-92310988D01*
X109452272Y-92310864D01*
X109453135Y-92311875D01*
X109455226Y-92313711D01*
X109459217Y-92318996D01*
X109459891Y-92319786D01*
X109459896Y-92319792D01*
X109610208Y-92470104D01*
X109782184Y-92595051D01*
X109971588Y-92691557D01*
X110173754Y-92757245D01*
X110173757Y-92757246D01*
X110383713Y-92790500D01*
X110383714Y-92790500D01*
X110596286Y-92790500D01*
X110596287Y-92790500D01*
X110806243Y-92757246D01*
X111008412Y-92691557D01*
X111197816Y-92595051D01*
X111369792Y-92470104D01*
X111520104Y-92319792D01*
X111520113Y-92319778D01*
X111527728Y-92310864D01*
X111529159Y-92312086D01*
X111597911Y-92247038D01*
X111699620Y-92205451D01*
X111809483Y-92203414D01*
X111912663Y-92241202D01*
X111992126Y-92310988D01*
X111992272Y-92310864D01*
X111993135Y-92311875D01*
X111995226Y-92313711D01*
X111999217Y-92318996D01*
X111999891Y-92319786D01*
X111999896Y-92319792D01*
X112150208Y-92470104D01*
X112322184Y-92595051D01*
X112511588Y-92691557D01*
X112713754Y-92757245D01*
X112713757Y-92757246D01*
X112923713Y-92790500D01*
X112923714Y-92790500D01*
X113136286Y-92790500D01*
X113136287Y-92790500D01*
X113346243Y-92757246D01*
X113548412Y-92691557D01*
X113737816Y-92595051D01*
X113909792Y-92470104D01*
X114060104Y-92319792D01*
X114060113Y-92319778D01*
X114067728Y-92310864D01*
X114069159Y-92312086D01*
X114137911Y-92247038D01*
X114239620Y-92205451D01*
X114349483Y-92203414D01*
X114452663Y-92241202D01*
X114532126Y-92310988D01*
X114532272Y-92310864D01*
X114533135Y-92311875D01*
X114535226Y-92313711D01*
X114539217Y-92318996D01*
X114539891Y-92319786D01*
X114539896Y-92319792D01*
X114690208Y-92470104D01*
X114862184Y-92595051D01*
X115051588Y-92691557D01*
X115253754Y-92757245D01*
X115253757Y-92757246D01*
X115463713Y-92790500D01*
X115463714Y-92790500D01*
X115676286Y-92790500D01*
X115676287Y-92790500D01*
X115886243Y-92757246D01*
X116088412Y-92691557D01*
X116277816Y-92595051D01*
X116449792Y-92470104D01*
X116600104Y-92319792D01*
X116600113Y-92319778D01*
X116607728Y-92310864D01*
X116609159Y-92312086D01*
X116677911Y-92247038D01*
X116779620Y-92205451D01*
X116889483Y-92203414D01*
X116992663Y-92241202D01*
X117072126Y-92310988D01*
X117072272Y-92310864D01*
X117073135Y-92311875D01*
X117075226Y-92313711D01*
X117079217Y-92318996D01*
X117079891Y-92319786D01*
X117079896Y-92319792D01*
X117230208Y-92470104D01*
X117402184Y-92595051D01*
X117591588Y-92691557D01*
X117793754Y-92757245D01*
X117793757Y-92757246D01*
X118003713Y-92790500D01*
X118003714Y-92790500D01*
X118216286Y-92790500D01*
X118216287Y-92790500D01*
X118426243Y-92757246D01*
X118628412Y-92691557D01*
X118817816Y-92595051D01*
X118989792Y-92470104D01*
X119140104Y-92319792D01*
X119140113Y-92319778D01*
X119147728Y-92310864D01*
X119149159Y-92312086D01*
X119217911Y-92247038D01*
X119319620Y-92205451D01*
X119429483Y-92203414D01*
X119532663Y-92241202D01*
X119612126Y-92310988D01*
X119612272Y-92310864D01*
X119613135Y-92311875D01*
X119615226Y-92313711D01*
X119619217Y-92318996D01*
X119619891Y-92319786D01*
X119619896Y-92319792D01*
X119770208Y-92470104D01*
X119942184Y-92595051D01*
X120131588Y-92691557D01*
X120333754Y-92757245D01*
X120333757Y-92757246D01*
X120543713Y-92790500D01*
X120543714Y-92790500D01*
X120744572Y-92790500D01*
X120852583Y-92810691D01*
X120946007Y-92868536D01*
X120955997Y-92878075D01*
X123881211Y-95803289D01*
X123992711Y-95914789D01*
X124123821Y-96002394D01*
X124269503Y-96062737D01*
X124424158Y-96093500D01*
X124847197Y-96093500D01*
X124850145Y-96094051D01*
X124853107Y-96093558D01*
X124904079Y-96104133D01*
X124955208Y-96113691D01*
X124957758Y-96115270D01*
X124960698Y-96115880D01*
X125004391Y-96144143D01*
X125048632Y-96171536D01*
X125050441Y-96173931D01*
X125052960Y-96175561D01*
X125083481Y-96217684D01*
X125114851Y-96259224D01*
X125115672Y-96262111D01*
X125117433Y-96264541D01*
X125130679Y-96314855D01*
X125144922Y-96364912D01*
X125144645Y-96367900D01*
X125145409Y-96370802D01*
X125139585Y-96422498D01*
X125134783Y-96474325D01*
X125133444Y-96477012D01*
X125133109Y-96479994D01*
X125108998Y-96526106D01*
X125085804Y-96572688D01*
X125083152Y-96575539D01*
X125082196Y-96577369D01*
X125075103Y-96584195D01*
X125044225Y-96617402D01*
X125026991Y-96632499D01*
X125022184Y-96634949D01*
X124850208Y-96759896D01*
X124699896Y-96910208D01*
X124682213Y-96934545D01*
X124657028Y-96956610D01*
X124638073Y-96967833D01*
X124622071Y-96982973D01*
X124591187Y-96995598D01*
X124562479Y-97012598D01*
X124540748Y-97016217D01*
X124520360Y-97024552D01*
X124487005Y-97025168D01*
X124454090Y-97030650D01*
X124432517Y-97026174D01*
X124410496Y-97026581D01*
X124379169Y-97015106D01*
X124346499Y-97008328D01*
X124328004Y-96996364D01*
X124307318Y-96988787D01*
X124282247Y-96966765D01*
X124254237Y-96948647D01*
X124241313Y-96930811D01*
X124227876Y-96919008D01*
X124227728Y-96919136D01*
X124226846Y-96918103D01*
X124224761Y-96916272D01*
X124220786Y-96911007D01*
X124220108Y-96910214D01*
X124220104Y-96910208D01*
X124069792Y-96759896D01*
X123914015Y-96646718D01*
X123897818Y-96634950D01*
X123897813Y-96634947D01*
X123708411Y-96538442D01*
X123708407Y-96538441D01*
X123506244Y-96472754D01*
X123506246Y-96472754D01*
X123296288Y-96439500D01*
X123296287Y-96439500D01*
X123083713Y-96439500D01*
X123083711Y-96439500D01*
X122873754Y-96472754D01*
X122671592Y-96538441D01*
X122671588Y-96538442D01*
X122482186Y-96634947D01*
X122482181Y-96634950D01*
X122310209Y-96759895D01*
X122310202Y-96759901D01*
X122159901Y-96910202D01*
X122152272Y-96919136D01*
X122150841Y-96917914D01*
X122082071Y-96982973D01*
X121980360Y-97024552D01*
X121870496Y-97026581D01*
X121767318Y-96988787D01*
X121687876Y-96919008D01*
X121687728Y-96919136D01*
X121686846Y-96918103D01*
X121684761Y-96916272D01*
X121680786Y-96911007D01*
X121680108Y-96910214D01*
X121680104Y-96910208D01*
X121529792Y-96759896D01*
X121374015Y-96646718D01*
X121357818Y-96634950D01*
X121357813Y-96634947D01*
X121168411Y-96538442D01*
X121168407Y-96538441D01*
X120966244Y-96472754D01*
X120966246Y-96472754D01*
X120756288Y-96439500D01*
X120756287Y-96439500D01*
X120543713Y-96439500D01*
X120543711Y-96439500D01*
X120333754Y-96472754D01*
X120131592Y-96538441D01*
X120131588Y-96538442D01*
X119942186Y-96634947D01*
X119942181Y-96634950D01*
X119770209Y-96759895D01*
X119770202Y-96759901D01*
X119619901Y-96910202D01*
X119619895Y-96910209D01*
X119494950Y-97082181D01*
X119494947Y-97082186D01*
X119398442Y-97271588D01*
X119398441Y-97271592D01*
X119332754Y-97473754D01*
X119299500Y-97683711D01*
X119299500Y-97896288D01*
X119332754Y-98106245D01*
X119398441Y-98308407D01*
X119398442Y-98308411D01*
X119494947Y-98497813D01*
X119494950Y-98497818D01*
X119552432Y-98576935D01*
X119619896Y-98669792D01*
X119770208Y-98820104D01*
X119894403Y-98910336D01*
X119940500Y-98943828D01*
X119942184Y-98945051D01*
X120131588Y-99041557D01*
X120333754Y-99107245D01*
X120333757Y-99107246D01*
X120543713Y-99140500D01*
X120543714Y-99140500D01*
X120756286Y-99140500D01*
X120756287Y-99140500D01*
X120756288Y-99140499D01*
X120756296Y-99140499D01*
X120826683Y-99129350D01*
X120879700Y-99120953D01*
X120989539Y-99123997D01*
X121090862Y-99166515D01*
X121137901Y-99204846D01*
X121995844Y-100062789D01*
X122126954Y-100150394D01*
X122272636Y-100210738D01*
X122427291Y-100241500D01*
X122584976Y-100241500D01*
X123033656Y-100241500D01*
X123141667Y-100261691D01*
X123235091Y-100319536D01*
X123245081Y-100329075D01*
X123968295Y-101052289D01*
X124079795Y-101163789D01*
X124210905Y-101251394D01*
X124356587Y-101311737D01*
X124511242Y-101342500D01*
X124724572Y-101342500D01*
X124832583Y-101362691D01*
X124926007Y-101420536D01*
X124935997Y-101430075D01*
X126713536Y-103207614D01*
X126775634Y-103298267D01*
X126800792Y-103405230D01*
X126792000Y-103468257D01*
X126792000Y-104497855D01*
X126684993Y-104436075D01*
X126557826Y-104402000D01*
X126426174Y-104402000D01*
X126299007Y-104436075D01*
X126192000Y-104497855D01*
X126192000Y-103552000D01*
X125940500Y-103552000D01*
X125832489Y-103531809D01*
X125739065Y-103473964D01*
X125672846Y-103386276D01*
X125642775Y-103280588D01*
X125641500Y-103253000D01*
X125641500Y-103238261D01*
X125641500Y-103238258D01*
X125610737Y-103083603D01*
X125550394Y-102937921D01*
X125462789Y-102806811D01*
X125351289Y-102695311D01*
X124778189Y-102122211D01*
X124647079Y-102034606D01*
X124501397Y-101974263D01*
X124501395Y-101974262D01*
X124501394Y-101974262D01*
X124439028Y-101961856D01*
X124346742Y-101943500D01*
X124346739Y-101943500D01*
X124036379Y-101943500D01*
X123928368Y-101923309D01*
X123834944Y-101865464D01*
X123824954Y-101855925D01*
X123446288Y-101477259D01*
X123375712Y-101430102D01*
X123315179Y-101389655D01*
X123169497Y-101329312D01*
X123169495Y-101329311D01*
X123169494Y-101329311D01*
X123107128Y-101316905D01*
X123014842Y-101298549D01*
X123014839Y-101298549D01*
X122505510Y-101298549D01*
X122397499Y-101278358D01*
X122304075Y-101220513D01*
X122294085Y-101210974D01*
X122238321Y-101155210D01*
X122194816Y-101126141D01*
X122107212Y-101067606D01*
X121961530Y-101007263D01*
X121961528Y-101007262D01*
X121961527Y-101007262D01*
X121899161Y-100994856D01*
X121806875Y-100976500D01*
X112423842Y-100976500D01*
X112266158Y-100976500D01*
X112189183Y-100991811D01*
X112111505Y-101007262D01*
X111965821Y-101067606D01*
X111834711Y-101155210D01*
X110999996Y-101989925D01*
X110909343Y-102052023D01*
X110802380Y-102077181D01*
X110788571Y-102077500D01*
X110641646Y-102077500D01*
X110439464Y-102109523D01*
X110244785Y-102172778D01*
X110244781Y-102172779D01*
X110062392Y-102265711D01*
X110062382Y-102265717D01*
X109927006Y-102364073D01*
X109910670Y-102371833D01*
X109896755Y-102383389D01*
X109861414Y-102395233D01*
X109827755Y-102411225D01*
X109809719Y-102412560D01*
X109792569Y-102418309D01*
X109755339Y-102416587D01*
X109718173Y-102419340D01*
X109700870Y-102414069D01*
X109682804Y-102413234D01*
X109648710Y-102398180D01*
X109613059Y-102387320D01*
X109596346Y-102375059D01*
X109582284Y-102368850D01*
X109539835Y-102333601D01*
X109171475Y-101965241D01*
X109109377Y-101874588D01*
X109084219Y-101767625D01*
X109099400Y-101658796D01*
X109152869Y-101562801D01*
X109237405Y-101492603D01*
X109341591Y-101457683D01*
X109451356Y-101462758D01*
X109475299Y-101469451D01*
X109578748Y-101503064D01*
X109578745Y-101503064D01*
X109811945Y-101539999D01*
X109811948Y-101540000D01*
X110048052Y-101540000D01*
X110048054Y-101539999D01*
X110281254Y-101503064D01*
X110281259Y-101503062D01*
X110505798Y-101430104D01*
X110505804Y-101430102D01*
X110716162Y-101322919D01*
X110716171Y-101322914D01*
X110758149Y-101292413D01*
X110044466Y-100578730D01*
X110142292Y-100552518D01*
X110267708Y-100480110D01*
X110370110Y-100377708D01*
X110442518Y-100252292D01*
X110468730Y-100154466D01*
X111182413Y-100868149D01*
X111212914Y-100826171D01*
X111212919Y-100826162D01*
X111320102Y-100615804D01*
X111320104Y-100615798D01*
X111393062Y-100391259D01*
X111393064Y-100391254D01*
X111429999Y-100158054D01*
X111430000Y-100158052D01*
X111430000Y-99921947D01*
X111429999Y-99921945D01*
X111393064Y-99688745D01*
X111393062Y-99688740D01*
X111320104Y-99464201D01*
X111212913Y-99253827D01*
X111212912Y-99253825D01*
X111182414Y-99211849D01*
X111182413Y-99211849D01*
X110468730Y-99925531D01*
X110442518Y-99827708D01*
X110370110Y-99702292D01*
X110267708Y-99599890D01*
X110142292Y-99527482D01*
X110044464Y-99501268D01*
X110758149Y-98787584D01*
X110716174Y-98757087D01*
X110716169Y-98757084D01*
X110505798Y-98649895D01*
X110281259Y-98576937D01*
X110281254Y-98576935D01*
X110048054Y-98540000D01*
X109811945Y-98540000D01*
X109578745Y-98576935D01*
X109578740Y-98576937D01*
X109354201Y-98649895D01*
X109343343Y-98654393D01*
X109342184Y-98651596D01*
X109310196Y-98660697D01*
X109258816Y-98675827D01*
X109257429Y-98675711D01*
X109256088Y-98676093D01*
X109202689Y-98671144D01*
X109149315Y-98666692D01*
X109148062Y-98666082D01*
X109146675Y-98665954D01*
X109098701Y-98642066D01*
X109050507Y-98618617D01*
X109049558Y-98617595D01*
X109048312Y-98616975D01*
X109012203Y-98577365D01*
X108975739Y-98538095D01*
X108975224Y-98536801D01*
X108974285Y-98535771D01*
X108954919Y-98485782D01*
X108935107Y-98436001D01*
X108934930Y-98434184D01*
X108934591Y-98433309D01*
X108929500Y-98378368D01*
X108929500Y-97796427D01*
X108947900Y-97697995D01*
X112044387Y-97697995D01*
X112044387Y-98898011D01*
X112054887Y-99000793D01*
X112054887Y-99000795D01*
X112054888Y-99000797D01*
X112090162Y-99107246D01*
X112110074Y-99167337D01*
X112202174Y-99316654D01*
X112202174Y-99316655D01*
X112326231Y-99440712D01*
X112475549Y-99532812D01*
X112475557Y-99532816D01*
X112575668Y-99565989D01*
X112642090Y-99587999D01*
X112744878Y-99598500D01*
X113944895Y-99598499D01*
X113944898Y-99598499D01*
X113988947Y-99593999D01*
X114047684Y-99587999D01*
X114214221Y-99532814D01*
X114363543Y-99440712D01*
X114363542Y-99440712D01*
X114378365Y-99431570D01*
X114380112Y-99434403D01*
X114451681Y-99396751D01*
X114560841Y-99384174D01*
X114667173Y-99411879D01*
X114675644Y-99416029D01*
X114845852Y-99502753D01*
X114845862Y-99502758D01*
X115040468Y-99565989D01*
X115242571Y-99597999D01*
X115242577Y-99598000D01*
X115447197Y-99598000D01*
X115447202Y-99597999D01*
X115649305Y-99565989D01*
X115843911Y-99502758D01*
X115843921Y-99502753D01*
X116026229Y-99409864D01*
X116026234Y-99409861D01*
X116029853Y-99407230D01*
X115344180Y-98721557D01*
X115328043Y-98698000D01*
X115397548Y-98698000D01*
X115499281Y-98670741D01*
X115590493Y-98618080D01*
X115664967Y-98543606D01*
X115717628Y-98452394D01*
X115744887Y-98350661D01*
X115744887Y-98297999D01*
X115769150Y-98297999D01*
X116454117Y-98982966D01*
X116456748Y-98979347D01*
X116456751Y-98979342D01*
X116549640Y-98797034D01*
X116549645Y-98797024D01*
X116612876Y-98602418D01*
X116644886Y-98400315D01*
X116644887Y-98400309D01*
X116644887Y-98195690D01*
X116644886Y-98195684D01*
X116612876Y-97993581D01*
X116549645Y-97798975D01*
X116549643Y-97798970D01*
X116456749Y-97616655D01*
X116454117Y-97613032D01*
X115769150Y-98297999D01*
X115744887Y-98297999D01*
X115744887Y-98245339D01*
X115717628Y-98143606D01*
X115664967Y-98052394D01*
X115590493Y-97977920D01*
X115499281Y-97925259D01*
X115397548Y-97898000D01*
X115323820Y-97898000D01*
X115325573Y-97894852D01*
X115344179Y-97874442D01*
X116029853Y-97188767D01*
X116026238Y-97186141D01*
X116026231Y-97186137D01*
X115843916Y-97093243D01*
X115843911Y-97093241D01*
X115649305Y-97030010D01*
X115447202Y-96998000D01*
X115242571Y-96998000D01*
X115040468Y-97030010D01*
X114845862Y-97093241D01*
X114845856Y-97093244D01*
X114675643Y-97179971D01*
X114570238Y-97211016D01*
X114460735Y-97201888D01*
X114379604Y-97162420D01*
X114378365Y-97164430D01*
X114214224Y-97063187D01*
X114214216Y-97063183D01*
X114047689Y-97008002D01*
X114047681Y-97008000D01*
X113988488Y-97001953D01*
X113944896Y-96997500D01*
X113944891Y-96997500D01*
X112744875Y-96997500D01*
X112642093Y-97008000D01*
X112475549Y-97063187D01*
X112326232Y-97155287D01*
X112326231Y-97155287D01*
X112202174Y-97279344D01*
X112202174Y-97279345D01*
X112110074Y-97428662D01*
X112110070Y-97428670D01*
X112054889Y-97595197D01*
X112054887Y-97595205D01*
X112044387Y-97697995D01*
X108947900Y-97697995D01*
X108949691Y-97688416D01*
X109007536Y-97594992D01*
X109017056Y-97585021D01*
X109488081Y-97113995D01*
X109578730Y-97051900D01*
X109685694Y-97026742D01*
X109746267Y-97030103D01*
X109811908Y-97040500D01*
X109811914Y-97040500D01*
X110048091Y-97040500D01*
X110048092Y-97040500D01*
X110281368Y-97003553D01*
X110505992Y-96930568D01*
X110690733Y-96836438D01*
X110716426Y-96823347D01*
X110716427Y-96823346D01*
X110716426Y-96823346D01*
X110716433Y-96823343D01*
X110907510Y-96684517D01*
X111074517Y-96517510D01*
X111213343Y-96326433D01*
X111219243Y-96314855D01*
X111268753Y-96217684D01*
X111320568Y-96115992D01*
X111393553Y-95891368D01*
X111430500Y-95658092D01*
X111430500Y-95421908D01*
X111393553Y-95188632D01*
X111320568Y-94964008D01*
X111285801Y-94895775D01*
X111213347Y-94753573D01*
X111213346Y-94753572D01*
X111213344Y-94753569D01*
X111213343Y-94753567D01*
X111074517Y-94562490D01*
X110907510Y-94395483D01*
X110716433Y-94256657D01*
X110716431Y-94256656D01*
X110716427Y-94256653D01*
X110716426Y-94256652D01*
X110505996Y-94149434D01*
X110505987Y-94149430D01*
X110385582Y-94110308D01*
X110281368Y-94076447D01*
X110234712Y-94069057D01*
X110048096Y-94039500D01*
X110048092Y-94039500D01*
X109811908Y-94039500D01*
X109811903Y-94039500D01*
X109578632Y-94076447D01*
X109354012Y-94149430D01*
X109354003Y-94149434D01*
X109143573Y-94256652D01*
X109143572Y-94256653D01*
X108952490Y-94395482D01*
X108785482Y-94562490D01*
X108646653Y-94753572D01*
X108646652Y-94753573D01*
X108539434Y-94964003D01*
X108539430Y-94964012D01*
X108466447Y-95188632D01*
X108429500Y-95421903D01*
X108429500Y-95658098D01*
X108439894Y-95723722D01*
X108436848Y-95833562D01*
X108394329Y-95934885D01*
X108356000Y-95981920D01*
X107618711Y-96719211D01*
X107507210Y-96830711D01*
X107419606Y-96961821D01*
X107359262Y-97107505D01*
X107328500Y-97262159D01*
X107328500Y-101783665D01*
X107308309Y-101891676D01*
X107250464Y-101985100D01*
X107162776Y-102051319D01*
X107076276Y-102078984D01*
X106883463Y-102109523D01*
X106688785Y-102172778D01*
X106688781Y-102172779D01*
X106506392Y-102265711D01*
X106506387Y-102265714D01*
X106340782Y-102386033D01*
X106340775Y-102386039D01*
X106196039Y-102530775D01*
X106196033Y-102530782D01*
X106075714Y-102696387D01*
X106075711Y-102696392D01*
X105982779Y-102878781D01*
X105982778Y-102878785D01*
X105919523Y-103073464D01*
X105887500Y-103275646D01*
X105887500Y-103480353D01*
X105919523Y-103682535D01*
X105953500Y-103787104D01*
X105967675Y-103896068D01*
X105941530Y-104002794D01*
X105878597Y-104092869D01*
X105787374Y-104154127D01*
X105680183Y-104178296D01*
X105669134Y-104178500D01*
X99084428Y-104178500D01*
X98976417Y-104158309D01*
X98882993Y-104100464D01*
X98873003Y-104090925D01*
X98416075Y-103633997D01*
X98353977Y-103543344D01*
X98328819Y-103436381D01*
X98328500Y-103422572D01*
X98328500Y-103275648D01*
X98296477Y-103073466D01*
X98233220Y-102878781D01*
X98140287Y-102696390D01*
X98019966Y-102530781D01*
X97875219Y-102386034D01*
X97752953Y-102297203D01*
X97709612Y-102265714D01*
X97709607Y-102265711D01*
X97527218Y-102172779D01*
X97527214Y-102172778D01*
X97332535Y-102109523D01*
X97130353Y-102077500D01*
X97130352Y-102077500D01*
X96925648Y-102077500D01*
X96925646Y-102077500D01*
X96723464Y-102109523D01*
X96528785Y-102172778D01*
X96528781Y-102172779D01*
X96346392Y-102265711D01*
X96346387Y-102265714D01*
X96180782Y-102386033D01*
X96180775Y-102386039D01*
X96036039Y-102530775D01*
X96036033Y-102530782D01*
X95915714Y-102696387D01*
X95915711Y-102696392D01*
X95822779Y-102878781D01*
X95822778Y-102878785D01*
X95759523Y-103073464D01*
X95727500Y-103275646D01*
X95727500Y-103480353D01*
X95759523Y-103682535D01*
X95822778Y-103877214D01*
X95822779Y-103877218D01*
X95915711Y-104059607D01*
X95915713Y-104059610D01*
X96036034Y-104225219D01*
X96180781Y-104369966D01*
X96346390Y-104490287D01*
X96528781Y-104583220D01*
X96723466Y-104646477D01*
X96925648Y-104678500D01*
X96925649Y-104678500D01*
X97072572Y-104678500D01*
X97180583Y-104698691D01*
X97274007Y-104756536D01*
X97283997Y-104766075D01*
X98007211Y-105489289D01*
X98118711Y-105600789D01*
X98249821Y-105688394D01*
X98395503Y-105748737D01*
X98550158Y-105779500D01*
X98550162Y-105779500D01*
X106173844Y-105779500D01*
X106281855Y-105799691D01*
X106375279Y-105857536D01*
X106441498Y-105945224D01*
X106471569Y-106050912D01*
X106461430Y-106160325D01*
X106412451Y-106258688D01*
X106331247Y-106332715D01*
X106266243Y-106362864D01*
X106142394Y-106403105D01*
X106142391Y-106403106D01*
X106142389Y-106403107D01*
X105945984Y-106503181D01*
X105945982Y-106503182D01*
X105945978Y-106503185D01*
X105767635Y-106632758D01*
X105767633Y-106632760D01*
X105767629Y-106632763D01*
X105611763Y-106788629D01*
X105611760Y-106788633D01*
X105611758Y-106788635D01*
X105544101Y-106881758D01*
X105482182Y-106966982D01*
X105482181Y-106966984D01*
X105382107Y-107163389D01*
X105382106Y-107163391D01*
X105313984Y-107373052D01*
X105279500Y-107590776D01*
X105279500Y-107811223D01*
X105310863Y-108009244D01*
X105313985Y-108028951D01*
X105376518Y-108221412D01*
X105382106Y-108238608D01*
X105382107Y-108238610D01*
X105453620Y-108378962D01*
X105482185Y-108435022D01*
X105546271Y-108523229D01*
X105593422Y-108622476D01*
X105601537Y-108732058D01*
X105569518Y-108837172D01*
X105501690Y-108923621D01*
X105483561Y-108938332D01*
X105422812Y-108983809D01*
X105422808Y-108983813D01*
X105336647Y-109098909D01*
X105286403Y-109233617D01*
X105286403Y-109233620D01*
X105280000Y-109293171D01*
X105280000Y-109941000D01*
X106343604Y-109941000D01*
X106319910Y-109964694D01*
X106260667Y-110067306D01*
X106230000Y-110181756D01*
X106230000Y-110300244D01*
X106260667Y-110414694D01*
X106319910Y-110517306D01*
X106343604Y-110541000D01*
X105280000Y-110541000D01*
X105280000Y-111188828D01*
X105286403Y-111248379D01*
X105286403Y-111248382D01*
X105336647Y-111383090D01*
X105422808Y-111498186D01*
X105422813Y-111498191D01*
X105537909Y-111584352D01*
X105672618Y-111634596D01*
X105732171Y-111640999D01*
X105732177Y-111641000D01*
X106380000Y-111641000D01*
X106380000Y-110577396D01*
X106403694Y-110601090D01*
X106506306Y-110660333D01*
X106620756Y-110691000D01*
X106739244Y-110691000D01*
X106853694Y-110660333D01*
X106956306Y-110601090D01*
X106980000Y-110577396D01*
X106980000Y-111641000D01*
X107281500Y-111641000D01*
X107389511Y-111661191D01*
X107482935Y-111719036D01*
X107549154Y-111806724D01*
X107579225Y-111912412D01*
X107580500Y-111940000D01*
X107580500Y-112650500D01*
X107560309Y-112758511D01*
X107502464Y-112851935D01*
X107414776Y-112918154D01*
X107309088Y-112948225D01*
X107281501Y-112949500D01*
X107052126Y-112949500D01*
X106992520Y-112955908D01*
X106992510Y-112955910D01*
X106857674Y-113006201D01*
X106857667Y-113006205D01*
X106742455Y-113092452D01*
X106742452Y-113092455D01*
X106656205Y-113207667D01*
X106656202Y-113207672D01*
X106605909Y-113342514D01*
X106605908Y-113342516D01*
X106599501Y-113402110D01*
X106599500Y-113402130D01*
X106599500Y-115197873D01*
X106605908Y-115257479D01*
X106605910Y-115257489D01*
X106656201Y-115392325D01*
X106656205Y-115392332D01*
X106742452Y-115507544D01*
X106742454Y-115507546D01*
X106857669Y-115593796D01*
X106920539Y-115617245D01*
X106992514Y-115644090D01*
X106992516Y-115644091D01*
X107015419Y-115646553D01*
X107052127Y-115650500D01*
X108847872Y-115650499D01*
X108847873Y-115650499D01*
X108861007Y-115649087D01*
X108907483Y-115644091D01*
X108907487Y-115644089D01*
X108907489Y-115644089D01*
X108979461Y-115617245D01*
X109042331Y-115593796D01*
X109157546Y-115507546D01*
X109226408Y-115415558D01*
X109307298Y-115341193D01*
X109409592Y-115301069D01*
X109519473Y-115300608D01*
X109622101Y-115339871D01*
X109641502Y-115352840D01*
X109782184Y-115455051D01*
X109971588Y-115551557D01*
X110173754Y-115617245D01*
X110173757Y-115617246D01*
X110383713Y-115650500D01*
X110383714Y-115650500D01*
X110596286Y-115650500D01*
X110596287Y-115650500D01*
X110806243Y-115617246D01*
X111008412Y-115551557D01*
X111197816Y-115455051D01*
X111369792Y-115330104D01*
X111520104Y-115179792D01*
X111520113Y-115179778D01*
X111527728Y-115170864D01*
X111529159Y-115172086D01*
X111597911Y-115107038D01*
X111699620Y-115065451D01*
X111809483Y-115063414D01*
X111912663Y-115101202D01*
X111992126Y-115170988D01*
X111992272Y-115170864D01*
X111993135Y-115171875D01*
X111995226Y-115173711D01*
X111999217Y-115178996D01*
X111999891Y-115179786D01*
X111999896Y-115179792D01*
X112150208Y-115330104D01*
X112322184Y-115455051D01*
X112511588Y-115551557D01*
X112713754Y-115617245D01*
X112713757Y-115617246D01*
X112923713Y-115650500D01*
X112923714Y-115650500D01*
X113136286Y-115650500D01*
X113136287Y-115650500D01*
X113346243Y-115617246D01*
X113548412Y-115551557D01*
X113737816Y-115455051D01*
X113909792Y-115330104D01*
X114060104Y-115179792D01*
X114060113Y-115179778D01*
X114067728Y-115170864D01*
X114069159Y-115172086D01*
X114137911Y-115107038D01*
X114239620Y-115065451D01*
X114349483Y-115063414D01*
X114452663Y-115101202D01*
X114532126Y-115170988D01*
X114532272Y-115170864D01*
X114533135Y-115171875D01*
X114535226Y-115173711D01*
X114539217Y-115178996D01*
X114539891Y-115179786D01*
X114539896Y-115179792D01*
X114690208Y-115330104D01*
X114862184Y-115455051D01*
X115051588Y-115551557D01*
X115253754Y-115617245D01*
X115253757Y-115617246D01*
X115463713Y-115650500D01*
X115463714Y-115650500D01*
X115676286Y-115650500D01*
X115676287Y-115650500D01*
X115886243Y-115617246D01*
X116088412Y-115551557D01*
X116277816Y-115455051D01*
X116449792Y-115330104D01*
X116600104Y-115179792D01*
X116600113Y-115179778D01*
X116607728Y-115170864D01*
X116609159Y-115172086D01*
X116677911Y-115107038D01*
X116779620Y-115065451D01*
X116889483Y-115063414D01*
X116992663Y-115101202D01*
X117072126Y-115170988D01*
X117072272Y-115170864D01*
X117073135Y-115171875D01*
X117075226Y-115173711D01*
X117079217Y-115178996D01*
X117079891Y-115179786D01*
X117079896Y-115179792D01*
X117230208Y-115330104D01*
X117402184Y-115455051D01*
X117591588Y-115551557D01*
X117793754Y-115617245D01*
X117793757Y-115617246D01*
X118003713Y-115650500D01*
X118003714Y-115650500D01*
X118216286Y-115650500D01*
X118216287Y-115650500D01*
X118426243Y-115617246D01*
X118628412Y-115551557D01*
X118817816Y-115455051D01*
X118989792Y-115330104D01*
X119140104Y-115179792D01*
X119140113Y-115179778D01*
X119147728Y-115170864D01*
X119149159Y-115172086D01*
X119217911Y-115107038D01*
X119319620Y-115065451D01*
X119429483Y-115063414D01*
X119532663Y-115101202D01*
X119612126Y-115170988D01*
X119612272Y-115170864D01*
X119613135Y-115171875D01*
X119615226Y-115173711D01*
X119619217Y-115178996D01*
X119619891Y-115179786D01*
X119619896Y-115179792D01*
X119770208Y-115330104D01*
X119942184Y-115455051D01*
X120131588Y-115551557D01*
X120333754Y-115617245D01*
X120333757Y-115617246D01*
X120543713Y-115650500D01*
X120543714Y-115650500D01*
X120756286Y-115650500D01*
X120756287Y-115650500D01*
X120966243Y-115617246D01*
X121168412Y-115551557D01*
X121357816Y-115455051D01*
X121529792Y-115330104D01*
X121680104Y-115179792D01*
X121680113Y-115179778D01*
X121687728Y-115170864D01*
X121689159Y-115172086D01*
X121757911Y-115107038D01*
X121859620Y-115065451D01*
X121969483Y-115063414D01*
X122072663Y-115101202D01*
X122152126Y-115170988D01*
X122152272Y-115170864D01*
X122153135Y-115171875D01*
X122155226Y-115173711D01*
X122159217Y-115178996D01*
X122159891Y-115179786D01*
X122159896Y-115179792D01*
X122310208Y-115330104D01*
X122482184Y-115455051D01*
X122671588Y-115551557D01*
X122873754Y-115617245D01*
X122873757Y-115617246D01*
X123083713Y-115650500D01*
X123083714Y-115650500D01*
X123296286Y-115650500D01*
X123296287Y-115650500D01*
X123506243Y-115617246D01*
X123708412Y-115551557D01*
X123897816Y-115455051D01*
X124069792Y-115330104D01*
X124220104Y-115179792D01*
X124220113Y-115179778D01*
X124227728Y-115170864D01*
X124229159Y-115172086D01*
X124297911Y-115107038D01*
X124399620Y-115065451D01*
X124509483Y-115063414D01*
X124612663Y-115101202D01*
X124692126Y-115170988D01*
X124692272Y-115170864D01*
X124693135Y-115171875D01*
X124695226Y-115173711D01*
X124699217Y-115178996D01*
X124699891Y-115179786D01*
X124699896Y-115179792D01*
X124850208Y-115330104D01*
X125022184Y-115455051D01*
X125211588Y-115551557D01*
X125413754Y-115617245D01*
X125413757Y-115617246D01*
X125623713Y-115650500D01*
X125623714Y-115650500D01*
X125836286Y-115650500D01*
X125836287Y-115650500D01*
X126046243Y-115617246D01*
X126248412Y-115551557D01*
X126437816Y-115455051D01*
X126609792Y-115330104D01*
X126760104Y-115179792D01*
X126760113Y-115179778D01*
X126767728Y-115170864D01*
X126769159Y-115172086D01*
X126837911Y-115107038D01*
X126939620Y-115065451D01*
X127049483Y-115063414D01*
X127152663Y-115101202D01*
X127232126Y-115170988D01*
X127232272Y-115170864D01*
X127233135Y-115171875D01*
X127235226Y-115173711D01*
X127239217Y-115178996D01*
X127239891Y-115179786D01*
X127239896Y-115179792D01*
X127390208Y-115330104D01*
X127562184Y-115455051D01*
X127751588Y-115551557D01*
X127953754Y-115617245D01*
X127953757Y-115617246D01*
X128163713Y-115650500D01*
X128163714Y-115650500D01*
X128376286Y-115650500D01*
X128376287Y-115650500D01*
X128586243Y-115617246D01*
X128788412Y-115551557D01*
X128977816Y-115455051D01*
X129149792Y-115330104D01*
X129300104Y-115179792D01*
X129300113Y-115179778D01*
X129307728Y-115170864D01*
X129309159Y-115172086D01*
X129377911Y-115107038D01*
X129479620Y-115065451D01*
X129589483Y-115063414D01*
X129692663Y-115101202D01*
X129772126Y-115170988D01*
X129772272Y-115170864D01*
X129773135Y-115171875D01*
X129775226Y-115173711D01*
X129779217Y-115178996D01*
X129779891Y-115179786D01*
X129779896Y-115179792D01*
X129930208Y-115330104D01*
X130102184Y-115455051D01*
X130291588Y-115551557D01*
X130493757Y-115617246D01*
X130694795Y-115649087D01*
X130711834Y-115655151D01*
X130729845Y-115656820D01*
X130763204Y-115673431D01*
X130798317Y-115685926D01*
X130812016Y-115697736D01*
X130828208Y-115705799D01*
X130853315Y-115733340D01*
X130881541Y-115757674D01*
X130890049Y-115773635D01*
X130902235Y-115787003D01*
X130915697Y-115821753D01*
X130933228Y-115854642D01*
X130936376Y-115875131D01*
X130941929Y-115889465D01*
X130947020Y-115944406D01*
X130947020Y-116040500D01*
X130926829Y-116148511D01*
X130868984Y-116241935D01*
X130781296Y-116308154D01*
X130675608Y-116338225D01*
X130648020Y-116339500D01*
X100284327Y-116339500D01*
X100176316Y-116319309D01*
X100082892Y-116261464D01*
X100016673Y-116173776D01*
X99986602Y-116068088D01*
X99996741Y-115958675D01*
X100045720Y-115860312D01*
X100094644Y-115809370D01*
X100288227Y-115650500D01*
X100353627Y-115596828D01*
X100596828Y-115353627D01*
X100815019Y-115087760D01*
X101006100Y-114801787D01*
X101168231Y-114498462D01*
X101299850Y-114180705D01*
X101399690Y-113851578D01*
X101466789Y-113514250D01*
X101483867Y-113340846D01*
X101500500Y-113171974D01*
X101500500Y-112828025D01*
X101466789Y-112485753D01*
X101466789Y-112485750D01*
X101399690Y-112148422D01*
X101299850Y-111819295D01*
X101272150Y-111752422D01*
X101168237Y-111501552D01*
X101168235Y-111501549D01*
X101168231Y-111501538D01*
X101006100Y-111198213D01*
X101006098Y-111198209D01*
X101006094Y-111198203D01*
X100815028Y-110912253D01*
X100815013Y-110912232D01*
X100596831Y-110646376D01*
X100353623Y-110403168D01*
X100087767Y-110184986D01*
X100087746Y-110184971D01*
X99801796Y-109993905D01*
X99801790Y-109993901D01*
X99615511Y-109894333D01*
X99498462Y-109831769D01*
X99498456Y-109831766D01*
X99498447Y-109831762D01*
X99180712Y-109700152D01*
X99085518Y-109671275D01*
X98851578Y-109600310D01*
X98666432Y-109563482D01*
X98514246Y-109533210D01*
X98171974Y-109499500D01*
X98171969Y-109499500D01*
X97828031Y-109499500D01*
X97828026Y-109499500D01*
X97485753Y-109533210D01*
X97148422Y-109600310D01*
X96819287Y-109700152D01*
X96501552Y-109831762D01*
X96501534Y-109831771D01*
X96198209Y-109993901D01*
X96198203Y-109993905D01*
X95912253Y-110184971D01*
X95912232Y-110184986D01*
X95646376Y-110403168D01*
X95403168Y-110646376D01*
X95184986Y-110912232D01*
X95184971Y-110912253D01*
X94993905Y-111198203D01*
X94993901Y-111198209D01*
X94831771Y-111501534D01*
X94831762Y-111501552D01*
X94700152Y-111819287D01*
X94600310Y-112148422D01*
X94533210Y-112485753D01*
X94499500Y-112828025D01*
X94499500Y-113171974D01*
X94533210Y-113514246D01*
X94600310Y-113851577D01*
X94700152Y-114180712D01*
X94831762Y-114498447D01*
X94831771Y-114498465D01*
X94993901Y-114801790D01*
X94993905Y-114801796D01*
X95184971Y-115087746D01*
X95184986Y-115087767D01*
X95403168Y-115353623D01*
X95646376Y-115596831D01*
X95905356Y-115809370D01*
X95976041Y-115893499D01*
X96011562Y-115997482D01*
X96007122Y-116107274D01*
X95963319Y-116208048D01*
X95886071Y-116286194D01*
X95785809Y-116331158D01*
X95715673Y-116339500D01*
X93509500Y-116339500D01*
X93401489Y-116319309D01*
X93308065Y-116261464D01*
X93241846Y-116173776D01*
X93211775Y-116068088D01*
X93210500Y-116040500D01*
X93210500Y-99921945D01*
X101930000Y-99921945D01*
X101930000Y-100158054D01*
X101966935Y-100391254D01*
X101966937Y-100391259D01*
X102039895Y-100615798D01*
X102147084Y-100826169D01*
X102147087Y-100826174D01*
X102177584Y-100868149D01*
X102891268Y-100154464D01*
X102917482Y-100252292D01*
X102989890Y-100377708D01*
X103092292Y-100480110D01*
X103217708Y-100552518D01*
X103315533Y-100578730D01*
X102601849Y-101292414D01*
X102643825Y-101322912D01*
X102643827Y-101322913D01*
X102854201Y-101430104D01*
X103078740Y-101503062D01*
X103078745Y-101503064D01*
X103311945Y-101539999D01*
X103311948Y-101540000D01*
X103548052Y-101540000D01*
X103548054Y-101539999D01*
X103781254Y-101503064D01*
X103781259Y-101503062D01*
X104005798Y-101430104D01*
X104005804Y-101430102D01*
X104216162Y-101322919D01*
X104216171Y-101322914D01*
X104258149Y-101292413D01*
X103544466Y-100578730D01*
X103642292Y-100552518D01*
X103767708Y-100480110D01*
X103870110Y-100377708D01*
X103942518Y-100252292D01*
X103968730Y-100154466D01*
X104682413Y-100868149D01*
X104712914Y-100826171D01*
X104712919Y-100826162D01*
X104820102Y-100615804D01*
X104820104Y-100615798D01*
X104893062Y-100391259D01*
X104893064Y-100391254D01*
X104929999Y-100158054D01*
X104930000Y-100158052D01*
X104930000Y-99921947D01*
X104929999Y-99921945D01*
X104893064Y-99688745D01*
X104893062Y-99688740D01*
X104820104Y-99464201D01*
X104712913Y-99253827D01*
X104712912Y-99253825D01*
X104682414Y-99211849D01*
X103968730Y-99925532D01*
X103942518Y-99827708D01*
X103870110Y-99702292D01*
X103767708Y-99599890D01*
X103642292Y-99527482D01*
X103544464Y-99501269D01*
X104258150Y-98787584D01*
X104216174Y-98757087D01*
X104216169Y-98757084D01*
X104005798Y-98649895D01*
X103781259Y-98576937D01*
X103781254Y-98576935D01*
X103548054Y-98540000D01*
X103311945Y-98540000D01*
X103078745Y-98576935D01*
X103078740Y-98576937D01*
X102854201Y-98649895D01*
X102854195Y-98649897D01*
X102643836Y-98757080D01*
X102643819Y-98757090D01*
X102601849Y-98787584D01*
X103315533Y-99501269D01*
X103217708Y-99527482D01*
X103092292Y-99599890D01*
X102989890Y-99702292D01*
X102917482Y-99827708D01*
X102891269Y-99925533D01*
X102177584Y-99211849D01*
X102147090Y-99253819D01*
X102147080Y-99253836D01*
X102039897Y-99464195D01*
X102039895Y-99464201D01*
X101966937Y-99688740D01*
X101966935Y-99688745D01*
X101930000Y-99921945D01*
X93210500Y-99921945D01*
X93210500Y-89699500D01*
X93230691Y-89591489D01*
X93288536Y-89498065D01*
X93376224Y-89431846D01*
X93481912Y-89401775D01*
X93509500Y-89400500D01*
X96114712Y-89400500D01*
X96222723Y-89420691D01*
X96316147Y-89478536D01*
X96382366Y-89566224D01*
X96412437Y-89671912D01*
X96402298Y-89781325D01*
X96353319Y-89879688D01*
X96272115Y-89953715D01*
X96255660Y-89963194D01*
X96198209Y-89993901D01*
X96198203Y-89993905D01*
X95912253Y-90184971D01*
X95912232Y-90184986D01*
X95646376Y-90403168D01*
X95403168Y-90646376D01*
X95184986Y-90912232D01*
X95184971Y-90912253D01*
X94993905Y-91198203D01*
X94993901Y-91198209D01*
X94831771Y-91501534D01*
X94831762Y-91501552D01*
X94700152Y-91819287D01*
X94600310Y-92148422D01*
X94533210Y-92485753D01*
X94499500Y-92828025D01*
X94499500Y-93171974D01*
X94533210Y-93514246D01*
X94533211Y-93514250D01*
X94600310Y-93851578D01*
X94640564Y-93984278D01*
X94700152Y-94180712D01*
X94831762Y-94498447D01*
X94831766Y-94498456D01*
X94831769Y-94498462D01*
X94894060Y-94615000D01*
X94993901Y-94801790D01*
X94993905Y-94801796D01*
X95184971Y-95087746D01*
X95184986Y-95087767D01*
X95403168Y-95353623D01*
X95646376Y-95596831D01*
X95912232Y-95815013D01*
X95912253Y-95815028D01*
X96198203Y-96006094D01*
X96198209Y-96006098D01*
X96228195Y-96022126D01*
X96501538Y-96168231D01*
X96501549Y-96168235D01*
X96501552Y-96168237D01*
X96819287Y-96299847D01*
X96819289Y-96299847D01*
X96819295Y-96299850D01*
X97148422Y-96399690D01*
X97485750Y-96466789D01*
X97605134Y-96478547D01*
X97828026Y-96500500D01*
X97828031Y-96500500D01*
X98171974Y-96500500D01*
X98394866Y-96478547D01*
X98514250Y-96466789D01*
X98851578Y-96399690D01*
X99180705Y-96299850D01*
X99498462Y-96168231D01*
X99801787Y-96006100D01*
X100087760Y-95815019D01*
X100353627Y-95596828D01*
X100528552Y-95421903D01*
X101929500Y-95421903D01*
X101929500Y-95658096D01*
X101958945Y-95843999D01*
X101966447Y-95891368D01*
X101995211Y-95979895D01*
X102039430Y-96115987D01*
X102039434Y-96115996D01*
X102146652Y-96326426D01*
X102146653Y-96326427D01*
X102146656Y-96326431D01*
X102146657Y-96326433D01*
X102206719Y-96409101D01*
X102266649Y-96491588D01*
X102285483Y-96517510D01*
X102452490Y-96684517D01*
X102643567Y-96823343D01*
X102643569Y-96823344D01*
X102643572Y-96823346D01*
X102643573Y-96823347D01*
X102778563Y-96892127D01*
X102854008Y-96930568D01*
X103078632Y-97003553D01*
X103311908Y-97040500D01*
X103311909Y-97040500D01*
X103548091Y-97040500D01*
X103548092Y-97040500D01*
X103781368Y-97003553D01*
X104005992Y-96930568D01*
X104190733Y-96836438D01*
X104216426Y-96823347D01*
X104216427Y-96823346D01*
X104216426Y-96823346D01*
X104216433Y-96823343D01*
X104407510Y-96684517D01*
X104574517Y-96517510D01*
X104713343Y-96326433D01*
X104719243Y-96314855D01*
X104768753Y-96217684D01*
X104820568Y-96115992D01*
X104893553Y-95891368D01*
X104930500Y-95658092D01*
X104930500Y-95421908D01*
X104893553Y-95188632D01*
X104820568Y-94964008D01*
X104785801Y-94895775D01*
X104713347Y-94753573D01*
X104713346Y-94753572D01*
X104713344Y-94753569D01*
X104713343Y-94753567D01*
X104574517Y-94562490D01*
X104407510Y-94395483D01*
X104216433Y-94256657D01*
X104216431Y-94256656D01*
X104216427Y-94256653D01*
X104216426Y-94256652D01*
X104005996Y-94149434D01*
X104005987Y-94149430D01*
X103885582Y-94110308D01*
X103781368Y-94076447D01*
X103734712Y-94069057D01*
X103548096Y-94039500D01*
X103548092Y-94039500D01*
X103311908Y-94039500D01*
X103311903Y-94039500D01*
X103078632Y-94076447D01*
X102854012Y-94149430D01*
X102854003Y-94149434D01*
X102643573Y-94256652D01*
X102643572Y-94256653D01*
X102452490Y-94395482D01*
X102285482Y-94562490D01*
X102146653Y-94753572D01*
X102146652Y-94753573D01*
X102039434Y-94964003D01*
X102039430Y-94964012D01*
X101966447Y-95188632D01*
X101929500Y-95421903D01*
X100528552Y-95421903D01*
X100596828Y-95353627D01*
X100815019Y-95087760D01*
X101006100Y-94801787D01*
X101168231Y-94498462D01*
X101299850Y-94180705D01*
X101399690Y-93851578D01*
X101466789Y-93514250D01*
X101486564Y-93313464D01*
X101500500Y-93171974D01*
X101500500Y-92828025D01*
X101476567Y-92585026D01*
X101466789Y-92485750D01*
X101399690Y-92148422D01*
X101299850Y-91819295D01*
X101273685Y-91756128D01*
X101168237Y-91501552D01*
X101168235Y-91501549D01*
X101168231Y-91501538D01*
X101006100Y-91198213D01*
X101006098Y-91198209D01*
X101006094Y-91198203D01*
X100815028Y-90912253D01*
X100815013Y-90912232D01*
X100596831Y-90646376D01*
X100353623Y-90403168D01*
X100087767Y-90184986D01*
X100087746Y-90184971D01*
X99801796Y-89993905D01*
X99801790Y-89993901D01*
X99744340Y-89963194D01*
X99658601Y-89894471D01*
X99603477Y-89799417D01*
X99586413Y-89690867D01*
X99609713Y-89583484D01*
X99670232Y-89491769D01*
X99759795Y-89428110D01*
X99866307Y-89401103D01*
X99885288Y-89400500D01*
X135851000Y-89400500D01*
X135959011Y-89420691D01*
X136052435Y-89478536D01*
X136118654Y-89566224D01*
X136148725Y-89671912D01*
X136150000Y-89699500D01*
X136150000Y-89870000D01*
X138650000Y-89870000D01*
X138650000Y-89672177D01*
X138649999Y-89672171D01*
X138643596Y-89612620D01*
X138643596Y-89612617D01*
X138593352Y-89477909D01*
X138583103Y-89459138D01*
X138583946Y-89458677D01*
X138544993Y-89379617D01*
X138535314Y-89270161D01*
X138565828Y-89164601D01*
X138632415Y-89077192D01*
X138726081Y-89019740D01*
X138832920Y-89000000D01*
X153467080Y-89000000D01*
X153575091Y-89020191D01*
G37*
%TD.AperFunction*%
%TA.AperFunction,Conductor*%
G36*
X197428511Y-89420691D02*
G01*
X197521935Y-89478536D01*
X197588154Y-89566224D01*
X197618225Y-89671912D01*
X197619500Y-89699500D01*
X197619500Y-116040500D01*
X197599309Y-116148511D01*
X197541464Y-116241935D01*
X197453776Y-116308154D01*
X197348088Y-116338225D01*
X197320500Y-116339500D01*
X195284327Y-116339500D01*
X195176316Y-116319309D01*
X195082892Y-116261464D01*
X195016673Y-116173776D01*
X194986602Y-116068088D01*
X194996741Y-115958675D01*
X195045720Y-115860312D01*
X195094644Y-115809370D01*
X195288227Y-115650500D01*
X195353627Y-115596828D01*
X195596828Y-115353627D01*
X195815019Y-115087760D01*
X196006100Y-114801787D01*
X196168231Y-114498462D01*
X196299850Y-114180705D01*
X196399690Y-113851578D01*
X196466789Y-113514250D01*
X196483867Y-113340846D01*
X196500500Y-113171974D01*
X196500500Y-112828025D01*
X196466789Y-112485753D01*
X196466789Y-112485750D01*
X196399690Y-112148422D01*
X196299850Y-111819295D01*
X196272150Y-111752422D01*
X196168237Y-111501552D01*
X196168235Y-111501549D01*
X196168231Y-111501538D01*
X196006100Y-111198213D01*
X196006098Y-111198209D01*
X196006094Y-111198203D01*
X195815028Y-110912253D01*
X195815013Y-110912232D01*
X195596831Y-110646376D01*
X195353623Y-110403168D01*
X195087767Y-110184986D01*
X195087746Y-110184971D01*
X194801796Y-109993905D01*
X194801790Y-109993901D01*
X194615511Y-109894333D01*
X194498462Y-109831769D01*
X194498456Y-109831766D01*
X194498447Y-109831762D01*
X194180712Y-109700152D01*
X194085518Y-109671275D01*
X193851578Y-109600310D01*
X193666432Y-109563482D01*
X193514246Y-109533210D01*
X193171973Y-109499499D01*
X193164644Y-109499140D01*
X193164738Y-109497215D01*
X193068946Y-109479309D01*
X192975522Y-109421464D01*
X192909303Y-109333776D01*
X192879232Y-109228088D01*
X192889371Y-109118675D01*
X192938350Y-109020312D01*
X192965532Y-108989075D01*
X193016275Y-108938332D01*
X193092242Y-108862365D01*
X193221815Y-108684022D01*
X193321895Y-108487606D01*
X193390015Y-108277951D01*
X193424500Y-108060222D01*
X193424500Y-107839778D01*
X193390015Y-107622049D01*
X193321895Y-107412394D01*
X193221815Y-107215978D01*
X193092242Y-107037635D01*
X192936365Y-106881758D01*
X192758022Y-106752185D01*
X192758019Y-106752183D01*
X192758017Y-106752182D01*
X192758015Y-106752181D01*
X192561610Y-106652107D01*
X192561608Y-106652106D01*
X192561607Y-106652105D01*
X192561606Y-106652105D01*
X192351951Y-106583985D01*
X192351949Y-106583984D01*
X192351947Y-106583984D01*
X192134223Y-106549500D01*
X192134222Y-106549500D01*
X191913778Y-106549500D01*
X191913776Y-106549500D01*
X191696052Y-106583984D01*
X191486391Y-106652106D01*
X191486389Y-106652107D01*
X191289984Y-106752181D01*
X191289982Y-106752182D01*
X191289978Y-106752185D01*
X191201770Y-106816271D01*
X191169196Y-106831746D01*
X191138877Y-106851258D01*
X191119963Y-106855135D01*
X191102522Y-106863422D01*
X191066560Y-106866085D01*
X191031234Y-106873328D01*
X191012195Y-106870111D01*
X190992939Y-106871537D01*
X190958440Y-106861028D01*
X190922888Y-106855021D01*
X190906298Y-106845145D01*
X190887826Y-106839518D01*
X190859456Y-106817258D01*
X190828470Y-106798812D01*
X190808779Y-106777497D01*
X190801377Y-106771689D01*
X190790594Y-106758690D01*
X190720009Y-106668530D01*
X190702889Y-106635600D01*
X190681918Y-106604985D01*
X190677740Y-106587225D01*
X190669324Y-106571035D01*
X190665256Y-106534146D01*
X190656760Y-106498022D01*
X190659280Y-106479951D01*
X190657281Y-106461815D01*
X190666813Y-106425948D01*
X190671941Y-106389193D01*
X190680819Y-106373253D01*
X190685506Y-106355620D01*
X190707350Y-106325620D01*
X190725410Y-106293198D01*
X190744005Y-106272799D01*
X191113623Y-105903182D01*
X191149788Y-105862921D01*
X191166422Y-105842279D01*
X191166443Y-105842250D01*
X191198065Y-105798398D01*
X191198067Y-105798394D01*
X191257838Y-105667518D01*
X191277523Y-105600479D01*
X191277524Y-105600475D01*
X191298000Y-105458059D01*
X191298000Y-103662328D01*
X191294706Y-103604713D01*
X191291484Y-103576628D01*
X191281642Y-103519751D01*
X191229441Y-103385674D01*
X191229440Y-103385672D01*
X191229438Y-103385667D01*
X191228041Y-103383194D01*
X191228039Y-103383192D01*
X191195084Y-103324835D01*
X191195084Y-103324834D01*
X191107224Y-103210894D01*
X190990822Y-103126324D01*
X190961428Y-103110814D01*
X190929297Y-103077988D01*
X190918380Y-103061680D01*
X190903913Y-103048425D01*
X190888059Y-103016384D01*
X190868172Y-102986676D01*
X190863883Y-102967525D01*
X190855182Y-102949940D01*
X190851973Y-102914339D01*
X190844160Y-102879449D01*
X190847079Y-102860042D01*
X190845318Y-102840502D01*
X190855186Y-102806144D01*
X190860505Y-102770790D01*
X190870236Y-102753749D01*
X190875654Y-102734890D01*
X190897269Y-102706414D01*
X190914998Y-102675372D01*
X190930226Y-102662999D01*
X190942092Y-102647368D01*
X190981313Y-102617306D01*
X191051043Y-102572494D01*
X191103847Y-102526739D01*
X191198067Y-102418005D01*
X191257838Y-102287128D01*
X191277523Y-102220089D01*
X191277524Y-102220085D01*
X191298000Y-102077669D01*
X191298000Y-100669940D01*
X191280340Y-100537493D01*
X191263315Y-100474785D01*
X191219446Y-100370343D01*
X191196236Y-100262946D01*
X191213389Y-100154411D01*
X191224139Y-100128181D01*
X191226807Y-100122457D01*
X191226814Y-100122447D01*
X191281999Y-99955910D01*
X191292500Y-99853122D01*
X191292499Y-98653105D01*
X191292171Y-98649897D01*
X191283206Y-98562130D01*
X191281999Y-98550316D01*
X191226814Y-98383779D01*
X191223476Y-98378368D01*
X191125570Y-98219635D01*
X191128401Y-98217888D01*
X191126828Y-98214898D01*
X191107566Y-98188894D01*
X191101466Y-98166677D01*
X191090742Y-98146288D01*
X191087041Y-98114140D01*
X191078473Y-98082933D01*
X191080810Y-98060014D01*
X191078176Y-98037127D01*
X191086339Y-98005809D01*
X191089623Y-97973618D01*
X191104422Y-97936439D01*
X191105893Y-97930797D01*
X191110029Y-97922354D01*
X191132841Y-97877583D01*
X191199867Y-97790510D01*
X191293822Y-97733531D01*
X191402015Y-97714339D01*
X191509835Y-97735527D01*
X191532375Y-97746302D01*
X191532482Y-97746077D01*
X191602311Y-97779080D01*
X191604828Y-97780303D01*
X191605307Y-97780495D01*
X191605308Y-97780496D01*
X191605310Y-97780497D01*
X191742819Y-97822839D01*
X191850719Y-97824253D01*
X191886685Y-97824725D01*
X191886685Y-97824724D01*
X191886686Y-97824725D01*
X191955969Y-97815689D01*
X192094539Y-97776968D01*
X192216588Y-97700774D01*
X192264590Y-97660269D01*
X192269321Y-97656464D01*
X192269987Y-97655716D01*
X192269989Y-97655715D01*
X192365628Y-97548222D01*
X192427109Y-97418139D01*
X192447671Y-97351363D01*
X192470013Y-97209229D01*
X192475487Y-96791745D01*
X192497092Y-96684013D01*
X192556157Y-96591355D01*
X192644706Y-96526292D01*
X192750779Y-96497609D01*
X192803774Y-96498110D01*
X192809238Y-96498649D01*
X192828026Y-96500500D01*
X192828031Y-96500500D01*
X193171974Y-96500500D01*
X193394866Y-96478547D01*
X193514250Y-96466789D01*
X193851578Y-96399690D01*
X194180705Y-96299850D01*
X194498462Y-96168231D01*
X194801787Y-96006100D01*
X195087760Y-95815019D01*
X195353627Y-95596828D01*
X195596828Y-95353627D01*
X195815019Y-95087760D01*
X196006100Y-94801787D01*
X196168231Y-94498462D01*
X196299850Y-94180705D01*
X196399690Y-93851578D01*
X196466789Y-93514250D01*
X196486564Y-93313464D01*
X196500500Y-93171974D01*
X196500500Y-92828025D01*
X196476567Y-92585026D01*
X196466789Y-92485750D01*
X196399690Y-92148422D01*
X196299850Y-91819295D01*
X196273685Y-91756128D01*
X196168237Y-91501552D01*
X196168235Y-91501549D01*
X196168231Y-91501538D01*
X196006100Y-91198213D01*
X196006098Y-91198209D01*
X196006094Y-91198203D01*
X195815028Y-90912253D01*
X195815013Y-90912232D01*
X195596831Y-90646376D01*
X195353623Y-90403168D01*
X195087767Y-90184986D01*
X195087746Y-90184971D01*
X194801796Y-89993905D01*
X194801790Y-89993901D01*
X194744340Y-89963194D01*
X194658601Y-89894471D01*
X194603477Y-89799417D01*
X194586413Y-89690867D01*
X194609713Y-89583484D01*
X194670232Y-89491769D01*
X194759795Y-89428110D01*
X194866307Y-89401103D01*
X194885288Y-89400500D01*
X197320500Y-89400500D01*
X197428511Y-89420691D01*
G37*
%TD.AperFunction*%
%TA.AperFunction,Conductor*%
G36*
X111331112Y-109526661D02*
G01*
X111358371Y-109628394D01*
X111411032Y-109719606D01*
X111485506Y-109794080D01*
X111576718Y-109846741D01*
X111678451Y-109874000D01*
X111752176Y-109874000D01*
X111750424Y-109877146D01*
X111731818Y-109897556D01*
X111046144Y-110583230D01*
X111049767Y-110585862D01*
X111232082Y-110678756D01*
X111232087Y-110678758D01*
X111426693Y-110741989D01*
X111628796Y-110773999D01*
X111628802Y-110774000D01*
X111833422Y-110774000D01*
X111833427Y-110773999D01*
X112035528Y-110741989D01*
X112155202Y-110703105D01*
X112264166Y-110688930D01*
X112370892Y-110715075D01*
X112460968Y-110778008D01*
X112522226Y-110869230D01*
X112546395Y-110976421D01*
X112530209Y-111085105D01*
X112475856Y-111180603D01*
X112459024Y-111198896D01*
X110795996Y-112861925D01*
X110705343Y-112924023D01*
X110598380Y-112949181D01*
X110584571Y-112949500D01*
X110383711Y-112949500D01*
X110173754Y-112982754D01*
X109971592Y-113048441D01*
X109971588Y-113048442D01*
X109782186Y-113144947D01*
X109782183Y-113144949D01*
X109656247Y-113236447D01*
X109556996Y-113283599D01*
X109447414Y-113291714D01*
X109342300Y-113259695D01*
X109255851Y-113191867D01*
X109199742Y-113097390D01*
X109181500Y-112994550D01*
X109181500Y-111015383D01*
X109201691Y-110907372D01*
X109259536Y-110813948D01*
X109269053Y-110803980D01*
X110091449Y-109981584D01*
X110182095Y-109919491D01*
X110289059Y-109894333D01*
X110397887Y-109909514D01*
X110493883Y-109962983D01*
X110564081Y-110047519D01*
X110569279Y-110057272D01*
X110619246Y-110155339D01*
X110619253Y-110155351D01*
X110621879Y-110158966D01*
X111307554Y-109473292D01*
X111331112Y-109457154D01*
X111331112Y-109526661D01*
G37*
%TD.AperFunction*%
%TA.AperFunction,Conductor*%
G36*
X181308825Y-106040342D02*
G01*
X181407188Y-106089321D01*
X181438425Y-106116503D01*
X184716076Y-109394154D01*
X184778174Y-109484807D01*
X184803332Y-109591770D01*
X184788151Y-109700599D01*
X184746547Y-109781326D01*
X184644657Y-109921565D01*
X184644652Y-109921573D01*
X184537434Y-110132003D01*
X184537430Y-110132012D01*
X184464447Y-110356632D01*
X184427500Y-110589903D01*
X184427500Y-110826096D01*
X184457057Y-111012712D01*
X184464447Y-111059368D01*
X184489433Y-111136267D01*
X184537430Y-111283987D01*
X184541925Y-111294838D01*
X184538827Y-111296121D01*
X184563285Y-111379376D01*
X184554079Y-111488872D01*
X184505940Y-111587648D01*
X184425370Y-111662364D01*
X184323250Y-111702930D01*
X184265806Y-111708500D01*
X181090194Y-111708500D01*
X180982183Y-111688309D01*
X180888759Y-111630464D01*
X180822540Y-111542776D01*
X180792469Y-111437088D01*
X180802608Y-111327675D01*
X180815292Y-111295342D01*
X180814075Y-111294838D01*
X180818562Y-111284003D01*
X180818568Y-111283992D01*
X180891553Y-111059368D01*
X180928500Y-110826092D01*
X180928500Y-110589908D01*
X180891553Y-110356632D01*
X180818568Y-110132008D01*
X180757266Y-110011696D01*
X180711347Y-109921573D01*
X180711346Y-109921572D01*
X180711344Y-109921569D01*
X180711343Y-109921567D01*
X180572517Y-109730490D01*
X180405510Y-109563483D01*
X180381233Y-109545845D01*
X180255764Y-109454686D01*
X180214433Y-109424657D01*
X180214431Y-109424656D01*
X180214427Y-109424653D01*
X180214426Y-109424652D01*
X180003996Y-109317434D01*
X180003987Y-109317430D01*
X179849536Y-109267246D01*
X179779368Y-109244447D01*
X179732712Y-109237057D01*
X179546096Y-109207500D01*
X179546092Y-109207500D01*
X179309908Y-109207500D01*
X179309906Y-109207500D01*
X179309896Y-109207501D01*
X179244274Y-109217894D01*
X179134434Y-109214848D01*
X179033112Y-109172328D01*
X178986078Y-109134000D01*
X178515075Y-108662997D01*
X178495555Y-108634501D01*
X178472285Y-108608975D01*
X178464755Y-108589538D01*
X178452977Y-108572344D01*
X178445069Y-108538723D01*
X178432591Y-108506513D01*
X178429404Y-108472120D01*
X178427819Y-108465381D01*
X178427500Y-108451572D01*
X178427500Y-107869631D01*
X178447691Y-107761620D01*
X178505536Y-107668196D01*
X178593224Y-107601977D01*
X178698912Y-107571906D01*
X178808325Y-107582045D01*
X178840830Y-107594844D01*
X178841343Y-107593607D01*
X178852201Y-107598104D01*
X179076740Y-107671062D01*
X179076745Y-107671064D01*
X179309945Y-107707999D01*
X179309948Y-107708000D01*
X179546052Y-107708000D01*
X179546054Y-107707999D01*
X179779254Y-107671064D01*
X179779259Y-107671062D01*
X180003798Y-107598104D01*
X180003804Y-107598102D01*
X180214162Y-107490919D01*
X180214171Y-107490914D01*
X180256149Y-107460413D01*
X179542466Y-106746730D01*
X179640292Y-106720518D01*
X179765708Y-106648110D01*
X179868110Y-106545708D01*
X179940518Y-106420292D01*
X179966730Y-106322466D01*
X180680413Y-107036149D01*
X180710914Y-106994171D01*
X180710919Y-106994162D01*
X180818102Y-106783804D01*
X180818104Y-106783798D01*
X180891062Y-106559259D01*
X180891064Y-106559254D01*
X180927999Y-106326054D01*
X180928921Y-106314347D01*
X180930515Y-106314472D01*
X180948191Y-106219917D01*
X181006036Y-106126493D01*
X181093724Y-106060274D01*
X181199412Y-106030203D01*
X181308825Y-106040342D01*
G37*
%TD.AperFunction*%
%TA.AperFunction,Conductor*%
G36*
X187774294Y-105919346D02*
G01*
X187808801Y-105920942D01*
X187827869Y-105929361D01*
X187848355Y-105933191D01*
X187877721Y-105951373D01*
X187909320Y-105965326D01*
X187935891Y-105987390D01*
X187941779Y-105991036D01*
X187951769Y-106000575D01*
X188223982Y-106272789D01*
X188286081Y-106363442D01*
X188311238Y-106470406D01*
X188296057Y-106579234D01*
X188242588Y-106675230D01*
X188227956Y-106691280D01*
X188140647Y-106807909D01*
X188090403Y-106942617D01*
X188090403Y-106942620D01*
X188084000Y-107002171D01*
X188084000Y-107650000D01*
X189147604Y-107650000D01*
X189123910Y-107673694D01*
X189064667Y-107776306D01*
X189034000Y-107890756D01*
X189034000Y-108009244D01*
X189064667Y-108123694D01*
X189123910Y-108226306D01*
X189147604Y-108250000D01*
X188084000Y-108250000D01*
X188084000Y-108897828D01*
X188090403Y-108957379D01*
X188090403Y-108957382D01*
X188140647Y-109092090D01*
X188226808Y-109207186D01*
X188226813Y-109207191D01*
X188341909Y-109293352D01*
X188476618Y-109343596D01*
X188536171Y-109349999D01*
X188536177Y-109350000D01*
X189184000Y-109350000D01*
X189184000Y-108286396D01*
X189207694Y-108310090D01*
X189310306Y-108369333D01*
X189424756Y-108400000D01*
X189543244Y-108400000D01*
X189657694Y-108369333D01*
X189760306Y-108310090D01*
X189784000Y-108286396D01*
X189784000Y-109350000D01*
X189857535Y-109423535D01*
X189919633Y-109514188D01*
X189944791Y-109621151D01*
X189929610Y-109729980D01*
X189876141Y-109825975D01*
X189857535Y-109846385D01*
X188082997Y-111620925D01*
X188054500Y-111640445D01*
X188028975Y-111663715D01*
X188009540Y-111671244D01*
X187992345Y-111683023D01*
X187958722Y-111690931D01*
X187926513Y-111703409D01*
X187892120Y-111706595D01*
X187885381Y-111708181D01*
X187871572Y-111708500D01*
X187590194Y-111708500D01*
X187482183Y-111688309D01*
X187388759Y-111630464D01*
X187322540Y-111542776D01*
X187292469Y-111437088D01*
X187302608Y-111327675D01*
X187315292Y-111295342D01*
X187314075Y-111294838D01*
X187318562Y-111284003D01*
X187318568Y-111283992D01*
X187391553Y-111059368D01*
X187428500Y-110826092D01*
X187428500Y-110589908D01*
X187391553Y-110356632D01*
X187318568Y-110132008D01*
X187257266Y-110011696D01*
X187211347Y-109921573D01*
X187211346Y-109921572D01*
X187211344Y-109921569D01*
X187211343Y-109921567D01*
X187072517Y-109730490D01*
X186905510Y-109563483D01*
X186832411Y-109510373D01*
X186822781Y-109500193D01*
X186810735Y-109493032D01*
X186785268Y-109460541D01*
X186756897Y-109430552D01*
X186749856Y-109415362D01*
X186742949Y-109406550D01*
X186734075Y-109381316D01*
X186722094Y-109355467D01*
X186717790Y-109341313D01*
X186714006Y-109322289D01*
X186697737Y-109240502D01*
X186663441Y-109157705D01*
X186637394Y-109094821D01*
X186549789Y-108963711D01*
X186438289Y-108852211D01*
X185804503Y-108218425D01*
X185742405Y-108127772D01*
X185717247Y-108020809D01*
X185732428Y-107911980D01*
X185785897Y-107815985D01*
X185870433Y-107745787D01*
X185974619Y-107710867D01*
X186015928Y-107708000D01*
X186046052Y-107708000D01*
X186046054Y-107707999D01*
X186279254Y-107671064D01*
X186279259Y-107671062D01*
X186503798Y-107598104D01*
X186503804Y-107598102D01*
X186714162Y-107490919D01*
X186714171Y-107490914D01*
X186756149Y-107460413D01*
X186042466Y-106746730D01*
X186140292Y-106720518D01*
X186265708Y-106648110D01*
X186368110Y-106545708D01*
X186440518Y-106420292D01*
X186466730Y-106322466D01*
X187180413Y-107036149D01*
X187210914Y-106994171D01*
X187210919Y-106994162D01*
X187318102Y-106783804D01*
X187318104Y-106783798D01*
X187391062Y-106559259D01*
X187391064Y-106559254D01*
X187427999Y-106326054D01*
X187428000Y-106326052D01*
X187428000Y-106212000D01*
X187448191Y-106103989D01*
X187506036Y-106010565D01*
X187593724Y-105944346D01*
X187699412Y-105914275D01*
X187727000Y-105913000D01*
X187740344Y-105913000D01*
X187774294Y-105919346D01*
G37*
%TD.AperFunction*%
%TA.AperFunction,Conductor*%
G36*
X126792000Y-106252000D02*
G01*
X127389823Y-106252000D01*
X127389828Y-106251999D01*
X127449379Y-106245596D01*
X127449382Y-106245596D01*
X127584090Y-106195352D01*
X127699186Y-106109191D01*
X127714310Y-106094068D01*
X127716258Y-106096016D01*
X127774030Y-106042905D01*
X127876325Y-106002780D01*
X127986206Y-106002319D01*
X128088834Y-106041582D01*
X128170348Y-106115267D01*
X128219740Y-106213423D01*
X128231500Y-106296456D01*
X128231500Y-107145500D01*
X128211309Y-107253511D01*
X128153464Y-107346935D01*
X128065776Y-107413154D01*
X127960088Y-107443225D01*
X127932500Y-107444500D01*
X126988428Y-107444500D01*
X126880417Y-107424309D01*
X126786993Y-107366464D01*
X126777003Y-107356925D01*
X126563055Y-107142977D01*
X126143463Y-106723384D01*
X126081366Y-106632732D01*
X126056208Y-106525769D01*
X126071389Y-106416940D01*
X126124858Y-106320945D01*
X126143465Y-106300534D01*
X126192000Y-106251999D01*
X126192000Y-105306144D01*
X126299007Y-105367925D01*
X126426174Y-105402000D01*
X126557826Y-105402000D01*
X126684993Y-105367925D01*
X126792000Y-105306144D01*
X126792000Y-106252000D01*
G37*
%TD.AperFunction*%
%TA.AperFunction,Conductor*%
G36*
X191151178Y-89407316D02*
G01*
X191188200Y-89409672D01*
X191204773Y-89417335D01*
X191222723Y-89420691D01*
X191254263Y-89440219D01*
X191287936Y-89455790D01*
X191300621Y-89468923D01*
X191316147Y-89478536D01*
X191338505Y-89508143D01*
X191364276Y-89534823D01*
X191371360Y-89551649D01*
X191382366Y-89566224D01*
X191392519Y-89601909D01*
X191406912Y-89636096D01*
X191407439Y-89654346D01*
X191412437Y-89671912D01*
X191409013Y-89708852D01*
X191410085Y-89745933D01*
X191403982Y-89763143D01*
X191402298Y-89781325D01*
X191385761Y-89814534D01*
X191373365Y-89849498D01*
X191361458Y-89863341D01*
X191353319Y-89879688D01*
X191325903Y-89904680D01*
X191301714Y-89932805D01*
X191277592Y-89948721D01*
X191272115Y-89953715D01*
X191255660Y-89963194D01*
X191198209Y-89993901D01*
X191198203Y-89993905D01*
X190912253Y-90184971D01*
X190912232Y-90184986D01*
X190646376Y-90403168D01*
X190403168Y-90646376D01*
X190184986Y-90912232D01*
X190184971Y-90912253D01*
X189993905Y-91198203D01*
X189993901Y-91198209D01*
X189831771Y-91501534D01*
X189831762Y-91501552D01*
X189700152Y-91819287D01*
X189600310Y-92148422D01*
X189533210Y-92485753D01*
X189499500Y-92828025D01*
X189499500Y-93171974D01*
X189533210Y-93514246D01*
X189557661Y-93637168D01*
X189558930Y-93747043D01*
X189520422Y-93849956D01*
X189447338Y-93932010D01*
X189349548Y-93982122D01*
X189264406Y-93994500D01*
X187146495Y-93994500D01*
X187039039Y-94006053D01*
X186987964Y-94017164D01*
X186878130Y-94020394D01*
X186774545Y-93983728D01*
X186737083Y-93958042D01*
X186621296Y-93864970D01*
X186621295Y-93864969D01*
X186450698Y-93780361D01*
X186450696Y-93780360D01*
X186450693Y-93780359D01*
X186265889Y-93734400D01*
X186223123Y-93731500D01*
X186223117Y-93731500D01*
X184820867Y-93731500D01*
X184820866Y-93731501D01*
X184778116Y-93734398D01*
X184778113Y-93734399D01*
X184628278Y-93771662D01*
X184556118Y-93780500D01*
X178254678Y-93780500D01*
X178096993Y-93780500D01*
X178020018Y-93795811D01*
X177942341Y-93811262D01*
X177796657Y-93871606D01*
X177665547Y-93959210D01*
X177607594Y-94017164D01*
X177554047Y-94070711D01*
X177554045Y-94070713D01*
X176404282Y-95220476D01*
X175215656Y-96409101D01*
X175146210Y-96478546D01*
X175082985Y-96573171D01*
X175058606Y-96609657D01*
X174998263Y-96755339D01*
X174991021Y-96791750D01*
X174987735Y-96808268D01*
X174946859Y-96910265D01*
X174871899Y-96990608D01*
X174772977Y-97038447D01*
X174715818Y-97048173D01*
X174709692Y-97048611D01*
X174574889Y-97098890D01*
X174574883Y-97098893D01*
X174513554Y-97132381D01*
X174398377Y-97218602D01*
X170630497Y-100986482D01*
X170630480Y-100986500D01*
X170594328Y-101026746D01*
X170594318Y-101026759D01*
X170577696Y-101047385D01*
X170577668Y-101047422D01*
X170546046Y-101091274D01*
X170546044Y-101091278D01*
X170486275Y-101222151D01*
X170486273Y-101222155D01*
X170466589Y-101289192D01*
X170466589Y-101289194D01*
X170466588Y-101289198D01*
X170446112Y-101431614D01*
X170446112Y-101431618D01*
X170444593Y-101442184D01*
X170442344Y-101441860D01*
X170418649Y-101532236D01*
X170354268Y-101621282D01*
X170262067Y-101681057D01*
X170154498Y-101703488D01*
X170114042Y-101700728D01*
X170114027Y-101700922D01*
X170102310Y-101700000D01*
X169897684Y-101700000D01*
X169695581Y-101732010D01*
X169500975Y-101795241D01*
X169500970Y-101795243D01*
X169318659Y-101888135D01*
X169318645Y-101888144D01*
X169315032Y-101890768D01*
X170000707Y-102576443D01*
X170016843Y-102600000D01*
X169947339Y-102600000D01*
X169845606Y-102627259D01*
X169754394Y-102679920D01*
X169679920Y-102754394D01*
X169627259Y-102845606D01*
X169600000Y-102947339D01*
X169600000Y-103021065D01*
X169596853Y-103019313D01*
X169576443Y-103000707D01*
X168890768Y-102315032D01*
X168888144Y-102318645D01*
X168888135Y-102318659D01*
X168795243Y-102500970D01*
X168795241Y-102500975D01*
X168732010Y-102695581D01*
X168700000Y-102897684D01*
X168700000Y-103102315D01*
X168732010Y-103304418D01*
X168756333Y-103379276D01*
X168770508Y-103488241D01*
X168744363Y-103594967D01*
X168681429Y-103685042D01*
X168675254Y-103690933D01*
X168660710Y-103704417D01*
X168660705Y-103704422D01*
X168616758Y-103758722D01*
X168616751Y-103758732D01*
X168616750Y-103758734D01*
X168543076Y-103882315D01*
X168543075Y-103882318D01*
X168332831Y-104386903D01*
X168272650Y-104478840D01*
X168183322Y-104542829D01*
X168076911Y-104570228D01*
X167967787Y-104557336D01*
X167870690Y-104505895D01*
X167845406Y-104483328D01*
X166596042Y-103233964D01*
X166533944Y-103143311D01*
X166508786Y-103036348D01*
X166523967Y-102927519D01*
X166577436Y-102831524D01*
X166661972Y-102761326D01*
X166720670Y-102736414D01*
X166729484Y-102733739D01*
X166729497Y-102733737D01*
X166875179Y-102673394D01*
X167006289Y-102585789D01*
X171144002Y-98448074D01*
X171234655Y-98385977D01*
X171341618Y-98360819D01*
X171355427Y-98360500D01*
X171556286Y-98360500D01*
X171556287Y-98360500D01*
X171766243Y-98327246D01*
X171968412Y-98261557D01*
X172157816Y-98165051D01*
X172329792Y-98040104D01*
X172480104Y-97889792D01*
X172605051Y-97717816D01*
X172701557Y-97528412D01*
X172767246Y-97326243D01*
X172800500Y-97116287D01*
X172800500Y-96903713D01*
X172767246Y-96693757D01*
X172701557Y-96491588D01*
X172605051Y-96302184D01*
X172480104Y-96130208D01*
X172329792Y-95979896D01*
X172207943Y-95891368D01*
X172157818Y-95854950D01*
X172157813Y-95854947D01*
X171968411Y-95758442D01*
X171968407Y-95758441D01*
X171766244Y-95692754D01*
X171766246Y-95692754D01*
X171556288Y-95659500D01*
X171556287Y-95659500D01*
X171343713Y-95659500D01*
X171343711Y-95659500D01*
X171133754Y-95692754D01*
X170931592Y-95758441D01*
X170931588Y-95758442D01*
X170742186Y-95854947D01*
X170742181Y-95854950D01*
X170570209Y-95979895D01*
X170570202Y-95979901D01*
X170419901Y-96130202D01*
X170412272Y-96139136D01*
X170410841Y-96137914D01*
X170342071Y-96202973D01*
X170240360Y-96244552D01*
X170130496Y-96246581D01*
X170027318Y-96208787D01*
X169947876Y-96139008D01*
X169947728Y-96139136D01*
X169946846Y-96138103D01*
X169944761Y-96136272D01*
X169940786Y-96131007D01*
X169940108Y-96130214D01*
X169940104Y-96130208D01*
X169789792Y-95979896D01*
X169667943Y-95891368D01*
X169617818Y-95854950D01*
X169617813Y-95854947D01*
X169428411Y-95758442D01*
X169428407Y-95758441D01*
X169226244Y-95692754D01*
X169226246Y-95692754D01*
X169016288Y-95659500D01*
X169016287Y-95659500D01*
X168803713Y-95659500D01*
X168803711Y-95659500D01*
X168593754Y-95692754D01*
X168391592Y-95758441D01*
X168391588Y-95758442D01*
X168202186Y-95854947D01*
X168202181Y-95854950D01*
X168030209Y-95979895D01*
X168030202Y-95979901D01*
X167879901Y-96130202D01*
X167872272Y-96139136D01*
X167870841Y-96137914D01*
X167802071Y-96202973D01*
X167700360Y-96244552D01*
X167590496Y-96246581D01*
X167487318Y-96208787D01*
X167407876Y-96139008D01*
X167407728Y-96139136D01*
X167406846Y-96138103D01*
X167404761Y-96136272D01*
X167400786Y-96131007D01*
X167400108Y-96130214D01*
X167400104Y-96130208D01*
X167249792Y-95979896D01*
X167127943Y-95891368D01*
X167077818Y-95854950D01*
X167077813Y-95854947D01*
X166888411Y-95758442D01*
X166888407Y-95758441D01*
X166686244Y-95692754D01*
X166686235Y-95692752D01*
X166491552Y-95661916D01*
X166388029Y-95625077D01*
X166304805Y-95553328D01*
X166253120Y-95456361D01*
X166239953Y-95347270D01*
X166267084Y-95240790D01*
X166326898Y-95155178D01*
X168604002Y-92878074D01*
X168694655Y-92815977D01*
X168801618Y-92790819D01*
X168815427Y-92790500D01*
X169016286Y-92790500D01*
X169016287Y-92790500D01*
X169226243Y-92757246D01*
X169428412Y-92691557D01*
X169617816Y-92595051D01*
X169789792Y-92470104D01*
X169940104Y-92319792D01*
X169940113Y-92319778D01*
X169947728Y-92310864D01*
X169949159Y-92312086D01*
X170017911Y-92247038D01*
X170119620Y-92205451D01*
X170229483Y-92203414D01*
X170332663Y-92241202D01*
X170412126Y-92310988D01*
X170412272Y-92310864D01*
X170413135Y-92311875D01*
X170415226Y-92313711D01*
X170419217Y-92318996D01*
X170419891Y-92319786D01*
X170419896Y-92319792D01*
X170570208Y-92470104D01*
X170742184Y-92595051D01*
X170931588Y-92691557D01*
X171133754Y-92757245D01*
X171133757Y-92757246D01*
X171343713Y-92790500D01*
X171343714Y-92790500D01*
X171556286Y-92790500D01*
X171556287Y-92790500D01*
X171766243Y-92757246D01*
X171968412Y-92691557D01*
X172157816Y-92595051D01*
X172329792Y-92470104D01*
X172480104Y-92319792D01*
X172480113Y-92319778D01*
X172487728Y-92310864D01*
X172489159Y-92312086D01*
X172557911Y-92247038D01*
X172659620Y-92205451D01*
X172769483Y-92203414D01*
X172872663Y-92241202D01*
X172952126Y-92310988D01*
X172952272Y-92310864D01*
X172953135Y-92311875D01*
X172955226Y-92313711D01*
X172959217Y-92318996D01*
X172959891Y-92319786D01*
X172959896Y-92319792D01*
X173110208Y-92470104D01*
X173282184Y-92595051D01*
X173471588Y-92691557D01*
X173673754Y-92757245D01*
X173673757Y-92757246D01*
X173883713Y-92790500D01*
X173883714Y-92790500D01*
X174096286Y-92790500D01*
X174096287Y-92790500D01*
X174306243Y-92757246D01*
X174508412Y-92691557D01*
X174697816Y-92595051D01*
X174869792Y-92470104D01*
X175020104Y-92319792D01*
X175020113Y-92319778D01*
X175027728Y-92310864D01*
X175029159Y-92312086D01*
X175097911Y-92247038D01*
X175199620Y-92205451D01*
X175309483Y-92203414D01*
X175412663Y-92241202D01*
X175492126Y-92310988D01*
X175492272Y-92310864D01*
X175493135Y-92311875D01*
X175495226Y-92313711D01*
X175499217Y-92318996D01*
X175499891Y-92319786D01*
X175499896Y-92319792D01*
X175650208Y-92470104D01*
X175822184Y-92595051D01*
X176011588Y-92691557D01*
X176213754Y-92757245D01*
X176213757Y-92757246D01*
X176423713Y-92790500D01*
X176423714Y-92790500D01*
X176636286Y-92790500D01*
X176636287Y-92790500D01*
X176846243Y-92757246D01*
X177048412Y-92691557D01*
X177237816Y-92595051D01*
X177409792Y-92470104D01*
X177560104Y-92319792D01*
X177560113Y-92319778D01*
X177567728Y-92310864D01*
X177569159Y-92312086D01*
X177637911Y-92247038D01*
X177739620Y-92205451D01*
X177849483Y-92203414D01*
X177952663Y-92241202D01*
X178032126Y-92310988D01*
X178032272Y-92310864D01*
X178033135Y-92311875D01*
X178035226Y-92313711D01*
X178039217Y-92318996D01*
X178039891Y-92319786D01*
X178039896Y-92319792D01*
X178190208Y-92470104D01*
X178362184Y-92595051D01*
X178551588Y-92691557D01*
X178753754Y-92757245D01*
X178753757Y-92757246D01*
X178963713Y-92790500D01*
X178963714Y-92790500D01*
X179176286Y-92790500D01*
X179176287Y-92790500D01*
X179386243Y-92757246D01*
X179588412Y-92691557D01*
X179777816Y-92595051D01*
X179949792Y-92470104D01*
X180100104Y-92319792D01*
X180100113Y-92319778D01*
X180107728Y-92310864D01*
X180109159Y-92312086D01*
X180177911Y-92247038D01*
X180279620Y-92205451D01*
X180389483Y-92203414D01*
X180492663Y-92241202D01*
X180572126Y-92310988D01*
X180572272Y-92310864D01*
X180573135Y-92311875D01*
X180575226Y-92313711D01*
X180579217Y-92318996D01*
X180579891Y-92319786D01*
X180579896Y-92319792D01*
X180730208Y-92470104D01*
X180902184Y-92595051D01*
X181091588Y-92691557D01*
X181293754Y-92757245D01*
X181293757Y-92757246D01*
X181503713Y-92790500D01*
X181503714Y-92790500D01*
X181716286Y-92790500D01*
X181716287Y-92790500D01*
X181926243Y-92757246D01*
X182128412Y-92691557D01*
X182317816Y-92595051D01*
X182489792Y-92470104D01*
X182640104Y-92319792D01*
X182670707Y-92277670D01*
X182750523Y-92202157D01*
X182852233Y-92160574D01*
X182936065Y-92155338D01*
X183004973Y-92160761D01*
X183652093Y-91513640D01*
X183684075Y-91632993D01*
X183749901Y-91747007D01*
X183842993Y-91840099D01*
X183957007Y-91905925D01*
X184076358Y-91937905D01*
X183429237Y-92585026D01*
X183442442Y-92594620D01*
X183631786Y-92691096D01*
X183631787Y-92691097D01*
X183833871Y-92756757D01*
X184043751Y-92789999D01*
X184043754Y-92790000D01*
X184256246Y-92790000D01*
X184256248Y-92789999D01*
X184466128Y-92756757D01*
X184668212Y-92691097D01*
X184668218Y-92691094D01*
X184857552Y-92594624D01*
X184870761Y-92585025D01*
X184223641Y-91937905D01*
X184342993Y-91905925D01*
X184457007Y-91840099D01*
X184550099Y-91747007D01*
X184615925Y-91632993D01*
X184647905Y-91513641D01*
X185295025Y-92160761D01*
X185304624Y-92147552D01*
X185401094Y-91958218D01*
X185401097Y-91958212D01*
X185466757Y-91756128D01*
X185499999Y-91546248D01*
X185500000Y-91546246D01*
X185500000Y-91333753D01*
X185499999Y-91333751D01*
X185466757Y-91123871D01*
X185401097Y-90921787D01*
X185401096Y-90921786D01*
X185304620Y-90732442D01*
X185295026Y-90719237D01*
X184647905Y-91366357D01*
X184615925Y-91247007D01*
X184550099Y-91132993D01*
X184457007Y-91039901D01*
X184342993Y-90974075D01*
X184223640Y-90942093D01*
X184870761Y-90294973D01*
X184857552Y-90285376D01*
X184857551Y-90285375D01*
X184668218Y-90188905D01*
X184668212Y-90188902D01*
X184466128Y-90123242D01*
X184256248Y-90090000D01*
X184043751Y-90090000D01*
X183833871Y-90123242D01*
X183631787Y-90188902D01*
X183631781Y-90188905D01*
X183442450Y-90285374D01*
X183442436Y-90285383D01*
X183429236Y-90294972D01*
X184076358Y-90942094D01*
X183957007Y-90974075D01*
X183842993Y-91039901D01*
X183749901Y-91132993D01*
X183684075Y-91247007D01*
X183652094Y-91366358D01*
X183004972Y-90719236D01*
X182936068Y-90724661D01*
X182921513Y-90723108D01*
X182907080Y-90725532D01*
X182867250Y-90717322D01*
X182826805Y-90713009D01*
X182813792Y-90706303D01*
X182799460Y-90703349D01*
X182765284Y-90681304D01*
X182729130Y-90662673D01*
X182717040Y-90650186D01*
X182707121Y-90643788D01*
X182670711Y-90602336D01*
X182640104Y-90560208D01*
X182489792Y-90409896D01*
X182373797Y-90325621D01*
X182317818Y-90284950D01*
X182317813Y-90284947D01*
X182128411Y-90188442D01*
X182128407Y-90188441D01*
X181926244Y-90122754D01*
X181926246Y-90122754D01*
X181716288Y-90089500D01*
X181716287Y-90089500D01*
X181503713Y-90089500D01*
X181503711Y-90089500D01*
X181293754Y-90122754D01*
X181091592Y-90188441D01*
X181091588Y-90188442D01*
X180902186Y-90284947D01*
X180902181Y-90284950D01*
X180730209Y-90409895D01*
X180730202Y-90409901D01*
X180579901Y-90560202D01*
X180572272Y-90569136D01*
X180570841Y-90567914D01*
X180502071Y-90632973D01*
X180400360Y-90674552D01*
X180290496Y-90676581D01*
X180187318Y-90638787D01*
X180107876Y-90569008D01*
X180107728Y-90569136D01*
X180106846Y-90568103D01*
X180104761Y-90566272D01*
X180100786Y-90561007D01*
X180100108Y-90560214D01*
X180100104Y-90560208D01*
X179949792Y-90409896D01*
X179833797Y-90325621D01*
X179777818Y-90284950D01*
X179777813Y-90284947D01*
X179588411Y-90188442D01*
X179588407Y-90188441D01*
X179386244Y-90122754D01*
X179386246Y-90122754D01*
X179176288Y-90089500D01*
X179176287Y-90089500D01*
X178963713Y-90089500D01*
X178963711Y-90089500D01*
X178753754Y-90122754D01*
X178551592Y-90188441D01*
X178551588Y-90188442D01*
X178362186Y-90284947D01*
X178362181Y-90284950D01*
X178190209Y-90409895D01*
X178190202Y-90409901D01*
X178039901Y-90560202D01*
X178032272Y-90569136D01*
X178030841Y-90567914D01*
X177962071Y-90632973D01*
X177860360Y-90674552D01*
X177750496Y-90676581D01*
X177647318Y-90638787D01*
X177567876Y-90569008D01*
X177567728Y-90569136D01*
X177566846Y-90568103D01*
X177564761Y-90566272D01*
X177560786Y-90561007D01*
X177560108Y-90560214D01*
X177560104Y-90560208D01*
X177409792Y-90409896D01*
X177293797Y-90325621D01*
X177237818Y-90284950D01*
X177237813Y-90284947D01*
X177048411Y-90188442D01*
X177048407Y-90188441D01*
X176846244Y-90122754D01*
X176846246Y-90122754D01*
X176636288Y-90089500D01*
X176636287Y-90089500D01*
X176423713Y-90089500D01*
X176423711Y-90089500D01*
X176213754Y-90122754D01*
X176011592Y-90188441D01*
X176011588Y-90188442D01*
X175822186Y-90284947D01*
X175822181Y-90284950D01*
X175650209Y-90409895D01*
X175650202Y-90409901D01*
X175499901Y-90560202D01*
X175492272Y-90569136D01*
X175490841Y-90567914D01*
X175422071Y-90632973D01*
X175320360Y-90674552D01*
X175210496Y-90676581D01*
X175107318Y-90638787D01*
X175027876Y-90569008D01*
X175027728Y-90569136D01*
X175026846Y-90568103D01*
X175024761Y-90566272D01*
X175020786Y-90561007D01*
X175020108Y-90560214D01*
X175020104Y-90560208D01*
X174869792Y-90409896D01*
X174753797Y-90325621D01*
X174697818Y-90284950D01*
X174697813Y-90284947D01*
X174508411Y-90188442D01*
X174508407Y-90188441D01*
X174306244Y-90122754D01*
X174306246Y-90122754D01*
X174096288Y-90089500D01*
X174096287Y-90089500D01*
X173883713Y-90089500D01*
X173883711Y-90089500D01*
X173673754Y-90122754D01*
X173471592Y-90188441D01*
X173471588Y-90188442D01*
X173282186Y-90284947D01*
X173282181Y-90284950D01*
X173110209Y-90409895D01*
X173110202Y-90409901D01*
X172959901Y-90560202D01*
X172952272Y-90569136D01*
X172950841Y-90567914D01*
X172882071Y-90632973D01*
X172780360Y-90674552D01*
X172670496Y-90676581D01*
X172567318Y-90638787D01*
X172487876Y-90569008D01*
X172487728Y-90569136D01*
X172486846Y-90568103D01*
X172484761Y-90566272D01*
X172480786Y-90561007D01*
X172480108Y-90560214D01*
X172480104Y-90560208D01*
X172329792Y-90409896D01*
X172213797Y-90325621D01*
X172157818Y-90284950D01*
X172157813Y-90284947D01*
X171968411Y-90188442D01*
X171968407Y-90188441D01*
X171766244Y-90122754D01*
X171766246Y-90122754D01*
X171556288Y-90089500D01*
X171556287Y-90089500D01*
X171343713Y-90089500D01*
X171343711Y-90089500D01*
X171133754Y-90122754D01*
X170931592Y-90188441D01*
X170931588Y-90188442D01*
X170742186Y-90284947D01*
X170742181Y-90284950D01*
X170570209Y-90409895D01*
X170570202Y-90409901D01*
X170419901Y-90560202D01*
X170412272Y-90569136D01*
X170410841Y-90567914D01*
X170342071Y-90632973D01*
X170240360Y-90674552D01*
X170130496Y-90676581D01*
X170027318Y-90638787D01*
X169947876Y-90569008D01*
X169947728Y-90569136D01*
X169946846Y-90568103D01*
X169944761Y-90566272D01*
X169940786Y-90561007D01*
X169940108Y-90560214D01*
X169940104Y-90560208D01*
X169789792Y-90409896D01*
X169673797Y-90325621D01*
X169617818Y-90284950D01*
X169617813Y-90284947D01*
X169428411Y-90188442D01*
X169428407Y-90188441D01*
X169226244Y-90122754D01*
X169226246Y-90122754D01*
X169016288Y-90089500D01*
X169016287Y-90089500D01*
X168803713Y-90089500D01*
X168803711Y-90089500D01*
X168593754Y-90122754D01*
X168391592Y-90188441D01*
X168391588Y-90188442D01*
X168202186Y-90284947D01*
X168202181Y-90284950D01*
X168030209Y-90409895D01*
X168030202Y-90409901D01*
X167879901Y-90560202D01*
X167872272Y-90569136D01*
X167870841Y-90567914D01*
X167802071Y-90632973D01*
X167700360Y-90674552D01*
X167590496Y-90676581D01*
X167487318Y-90638787D01*
X167407876Y-90569008D01*
X167407728Y-90569136D01*
X167406846Y-90568103D01*
X167404761Y-90566272D01*
X167400786Y-90561007D01*
X167400108Y-90560214D01*
X167400104Y-90560208D01*
X167249792Y-90409896D01*
X167133797Y-90325621D01*
X167077818Y-90284950D01*
X167077813Y-90284947D01*
X166888411Y-90188442D01*
X166888407Y-90188441D01*
X166686244Y-90122754D01*
X166686246Y-90122754D01*
X166476288Y-90089500D01*
X166476287Y-90089500D01*
X166263713Y-90089500D01*
X166263711Y-90089500D01*
X166053754Y-90122754D01*
X165851592Y-90188441D01*
X165851588Y-90188442D01*
X165662186Y-90284947D01*
X165662181Y-90284950D01*
X165490209Y-90409895D01*
X165490202Y-90409901D01*
X165339901Y-90560202D01*
X165332272Y-90569136D01*
X165330841Y-90567914D01*
X165262071Y-90632973D01*
X165160360Y-90674552D01*
X165050496Y-90676581D01*
X164947318Y-90638787D01*
X164885867Y-90590390D01*
X164870798Y-90574927D01*
X164860104Y-90560208D01*
X164716706Y-90416810D01*
X164715367Y-90415436D01*
X164685936Y-90371262D01*
X164655977Y-90327526D01*
X164655529Y-90325621D01*
X164654442Y-90323990D01*
X164642959Y-90272180D01*
X164630819Y-90220563D01*
X164630737Y-90217033D01*
X164630666Y-90216711D01*
X164630721Y-90216346D01*
X164630500Y-90206754D01*
X164630500Y-90159075D01*
X164627941Y-90146210D01*
X164627941Y-90146211D01*
X164627940Y-90146204D01*
X164599737Y-90004421D01*
X164582659Y-89963194D01*
X164582063Y-89961754D01*
X164582059Y-89961744D01*
X164539397Y-89858745D01*
X164532473Y-89845792D01*
X164534943Y-89844471D01*
X164500770Y-89764600D01*
X164496960Y-89654784D01*
X164533077Y-89551007D01*
X164604243Y-89467285D01*
X164700848Y-89414925D01*
X164792597Y-89400500D01*
X191114712Y-89400500D01*
X191151178Y-89407316D01*
G37*
%TD.AperFunction*%
%TA.AperFunction,Conductor*%
G36*
X126875025Y-92160761D02*
G01*
X126943943Y-92155339D01*
X126995569Y-92160846D01*
X127047301Y-92165292D01*
X127050103Y-92166664D01*
X127053205Y-92166995D01*
X127099345Y-92190774D01*
X127145988Y-92213613D01*
X127148406Y-92216060D01*
X127150878Y-92217334D01*
X127187011Y-92250513D01*
X127198952Y-92263438D01*
X127239896Y-92319792D01*
X127386094Y-92465990D01*
X127390114Y-92470341D01*
X127416257Y-92511941D01*
X127444023Y-92552474D01*
X127445394Y-92558303D01*
X127448582Y-92563376D01*
X127457932Y-92611610D01*
X127469181Y-92659437D01*
X127469448Y-92671020D01*
X127469493Y-92671250D01*
X127469458Y-92671442D01*
X127469500Y-92673246D01*
X127469500Y-92720923D01*
X127500263Y-92875578D01*
X127508395Y-92895210D01*
X127542720Y-92978080D01*
X127565399Y-93085596D01*
X127547708Y-93194045D01*
X127492035Y-93288779D01*
X127405899Y-93357005D01*
X127300934Y-93389508D01*
X127266479Y-93391500D01*
X126397428Y-93391500D01*
X126363476Y-93385153D01*
X126328972Y-93383558D01*
X126309904Y-93375138D01*
X126289417Y-93371309D01*
X126260049Y-93353125D01*
X126228452Y-93339174D01*
X126201880Y-93317109D01*
X126195993Y-93313464D01*
X126186003Y-93303925D01*
X126083733Y-93201655D01*
X126021635Y-93111002D01*
X125996477Y-93004039D01*
X126011658Y-92895210D01*
X126065127Y-92799215D01*
X126149663Y-92729017D01*
X126202764Y-92705863D01*
X126248219Y-92691094D01*
X126437552Y-92594624D01*
X126450761Y-92585025D01*
X125803641Y-91937905D01*
X125922993Y-91905925D01*
X126037007Y-91840099D01*
X126130099Y-91747007D01*
X126195925Y-91632993D01*
X126227905Y-91513641D01*
X126875025Y-92160761D01*
G37*
%TD.AperFunction*%
%TD*%
M02*
