%TF.GenerationSoftware,KiCad,Pcbnew,9.0.7*%
%TF.CreationDate,2026-02-23T17:10:25-05:00*%
%TF.ProjectId,Stencil,5374656e-6369-46c2-9e6b-696361645f70,rev?*%
%TF.SameCoordinates,Original*%
%TF.FileFunction,Copper,L2,Bot*%
%TF.FilePolarity,Positive*%
%FSLAX46Y46*%
G04 Gerber Fmt 4.6, Leading zero omitted, Abs format (unit mm)*
G04 Created by KiCad (PCBNEW 9.0.7) date 2026-02-23 17:10:25*
%MOMM*%
%LPD*%
G01*
G04 APERTURE LIST*
G04 Aperture macros list*
%AMRoundRect*
0 Rectangle with rounded corners*
0 $1 Rounding radius*
0 $2 $3 $4 $5 $6 $7 $8 $9 X,Y pos of 4 corners*
0 Add a 4 corners polygon primitive as box body*
4,1,4,$2,$3,$4,$5,$6,$7,$8,$9,$2,$3,0*
0 Add four circle primitives for the rounded corners*
1,1,$1+$1,$2,$3*
1,1,$1+$1,$4,$5*
1,1,$1+$1,$6,$7*
1,1,$1+$1,$8,$9*
0 Add four rect primitives between the rounded corners*
20,1,$1+$1,$2,$3,$4,$5,0*
20,1,$1+$1,$4,$5,$6,$7,0*
20,1,$1+$1,$6,$7,$8,$9,0*
20,1,$1+$1,$8,$9,$2,$3,0*%
G04 Aperture macros list end*
%TA.AperFunction,ComponentPad*%
%ADD10R,1.700000X1.700000*%
%TD*%
%TA.AperFunction,ComponentPad*%
%ADD11C,1.700000*%
%TD*%
%TA.AperFunction,HeatsinkPad*%
%ADD12C,0.600000*%
%TD*%
%TA.AperFunction,ComponentPad*%
%ADD13RoundRect,0.250000X0.550000X0.550000X-0.550000X0.550000X-0.550000X-0.550000X0.550000X-0.550000X0*%
%TD*%
%TA.AperFunction,ComponentPad*%
%ADD14C,1.600000*%
%TD*%
%TA.AperFunction,ComponentPad*%
%ADD15C,2.000000*%
%TD*%
%TA.AperFunction,ComponentPad*%
%ADD16RoundRect,0.250000X0.550000X-0.550000X0.550000X0.550000X-0.550000X0.550000X-0.550000X-0.550000X0*%
%TD*%
%TA.AperFunction,ComponentPad*%
%ADD17R,1.800000X1.800000*%
%TD*%
%TA.AperFunction,ComponentPad*%
%ADD18C,1.800000*%
%TD*%
%TA.AperFunction,ComponentPad*%
%ADD19RoundRect,0.250000X-0.550000X-0.550000X0.550000X-0.550000X0.550000X0.550000X-0.550000X0.550000X0*%
%TD*%
%TA.AperFunction,Conductor*%
%ADD20C,0.600000*%
%TD*%
G04 APERTURE END LIST*
D10*
%TO.P,J6,1,Pin_1*%
%TO.N,IO2*%
X161290000Y-91440000D03*
D11*
%TO.P,J6,2,Pin_2*%
%TO.N,IO1*%
X163830000Y-91440000D03*
%TO.P,J6,3,Pin_3*%
%TO.N,TXD0*%
X166370000Y-91440000D03*
%TO.P,J6,4,Pin_4*%
%TO.N,RXD0*%
X168910000Y-91440000D03*
%TO.P,J6,5,Pin_5*%
%TO.N,IO42*%
X171450000Y-91440000D03*
%TO.P,J6,6,Pin_6*%
%TO.N,IO41*%
X173990000Y-91440000D03*
%TO.P,J6,7,Pin_7*%
%TO.N,IO40*%
X176530000Y-91440000D03*
%TO.P,J6,8,Pin_8*%
%TO.N,IO38*%
X179070000Y-91440000D03*
%TO.P,J6,9,Pin_9*%
%TO.N,IO39*%
X181610000Y-91440000D03*
%TO.P,J6,10,Pin_10*%
%TO.N,GND*%
X184150000Y-91440000D03*
%TD*%
D10*
%TO.P,J7,1,Pin_1*%
%TO.N,3V3*%
X184150000Y-114300000D03*
D11*
%TO.P,J7,2,Pin_2*%
%TO.N,IO36*%
X181610000Y-114300000D03*
%TO.P,J7,3,Pin_3*%
%TO.N,IO37*%
X179070000Y-114300000D03*
%TO.P,J7,4,Pin_4*%
%TO.N,IO35*%
X176530000Y-114300000D03*
%TO.P,J7,5,Pin_5*%
%TO.N,IO45*%
X173990000Y-114300000D03*
%TO.P,J7,6,Pin_6*%
%TO.N,IO0*%
X171450000Y-114300000D03*
%TO.P,J7,7,Pin_7*%
%TO.N,IO48*%
X168910000Y-114300000D03*
%TO.P,J7,8,Pin_8*%
%TO.N,IO47*%
X166370000Y-114300000D03*
%TO.P,J7,9,Pin_9*%
%TO.N,IO14*%
X163830000Y-114300000D03*
%TO.P,J7,10,Pin_10*%
%TO.N,IO21*%
X161290000Y-114300000D03*
%TD*%
D12*
%TO.P,U1,41,GND*%
%TO.N,GND*%
X143250000Y-97190000D03*
X143250000Y-98590000D03*
X143950000Y-96490000D03*
X143950000Y-97890000D03*
X143950000Y-99290000D03*
X144650000Y-97190000D03*
X144650000Y-98590000D03*
X145350000Y-96490000D03*
X145350000Y-97890000D03*
X145350000Y-99290000D03*
X146050000Y-97190000D03*
X146050000Y-98590000D03*
%TD*%
D13*
%TO.P,C2,1*%
%TO.N,VIN*%
X119500000Y-108000000D03*
D14*
%TO.P,C2,2*%
%TO.N,GND*%
X117500000Y-108000000D03*
%TD*%
D15*
%TO.P,SW3,1,1*%
%TO.N,GND*%
X109930000Y-100040000D03*
X103430000Y-100040000D03*
%TO.P,SW3,2,2*%
%TO.N,EN*%
X109930000Y-95540000D03*
X103430000Y-95540000D03*
%TD*%
D13*
%TO.P,C4,1*%
%TO.N,3V3*%
X172000000Y-103000000D03*
D14*
%TO.P,C4,2*%
%TO.N,GND*%
X170000000Y-103000000D03*
%TD*%
D10*
%TO.P,J10,1,Pin_1*%
%TO.N,GND*%
X126492000Y-104902000D03*
D11*
%TO.P,J10,2,Pin_2*%
%TO.N,EN*%
X129032000Y-104902000D03*
%TO.P,J10,3,Pin_3*%
%TO.N,3V3*%
X131572000Y-104902000D03*
%TD*%
D10*
%TO.P,J9,1,Pin_1*%
%TO.N,IO13*%
X154940000Y-116840000D03*
D11*
%TO.P,J9,2,Pin_2*%
%TO.N,IO12*%
X152400000Y-116840000D03*
%TO.P,J9,3,Pin_3*%
%TO.N,IO11*%
X149860000Y-116840000D03*
%TO.P,J9,4,Pin_4*%
%TO.N,IO10*%
X147320000Y-116840000D03*
%TO.P,J9,5,Pin_5*%
%TO.N,IO9*%
X144780000Y-116840000D03*
%TO.P,J9,6,Pin_6*%
%TO.N,IO46*%
X142240000Y-116840000D03*
%TO.P,J9,7,Pin_7*%
%TO.N,IO3*%
X139700000Y-116840000D03*
%TD*%
D15*
%TO.P,SW2,1,1*%
%TO.N,GND*%
X179428000Y-106208000D03*
X185928000Y-106208000D03*
%TO.P,SW2,2,2*%
%TO.N,IO0*%
X179428000Y-110708000D03*
X185928000Y-110708000D03*
%TD*%
D16*
%TO.P,C5,1*%
%TO.N,3V3*%
X189992000Y-99253113D03*
D14*
%TO.P,C5,2*%
%TO.N,GND*%
X189992000Y-97253113D03*
%TD*%
D10*
%TO.P,J5,1,Pin_1*%
%TO.N,IO18*%
X107950000Y-114300000D03*
D11*
%TO.P,J5,2,Pin_2*%
%TO.N,IO8*%
X110490000Y-114300000D03*
%TO.P,J5,3,Pin_3*%
%TO.N,IO13*%
X113030000Y-114300000D03*
%TO.P,J5,4,Pin_4*%
%TO.N,IO12*%
X115570000Y-114300000D03*
%TO.P,J5,5,Pin_5*%
%TO.N,IO11*%
X118110000Y-114300000D03*
%TO.P,J5,6,Pin_6*%
%TO.N,IO10*%
X120650000Y-114300000D03*
%TO.P,J5,7,Pin_7*%
%TO.N,IO9*%
X123190000Y-114300000D03*
%TO.P,J5,8,Pin_8*%
%TO.N,IO46*%
X125730000Y-114300000D03*
%TO.P,J5,9,Pin_9*%
%TO.N,IO3*%
X128270000Y-114300000D03*
%TO.P,J5,10,Pin_10*%
%TO.N,VIN*%
X130810000Y-114300000D03*
%TD*%
D13*
%TO.P,C1,1*%
%TO.N,EN*%
X113731112Y-109474000D03*
D14*
%TO.P,C1,2*%
%TO.N,GND*%
X111731112Y-109474000D03*
%TD*%
D11*
%TO.P,J4,1,Pin_1*%
%TO.N,VIN*%
X137426000Y-120884000D03*
%TO.P,J4,2,Pin_2*%
%TO.N,D-*%
X139966000Y-120884000D03*
%TO.P,J4,3,Pin_3*%
%TO.N,D+*%
X142506000Y-120884000D03*
D10*
%TO.P,J4,4,Pin_4*%
%TO.N,GND*%
X155206000Y-120884000D03*
%TD*%
D14*
%TO.P,R7,1*%
%TO.N,3V3*%
X120904000Y-103378000D03*
%TO.P,R7,2*%
%TO.N,EN*%
X110744000Y-103378000D03*
%TD*%
D17*
%TO.P,D1,1,K*%
%TO.N,GND*%
X189484000Y-107950000D03*
D18*
%TO.P,D1,2,A*%
%TO.N,Net-(D1-A)*%
X192024000Y-107950000D03*
%TD*%
D14*
%TO.P,R8,1*%
%TO.N,Net-(D1-A)*%
X175768000Y-110998000D03*
%TO.P,R8,2*%
%TO.N,VIN*%
X175768000Y-100838000D03*
%TD*%
D10*
%TO.P,J2,1,Pin_1*%
%TO.N,IO42*%
X161290000Y-97010000D03*
D11*
%TO.P,J2,2,Pin_2*%
%TO.N,IO41*%
X163830000Y-97010000D03*
%TO.P,J2,3,Pin_3*%
%TO.N,IO40*%
X166370000Y-97010000D03*
%TO.P,J2,4,Pin_4*%
%TO.N,IO39*%
X168910000Y-97010000D03*
%TO.P,J2,5,Pin_5*%
%TO.N,IO38*%
X171450000Y-97010000D03*
%TD*%
D10*
%TO.P,J8,1,Pin_1*%
%TO.N,IO6*%
X130810000Y-97790000D03*
D11*
%TO.P,J8,2,Pin_2*%
%TO.N,IO7*%
X128270000Y-97790000D03*
%TO.P,J8,3,Pin_3*%
%TO.N,IO15*%
X125730000Y-97790000D03*
%TO.P,J8,4,Pin_4*%
%TO.N,IO16*%
X123190000Y-97790000D03*
%TO.P,J8,5,Pin_5*%
%TO.N,IO17*%
X120650000Y-97790000D03*
%TD*%
D19*
%TO.P,C3,1*%
%TO.N,VIN*%
X113344887Y-98298000D03*
D14*
%TO.P,C3,2*%
%TO.N,GND*%
X115344887Y-98298000D03*
%TD*%
D10*
%TO.P,J3,1,Pin_1*%
%TO.N,IO37*%
X170180000Y-107950000D03*
D11*
%TO.P,J3,2,Pin_2*%
%TO.N,IO36*%
X167640000Y-107950000D03*
%TO.P,J3,3,Pin_3*%
%TO.N,IO35*%
X165100000Y-107950000D03*
%TO.P,J3,4,Pin_4*%
%TO.N,IO45*%
X162560000Y-107950000D03*
%TO.P,J3,5,Pin_5*%
%TO.N,IO0*%
X160020000Y-107950000D03*
%TD*%
D14*
%TO.P,R6,1*%
%TO.N,3V3*%
X189484000Y-102870000D03*
%TO.P,R6,2*%
%TO.N,IO0*%
X179324000Y-102870000D03*
%TD*%
D17*
%TO.P,D2,1,K*%
%TO.N,GND*%
X106680000Y-110241000D03*
D18*
%TO.P,D2,2,A*%
%TO.N,Net-(D2-A)*%
X106680000Y-107701000D03*
%TD*%
D14*
%TO.P,R9,1*%
%TO.N,Net-(D2-A)*%
X107188000Y-103378000D03*
%TO.P,R9,2*%
%TO.N,3V3*%
X97028000Y-103378000D03*
%TD*%
D10*
%TO.P,J1,1,Pin_1*%
%TO.N,3V3*%
X130810000Y-91440000D03*
D11*
%TO.P,J1,2,Pin_2*%
%TO.N,EN*%
X128270000Y-91440000D03*
%TO.P,J1,3,Pin_3*%
%TO.N,GND*%
X125730000Y-91440000D03*
%TO.P,J1,4,Pin_4*%
%TO.N,IO4*%
X123190000Y-91440000D03*
%TO.P,J1,5,Pin_5*%
%TO.N,IO5*%
X120650000Y-91440000D03*
%TO.P,J1,6,Pin_6*%
%TO.N,IO6*%
X118110000Y-91440000D03*
%TO.P,J1,7,Pin_7*%
%TO.N,IO7*%
X115570000Y-91440000D03*
%TO.P,J1,8,Pin_8*%
%TO.N,IO15*%
X113030000Y-91440000D03*
%TO.P,J1,9,Pin_9*%
%TO.N,IO17*%
X110490000Y-91440000D03*
%TO.P,J1,10,Pin_10*%
%TO.N,IO16*%
X107950000Y-91440000D03*
%TD*%
D20*
%TO.N,GND*%
X112738846Y-111075000D02*
X115886033Y-111075000D01*
X154940000Y-120762500D02*
X156390000Y-120762500D01*
X106680000Y-110241000D02*
X109143000Y-107778000D01*
X103430000Y-106856578D02*
X103430000Y-100040000D01*
X132080000Y-96139000D02*
X132461000Y-96139000D01*
X115886033Y-111075000D02*
X117856000Y-109105033D01*
X114731000Y-111075000D02*
X107648422Y-111075000D01*
X106680000Y-110241000D02*
X110964112Y-110241000D01*
X189992000Y-97253113D02*
X184178887Y-91440000D01*
X125811916Y-91440000D02*
X130510916Y-96139000D01*
X166116000Y-104995950D02*
X168194975Y-102916975D01*
X188382887Y-97253113D02*
X179428000Y-106208000D01*
X182523434Y-90018566D02*
X182728566Y-90018566D01*
X182728566Y-90018566D02*
X184150000Y-91440000D01*
X159206049Y-106511000D02*
X160307049Y-105410000D01*
X160528000Y-105410000D02*
X160942050Y-104995950D01*
X168194975Y-102916975D02*
X168241950Y-102870000D01*
X117856000Y-109105033D02*
X117856000Y-107950000D01*
X179428000Y-106208000D02*
X185928000Y-106208000D01*
X126492000Y-101854000D02*
X126492000Y-104902000D01*
X109143000Y-107778000D02*
X109143000Y-100893734D01*
X111731112Y-109474000D02*
X111511000Y-109694112D01*
X111511000Y-109694112D02*
X111511000Y-109847154D01*
X132461000Y-99441000D02*
X129159000Y-99441000D01*
X117856000Y-107950000D02*
X114731000Y-111075000D01*
X157692000Y-106755050D02*
X157936050Y-106511000D01*
X125730000Y-91440000D02*
X127381000Y-89789000D01*
X107648422Y-111075000D02*
X103430000Y-106856578D01*
X127381000Y-89789000D02*
X182293867Y-89789000D01*
X184178887Y-91440000D02*
X184150000Y-91440000D01*
X129032000Y-99314000D02*
X126492000Y-101854000D01*
X109930000Y-100040000D02*
X103430000Y-100040000D01*
X182523434Y-90018566D02*
X182880000Y-90375133D01*
X132461000Y-96520000D02*
X132461000Y-99441000D01*
X157936050Y-106511000D02*
X159206049Y-106511000D01*
X168241950Y-102870000D02*
X170151112Y-102870000D01*
X125730000Y-91440000D02*
X125811916Y-91440000D01*
X110964112Y-110241000D02*
X111731112Y-109474000D01*
X156390000Y-120762500D02*
X157692000Y-119460500D01*
X130510916Y-96139000D02*
X132080000Y-96139000D01*
X160942050Y-104995950D02*
X166116000Y-104995950D01*
X111511000Y-109847154D02*
X112738846Y-111075000D01*
X132080000Y-96139000D02*
X132461000Y-96520000D01*
X129159000Y-99441000D02*
X129032000Y-99314000D01*
X157692000Y-119460500D02*
X157692000Y-106755050D01*
X189992000Y-97253113D02*
X188382887Y-97253113D01*
X182293867Y-89789000D02*
X182523434Y-90018566D01*
X160307049Y-105410000D02*
X160528000Y-105410000D01*
%TO.N,EN*%
X129540000Y-100838000D02*
X129032000Y-101346000D01*
X113731112Y-106365112D02*
X110744000Y-103378000D01*
X129032000Y-101346000D02*
X129032000Y-104902000D01*
X128270000Y-92341034D02*
X130966966Y-95038000D01*
X132917049Y-95038000D02*
X133562000Y-95682951D01*
X133562000Y-95682951D02*
X133562000Y-99897049D01*
X113731112Y-109474000D02*
X113731112Y-106365112D01*
X109930000Y-95540000D02*
X103430000Y-95540000D01*
X130966966Y-95038000D02*
X132917049Y-95038000D01*
X128270000Y-91440000D02*
X128270000Y-92341034D01*
X132621049Y-100838000D02*
X129540000Y-100838000D01*
X133562000Y-99897049D02*
X132621049Y-100838000D01*
%TO.N,Net-(D2-A)*%
X106680000Y-103886000D02*
X107188000Y-103378000D01*
X106680000Y-107701000D02*
X106680000Y-103886000D01*
%TO.N,IO9*%
X123190000Y-114300000D02*
X123444000Y-114554000D01*
X139723101Y-113749001D02*
X140062099Y-114088000D01*
X125046133Y-112649000D02*
X126029083Y-112649000D01*
X140839916Y-114088000D02*
X141154484Y-114402566D01*
X123444000Y-114554000D02*
X124079000Y-114554000D01*
X142240000Y-114300000D02*
X144780000Y-116840000D01*
X141154484Y-114402566D02*
X141257050Y-114300000D01*
X129670084Y-111548000D02*
X131949917Y-111548000D01*
X133562000Y-113749000D02*
X139723101Y-113749001D01*
X129409917Y-111548000D02*
X129540000Y-111678083D01*
X127130084Y-111548000D02*
X129409917Y-111548000D01*
X133562000Y-113160084D02*
X133562000Y-113749000D01*
X124079000Y-114554000D02*
X124079000Y-113616133D01*
X131949917Y-111548000D02*
X133562000Y-113160084D01*
X124079000Y-113616133D02*
X125046133Y-112649000D01*
X140062099Y-114088000D02*
X140839916Y-114088000D01*
X129540000Y-111678083D02*
X129670084Y-111548000D01*
X126029083Y-112649000D02*
X127130084Y-111548000D01*
X141257050Y-114300000D02*
X142240000Y-114300000D01*
%TO.N,3V3*%
X130810000Y-91440000D02*
X130810000Y-93323984D01*
X176000156Y-102870000D02*
X172151112Y-102870000D01*
X131392008Y-93905992D02*
X133342090Y-93905992D01*
X133342090Y-93905992D02*
X134663000Y-95226902D01*
X184150000Y-112268000D02*
X183896000Y-112014000D01*
X177369000Y-100174844D02*
X177369000Y-101501156D01*
X184150000Y-114300000D02*
X184150000Y-112268000D01*
X186673999Y-108907000D02*
X185182001Y-108907000D01*
X187729000Y-107851999D02*
X186673999Y-108907000D01*
X134663000Y-103000000D02*
X159602951Y-103000000D01*
X134663000Y-95226902D02*
X134663000Y-97282000D01*
X189484000Y-102870000D02*
X187729000Y-104625000D01*
X185182001Y-108907000D02*
X183896000Y-110193001D01*
X189484000Y-99761113D02*
X189992000Y-99253113D01*
X130810000Y-91440000D02*
X130556000Y-91186000D01*
X166175997Y-99762003D02*
X171222176Y-99762003D01*
X130810000Y-93323984D02*
X131392008Y-93905992D01*
X159809001Y-102793950D02*
X163144050Y-102793950D01*
X163144050Y-102793950D02*
X166175997Y-99762003D01*
X173754156Y-99762000D02*
X174279156Y-99237000D01*
X176431156Y-99237000D02*
X177369000Y-100174844D01*
X189992000Y-99253113D02*
X189992000Y-99314000D01*
X134663000Y-100795000D02*
X134221099Y-100795000D01*
X189484000Y-102870000D02*
X189484000Y-99761113D01*
X171222180Y-99762000D02*
X173754156Y-99762000D01*
X134663000Y-97282000D02*
X134663000Y-100795000D01*
X134663000Y-97282000D02*
X134663000Y-103000000D01*
X187729000Y-104625000D02*
X187729000Y-107851999D01*
X131572000Y-101939000D02*
X131572000Y-104902000D01*
X174279156Y-99237000D02*
X176431156Y-99237000D01*
X183896000Y-110193001D02*
X183896000Y-112014000D01*
X177369000Y-101501156D02*
X176000156Y-102870000D01*
X159602951Y-103000000D02*
X159809001Y-102793950D01*
X134221099Y-100795000D02*
X133077098Y-101939000D01*
X133077098Y-101939000D02*
X131572000Y-101939000D01*
X171222176Y-99762003D02*
X171222180Y-99762000D01*
X183896000Y-112014000D02*
X183896000Y-112649000D01*
%TO.N,IO13*%
X120036986Y-110447000D02*
X119054034Y-110447000D01*
X127845894Y-107143993D02*
X127845888Y-107144000D01*
X154051000Y-116840000D02*
X154051000Y-116156133D01*
X142912248Y-109727000D02*
X142531247Y-109346000D01*
X129670093Y-107143993D02*
X127845894Y-107143993D01*
X123221937Y-108245000D02*
X122120936Y-109346000D01*
X119054034Y-110447000D02*
X117953033Y-111548000D01*
X117953033Y-111548000D02*
X116970083Y-111548000D01*
X114886133Y-112649000D02*
X113919000Y-113616133D01*
X124204887Y-108245000D02*
X123221937Y-108245000D01*
X144878149Y-109727000D02*
X142912248Y-109727000D01*
X133774117Y-107144002D02*
X129670100Y-107143999D01*
X141547300Y-109345002D02*
X135975115Y-109345000D01*
X152100917Y-115189000D02*
X150999917Y-114088000D01*
X129670100Y-107143999D02*
X129670093Y-107143993D01*
X154051000Y-116156133D02*
X153083867Y-115189000D01*
X153083867Y-115189000D02*
X152100917Y-115189000D01*
X154940000Y-116840000D02*
X154051000Y-116840000D01*
X127845888Y-107144000D02*
X125305888Y-107144000D01*
X135975115Y-109345000D02*
X133774117Y-107144002D01*
X122120936Y-109346000D02*
X121137986Y-109346000D01*
X148915966Y-112987000D02*
X148138150Y-112987000D01*
X125305888Y-107144000D02*
X124204887Y-108245000D01*
X142531247Y-109346000D02*
X141548299Y-109346000D01*
X113919000Y-114300000D02*
X113030000Y-114300000D01*
X115869083Y-112649000D02*
X114886133Y-112649000D01*
X150016965Y-114088000D02*
X148915966Y-112987000D01*
X121137986Y-109346000D02*
X120036986Y-110447000D01*
X150999917Y-114088000D02*
X150016965Y-114088000D01*
X141548299Y-109346000D02*
X141547300Y-109345002D01*
X116970083Y-111548000D02*
X115869083Y-112649000D01*
X148138150Y-112987000D02*
X144878149Y-109727000D01*
X113919000Y-113616133D02*
X113919000Y-114300000D01*
%TO.N,IO3*%
X138811000Y-115951000D02*
X139700000Y-116840000D01*
X128270000Y-114300000D02*
X129921000Y-115951000D01*
X129921000Y-115951000D02*
X138811000Y-115951000D01*
%TO.N,IO11*%
X118110000Y-114300000D02*
X118999000Y-114300000D01*
X148003867Y-115189000D02*
X148971000Y-116156133D01*
X148971000Y-116156133D02*
X148971000Y-116840000D01*
X140635201Y-111547002D02*
X140636200Y-111548000D01*
X119966133Y-112649000D02*
X120949083Y-112649000D01*
X124134035Y-110447000D02*
X125116985Y-110447000D01*
X128757987Y-109346000D02*
X128757994Y-109345997D01*
X126217986Y-109346000D02*
X128757987Y-109346000D01*
X132862017Y-109346002D02*
X135063015Y-111547000D01*
X148971000Y-116840000D02*
X149860000Y-116840000D01*
X118999000Y-113616133D02*
X119966133Y-112649000D01*
X120949083Y-112649000D02*
X122050084Y-111548000D01*
X128757994Y-109345997D02*
X130217352Y-109346001D01*
X122050084Y-111548000D02*
X123033034Y-111548000D01*
X140636200Y-111548000D02*
X141619149Y-111548000D01*
X123033034Y-111548000D02*
X124134035Y-110447000D01*
X147226050Y-115189000D02*
X148003867Y-115189000D01*
X125116985Y-110447000D02*
X126217986Y-109346000D01*
X142000150Y-111929000D02*
X143966050Y-111929000D01*
X130217352Y-109346001D02*
X132862017Y-109346002D01*
X135063015Y-111547000D02*
X140635201Y-111547002D01*
X118999000Y-114300000D02*
X118999000Y-113616133D01*
X141619149Y-111548000D02*
X142000150Y-111929000D01*
X143966050Y-111929000D02*
X147226050Y-115189000D01*
%TO.N,IO12*%
X133318067Y-108245002D02*
X135519065Y-110446000D01*
X124660936Y-109346000D02*
X125761937Y-108245000D01*
X142456198Y-110828000D02*
X144422100Y-110828000D01*
X150543867Y-115189000D02*
X151511000Y-116156133D01*
X123677986Y-109346000D02*
X124660936Y-109346000D01*
X119510084Y-111548000D02*
X120493034Y-111548000D01*
X149560916Y-115189000D02*
X150543867Y-115189000D01*
X122576985Y-110447000D02*
X123677986Y-109346000D01*
X118409084Y-112649000D02*
X119510084Y-111548000D01*
X121594035Y-110447000D02*
X122576985Y-110447000D01*
X128301944Y-108244993D02*
X129214044Y-108244993D01*
X142075198Y-110447000D02*
X142456198Y-110828000D01*
X117426133Y-112649000D02*
X118409084Y-112649000D01*
X135519065Y-110446000D02*
X141091251Y-110446002D01*
X151511000Y-116840000D02*
X152400000Y-116840000D01*
X120493034Y-111548000D02*
X121594035Y-110447000D01*
X141092248Y-110447000D02*
X142075198Y-110447000D01*
X128301937Y-108245000D02*
X128301944Y-108244993D01*
X115570000Y-114300000D02*
X116459000Y-114300000D01*
X116459000Y-113616133D02*
X117426133Y-112649000D01*
X148459917Y-114088000D02*
X149560916Y-115189000D01*
X144422100Y-110828000D02*
X147682100Y-114088000D01*
X129214044Y-108244993D02*
X129214049Y-108244998D01*
X129214049Y-108244998D02*
X130342777Y-108245001D01*
X141091251Y-110446002D02*
X141092248Y-110447000D01*
X151511000Y-116156133D02*
X151511000Y-116840000D01*
X147682100Y-114088000D02*
X148459917Y-114088000D01*
X116459000Y-114300000D02*
X116459000Y-113616133D01*
X125761937Y-108245000D02*
X128301937Y-108245000D01*
X130342777Y-108245001D02*
X133318067Y-108245002D01*
%TO.N,IO6*%
X125046133Y-93091000D02*
X124460000Y-92504867D01*
X124003941Y-92960920D02*
X123873863Y-93091000D01*
X122022566Y-92607434D02*
X121539000Y-93091000D01*
X129921000Y-97106133D02*
X128953867Y-96139000D01*
X124003946Y-92960920D02*
X124003941Y-92960920D01*
X122506133Y-93091000D02*
X122022566Y-92607434D01*
X128176050Y-96139000D02*
X125128049Y-93091000D01*
X125128049Y-93091000D02*
X125046133Y-93091000D01*
X124460000Y-92504867D02*
X124003946Y-92960920D01*
X123873863Y-93091000D02*
X122506133Y-93091000D01*
X129921000Y-97790000D02*
X129921000Y-97106133D01*
X121539000Y-93091000D02*
X119761000Y-93091000D01*
X128953867Y-96139000D02*
X128176050Y-96139000D01*
X130810000Y-97790000D02*
X129921000Y-97790000D01*
X119761000Y-93091000D02*
X118110000Y-91440000D01*
%TO.N,IO10*%
X130126138Y-110447001D02*
X132405967Y-110447001D01*
X126674035Y-110447000D02*
X129214037Y-110447000D01*
X140179152Y-112648002D02*
X140180149Y-112649000D01*
X123489083Y-112649000D02*
X124590084Y-111548000D01*
X140180149Y-112649000D02*
X141163100Y-112649000D01*
X121539000Y-114300000D02*
X121539000Y-113616133D01*
X143510000Y-113030000D02*
X147320000Y-116840000D01*
X122506133Y-112649000D02*
X123489083Y-112649000D01*
X141544100Y-113030000D02*
X143510000Y-113030000D01*
X129214037Y-110447000D02*
X129214039Y-110446998D01*
X141163100Y-112649000D02*
X141544100Y-113030000D01*
X124590084Y-111548000D02*
X125573035Y-111548000D01*
X134606965Y-112648000D02*
X140179152Y-112648002D01*
X120650000Y-114300000D02*
X121539000Y-114300000D01*
X125573035Y-111548000D02*
X126674035Y-110447000D01*
X129214039Y-110446998D02*
X130126138Y-110447001D01*
X121539000Y-113616133D02*
X122506133Y-112649000D01*
X132405967Y-110447001D02*
X134606965Y-112648000D01*
%TO.N,IO7*%
X119304950Y-94192000D02*
X118203950Y-93091000D01*
X118203950Y-93091000D02*
X117426133Y-93091000D01*
X116332000Y-92202000D02*
X115570000Y-91440000D01*
X122050084Y-94192000D02*
X122022567Y-94164483D01*
X122022567Y-94164483D02*
X121995049Y-94192000D01*
X121995049Y-94192000D02*
X119304950Y-94192000D01*
X124590084Y-94192000D02*
X124459999Y-94061917D01*
X128270000Y-97790000D02*
X124672000Y-94192000D01*
X116537133Y-92202000D02*
X116332000Y-92202000D01*
X124672000Y-94192000D02*
X124590084Y-94192000D01*
X124329916Y-94192000D02*
X122050084Y-94192000D01*
X117426133Y-93091000D02*
X116537133Y-92202000D01*
X124459999Y-94061917D02*
X124329916Y-94192000D01*
%TO.N,VIN*%
X168691897Y-100863003D02*
X171678226Y-100863003D01*
X139431500Y-118491000D02*
X156210000Y-118491000D01*
X113344887Y-99098000D02*
X119856000Y-105609113D01*
X165100000Y-103894950D02*
X165100000Y-103886000D01*
X137160000Y-120762500D02*
X139431500Y-118491000D01*
X156591000Y-118110000D02*
X156591000Y-106299000D01*
X165583887Y-103402113D02*
X166152787Y-103402113D01*
X156210000Y-118491000D02*
X156591000Y-118110000D01*
X175743000Y-100863000D02*
X175768000Y-100838000D01*
X156591000Y-106299000D02*
X157480000Y-105410000D01*
X113344887Y-98298000D02*
X113344887Y-99098000D01*
X157480000Y-105410000D02*
X158750000Y-105410000D01*
X119856000Y-105609113D02*
X119856000Y-107950000D01*
X166152787Y-103402113D02*
X168691897Y-100863003D01*
X171678229Y-100863000D02*
X175743000Y-100863000D01*
X160265050Y-103894950D02*
X165100000Y-103894950D01*
X158750000Y-105410000D02*
X160265050Y-103894950D01*
X165100000Y-103886000D02*
X165583887Y-103402113D01*
X171678226Y-100863003D02*
X171678229Y-100863000D01*
%TO.N,IO0*%
X160020000Y-107950000D02*
X161873050Y-106096950D01*
X160020000Y-107950000D02*
X164719000Y-112649000D01*
X168368951Y-104902000D02*
X177292000Y-104902000D01*
X167166092Y-106104859D02*
X168368951Y-104902000D01*
X161873050Y-106096950D02*
X167158183Y-106096950D01*
X167158183Y-106096950D02*
X167166092Y-106104859D01*
X164719000Y-112649000D02*
X169799000Y-112649000D01*
X177292000Y-104902000D02*
X179324000Y-102870000D01*
X169799000Y-112649000D02*
X171450000Y-114300000D01*
%TO.N,IO39*%
X174808150Y-95293000D02*
X175585967Y-95292999D01*
X170561000Y-98661000D02*
X170579000Y-98661000D01*
X175585967Y-95292999D02*
X176686965Y-94192000D01*
X179753867Y-93091000D02*
X180721000Y-92123867D01*
X176686965Y-94192000D02*
X177669917Y-94192000D01*
X173101000Y-97693867D02*
X173101000Y-97000149D01*
X180721000Y-92123867D02*
X180721000Y-91440000D01*
X172133867Y-98661000D02*
X173101000Y-97693867D01*
X177669917Y-94192000D02*
X178770916Y-93091000D01*
X180721000Y-91440000D02*
X181610000Y-91440000D01*
X170672567Y-98567433D02*
X170766133Y-98661000D01*
X170579000Y-98661000D02*
X170672567Y-98567433D01*
X170766133Y-98661000D02*
X172133867Y-98661000D01*
X178770916Y-93091000D02*
X179753867Y-93091000D01*
X168910000Y-97010000D02*
X170561000Y-98661000D01*
X173101000Y-97000149D02*
X174808150Y-95293000D01*
%TO.N,IO41*%
X171238000Y-94192000D02*
X173990000Y-91440000D01*
X163830000Y-97010000D02*
X166648000Y-94192000D01*
X166648000Y-94192000D02*
X171238000Y-94192000D01*
%TO.N,IO40*%
X173896050Y-93091000D02*
X174673867Y-93091000D01*
X175641000Y-92123867D02*
X175641000Y-91440000D01*
X166370000Y-97010000D02*
X168087000Y-95293000D01*
X174673867Y-93091000D02*
X175641000Y-92123867D01*
X175641000Y-91440000D02*
X176530000Y-91440000D01*
X168087000Y-95293000D02*
X171694050Y-95293000D01*
X171694050Y-95293000D02*
X173896050Y-93091000D01*
%TO.N,IO45*%
X162560000Y-107950000D02*
X166158000Y-111548000D01*
X171238000Y-111548000D02*
X173990000Y-114300000D01*
X166158000Y-111548000D02*
X171238000Y-111548000D01*
%TO.N,IO17*%
X120650000Y-97790000D02*
X119254000Y-96394000D01*
X115625034Y-94404001D02*
X115419902Y-94404000D01*
X115207902Y-94192000D02*
X114430084Y-94192000D01*
X114430084Y-94192000D02*
X113964083Y-93726000D01*
X113964083Y-93726000D02*
X112268000Y-93726000D01*
X116514033Y-95293000D02*
X115625034Y-94404001D01*
X112268000Y-93726000D02*
X110490000Y-91948000D01*
X118392850Y-96394000D02*
X117291850Y-95293000D01*
X117291850Y-95293000D02*
X116514033Y-95293000D01*
X118872000Y-96774000D02*
X118492000Y-96394000D01*
X115419902Y-94404000D02*
X115207902Y-94192000D01*
X118492000Y-96394000D02*
X118392850Y-96394000D01*
X110490000Y-91948000D02*
X110490000Y-91440000D01*
X119254000Y-96394000D02*
X118492000Y-96394000D01*
%TO.N,IO38*%
X176230916Y-93091000D02*
X177213867Y-93091000D01*
X177213867Y-93091000D02*
X178181000Y-92123867D01*
X175129917Y-94192000D02*
X176230916Y-93091000D01*
X178181000Y-91440000D02*
X179070000Y-91440000D01*
X171468000Y-97010000D02*
X172084000Y-96394000D01*
X174352100Y-94192000D02*
X175129917Y-94192000D01*
X178181000Y-92123867D02*
X178181000Y-91440000D01*
X172084000Y-96394000D02*
X172150100Y-96394000D01*
X172150100Y-96394000D02*
X174352100Y-94192000D01*
X171450000Y-97010000D02*
X171468000Y-97010000D01*
%TO.N,IO35*%
X166751000Y-109601000D02*
X171831000Y-109601000D01*
X165100000Y-107950000D02*
X166751000Y-109601000D01*
X171831000Y-109601000D02*
X176530000Y-114300000D01*
%TO.N,IO36*%
X167640000Y-107950000D02*
X167640000Y-107188000D01*
X181610000Y-109728000D02*
X181610000Y-114300000D01*
X177627000Y-106299000D02*
X177627000Y-106953999D01*
X179891000Y-108009000D02*
X181610000Y-109728000D01*
X177627000Y-106953999D02*
X178682001Y-108009000D01*
X168529000Y-106299000D02*
X177627000Y-106299000D01*
X167640000Y-107188000D02*
X168529000Y-106299000D01*
X178682001Y-108009000D02*
X179891000Y-108009000D01*
%TO.N,IO46*%
X125730000Y-114300000D02*
X125984000Y-114554000D01*
X128953867Y-112649000D02*
X129540000Y-113235133D01*
X132461000Y-114850000D02*
X139267050Y-114850000D01*
X139606049Y-115189000D02*
X140383867Y-115189000D01*
X125984000Y-114554000D02*
X126619000Y-114554000D01*
X140383867Y-115189000D02*
X140764867Y-115570000D01*
X132461000Y-113616133D02*
X132461000Y-114850000D01*
X130126133Y-112649000D02*
X131493867Y-112649000D01*
X131493867Y-112649000D02*
X132461000Y-113616133D01*
X129540000Y-113235133D02*
X130126133Y-112649000D01*
X126619000Y-113616133D02*
X127586133Y-112649000D01*
X127586133Y-112649000D02*
X128953867Y-112649000D01*
X140970000Y-115570000D02*
X142240000Y-116840000D01*
X139267050Y-114850000D02*
X139606049Y-115189000D01*
X126619000Y-114554000D02*
X126619000Y-113616133D01*
X140764867Y-115570000D02*
X140970000Y-115570000D01*
%TO.N,IO37*%
X170180000Y-107950000D02*
X171196000Y-107950000D01*
X177369000Y-110334844D02*
X177369000Y-112599000D01*
X177369000Y-112599000D02*
X179070000Y-114300000D01*
X175534156Y-108500000D02*
X177369000Y-110334844D01*
X171746000Y-108500000D02*
X175534156Y-108500000D01*
X171196000Y-107950000D02*
X171746000Y-108500000D01*
%TO.N,IO42*%
X163050000Y-93490000D02*
X163449000Y-93091000D01*
X170180000Y-92710000D02*
X171450000Y-91440000D01*
X165305133Y-92710000D02*
X165686133Y-93091000D01*
X164894867Y-92710000D02*
X165305133Y-92710000D01*
X169974867Y-92710000D02*
X170180000Y-92710000D01*
X167434867Y-92710000D02*
X167845133Y-92710000D01*
X169593867Y-93091000D02*
X169974867Y-92710000D01*
X161290000Y-97010000D02*
X163050000Y-95250000D01*
X168226133Y-93091000D02*
X169593867Y-93091000D01*
X163449000Y-93091000D02*
X164513867Y-93091000D01*
X165686133Y-93091000D02*
X167053867Y-93091000D01*
X167845133Y-92710000D02*
X168226133Y-93091000D01*
X167053867Y-93091000D02*
X167434867Y-92710000D01*
X163050000Y-95250000D02*
X163050000Y-93490000D01*
X164513867Y-93091000D02*
X164894867Y-92710000D01*
%TO.N,IO16*%
X108839000Y-91440000D02*
X108839000Y-92123867D01*
X114751852Y-95293000D02*
X115216852Y-95758000D01*
X116057984Y-96394000D02*
X116835800Y-96394000D01*
X122301000Y-98473867D02*
X122301000Y-97790000D01*
X117936800Y-97495000D02*
X118035951Y-97495000D01*
X107950000Y-91440000D02*
X108839000Y-91440000D01*
X111811950Y-94827000D02*
X113508035Y-94827000D01*
X118999000Y-97875000D02*
X118999000Y-98473867D01*
X113508035Y-94827000D02*
X113974036Y-95293000D01*
X118999000Y-98473867D02*
X119966133Y-99441000D01*
X110075950Y-93091000D02*
X111811950Y-94827000D01*
X109806133Y-93091000D02*
X110075950Y-93091000D01*
X113974036Y-95293000D02*
X114751852Y-95293000D01*
X121333867Y-99441000D02*
X122301000Y-98473867D01*
X122301000Y-97790000D02*
X123190000Y-97790000D01*
X116835800Y-96394000D02*
X117936800Y-97495000D01*
X119966133Y-99441000D02*
X121333867Y-99441000D01*
X108839000Y-92123867D02*
X109806133Y-93091000D01*
X118415950Y-97875000D02*
X118999000Y-97875000D01*
X118035951Y-97495000D02*
X118415950Y-97875000D01*
X115421983Y-95758000D02*
X116057984Y-96394000D01*
X115216852Y-95758000D02*
X115421983Y-95758000D01*
%TO.N,IO15*%
X125730000Y-97790000D02*
X123233000Y-95293000D01*
X116970083Y-94192000D02*
X116081083Y-93303000D01*
X113919000Y-92123867D02*
X113919000Y-90756133D01*
X115875951Y-93303000D02*
X115663950Y-93091000D01*
X123233000Y-95293000D02*
X118848900Y-95293000D01*
X117747900Y-94192000D02*
X116970083Y-94192000D01*
X118848900Y-95293000D02*
X117747900Y-94192000D01*
X116081083Y-93303000D02*
X115875951Y-93303000D01*
X114886133Y-93091000D02*
X113919000Y-92123867D01*
X113235133Y-91440000D02*
X113030000Y-91440000D01*
X115663950Y-93091000D02*
X114886133Y-93091000D01*
X113919000Y-90756133D02*
X113235133Y-91440000D01*
%TD*%
%TA.AperFunction,Conductor*%
%TO.N,GND*%
G36*
X167832886Y-103088459D02*
G01*
X167928882Y-103141928D01*
X167999080Y-103226464D01*
X168034000Y-103330650D01*
X168028925Y-103440415D01*
X167994942Y-103524646D01*
X167979822Y-103550102D01*
X167978226Y-103551817D01*
X167966145Y-103565265D01*
X167888358Y-103686305D01*
X167859333Y-103749861D01*
X167859331Y-103749864D01*
X167857527Y-103756007D01*
X167857527Y-103756008D01*
X167818797Y-103887917D01*
X167818797Y-104031792D01*
X167818798Y-104031798D01*
X167828743Y-104100960D01*
X167831014Y-104111401D01*
X167828218Y-104112009D01*
X167837298Y-104201744D01*
X167808121Y-104307682D01*
X167750776Y-104388096D01*
X166929998Y-105208875D01*
X166839346Y-105270973D01*
X166732382Y-105296131D01*
X166718573Y-105296450D01*
X161951892Y-105296450D01*
X161794207Y-105296450D01*
X161678215Y-105319522D01*
X161639551Y-105327213D01*
X161622213Y-105334395D01*
X161493873Y-105387554D01*
X161362761Y-105475160D01*
X161362760Y-105475162D01*
X160325996Y-106511925D01*
X160235343Y-106574023D01*
X160128380Y-106599181D01*
X160114571Y-106599500D01*
X159913711Y-106599500D01*
X159703754Y-106632754D01*
X159501592Y-106698441D01*
X159501588Y-106698442D01*
X159312186Y-106794947D01*
X159312181Y-106794950D01*
X159140209Y-106919895D01*
X159140202Y-106919901D01*
X158989901Y-107070202D01*
X158989895Y-107070209D01*
X158864950Y-107242181D01*
X158864947Y-107242186D01*
X158768442Y-107431588D01*
X158768441Y-107431592D01*
X158702754Y-107633754D01*
X158669500Y-107843711D01*
X158669500Y-108056288D01*
X158702754Y-108266245D01*
X158768441Y-108468407D01*
X158768442Y-108468411D01*
X158864947Y-108657813D01*
X158864950Y-108657818D01*
X158897629Y-108702797D01*
X158989896Y-108829792D01*
X159140208Y-108980104D01*
X159259832Y-109067015D01*
X159309754Y-109103286D01*
X159312184Y-109105051D01*
X159501588Y-109201557D01*
X159703754Y-109267245D01*
X159703757Y-109267246D01*
X159913713Y-109300500D01*
X159913714Y-109300500D01*
X160114572Y-109300500D01*
X160222583Y-109320691D01*
X160316007Y-109378536D01*
X160325997Y-109388075D01*
X163475870Y-112537948D01*
X163537968Y-112628601D01*
X163563126Y-112735564D01*
X163547945Y-112844393D01*
X163494476Y-112940388D01*
X163409940Y-113010586D01*
X163356841Y-113033739D01*
X163311593Y-113048441D01*
X163311588Y-113048442D01*
X163122186Y-113144947D01*
X163122181Y-113144950D01*
X162950209Y-113269895D01*
X162950202Y-113269901D01*
X162799901Y-113420202D01*
X162792272Y-113429136D01*
X162790841Y-113427914D01*
X162722071Y-113492973D01*
X162620360Y-113534552D01*
X162510496Y-113536581D01*
X162407318Y-113498787D01*
X162327876Y-113429008D01*
X162327728Y-113429136D01*
X162326846Y-113428103D01*
X162324761Y-113426272D01*
X162320786Y-113421007D01*
X162320108Y-113420214D01*
X162320104Y-113420208D01*
X162169792Y-113269896D01*
X162052170Y-113184439D01*
X161997818Y-113144950D01*
X161997813Y-113144947D01*
X161808411Y-113048442D01*
X161808407Y-113048441D01*
X161606244Y-112982754D01*
X161606246Y-112982754D01*
X161396288Y-112949500D01*
X161396287Y-112949500D01*
X161183713Y-112949500D01*
X161183711Y-112949500D01*
X160973754Y-112982754D01*
X160771592Y-113048441D01*
X160771588Y-113048442D01*
X160582186Y-113144947D01*
X160582181Y-113144950D01*
X160410209Y-113269895D01*
X160410202Y-113269901D01*
X160259901Y-113420202D01*
X160259895Y-113420209D01*
X160134950Y-113592181D01*
X160134947Y-113592186D01*
X160038442Y-113781588D01*
X160038441Y-113781592D01*
X159972754Y-113983754D01*
X159939500Y-114193711D01*
X159939500Y-114406288D01*
X159972754Y-114616245D01*
X160038441Y-114818407D01*
X160038442Y-114818411D01*
X160134947Y-115007813D01*
X160134950Y-115007818D01*
X160175343Y-115063414D01*
X160259896Y-115179792D01*
X160410208Y-115330104D01*
X160582184Y-115455051D01*
X160771588Y-115551557D01*
X160973754Y-115617245D01*
X160973757Y-115617246D01*
X161183713Y-115650500D01*
X161183714Y-115650500D01*
X161396286Y-115650500D01*
X161396287Y-115650500D01*
X161606243Y-115617246D01*
X161808412Y-115551557D01*
X161997816Y-115455051D01*
X162169792Y-115330104D01*
X162320104Y-115179792D01*
X162320113Y-115179778D01*
X162327728Y-115170864D01*
X162329159Y-115172086D01*
X162397911Y-115107038D01*
X162499620Y-115065451D01*
X162609483Y-115063414D01*
X162712663Y-115101202D01*
X162792126Y-115170988D01*
X162792272Y-115170864D01*
X162793135Y-115171875D01*
X162795226Y-115173711D01*
X162799217Y-115178996D01*
X162799891Y-115179786D01*
X162799896Y-115179792D01*
X162950208Y-115330104D01*
X163122184Y-115455051D01*
X163311588Y-115551557D01*
X163513754Y-115617245D01*
X163513757Y-115617246D01*
X163723713Y-115650500D01*
X163723714Y-115650500D01*
X163936286Y-115650500D01*
X163936287Y-115650500D01*
X164146243Y-115617246D01*
X164348412Y-115551557D01*
X164537816Y-115455051D01*
X164709792Y-115330104D01*
X164860104Y-115179792D01*
X164860113Y-115179778D01*
X164867728Y-115170864D01*
X164869159Y-115172086D01*
X164937911Y-115107038D01*
X165039620Y-115065451D01*
X165149483Y-115063414D01*
X165252663Y-115101202D01*
X165332126Y-115170988D01*
X165332272Y-115170864D01*
X165333135Y-115171875D01*
X165335226Y-115173711D01*
X165339217Y-115178996D01*
X165339891Y-115179786D01*
X165339896Y-115179792D01*
X165490208Y-115330104D01*
X165662184Y-115455051D01*
X165851588Y-115551557D01*
X166053754Y-115617245D01*
X166053757Y-115617246D01*
X166263713Y-115650500D01*
X166263714Y-115650500D01*
X166476286Y-115650500D01*
X166476287Y-115650500D01*
X166686243Y-115617246D01*
X166888412Y-115551557D01*
X167077816Y-115455051D01*
X167249792Y-115330104D01*
X167400104Y-115179792D01*
X167400113Y-115179778D01*
X167407728Y-115170864D01*
X167409159Y-115172086D01*
X167477911Y-115107038D01*
X167579620Y-115065451D01*
X167689483Y-115063414D01*
X167792663Y-115101202D01*
X167872126Y-115170988D01*
X167872272Y-115170864D01*
X167873135Y-115171875D01*
X167875226Y-115173711D01*
X167879217Y-115178996D01*
X167879891Y-115179786D01*
X167879896Y-115179792D01*
X168030208Y-115330104D01*
X168202184Y-115455051D01*
X168391588Y-115551557D01*
X168593754Y-115617245D01*
X168593757Y-115617246D01*
X168803713Y-115650500D01*
X168803714Y-115650500D01*
X169016286Y-115650500D01*
X169016287Y-115650500D01*
X169226243Y-115617246D01*
X169428412Y-115551557D01*
X169617816Y-115455051D01*
X169789792Y-115330104D01*
X169940104Y-115179792D01*
X169940113Y-115179778D01*
X169947728Y-115170864D01*
X169949159Y-115172086D01*
X170017911Y-115107038D01*
X170119620Y-115065451D01*
X170229483Y-115063414D01*
X170332663Y-115101202D01*
X170412126Y-115170988D01*
X170412272Y-115170864D01*
X170413135Y-115171875D01*
X170415226Y-115173711D01*
X170419217Y-115178996D01*
X170419891Y-115179786D01*
X170419896Y-115179792D01*
X170570208Y-115330104D01*
X170742184Y-115455051D01*
X170931588Y-115551557D01*
X171133754Y-115617245D01*
X171133757Y-115617246D01*
X171343713Y-115650500D01*
X171343714Y-115650500D01*
X171556286Y-115650500D01*
X171556287Y-115650500D01*
X171766243Y-115617246D01*
X171968412Y-115551557D01*
X172157816Y-115455051D01*
X172329792Y-115330104D01*
X172480104Y-115179792D01*
X172480113Y-115179778D01*
X172487728Y-115170864D01*
X172489159Y-115172086D01*
X172557911Y-115107038D01*
X172659620Y-115065451D01*
X172769483Y-115063414D01*
X172872663Y-115101202D01*
X172952126Y-115170988D01*
X172952272Y-115170864D01*
X172953135Y-115171875D01*
X172955226Y-115173711D01*
X172959217Y-115178996D01*
X172959891Y-115179786D01*
X172959896Y-115179792D01*
X173110208Y-115330104D01*
X173282184Y-115455051D01*
X173471588Y-115551557D01*
X173673754Y-115617245D01*
X173673757Y-115617246D01*
X173883713Y-115650500D01*
X173883714Y-115650500D01*
X174096286Y-115650500D01*
X174096287Y-115650500D01*
X174306243Y-115617246D01*
X174508412Y-115551557D01*
X174697816Y-115455051D01*
X174869792Y-115330104D01*
X175020104Y-115179792D01*
X175020113Y-115179778D01*
X175027728Y-115170864D01*
X175029159Y-115172086D01*
X175097911Y-115107038D01*
X175199620Y-115065451D01*
X175309483Y-115063414D01*
X175412663Y-115101202D01*
X175492126Y-115170988D01*
X175492272Y-115170864D01*
X175493135Y-115171875D01*
X175495226Y-115173711D01*
X175499217Y-115178996D01*
X175499891Y-115179786D01*
X175499896Y-115179792D01*
X175650208Y-115330104D01*
X175822184Y-115455051D01*
X176011588Y-115551557D01*
X176213754Y-115617245D01*
X176213757Y-115617246D01*
X176423713Y-115650500D01*
X176423714Y-115650500D01*
X176636286Y-115650500D01*
X176636287Y-115650500D01*
X176846243Y-115617246D01*
X177048412Y-115551557D01*
X177237816Y-115455051D01*
X177409792Y-115330104D01*
X177560104Y-115179792D01*
X177560113Y-115179778D01*
X177567728Y-115170864D01*
X177569159Y-115172086D01*
X177637911Y-115107038D01*
X177739620Y-115065451D01*
X177849483Y-115063414D01*
X177952663Y-115101202D01*
X178032126Y-115170988D01*
X178032272Y-115170864D01*
X178033135Y-115171875D01*
X178035226Y-115173711D01*
X178039217Y-115178996D01*
X178039891Y-115179786D01*
X178039896Y-115179792D01*
X178190208Y-115330104D01*
X178362184Y-115455051D01*
X178551588Y-115551557D01*
X178753754Y-115617245D01*
X178753757Y-115617246D01*
X178963713Y-115650500D01*
X178963714Y-115650500D01*
X179176286Y-115650500D01*
X179176287Y-115650500D01*
X179386243Y-115617246D01*
X179588412Y-115551557D01*
X179777816Y-115455051D01*
X179949792Y-115330104D01*
X180100104Y-115179792D01*
X180100113Y-115179778D01*
X180107728Y-115170864D01*
X180109159Y-115172086D01*
X180177911Y-115107038D01*
X180279620Y-115065451D01*
X180389483Y-115063414D01*
X180492663Y-115101202D01*
X180572126Y-115170988D01*
X180572272Y-115170864D01*
X180573135Y-115171875D01*
X180575226Y-115173711D01*
X180579217Y-115178996D01*
X180579891Y-115179786D01*
X180579896Y-115179792D01*
X180730208Y-115330104D01*
X180902184Y-115455051D01*
X181091588Y-115551557D01*
X181293754Y-115617245D01*
X181293757Y-115617246D01*
X181503713Y-115650500D01*
X181503714Y-115650500D01*
X181716286Y-115650500D01*
X181716287Y-115650500D01*
X181926243Y-115617246D01*
X182128412Y-115551557D01*
X182317816Y-115455051D01*
X182458487Y-115352847D01*
X182557734Y-115305697D01*
X182667316Y-115297581D01*
X182772430Y-115329599D01*
X182858879Y-115397427D01*
X182873593Y-115415560D01*
X182942452Y-115507544D01*
X182942454Y-115507546D01*
X183057669Y-115593796D01*
X183120539Y-115617245D01*
X183192514Y-115644090D01*
X183192516Y-115644091D01*
X183215419Y-115646553D01*
X183252127Y-115650500D01*
X185047872Y-115650499D01*
X185047873Y-115650499D01*
X185059794Y-115649217D01*
X185107483Y-115644091D01*
X185107487Y-115644089D01*
X185107489Y-115644089D01*
X185179461Y-115617245D01*
X185242331Y-115593796D01*
X185357546Y-115507546D01*
X185443796Y-115392331D01*
X185494091Y-115257483D01*
X185500500Y-115197873D01*
X185500499Y-113402128D01*
X185494091Y-113342517D01*
X185494089Y-113342513D01*
X185494089Y-113342510D01*
X185443798Y-113207674D01*
X185443797Y-113207672D01*
X185443796Y-113207669D01*
X185357546Y-113092454D01*
X185357544Y-113092452D01*
X185279113Y-113033739D01*
X185242331Y-113006204D01*
X185242329Y-113006203D01*
X185145010Y-112969905D01*
X185107989Y-112947623D01*
X185069312Y-112928364D01*
X185061191Y-112919456D01*
X185050865Y-112913241D01*
X185024396Y-112879093D01*
X184995285Y-112847160D01*
X184990930Y-112835919D01*
X184983547Y-112826394D01*
X184971201Y-112784993D01*
X184955591Y-112744698D01*
X184953970Y-112727208D01*
X184952147Y-112721094D01*
X184950500Y-112689757D01*
X184950500Y-112379648D01*
X184970691Y-112271637D01*
X185028536Y-112178213D01*
X185116224Y-112111994D01*
X185221912Y-112081923D01*
X185331325Y-112092062D01*
X185341896Y-112095282D01*
X185352005Y-112098566D01*
X185352008Y-112098568D01*
X185576632Y-112171553D01*
X185809908Y-112208500D01*
X185809909Y-112208500D01*
X186046091Y-112208500D01*
X186046092Y-112208500D01*
X186279368Y-112171553D01*
X186503992Y-112098568D01*
X186682054Y-112007841D01*
X186714426Y-111991347D01*
X186714427Y-111991346D01*
X186714426Y-111991346D01*
X186714433Y-111991343D01*
X186905510Y-111852517D01*
X187072517Y-111685510D01*
X187211343Y-111494433D01*
X187318568Y-111283992D01*
X187391553Y-111059368D01*
X187428500Y-110826092D01*
X187428500Y-110589908D01*
X187391553Y-110356632D01*
X187318568Y-110132008D01*
X187254381Y-110006033D01*
X187211347Y-109921574D01*
X187211345Y-109921572D01*
X187211343Y-109921567D01*
X187184775Y-109885000D01*
X187137624Y-109785755D01*
X187129508Y-109676173D01*
X187161525Y-109571058D01*
X187215244Y-109497832D01*
X187674682Y-109038394D01*
X187765332Y-108976299D01*
X187872295Y-108951141D01*
X187981124Y-108966322D01*
X188077119Y-109019791D01*
X188124813Y-109077227D01*
X188127830Y-109074969D01*
X188226808Y-109207186D01*
X188226813Y-109207191D01*
X188341909Y-109293352D01*
X188476618Y-109343596D01*
X188536171Y-109349999D01*
X188536177Y-109350000D01*
X189184000Y-109350000D01*
X189184000Y-108286396D01*
X189207694Y-108310090D01*
X189310306Y-108369333D01*
X189424756Y-108400000D01*
X189543244Y-108400000D01*
X189657694Y-108369333D01*
X189760306Y-108310090D01*
X189784000Y-108286396D01*
X189784000Y-109350000D01*
X190431823Y-109350000D01*
X190431828Y-109349999D01*
X190491379Y-109343596D01*
X190491382Y-109343596D01*
X190626090Y-109293352D01*
X190741186Y-109207191D01*
X190741189Y-109207188D01*
X190786665Y-109146441D01*
X190801461Y-109132837D01*
X190812669Y-109116151D01*
X190841590Y-109095946D01*
X190867558Y-109072074D01*
X190886267Y-109064735D01*
X190902747Y-109053223D01*
X190937012Y-109044830D01*
X190969852Y-109031950D01*
X190989950Y-109031865D01*
X191009475Y-109027084D01*
X191044459Y-109031636D01*
X191079733Y-109031489D01*
X191100946Y-109038988D01*
X191118439Y-109041265D01*
X191143479Y-109054024D01*
X191169116Y-109063088D01*
X191186105Y-109072347D01*
X191289978Y-109147815D01*
X191486394Y-109247895D01*
X191540375Y-109265434D01*
X191564711Y-109278698D01*
X191586181Y-109296196D01*
X191610501Y-109309449D01*
X191628404Y-109330608D01*
X191649888Y-109348117D01*
X191663586Y-109372186D01*
X191681478Y-109393332D01*
X191690528Y-109419528D01*
X191704237Y-109443617D01*
X191708315Y-109471013D01*
X191717359Y-109497191D01*
X191716334Y-109524887D01*
X191720416Y-109552302D01*
X191714322Y-109579322D01*
X191713299Y-109606998D01*
X191702340Y-109632452D01*
X191696242Y-109659492D01*
X191680798Y-109682485D01*
X191669847Y-109707924D01*
X191650431Y-109727702D01*
X191634978Y-109750711D01*
X191612271Y-109766573D01*
X191592870Y-109786337D01*
X191551646Y-109808926D01*
X191544900Y-109813639D01*
X191541546Y-109814460D01*
X191536045Y-109817475D01*
X191501556Y-109831760D01*
X191501534Y-109831771D01*
X191198209Y-109993901D01*
X191198203Y-109993905D01*
X190912253Y-110184971D01*
X190912232Y-110184986D01*
X190646376Y-110403168D01*
X190403168Y-110646376D01*
X190184986Y-110912232D01*
X190184971Y-110912253D01*
X189993905Y-111198203D01*
X189993901Y-111198209D01*
X189831771Y-111501534D01*
X189831762Y-111501552D01*
X189700152Y-111819287D01*
X189600310Y-112148422D01*
X189533210Y-112485753D01*
X189499500Y-112828025D01*
X189499500Y-113171974D01*
X189533210Y-113514246D01*
X189600310Y-113851577D01*
X189700152Y-114180712D01*
X189831762Y-114498447D01*
X189831771Y-114498465D01*
X189993901Y-114801790D01*
X189993905Y-114801796D01*
X190184971Y-115087746D01*
X190184986Y-115087767D01*
X190403168Y-115353623D01*
X190646376Y-115596831D01*
X190905356Y-115809370D01*
X190976041Y-115893499D01*
X191011562Y-115997482D01*
X191007122Y-116107274D01*
X190963319Y-116208048D01*
X190886071Y-116286194D01*
X190785809Y-116331158D01*
X190715673Y-116339500D01*
X158684108Y-116339500D01*
X158556819Y-116373606D01*
X158556810Y-116373609D01*
X158442689Y-116439497D01*
X158349497Y-116532689D01*
X158283609Y-116646810D01*
X158283606Y-116646819D01*
X158249500Y-116774107D01*
X158249500Y-122390500D01*
X158229309Y-122498511D01*
X158171464Y-122591935D01*
X158083776Y-122658154D01*
X157978088Y-122688225D01*
X157950500Y-122689500D01*
X156512292Y-122689500D01*
X156404281Y-122669309D01*
X156310857Y-122611464D01*
X156244638Y-122523776D01*
X156214567Y-122418088D01*
X156224706Y-122308675D01*
X156273685Y-122210312D01*
X156333106Y-122151140D01*
X156413186Y-122091191D01*
X156413191Y-122091186D01*
X156499352Y-121976090D01*
X156549596Y-121841382D01*
X156549596Y-121841379D01*
X156555999Y-121781828D01*
X156556000Y-121781822D01*
X156556000Y-121184000D01*
X155610144Y-121184000D01*
X155671925Y-121076993D01*
X155706000Y-120949826D01*
X155706000Y-120818174D01*
X155671925Y-120691007D01*
X155610144Y-120584000D01*
X156556000Y-120584000D01*
X156556000Y-120265181D01*
X156576191Y-120157170D01*
X156634036Y-120063746D01*
X156642257Y-120055082D01*
X156670895Y-120026082D01*
X156691518Y-120014823D01*
X156806701Y-119928604D01*
X156821108Y-119914198D01*
X156857279Y-119873931D01*
X156873916Y-119853286D01*
X156905525Y-119809460D01*
X156910214Y-119799195D01*
X156928491Y-119770761D01*
X156951994Y-119707748D01*
X156965316Y-119678592D01*
X156966079Y-119675995D01*
X156964060Y-119675401D01*
X156978775Y-119635953D01*
X156979158Y-119634192D01*
X156984450Y-119613465D01*
X156987817Y-119602002D01*
X156987885Y-119591575D01*
X157005500Y-119469059D01*
X157005500Y-118951428D01*
X157025691Y-118843417D01*
X157083536Y-118749993D01*
X157093075Y-118740003D01*
X157212788Y-118620290D01*
X157212789Y-118620289D01*
X157300394Y-118489179D01*
X157360737Y-118343497D01*
X157364984Y-118322142D01*
X157377844Y-118257501D01*
X157391499Y-118188849D01*
X157391500Y-118188841D01*
X157391500Y-106783091D01*
X157391724Y-106780813D01*
X157391520Y-106779647D01*
X157397243Y-106724768D01*
X157402430Y-106698691D01*
X157443300Y-106596699D01*
X157484271Y-106545584D01*
X157496619Y-106533238D01*
X157496623Y-106533234D01*
X157726278Y-106303575D01*
X157752770Y-106285428D01*
X157776141Y-106263408D01*
X157797716Y-106254638D01*
X157816930Y-106241477D01*
X157848188Y-106234124D01*
X157877937Y-106222034D01*
X157915882Y-106218203D01*
X157923893Y-106216319D01*
X157932787Y-106216040D01*
X157935219Y-106216000D01*
X158178000Y-106216000D01*
X158196271Y-106215670D01*
X158205229Y-106215346D01*
X158223476Y-106214355D01*
X158238800Y-106211006D01*
X158267175Y-106210540D01*
X158268403Y-106210748D01*
X158272092Y-106210500D01*
X158828838Y-106210500D01*
X158828842Y-106210500D01*
X158983497Y-106179737D01*
X159129179Y-106119394D01*
X159260289Y-106031789D01*
X160509053Y-104783025D01*
X160599706Y-104720927D01*
X160706669Y-104695769D01*
X160720478Y-104695450D01*
X165178838Y-104695450D01*
X165178842Y-104695450D01*
X165333497Y-104664687D01*
X165479179Y-104604344D01*
X165610289Y-104516739D01*
X165721789Y-104405239D01*
X165723447Y-104402756D01*
X165724905Y-104400980D01*
X165725388Y-104399887D01*
X165760632Y-104357444D01*
X165827893Y-104290185D01*
X165918547Y-104228088D01*
X166025511Y-104202932D01*
X166039315Y-104202613D01*
X166231625Y-104202613D01*
X166231629Y-104202613D01*
X166386284Y-104171850D01*
X166531966Y-104111507D01*
X166663076Y-104023902D01*
X167526446Y-103160530D01*
X167617094Y-103098436D01*
X167724058Y-103073278D01*
X167832886Y-103088459D01*
G37*
%TD.AperFunction*%
%TA.AperFunction,Conductor*%
G36*
X96222723Y-89420691D02*
G01*
X96316147Y-89478536D01*
X96382366Y-89566224D01*
X96412437Y-89671912D01*
X96402298Y-89781325D01*
X96353319Y-89879688D01*
X96272115Y-89953715D01*
X96255660Y-89963194D01*
X96198209Y-89993901D01*
X96198203Y-89993905D01*
X95912253Y-90184971D01*
X95912232Y-90184986D01*
X95646376Y-90403168D01*
X95403168Y-90646376D01*
X95184986Y-90912232D01*
X95184971Y-90912253D01*
X94993905Y-91198203D01*
X94993901Y-91198209D01*
X94831771Y-91501534D01*
X94831762Y-91501552D01*
X94700152Y-91819287D01*
X94600310Y-92148422D01*
X94533210Y-92485753D01*
X94499500Y-92828025D01*
X94499500Y-93171974D01*
X94533210Y-93514246D01*
X94533211Y-93514250D01*
X94600310Y-93851578D01*
X94642285Y-93989949D01*
X94700152Y-94180712D01*
X94831762Y-94498447D01*
X94831771Y-94498465D01*
X94993901Y-94801790D01*
X94993905Y-94801796D01*
X95184971Y-95087746D01*
X95184986Y-95087767D01*
X95403168Y-95353623D01*
X95646376Y-95596831D01*
X95912232Y-95815013D01*
X95912253Y-95815028D01*
X96198203Y-96006094D01*
X96198209Y-96006098D01*
X96219741Y-96017607D01*
X96501538Y-96168231D01*
X96501549Y-96168235D01*
X96501552Y-96168237D01*
X96819287Y-96299847D01*
X96819289Y-96299847D01*
X96819295Y-96299850D01*
X97148422Y-96399690D01*
X97485750Y-96466789D01*
X97614105Y-96479430D01*
X97828026Y-96500500D01*
X97828031Y-96500500D01*
X98171974Y-96500500D01*
X98380174Y-96479994D01*
X98514250Y-96466789D01*
X98851578Y-96399690D01*
X99180705Y-96299850D01*
X99498462Y-96168231D01*
X99801787Y-96006100D01*
X100087760Y-95815019D01*
X100353627Y-95596828D01*
X100596828Y-95353627D01*
X100815019Y-95087760D01*
X101006100Y-94801787D01*
X101168231Y-94498462D01*
X101299850Y-94180705D01*
X101399690Y-93851578D01*
X101466789Y-93514250D01*
X101481771Y-93362125D01*
X101500500Y-93171974D01*
X101500500Y-92828025D01*
X101477512Y-92594623D01*
X101466789Y-92485750D01*
X101399690Y-92148422D01*
X101299850Y-91819295D01*
X101273685Y-91756128D01*
X101168237Y-91501552D01*
X101168235Y-91501549D01*
X101168231Y-91501538D01*
X101006100Y-91198213D01*
X101006098Y-91198209D01*
X101006094Y-91198203D01*
X100815028Y-90912253D01*
X100815013Y-90912232D01*
X100596831Y-90646376D01*
X100353623Y-90403168D01*
X100087767Y-90184986D01*
X100087746Y-90184971D01*
X99801796Y-89993905D01*
X99801790Y-89993901D01*
X99744340Y-89963194D01*
X99658601Y-89894471D01*
X99603477Y-89799417D01*
X99586413Y-89690867D01*
X99609713Y-89583484D01*
X99670232Y-89491769D01*
X99759795Y-89428110D01*
X99866307Y-89401103D01*
X99885288Y-89400500D01*
X113601250Y-89400500D01*
X113646099Y-89408884D01*
X113691394Y-89414412D01*
X113699844Y-89418930D01*
X113709261Y-89420691D01*
X113748052Y-89444709D01*
X113788292Y-89466227D01*
X113794538Y-89473491D01*
X113802685Y-89478536D01*
X113830187Y-89514954D01*
X113859929Y-89549547D01*
X113863128Y-89558576D01*
X113868904Y-89566224D01*
X113881392Y-89610116D01*
X113896631Y-89653119D01*
X113896352Y-89662695D01*
X113898975Y-89671912D01*
X113894764Y-89717350D01*
X113893439Y-89762955D01*
X113889720Y-89771784D01*
X113888836Y-89781325D01*
X113868497Y-89822170D01*
X113850786Y-89864220D01*
X113844128Y-89871110D01*
X113839857Y-89879688D01*
X113806133Y-89910430D01*
X113774431Y-89943240D01*
X113765146Y-89947795D01*
X113758653Y-89953715D01*
X113726696Y-89970912D01*
X113699006Y-89983709D01*
X113685503Y-89986396D01*
X113539821Y-90046739D01*
X113488623Y-90080948D01*
X113467397Y-90090759D01*
X113436421Y-90098607D01*
X113407039Y-90111177D01*
X113383605Y-90111989D01*
X113360880Y-90117747D01*
X113329162Y-90113876D01*
X113297223Y-90114983D01*
X113295254Y-90114678D01*
X113176752Y-90095909D01*
X113136288Y-90089500D01*
X113136287Y-90089500D01*
X112923713Y-90089500D01*
X112923711Y-90089500D01*
X112713754Y-90122754D01*
X112511592Y-90188441D01*
X112511588Y-90188442D01*
X112322186Y-90284947D01*
X112322181Y-90284950D01*
X112150209Y-90409895D01*
X112150202Y-90409901D01*
X111999901Y-90560202D01*
X111992272Y-90569136D01*
X111990841Y-90567914D01*
X111922071Y-90632973D01*
X111820360Y-90674552D01*
X111710496Y-90676581D01*
X111607318Y-90638787D01*
X111527876Y-90569008D01*
X111527728Y-90569136D01*
X111526846Y-90568103D01*
X111524761Y-90566272D01*
X111520786Y-90561007D01*
X111520108Y-90560214D01*
X111520104Y-90560208D01*
X111369792Y-90409896D01*
X111277126Y-90342571D01*
X111197818Y-90284950D01*
X111197813Y-90284947D01*
X111008411Y-90188442D01*
X111008407Y-90188441D01*
X110806244Y-90122754D01*
X110806246Y-90122754D01*
X110596288Y-90089500D01*
X110596287Y-90089500D01*
X110383713Y-90089500D01*
X110383711Y-90089500D01*
X110173754Y-90122754D01*
X109971592Y-90188441D01*
X109971588Y-90188442D01*
X109782186Y-90284947D01*
X109782181Y-90284950D01*
X109610209Y-90409895D01*
X109610202Y-90409901D01*
X109459901Y-90560202D01*
X109452272Y-90569136D01*
X109450841Y-90567914D01*
X109382071Y-90632973D01*
X109280360Y-90674552D01*
X109170496Y-90676581D01*
X109067318Y-90638787D01*
X108987876Y-90569008D01*
X108987728Y-90569136D01*
X108986846Y-90568103D01*
X108984761Y-90566272D01*
X108980786Y-90561007D01*
X108980108Y-90560214D01*
X108980104Y-90560208D01*
X108829792Y-90409896D01*
X108737126Y-90342571D01*
X108657818Y-90284950D01*
X108657813Y-90284947D01*
X108468411Y-90188442D01*
X108468407Y-90188441D01*
X108266244Y-90122754D01*
X108266246Y-90122754D01*
X108056288Y-90089500D01*
X108056287Y-90089500D01*
X107843713Y-90089500D01*
X107843711Y-90089500D01*
X107633754Y-90122754D01*
X107431592Y-90188441D01*
X107431588Y-90188442D01*
X107242186Y-90284947D01*
X107242181Y-90284950D01*
X107070209Y-90409895D01*
X107070202Y-90409901D01*
X106919901Y-90560202D01*
X106919895Y-90560209D01*
X106794950Y-90732181D01*
X106794947Y-90732186D01*
X106698442Y-90921588D01*
X106698441Y-90921592D01*
X106632754Y-91123754D01*
X106599500Y-91333711D01*
X106599500Y-91546288D01*
X106632754Y-91756245D01*
X106698441Y-91958407D01*
X106698442Y-91958411D01*
X106794947Y-92147813D01*
X106794950Y-92147818D01*
X106808883Y-92166995D01*
X106919896Y-92319792D01*
X107070208Y-92470104D01*
X107242184Y-92595051D01*
X107431588Y-92691557D01*
X107633754Y-92757245D01*
X107633757Y-92757246D01*
X107843713Y-92790500D01*
X107843714Y-92790500D01*
X108056286Y-92790500D01*
X108056287Y-92790500D01*
X108056288Y-92790499D01*
X108056296Y-92790499D01*
X108126683Y-92779350D01*
X108179700Y-92770953D01*
X108289539Y-92773997D01*
X108390862Y-92816515D01*
X108437901Y-92854846D01*
X109306231Y-93723176D01*
X109304850Y-93724556D01*
X109363693Y-93794597D01*
X109399210Y-93898581D01*
X109394765Y-94008374D01*
X109350958Y-94109146D01*
X109273707Y-94187289D01*
X109239062Y-94207999D01*
X109143570Y-94256654D01*
X108952490Y-94395482D01*
X108785481Y-94562491D01*
X108746424Y-94616249D01*
X108666602Y-94691764D01*
X108564890Y-94733344D01*
X108504529Y-94739500D01*
X104855471Y-94739500D01*
X104747460Y-94719309D01*
X104654036Y-94661464D01*
X104613576Y-94616249D01*
X104574518Y-94562491D01*
X104407509Y-94395482D01*
X104266065Y-94292717D01*
X104216433Y-94256657D01*
X104216431Y-94256656D01*
X104216427Y-94256653D01*
X104216426Y-94256652D01*
X104005996Y-94149434D01*
X104005987Y-94149430D01*
X103850671Y-94098965D01*
X103781368Y-94076447D01*
X103734712Y-94069057D01*
X103548096Y-94039500D01*
X103548092Y-94039500D01*
X103311908Y-94039500D01*
X103311903Y-94039500D01*
X103078632Y-94076447D01*
X102854012Y-94149430D01*
X102854003Y-94149434D01*
X102643573Y-94256652D01*
X102643572Y-94256653D01*
X102452490Y-94395482D01*
X102285482Y-94562490D01*
X102146653Y-94753572D01*
X102146652Y-94753573D01*
X102039434Y-94964003D01*
X102039430Y-94964012D01*
X101966447Y-95188632D01*
X101929500Y-95421903D01*
X101929500Y-95658096D01*
X101952497Y-95803289D01*
X101964151Y-95876874D01*
X101966447Y-95891367D01*
X102039430Y-96115987D01*
X102039434Y-96115996D01*
X102146652Y-96326426D01*
X102146653Y-96326427D01*
X102146656Y-96326431D01*
X102146657Y-96326433D01*
X102213574Y-96418536D01*
X102285481Y-96517508D01*
X102285483Y-96517510D01*
X102452490Y-96684517D01*
X102643567Y-96823343D01*
X102643569Y-96823344D01*
X102643572Y-96823346D01*
X102643573Y-96823347D01*
X102778561Y-96892126D01*
X102854008Y-96930568D01*
X103078632Y-97003553D01*
X103311908Y-97040500D01*
X103311909Y-97040500D01*
X103548091Y-97040500D01*
X103548092Y-97040500D01*
X103781368Y-97003553D01*
X104005992Y-96930568D01*
X104159425Y-96852390D01*
X104216426Y-96823347D01*
X104216427Y-96823346D01*
X104216426Y-96823346D01*
X104216433Y-96823343D01*
X104407510Y-96684517D01*
X104574517Y-96517510D01*
X104603941Y-96477012D01*
X104613576Y-96463751D01*
X104693398Y-96388236D01*
X104795110Y-96346656D01*
X104855471Y-96340500D01*
X108504529Y-96340500D01*
X108612540Y-96360691D01*
X108705964Y-96418536D01*
X108746424Y-96463751D01*
X108785481Y-96517508D01*
X108785482Y-96517509D01*
X108785483Y-96517510D01*
X108952490Y-96684517D01*
X109143567Y-96823343D01*
X109143569Y-96823344D01*
X109143572Y-96823346D01*
X109143573Y-96823347D01*
X109278561Y-96892126D01*
X109354008Y-96930568D01*
X109578632Y-97003553D01*
X109811908Y-97040500D01*
X109811909Y-97040500D01*
X110048091Y-97040500D01*
X110048092Y-97040500D01*
X110281368Y-97003553D01*
X110505992Y-96930568D01*
X110659425Y-96852390D01*
X110716426Y-96823347D01*
X110716427Y-96823346D01*
X110716426Y-96823346D01*
X110716433Y-96823343D01*
X110907510Y-96684517D01*
X111074517Y-96517510D01*
X111213343Y-96326433D01*
X111219243Y-96314855D01*
X111268753Y-96217684D01*
X111320568Y-96115992D01*
X111393553Y-95891368D01*
X111395822Y-95877042D01*
X111432660Y-95773518D01*
X111504407Y-95690293D01*
X111601374Y-95638606D01*
X111710464Y-95625438D01*
X111720452Y-95626253D01*
X111733105Y-95627499D01*
X111733108Y-95627500D01*
X111890793Y-95627500D01*
X113052608Y-95627500D01*
X113160619Y-95647691D01*
X113254043Y-95705536D01*
X113264033Y-95715075D01*
X113352246Y-95803288D01*
X113352247Y-95803289D01*
X113463747Y-95914789D01*
X113594857Y-96002394D01*
X113740539Y-96062737D01*
X113895194Y-96093500D01*
X114296425Y-96093500D01*
X114330376Y-96099846D01*
X114364881Y-96101442D01*
X114383948Y-96109861D01*
X114404436Y-96113691D01*
X114433803Y-96131874D01*
X114465401Y-96145826D01*
X114491972Y-96167890D01*
X114497860Y-96171536D01*
X114507850Y-96181075D01*
X114584616Y-96257841D01*
X114584621Y-96257847D01*
X114595063Y-96268289D01*
X114706563Y-96379789D01*
X114837673Y-96467394D01*
X114939226Y-96509458D01*
X114975975Y-96533403D01*
X115014421Y-96554514D01*
X115021746Y-96563228D01*
X115031286Y-96569444D01*
X115056902Y-96605046D01*
X115085130Y-96638624D01*
X115088813Y-96649398D01*
X115095462Y-96658638D01*
X115106487Y-96701089D01*
X115120679Y-96742596D01*
X115120222Y-96753971D01*
X115123084Y-96764991D01*
X115118029Y-96808564D01*
X115116269Y-96852390D01*
X115111734Y-96862831D01*
X115110422Y-96874142D01*
X115089969Y-96912942D01*
X115072495Y-96953177D01*
X115064491Y-96961277D01*
X115059184Y-96971347D01*
X115026099Y-97000137D01*
X114995268Y-97031344D01*
X114983572Y-97037144D01*
X114976293Y-97043479D01*
X114947228Y-97058484D01*
X114662328Y-97186346D01*
X114615978Y-97197543D01*
X114570238Y-97211016D01*
X114562787Y-97210394D01*
X114555519Y-97212151D01*
X114508251Y-97205848D01*
X114460735Y-97201888D01*
X114454011Y-97198617D01*
X114446600Y-97197629D01*
X114404807Y-97174680D01*
X114379604Y-97162420D01*
X114378365Y-97164430D01*
X114214224Y-97063187D01*
X114214216Y-97063183D01*
X114047689Y-97008002D01*
X114047681Y-97008000D01*
X113988488Y-97001953D01*
X113944896Y-96997500D01*
X113944891Y-96997500D01*
X112744875Y-96997500D01*
X112642093Y-97008000D01*
X112475549Y-97063187D01*
X112326232Y-97155287D01*
X112326231Y-97155287D01*
X112202174Y-97279344D01*
X112202174Y-97279345D01*
X112110074Y-97428662D01*
X112110070Y-97428670D01*
X112054889Y-97595197D01*
X112054887Y-97595205D01*
X112044387Y-97697995D01*
X112044387Y-98898011D01*
X112054887Y-99000793D01*
X112054887Y-99000795D01*
X112054888Y-99000797D01*
X112094704Y-99120953D01*
X112110074Y-99167337D01*
X112202174Y-99316654D01*
X112202174Y-99316655D01*
X112326231Y-99440712D01*
X112475549Y-99532812D01*
X112475550Y-99532812D01*
X112475553Y-99532814D01*
X112642090Y-99587999D01*
X112642093Y-99587999D01*
X112657586Y-99593133D01*
X112656655Y-99595940D01*
X112734358Y-99628397D01*
X112781806Y-99666997D01*
X115882457Y-102767648D01*
X118967925Y-105853115D01*
X118987444Y-105881610D01*
X119010715Y-105907137D01*
X119018244Y-105926573D01*
X119030023Y-105943768D01*
X119037930Y-105977388D01*
X119050409Y-106009599D01*
X119053595Y-106043991D01*
X119055181Y-106050731D01*
X119055500Y-106064540D01*
X119055500Y-106413602D01*
X119035309Y-106521613D01*
X118977464Y-106615037D01*
X118889776Y-106681256D01*
X118812537Y-106703631D01*
X118813169Y-106706583D01*
X118797209Y-106709999D01*
X118630662Y-106765187D01*
X118466522Y-106866430D01*
X118464776Y-106863600D01*
X118393136Y-106901269D01*
X118283973Y-106913820D01*
X118177648Y-106886089D01*
X118169242Y-106881971D01*
X117999024Y-106795241D01*
X117804418Y-106732010D01*
X117602315Y-106700000D01*
X117397684Y-106700000D01*
X117195581Y-106732010D01*
X117000975Y-106795241D01*
X117000970Y-106795243D01*
X116818659Y-106888135D01*
X116818645Y-106888144D01*
X116815032Y-106890768D01*
X117500707Y-107576443D01*
X117516843Y-107600000D01*
X117447339Y-107600000D01*
X117345606Y-107627259D01*
X117254394Y-107679920D01*
X117179920Y-107754394D01*
X117127259Y-107845606D01*
X117100000Y-107947339D01*
X117100000Y-108052661D01*
X117127259Y-108154394D01*
X117179920Y-108245606D01*
X117254394Y-108320080D01*
X117345606Y-108372741D01*
X117447339Y-108400000D01*
X117521064Y-108400000D01*
X117519312Y-108403146D01*
X117500706Y-108423556D01*
X116815032Y-109109230D01*
X116818655Y-109111862D01*
X117000970Y-109204756D01*
X117000975Y-109204758D01*
X117195581Y-109267989D01*
X117397684Y-109299999D01*
X117397690Y-109300000D01*
X117602310Y-109300000D01*
X117602315Y-109299999D01*
X117804418Y-109267989D01*
X117999024Y-109204758D01*
X117999029Y-109204756D01*
X118169241Y-109118029D01*
X118183837Y-109113729D01*
X118196769Y-109105710D01*
X118236178Y-109098313D01*
X118274646Y-109086983D01*
X118289810Y-109088246D01*
X118304766Y-109085440D01*
X118344185Y-109092779D01*
X118384149Y-109096110D01*
X118400624Y-109103286D01*
X118412792Y-109105552D01*
X118435181Y-109118339D01*
X118462202Y-109130110D01*
X118479329Y-109140697D01*
X118481344Y-109142712D01*
X118630666Y-109234814D01*
X118632637Y-109235467D01*
X118649322Y-109245781D01*
X118677168Y-109271129D01*
X118707788Y-109293033D01*
X118717489Y-109307833D01*
X118730580Y-109319749D01*
X118747388Y-109353443D01*
X118768029Y-109384931D01*
X118771729Y-109402238D01*
X118779630Y-109418076D01*
X118783131Y-109455565D01*
X118791004Y-109492384D01*
X118788202Y-109509857D01*
X118789849Y-109527482D01*
X118779570Y-109563708D01*
X118773611Y-109600881D01*
X118764686Y-109616163D01*
X118759855Y-109633191D01*
X118737184Y-109663257D01*
X118718199Y-109695768D01*
X118701663Y-109710366D01*
X118693700Y-109720928D01*
X118680258Y-109729264D01*
X118658221Y-109748720D01*
X118543744Y-109825211D01*
X117709030Y-110659925D01*
X117618377Y-110722023D01*
X117511414Y-110747181D01*
X117497605Y-110747500D01*
X116891241Y-110747500D01*
X116814266Y-110762811D01*
X116736588Y-110778262D01*
X116590904Y-110838606D01*
X116488782Y-110906842D01*
X116488781Y-110906841D01*
X116459795Y-110926209D01*
X116459793Y-110926211D01*
X115625080Y-111760925D01*
X115534427Y-111823023D01*
X115427464Y-111848181D01*
X115413655Y-111848500D01*
X114807288Y-111848500D01*
X114692087Y-111871414D01*
X114652636Y-111879262D01*
X114652635Y-111879262D01*
X114652632Y-111879263D01*
X114506957Y-111939604D01*
X114506953Y-111939606D01*
X114375844Y-112027210D01*
X113517901Y-112885153D01*
X113427248Y-112947251D01*
X113320285Y-112972409D01*
X113259702Y-112969047D01*
X113136290Y-112949500D01*
X113136287Y-112949500D01*
X112923713Y-112949500D01*
X112923711Y-112949500D01*
X112713754Y-112982754D01*
X112511592Y-113048441D01*
X112511588Y-113048442D01*
X112322186Y-113144947D01*
X112322181Y-113144950D01*
X112150209Y-113269895D01*
X112150202Y-113269901D01*
X111999901Y-113420202D01*
X111992272Y-113429136D01*
X111990841Y-113427914D01*
X111922071Y-113492973D01*
X111820360Y-113534552D01*
X111710496Y-113536581D01*
X111607318Y-113498787D01*
X111527876Y-113429008D01*
X111527728Y-113429136D01*
X111526846Y-113428103D01*
X111524761Y-113426272D01*
X111520786Y-113421007D01*
X111520108Y-113420214D01*
X111520104Y-113420208D01*
X111369792Y-113269896D01*
X111252170Y-113184439D01*
X111197818Y-113144950D01*
X111197813Y-113144947D01*
X111008411Y-113048442D01*
X111008407Y-113048441D01*
X110806244Y-112982754D01*
X110806246Y-112982754D01*
X110596288Y-112949500D01*
X110596287Y-112949500D01*
X110383713Y-112949500D01*
X110383711Y-112949500D01*
X110173754Y-112982754D01*
X109971592Y-113048441D01*
X109971588Y-113048442D01*
X109782186Y-113144947D01*
X109782183Y-113144949D01*
X109641514Y-113247151D01*
X109542263Y-113294303D01*
X109432681Y-113302418D01*
X109327567Y-113270399D01*
X109241118Y-113202571D01*
X109226406Y-113184439D01*
X109157546Y-113092454D01*
X109157544Y-113092452D01*
X109079113Y-113033739D01*
X109042331Y-113006204D01*
X109042329Y-113006203D01*
X109042327Y-113006202D01*
X108907485Y-112955909D01*
X108907483Y-112955908D01*
X108847889Y-112949501D01*
X108847876Y-112949500D01*
X108847873Y-112949500D01*
X108847869Y-112949500D01*
X107052126Y-112949500D01*
X106992520Y-112955908D01*
X106992510Y-112955910D01*
X106857674Y-113006201D01*
X106857667Y-113006205D01*
X106742455Y-113092452D01*
X106742452Y-113092455D01*
X106656205Y-113207667D01*
X106656202Y-113207672D01*
X106605909Y-113342514D01*
X106605908Y-113342516D01*
X106599501Y-113402110D01*
X106599500Y-113402130D01*
X106599500Y-115197873D01*
X106605908Y-115257479D01*
X106605910Y-115257489D01*
X106656201Y-115392325D01*
X106656205Y-115392332D01*
X106742452Y-115507544D01*
X106742454Y-115507546D01*
X106857669Y-115593796D01*
X106920539Y-115617245D01*
X106992514Y-115644090D01*
X106992516Y-115644091D01*
X107015419Y-115646553D01*
X107052127Y-115650500D01*
X108847872Y-115650499D01*
X108847873Y-115650499D01*
X108859794Y-115649217D01*
X108907483Y-115644091D01*
X108907487Y-115644089D01*
X108907489Y-115644089D01*
X108979461Y-115617245D01*
X109042331Y-115593796D01*
X109157546Y-115507546D01*
X109226408Y-115415558D01*
X109307298Y-115341193D01*
X109409592Y-115301069D01*
X109519473Y-115300608D01*
X109622101Y-115339871D01*
X109641502Y-115352840D01*
X109782184Y-115455051D01*
X109971588Y-115551557D01*
X110173754Y-115617245D01*
X110173757Y-115617246D01*
X110383713Y-115650500D01*
X110383714Y-115650500D01*
X110596286Y-115650500D01*
X110596287Y-115650500D01*
X110806243Y-115617246D01*
X111008412Y-115551557D01*
X111197816Y-115455051D01*
X111369792Y-115330104D01*
X111520104Y-115179792D01*
X111520113Y-115179778D01*
X111527728Y-115170864D01*
X111529159Y-115172086D01*
X111597911Y-115107038D01*
X111699620Y-115065451D01*
X111809483Y-115063414D01*
X111912663Y-115101202D01*
X111992126Y-115170988D01*
X111992272Y-115170864D01*
X111993135Y-115171875D01*
X111995226Y-115173711D01*
X111999217Y-115178996D01*
X111999891Y-115179786D01*
X111999896Y-115179792D01*
X112150208Y-115330104D01*
X112322184Y-115455051D01*
X112511588Y-115551557D01*
X112713754Y-115617245D01*
X112713757Y-115617246D01*
X112923713Y-115650500D01*
X112923714Y-115650500D01*
X113136286Y-115650500D01*
X113136287Y-115650500D01*
X113346243Y-115617246D01*
X113548412Y-115551557D01*
X113737816Y-115455051D01*
X113909792Y-115330104D01*
X114060104Y-115179792D01*
X114060110Y-115179783D01*
X114067735Y-115170857D01*
X114069168Y-115172081D01*
X114137904Y-115107043D01*
X114239612Y-115065454D01*
X114349475Y-115063414D01*
X114452657Y-115101199D01*
X114532126Y-115170988D01*
X114532272Y-115170864D01*
X114533133Y-115171872D01*
X114535221Y-115173706D01*
X114539208Y-115178986D01*
X114539891Y-115179786D01*
X114539896Y-115179792D01*
X114690208Y-115330104D01*
X114862184Y-115455051D01*
X115051588Y-115551557D01*
X115253754Y-115617245D01*
X115253757Y-115617246D01*
X115463713Y-115650500D01*
X115463714Y-115650500D01*
X115676286Y-115650500D01*
X115676287Y-115650500D01*
X115886243Y-115617246D01*
X116088412Y-115551557D01*
X116277816Y-115455051D01*
X116449792Y-115330104D01*
X116600104Y-115179792D01*
X116600110Y-115179783D01*
X116607735Y-115170857D01*
X116609168Y-115172081D01*
X116677904Y-115107043D01*
X116779612Y-115065454D01*
X116889475Y-115063414D01*
X116992657Y-115101199D01*
X117072126Y-115170988D01*
X117072272Y-115170864D01*
X117073133Y-115171872D01*
X117075221Y-115173706D01*
X117079208Y-115178986D01*
X117079891Y-115179786D01*
X117079896Y-115179792D01*
X117230208Y-115330104D01*
X117402184Y-115455051D01*
X117591588Y-115551557D01*
X117793754Y-115617245D01*
X117793757Y-115617246D01*
X118003713Y-115650500D01*
X118003714Y-115650500D01*
X118216286Y-115650500D01*
X118216287Y-115650500D01*
X118426243Y-115617246D01*
X118628412Y-115551557D01*
X118817816Y-115455051D01*
X118989792Y-115330104D01*
X119140104Y-115179792D01*
X119140110Y-115179783D01*
X119147735Y-115170857D01*
X119149168Y-115172081D01*
X119217904Y-115107043D01*
X119319612Y-115065454D01*
X119429475Y-115063414D01*
X119532657Y-115101199D01*
X119612126Y-115170988D01*
X119612272Y-115170864D01*
X119613133Y-115171872D01*
X119615221Y-115173706D01*
X119619208Y-115178986D01*
X119619891Y-115179786D01*
X119619896Y-115179792D01*
X119770208Y-115330104D01*
X119942184Y-115455051D01*
X120131588Y-115551557D01*
X120333754Y-115617245D01*
X120333757Y-115617246D01*
X120543713Y-115650500D01*
X120543714Y-115650500D01*
X120756286Y-115650500D01*
X120756287Y-115650500D01*
X120966243Y-115617246D01*
X121168412Y-115551557D01*
X121357816Y-115455051D01*
X121529792Y-115330104D01*
X121680104Y-115179792D01*
X121680110Y-115179783D01*
X121687735Y-115170857D01*
X121689168Y-115172081D01*
X121757904Y-115107043D01*
X121859612Y-115065454D01*
X121969475Y-115063414D01*
X122072657Y-115101199D01*
X122152126Y-115170988D01*
X122152272Y-115170864D01*
X122153133Y-115171872D01*
X122155221Y-115173706D01*
X122159208Y-115178986D01*
X122159891Y-115179786D01*
X122159896Y-115179792D01*
X122310208Y-115330104D01*
X122482184Y-115455051D01*
X122671588Y-115551557D01*
X122873754Y-115617245D01*
X122873757Y-115617246D01*
X123083713Y-115650500D01*
X123083714Y-115650500D01*
X123296286Y-115650500D01*
X123296287Y-115650500D01*
X123506243Y-115617246D01*
X123708412Y-115551557D01*
X123897816Y-115455051D01*
X123897823Y-115455046D01*
X123957619Y-115411603D01*
X124052448Y-115365657D01*
X124092136Y-115354500D01*
X124157842Y-115354500D01*
X124312497Y-115323737D01*
X124458179Y-115263394D01*
X124488650Y-115243033D01*
X124534363Y-115230183D01*
X124542578Y-115229447D01*
X124550159Y-115226204D01*
X124597059Y-115224572D01*
X124643808Y-115220390D01*
X124651732Y-115222671D01*
X124659975Y-115222385D01*
X124704300Y-115237808D01*
X124749400Y-115250794D01*
X124755966Y-115255785D01*
X124763754Y-115258495D01*
X124826705Y-115306601D01*
X124850208Y-115330104D01*
X125022184Y-115455051D01*
X125211588Y-115551557D01*
X125413754Y-115617245D01*
X125413757Y-115617246D01*
X125623713Y-115650500D01*
X125623714Y-115650500D01*
X125836286Y-115650500D01*
X125836287Y-115650500D01*
X126046243Y-115617246D01*
X126248412Y-115551557D01*
X126437816Y-115455051D01*
X126437823Y-115455046D01*
X126497619Y-115411603D01*
X126592448Y-115365657D01*
X126632136Y-115354500D01*
X126697842Y-115354500D01*
X126852497Y-115323737D01*
X126998179Y-115263394D01*
X127028650Y-115243033D01*
X127074363Y-115230183D01*
X127082578Y-115229447D01*
X127090159Y-115226204D01*
X127137059Y-115224572D01*
X127183808Y-115220390D01*
X127191732Y-115222671D01*
X127199975Y-115222385D01*
X127244300Y-115237808D01*
X127289400Y-115250794D01*
X127295966Y-115255785D01*
X127303754Y-115258495D01*
X127366705Y-115306601D01*
X127390208Y-115330104D01*
X127562184Y-115455051D01*
X127751588Y-115551557D01*
X127953754Y-115617245D01*
X127953757Y-115617246D01*
X128163713Y-115650500D01*
X128163714Y-115650500D01*
X128364572Y-115650500D01*
X128398523Y-115656846D01*
X128433028Y-115658442D01*
X128452095Y-115666861D01*
X128472583Y-115670691D01*
X128501950Y-115688874D01*
X128533548Y-115702826D01*
X128560119Y-115724890D01*
X128566007Y-115728536D01*
X128575997Y-115738075D01*
X128666997Y-115829075D01*
X128729095Y-115919728D01*
X128754253Y-116026691D01*
X128739072Y-116135520D01*
X128685603Y-116231515D01*
X128601067Y-116301713D01*
X128496881Y-116336633D01*
X128455572Y-116339500D01*
X100284327Y-116339500D01*
X100176316Y-116319309D01*
X100082892Y-116261464D01*
X100016673Y-116173776D01*
X99986602Y-116068088D01*
X99996741Y-115958675D01*
X100045720Y-115860312D01*
X100094644Y-115809370D01*
X100288227Y-115650500D01*
X100353627Y-115596828D01*
X100596828Y-115353627D01*
X100815019Y-115087760D01*
X101006100Y-114801787D01*
X101168231Y-114498462D01*
X101299850Y-114180705D01*
X101399690Y-113851578D01*
X101466789Y-113514250D01*
X101487652Y-113302418D01*
X101500500Y-113171974D01*
X101500500Y-112828025D01*
X101476201Y-112581318D01*
X101466789Y-112485750D01*
X101399690Y-112148422D01*
X101299850Y-111819295D01*
X101275672Y-111760925D01*
X101168237Y-111501552D01*
X101168235Y-111501549D01*
X101168231Y-111501538D01*
X101006100Y-111198213D01*
X101006098Y-111198209D01*
X101006094Y-111198203D01*
X100815028Y-110912253D01*
X100815013Y-110912232D01*
X100596831Y-110646376D01*
X100353623Y-110403168D01*
X100087767Y-110184986D01*
X100087746Y-110184971D01*
X99801796Y-109993905D01*
X99801790Y-109993901D01*
X99562337Y-109865911D01*
X99498462Y-109831769D01*
X99498456Y-109831766D01*
X99498447Y-109831762D01*
X99180712Y-109700152D01*
X99085518Y-109671275D01*
X98851578Y-109600310D01*
X98610227Y-109552302D01*
X98514246Y-109533210D01*
X98171974Y-109499500D01*
X98171969Y-109499500D01*
X97828031Y-109499500D01*
X97828026Y-109499500D01*
X97485753Y-109533210D01*
X97148422Y-109600310D01*
X96819287Y-109700152D01*
X96501552Y-109831762D01*
X96501534Y-109831771D01*
X96198209Y-109993901D01*
X96198203Y-109993905D01*
X95912253Y-110184971D01*
X95912232Y-110184986D01*
X95646376Y-110403168D01*
X95403168Y-110646376D01*
X95184986Y-110912232D01*
X95184971Y-110912253D01*
X94993905Y-111198203D01*
X94993901Y-111198209D01*
X94831771Y-111501534D01*
X94831762Y-111501552D01*
X94700152Y-111819287D01*
X94600310Y-112148422D01*
X94533210Y-112485753D01*
X94499500Y-112828025D01*
X94499500Y-113171974D01*
X94533210Y-113514246D01*
X94600310Y-113851577D01*
X94700152Y-114180712D01*
X94831762Y-114498447D01*
X94831771Y-114498465D01*
X94993901Y-114801790D01*
X94993905Y-114801796D01*
X95184971Y-115087746D01*
X95184986Y-115087767D01*
X95403168Y-115353623D01*
X95646376Y-115596831D01*
X95905356Y-115809370D01*
X95976041Y-115893499D01*
X96011562Y-115997482D01*
X96007122Y-116107274D01*
X95963319Y-116208048D01*
X95886071Y-116286194D01*
X95785809Y-116331158D01*
X95715673Y-116339500D01*
X93509500Y-116339500D01*
X93401489Y-116319309D01*
X93308065Y-116261464D01*
X93241846Y-116173776D01*
X93211775Y-116068088D01*
X93210500Y-116040500D01*
X93210500Y-107590776D01*
X105279500Y-107590776D01*
X105279500Y-107811223D01*
X105311136Y-108010968D01*
X105313985Y-108028951D01*
X105379726Y-108231285D01*
X105382106Y-108238608D01*
X105382107Y-108238610D01*
X105476342Y-108423556D01*
X105482185Y-108435022D01*
X105546271Y-108523229D01*
X105593422Y-108622476D01*
X105601537Y-108732058D01*
X105569518Y-108837172D01*
X105501690Y-108923621D01*
X105483561Y-108938332D01*
X105422812Y-108983809D01*
X105422808Y-108983813D01*
X105336647Y-109098909D01*
X105286403Y-109233617D01*
X105286403Y-109233620D01*
X105280000Y-109293171D01*
X105280000Y-109941000D01*
X106343604Y-109941000D01*
X106319910Y-109964694D01*
X106260667Y-110067306D01*
X106230000Y-110181756D01*
X106230000Y-110300244D01*
X106260667Y-110414694D01*
X106319910Y-110517306D01*
X106343604Y-110541000D01*
X105280000Y-110541000D01*
X105280000Y-111188828D01*
X105286403Y-111248379D01*
X105286403Y-111248382D01*
X105336647Y-111383090D01*
X105422808Y-111498186D01*
X105422813Y-111498191D01*
X105537909Y-111584352D01*
X105672618Y-111634596D01*
X105732171Y-111640999D01*
X105732177Y-111641000D01*
X106380000Y-111641000D01*
X106380000Y-110577396D01*
X106403694Y-110601090D01*
X106506306Y-110660333D01*
X106620756Y-110691000D01*
X106739244Y-110691000D01*
X106853694Y-110660333D01*
X106956306Y-110601090D01*
X106980000Y-110577396D01*
X106980000Y-111641000D01*
X107627823Y-111641000D01*
X107627828Y-111640999D01*
X107687379Y-111634596D01*
X107687382Y-111634596D01*
X107822090Y-111584352D01*
X107937186Y-111498191D01*
X107937191Y-111498186D01*
X108023352Y-111383090D01*
X108073596Y-111248382D01*
X108073596Y-111248379D01*
X108079999Y-111188828D01*
X108080000Y-111188822D01*
X108080000Y-110541000D01*
X107016396Y-110541000D01*
X107040090Y-110517306D01*
X107099333Y-110414694D01*
X107130000Y-110300244D01*
X107130000Y-110181756D01*
X107099333Y-110067306D01*
X107040090Y-109964694D01*
X107016396Y-109941000D01*
X108080000Y-109941000D01*
X108080000Y-109371684D01*
X110431112Y-109371684D01*
X110431112Y-109576315D01*
X110463122Y-109778418D01*
X110526353Y-109973024D01*
X110526355Y-109973029D01*
X110619249Y-110155344D01*
X110619253Y-110155351D01*
X110621879Y-110158965D01*
X111306847Y-109473999D01*
X110621880Y-108789032D01*
X110619256Y-108792645D01*
X110619247Y-108792659D01*
X110526355Y-108974970D01*
X110526353Y-108974975D01*
X110463122Y-109169581D01*
X110431112Y-109371684D01*
X108080000Y-109371684D01*
X108080000Y-109293177D01*
X108079999Y-109293171D01*
X108073596Y-109233620D01*
X108073596Y-109233617D01*
X108023352Y-109098909D01*
X107937191Y-108983813D01*
X107937189Y-108983811D01*
X107876439Y-108938333D01*
X107802072Y-108857439D01*
X107761950Y-108755144D01*
X107761490Y-108645263D01*
X107800754Y-108542636D01*
X107813709Y-108523256D01*
X107877815Y-108435022D01*
X107977895Y-108238606D01*
X108046015Y-108028951D01*
X108080500Y-107811222D01*
X108080500Y-107590778D01*
X108046015Y-107373049D01*
X107977895Y-107163394D01*
X107877815Y-106966978D01*
X107748242Y-106788635D01*
X107592365Y-106632758D01*
X107585313Y-106626735D01*
X107516294Y-106541233D01*
X107482823Y-106436573D01*
X107480500Y-106399375D01*
X107480500Y-104867623D01*
X107500691Y-104759612D01*
X107558536Y-104666188D01*
X107646224Y-104599969D01*
X107687118Y-104583252D01*
X107687219Y-104583220D01*
X107869610Y-104490287D01*
X108035219Y-104369966D01*
X108179966Y-104225219D01*
X108300287Y-104059610D01*
X108393220Y-103877219D01*
X108456477Y-103682534D01*
X108488500Y-103480352D01*
X108488500Y-103275648D01*
X108488500Y-103275646D01*
X109443500Y-103275646D01*
X109443500Y-103480353D01*
X109475523Y-103682535D01*
X109538778Y-103877214D01*
X109538779Y-103877218D01*
X109631711Y-104059607D01*
X109631714Y-104059612D01*
X109681698Y-104128409D01*
X109752034Y-104225219D01*
X109896781Y-104369966D01*
X110062390Y-104490287D01*
X110244781Y-104583220D01*
X110439466Y-104646477D01*
X110641648Y-104678500D01*
X110641649Y-104678500D01*
X110788572Y-104678500D01*
X110896583Y-104698691D01*
X110990007Y-104756536D01*
X110999997Y-104766075D01*
X112843037Y-106609114D01*
X112905135Y-106699767D01*
X112930293Y-106806730D01*
X112930612Y-106820539D01*
X112930612Y-108029850D01*
X112928168Y-108042924D01*
X112929452Y-108056162D01*
X112918135Y-108096594D01*
X112910421Y-108137861D01*
X112903420Y-108149167D01*
X112899835Y-108161977D01*
X112874678Y-108195588D01*
X112852576Y-108231285D01*
X112840293Y-108241529D01*
X112833992Y-108249948D01*
X112792802Y-108281137D01*
X112790104Y-108283388D01*
X112789308Y-108283885D01*
X112712456Y-108331288D01*
X112710750Y-108332993D01*
X112694588Y-108343097D01*
X112658526Y-108357245D01*
X112624248Y-108375269D01*
X112607754Y-108377165D01*
X112592297Y-108383230D01*
X112553562Y-108383396D01*
X112515085Y-108387820D01*
X112499019Y-108383629D01*
X112482415Y-108383701D01*
X112446237Y-108369863D01*
X112408760Y-108360089D01*
X112400354Y-108355971D01*
X112230136Y-108269241D01*
X112035530Y-108206010D01*
X111833427Y-108174000D01*
X111628796Y-108174000D01*
X111426693Y-108206010D01*
X111232087Y-108269241D01*
X111232082Y-108269243D01*
X111049771Y-108362135D01*
X111049757Y-108362144D01*
X111046144Y-108364768D01*
X111731819Y-109050443D01*
X111747955Y-109074000D01*
X111678451Y-109074000D01*
X111576718Y-109101259D01*
X111485506Y-109153920D01*
X111411032Y-109228394D01*
X111358371Y-109319606D01*
X111331112Y-109421339D01*
X111331112Y-109526661D01*
X111358371Y-109628394D01*
X111411032Y-109719606D01*
X111485506Y-109794080D01*
X111576718Y-109846741D01*
X111678451Y-109874000D01*
X111752176Y-109874000D01*
X111750424Y-109877146D01*
X111731818Y-109897556D01*
X111046144Y-110583230D01*
X111049767Y-110585862D01*
X111232082Y-110678756D01*
X111232087Y-110678758D01*
X111426693Y-110741989D01*
X111628796Y-110773999D01*
X111628802Y-110774000D01*
X111833422Y-110774000D01*
X111833427Y-110773999D01*
X112035530Y-110741989D01*
X112230136Y-110678758D01*
X112230141Y-110678756D01*
X112400353Y-110592029D01*
X112505758Y-110560983D01*
X112615261Y-110570110D01*
X112696394Y-110609579D01*
X112697634Y-110607570D01*
X112861774Y-110708812D01*
X112861782Y-110708816D01*
X112978524Y-110747500D01*
X113028315Y-110763999D01*
X113131103Y-110774500D01*
X114331120Y-110774499D01*
X114331123Y-110774499D01*
X114375172Y-110769999D01*
X114433909Y-110763999D01*
X114600446Y-110708814D01*
X114749768Y-110616712D01*
X114873824Y-110492656D01*
X114965926Y-110343334D01*
X114974855Y-110316390D01*
X115018402Y-110184971D01*
X115021111Y-110176797D01*
X115031612Y-110074009D01*
X115031611Y-108873992D01*
X115031135Y-108869334D01*
X115022932Y-108789032D01*
X115021111Y-108771203D01*
X114965926Y-108604666D01*
X114873824Y-108455344D01*
X114749768Y-108331288D01*
X114673643Y-108284334D01*
X114592313Y-108210445D01*
X114543166Y-108112167D01*
X114531612Y-108029850D01*
X114531612Y-107897684D01*
X116200000Y-107897684D01*
X116200000Y-108102315D01*
X116232010Y-108304418D01*
X116295241Y-108499024D01*
X116295243Y-108499029D01*
X116388137Y-108681344D01*
X116388141Y-108681351D01*
X116390767Y-108684965D01*
X117075735Y-107999999D01*
X116390768Y-107315032D01*
X116388144Y-107318645D01*
X116388135Y-107318659D01*
X116295243Y-107500970D01*
X116295241Y-107500975D01*
X116232010Y-107695581D01*
X116200000Y-107897684D01*
X114531612Y-107897684D01*
X114531612Y-106286271D01*
X114531611Y-106286267D01*
X114531444Y-106285428D01*
X114524312Y-106249573D01*
X114500849Y-106131615D01*
X114483653Y-106090100D01*
X114440506Y-105985933D01*
X114352901Y-105854823D01*
X114241401Y-105743323D01*
X114230964Y-105732886D01*
X114230953Y-105732876D01*
X112132075Y-103633997D01*
X112069977Y-103543344D01*
X112044819Y-103436381D01*
X112044500Y-103422572D01*
X112044500Y-103275648D01*
X112012477Y-103073466D01*
X111949220Y-102878781D01*
X111856287Y-102696390D01*
X111735966Y-102530781D01*
X111591219Y-102386034D01*
X111458546Y-102289642D01*
X111425612Y-102265714D01*
X111425607Y-102265711D01*
X111243218Y-102172779D01*
X111243214Y-102172778D01*
X111048535Y-102109523D01*
X110846353Y-102077500D01*
X110846352Y-102077500D01*
X110641648Y-102077500D01*
X110641646Y-102077500D01*
X110439464Y-102109523D01*
X110244785Y-102172778D01*
X110244781Y-102172779D01*
X110062392Y-102265711D01*
X110062387Y-102265714D01*
X109896782Y-102386033D01*
X109896775Y-102386039D01*
X109752039Y-102530775D01*
X109752033Y-102530782D01*
X109631714Y-102696387D01*
X109631711Y-102696392D01*
X109538779Y-102878781D01*
X109538778Y-102878785D01*
X109475523Y-103073464D01*
X109443500Y-103275646D01*
X108488500Y-103275646D01*
X108456477Y-103073466D01*
X108393220Y-102878781D01*
X108300287Y-102696390D01*
X108179966Y-102530781D01*
X108035219Y-102386034D01*
X107902546Y-102289642D01*
X107869612Y-102265714D01*
X107869607Y-102265711D01*
X107687218Y-102172779D01*
X107687214Y-102172778D01*
X107492535Y-102109523D01*
X107290353Y-102077500D01*
X107290352Y-102077500D01*
X107085648Y-102077500D01*
X107085646Y-102077500D01*
X106883464Y-102109523D01*
X106688785Y-102172778D01*
X106688781Y-102172779D01*
X106506392Y-102265711D01*
X106506387Y-102265714D01*
X106340782Y-102386033D01*
X106340775Y-102386039D01*
X106196039Y-102530775D01*
X106196033Y-102530782D01*
X106075714Y-102696387D01*
X106075711Y-102696392D01*
X105982779Y-102878781D01*
X105982778Y-102878785D01*
X105919523Y-103073464D01*
X105887500Y-103275646D01*
X105887500Y-103480356D01*
X105904417Y-103587163D01*
X105902353Y-103692268D01*
X105879500Y-103807157D01*
X105879500Y-106399375D01*
X105859309Y-106507386D01*
X105801464Y-106600810D01*
X105774687Y-106626735D01*
X105767634Y-106632758D01*
X105611763Y-106788629D01*
X105611760Y-106788633D01*
X105611758Y-106788635D01*
X105532700Y-106897450D01*
X105482182Y-106966982D01*
X105482181Y-106966984D01*
X105382107Y-107163389D01*
X105382106Y-107163391D01*
X105313984Y-107373052D01*
X105279500Y-107590776D01*
X93210500Y-107590776D01*
X93210500Y-103275646D01*
X95727500Y-103275646D01*
X95727500Y-103480353D01*
X95759523Y-103682535D01*
X95822778Y-103877214D01*
X95822779Y-103877218D01*
X95915711Y-104059607D01*
X95915714Y-104059612D01*
X95965698Y-104128409D01*
X96036034Y-104225219D01*
X96180781Y-104369966D01*
X96346390Y-104490287D01*
X96528781Y-104583220D01*
X96723466Y-104646477D01*
X96925648Y-104678500D01*
X96925649Y-104678500D01*
X97130351Y-104678500D01*
X97130352Y-104678500D01*
X97332534Y-104646477D01*
X97527219Y-104583220D01*
X97709610Y-104490287D01*
X97875219Y-104369966D01*
X98019966Y-104225219D01*
X98140287Y-104059610D01*
X98233220Y-103877219D01*
X98296477Y-103682534D01*
X98328500Y-103480352D01*
X98328500Y-103275648D01*
X98296477Y-103073466D01*
X98233220Y-102878781D01*
X98140287Y-102696390D01*
X98019966Y-102530781D01*
X97875219Y-102386034D01*
X97742546Y-102289642D01*
X97709612Y-102265714D01*
X97709607Y-102265711D01*
X97527218Y-102172779D01*
X97527214Y-102172778D01*
X97332535Y-102109523D01*
X97130353Y-102077500D01*
X97130352Y-102077500D01*
X96925648Y-102077500D01*
X96925646Y-102077500D01*
X96723464Y-102109523D01*
X96528785Y-102172778D01*
X96528781Y-102172779D01*
X96346392Y-102265711D01*
X96346387Y-102265714D01*
X96180782Y-102386033D01*
X96180775Y-102386039D01*
X96036039Y-102530775D01*
X96036033Y-102530782D01*
X95915714Y-102696387D01*
X95915711Y-102696392D01*
X95822779Y-102878781D01*
X95822778Y-102878785D01*
X95759523Y-103073464D01*
X95727500Y-103275646D01*
X93210500Y-103275646D01*
X93210500Y-99921945D01*
X101930000Y-99921945D01*
X101930000Y-100158054D01*
X101966935Y-100391254D01*
X101966937Y-100391259D01*
X102039895Y-100615798D01*
X102147084Y-100826169D01*
X102147087Y-100826174D01*
X102177584Y-100868149D01*
X102891268Y-100154464D01*
X102917482Y-100252292D01*
X102989890Y-100377708D01*
X103092292Y-100480110D01*
X103217708Y-100552518D01*
X103315533Y-100578730D01*
X102601849Y-101292414D01*
X102643825Y-101322912D01*
X102643827Y-101322913D01*
X102854201Y-101430104D01*
X103078740Y-101503062D01*
X103078745Y-101503064D01*
X103311945Y-101539999D01*
X103311948Y-101540000D01*
X103548052Y-101540000D01*
X103548054Y-101539999D01*
X103781254Y-101503064D01*
X103781259Y-101503062D01*
X104005798Y-101430104D01*
X104005804Y-101430102D01*
X104216162Y-101322919D01*
X104216171Y-101322914D01*
X104258149Y-101292413D01*
X103544466Y-100578730D01*
X103642292Y-100552518D01*
X103767708Y-100480110D01*
X103870110Y-100377708D01*
X103942518Y-100252292D01*
X103968730Y-100154466D01*
X104682413Y-100868149D01*
X104712914Y-100826171D01*
X104712919Y-100826162D01*
X104820102Y-100615804D01*
X104820104Y-100615798D01*
X104893062Y-100391259D01*
X104893064Y-100391254D01*
X104929999Y-100158054D01*
X104930000Y-100158052D01*
X104930000Y-99921947D01*
X104929999Y-99921945D01*
X108430000Y-99921945D01*
X108430000Y-100158054D01*
X108466935Y-100391254D01*
X108466937Y-100391259D01*
X108539895Y-100615798D01*
X108647084Y-100826169D01*
X108647087Y-100826174D01*
X108677584Y-100868149D01*
X109391268Y-100154464D01*
X109417482Y-100252292D01*
X109489890Y-100377708D01*
X109592292Y-100480110D01*
X109717708Y-100552518D01*
X109815533Y-100578730D01*
X109101849Y-101292414D01*
X109143825Y-101322912D01*
X109143827Y-101322913D01*
X109354201Y-101430104D01*
X109578740Y-101503062D01*
X109578745Y-101503064D01*
X109811945Y-101539999D01*
X109811948Y-101540000D01*
X110048052Y-101540000D01*
X110048054Y-101539999D01*
X110281254Y-101503064D01*
X110281259Y-101503062D01*
X110505798Y-101430104D01*
X110505804Y-101430102D01*
X110716162Y-101322919D01*
X110716171Y-101322914D01*
X110758149Y-101292413D01*
X110044466Y-100578730D01*
X110142292Y-100552518D01*
X110267708Y-100480110D01*
X110370110Y-100377708D01*
X110442518Y-100252292D01*
X110468730Y-100154466D01*
X111182413Y-100868149D01*
X111212914Y-100826171D01*
X111212919Y-100826162D01*
X111320102Y-100615804D01*
X111320104Y-100615798D01*
X111393062Y-100391259D01*
X111393064Y-100391254D01*
X111429999Y-100158054D01*
X111430000Y-100158052D01*
X111430000Y-99921947D01*
X111429999Y-99921945D01*
X111393064Y-99688745D01*
X111393062Y-99688740D01*
X111320104Y-99464201D01*
X111212913Y-99253827D01*
X111212912Y-99253825D01*
X111182414Y-99211849D01*
X110468730Y-99925532D01*
X110442518Y-99827708D01*
X110370110Y-99702292D01*
X110267708Y-99599890D01*
X110142292Y-99527482D01*
X110044464Y-99501269D01*
X110758150Y-98787584D01*
X110716174Y-98757087D01*
X110716169Y-98757084D01*
X110505798Y-98649895D01*
X110281259Y-98576937D01*
X110281254Y-98576935D01*
X110048054Y-98540000D01*
X109811945Y-98540000D01*
X109578745Y-98576935D01*
X109578740Y-98576937D01*
X109354201Y-98649895D01*
X109354195Y-98649897D01*
X109143836Y-98757080D01*
X109143819Y-98757090D01*
X109101849Y-98787584D01*
X109815533Y-99501269D01*
X109717708Y-99527482D01*
X109592292Y-99599890D01*
X109489890Y-99702292D01*
X109417482Y-99827708D01*
X109391269Y-99925533D01*
X108677584Y-99211849D01*
X108647090Y-99253819D01*
X108647080Y-99253836D01*
X108539897Y-99464195D01*
X108539895Y-99464201D01*
X108466937Y-99688740D01*
X108466935Y-99688745D01*
X108430000Y-99921945D01*
X104929999Y-99921945D01*
X104893064Y-99688745D01*
X104893062Y-99688740D01*
X104820104Y-99464201D01*
X104712913Y-99253827D01*
X104712912Y-99253825D01*
X104682414Y-99211849D01*
X103968730Y-99925532D01*
X103942518Y-99827708D01*
X103870110Y-99702292D01*
X103767708Y-99599890D01*
X103642292Y-99527482D01*
X103544464Y-99501269D01*
X104258150Y-98787584D01*
X104216174Y-98757087D01*
X104216169Y-98757084D01*
X104005798Y-98649895D01*
X103781259Y-98576937D01*
X103781254Y-98576935D01*
X103548054Y-98540000D01*
X103311945Y-98540000D01*
X103078745Y-98576935D01*
X103078740Y-98576937D01*
X102854201Y-98649895D01*
X102854195Y-98649897D01*
X102643836Y-98757080D01*
X102643819Y-98757090D01*
X102601849Y-98787584D01*
X103315533Y-99501269D01*
X103217708Y-99527482D01*
X103092292Y-99599890D01*
X102989890Y-99702292D01*
X102917482Y-99827708D01*
X102891269Y-99925533D01*
X102177584Y-99211849D01*
X102147090Y-99253819D01*
X102147080Y-99253836D01*
X102039897Y-99464195D01*
X102039895Y-99464201D01*
X101966937Y-99688740D01*
X101966935Y-99688745D01*
X101930000Y-99921945D01*
X93210500Y-99921945D01*
X93210500Y-89699500D01*
X93230691Y-89591489D01*
X93288536Y-89498065D01*
X93376224Y-89431846D01*
X93481912Y-89401775D01*
X93509500Y-89400500D01*
X96114712Y-89400500D01*
X96222723Y-89420691D01*
G37*
%TD.AperFunction*%
%TA.AperFunction,Conductor*%
G36*
X197428511Y-89420691D02*
G01*
X197521935Y-89478536D01*
X197588154Y-89566224D01*
X197618225Y-89671912D01*
X197619500Y-89699500D01*
X197619500Y-116040500D01*
X197599309Y-116148511D01*
X197541464Y-116241935D01*
X197453776Y-116308154D01*
X197348088Y-116338225D01*
X197320500Y-116339500D01*
X195284327Y-116339500D01*
X195176316Y-116319309D01*
X195082892Y-116261464D01*
X195016673Y-116173776D01*
X194986602Y-116068088D01*
X194996741Y-115958675D01*
X195045720Y-115860312D01*
X195094644Y-115809370D01*
X195288227Y-115650500D01*
X195353627Y-115596828D01*
X195596828Y-115353627D01*
X195815019Y-115087760D01*
X196006100Y-114801787D01*
X196168231Y-114498462D01*
X196299850Y-114180705D01*
X196399690Y-113851578D01*
X196466789Y-113514250D01*
X196487652Y-113302418D01*
X196500500Y-113171974D01*
X196500500Y-112828025D01*
X196476201Y-112581318D01*
X196466789Y-112485750D01*
X196399690Y-112148422D01*
X196299850Y-111819295D01*
X196275672Y-111760925D01*
X196168237Y-111501552D01*
X196168235Y-111501549D01*
X196168231Y-111501538D01*
X196006100Y-111198213D01*
X196006098Y-111198209D01*
X196006094Y-111198203D01*
X195815028Y-110912253D01*
X195815013Y-110912232D01*
X195596831Y-110646376D01*
X195353623Y-110403168D01*
X195087767Y-110184986D01*
X195087746Y-110184971D01*
X194801796Y-109993905D01*
X194801790Y-109993901D01*
X194562337Y-109865911D01*
X194498462Y-109831769D01*
X194498456Y-109831766D01*
X194498447Y-109831762D01*
X194180712Y-109700152D01*
X194085518Y-109671275D01*
X193851578Y-109600310D01*
X193610227Y-109552302D01*
X193514246Y-109533210D01*
X193171973Y-109499499D01*
X193164644Y-109499140D01*
X193164738Y-109497215D01*
X193068946Y-109479309D01*
X192975522Y-109421464D01*
X192909303Y-109333776D01*
X192879232Y-109228088D01*
X192889371Y-109118675D01*
X192938350Y-109020312D01*
X192965532Y-108989075D01*
X193016275Y-108938332D01*
X193092242Y-108862365D01*
X193221815Y-108684022D01*
X193321895Y-108487606D01*
X193390015Y-108277951D01*
X193424500Y-108060222D01*
X193424500Y-107839778D01*
X193390015Y-107622049D01*
X193321895Y-107412394D01*
X193221815Y-107215978D01*
X193092242Y-107037635D01*
X192936365Y-106881758D01*
X192758022Y-106752185D01*
X192758019Y-106752183D01*
X192758017Y-106752182D01*
X192758015Y-106752181D01*
X192561610Y-106652107D01*
X192561608Y-106652106D01*
X192561607Y-106652105D01*
X192561606Y-106652105D01*
X192351951Y-106583985D01*
X192351949Y-106583984D01*
X192351947Y-106583984D01*
X192134223Y-106549500D01*
X192134222Y-106549500D01*
X191913778Y-106549500D01*
X191913776Y-106549500D01*
X191696052Y-106583984D01*
X191486391Y-106652106D01*
X191486389Y-106652107D01*
X191289984Y-106752181D01*
X191289982Y-106752182D01*
X191289978Y-106752185D01*
X191201770Y-106816271D01*
X191102522Y-106863422D01*
X190992939Y-106871537D01*
X190887826Y-106839518D01*
X190801377Y-106771689D01*
X190786666Y-106753559D01*
X190741191Y-106692813D01*
X190741186Y-106692808D01*
X190626090Y-106606647D01*
X190491381Y-106556403D01*
X190431828Y-106550000D01*
X189784000Y-106550000D01*
X189784000Y-107613604D01*
X189760306Y-107589910D01*
X189657694Y-107530667D01*
X189543244Y-107500000D01*
X189424756Y-107500000D01*
X189310306Y-107530667D01*
X189207694Y-107589910D01*
X189184000Y-107613604D01*
X189184000Y-106550000D01*
X188828500Y-106550000D01*
X188720489Y-106529809D01*
X188627065Y-106471964D01*
X188560846Y-106384276D01*
X188530775Y-106278588D01*
X188529500Y-106251000D01*
X188529500Y-105080427D01*
X188549691Y-104972416D01*
X188607536Y-104878992D01*
X188617056Y-104869021D01*
X189228002Y-104258074D01*
X189318655Y-104195977D01*
X189425618Y-104170819D01*
X189439427Y-104170500D01*
X189586351Y-104170500D01*
X189586352Y-104170500D01*
X189788534Y-104138477D01*
X189983219Y-104075220D01*
X190165610Y-103982287D01*
X190331219Y-103861966D01*
X190475966Y-103717219D01*
X190596287Y-103551610D01*
X190689220Y-103369219D01*
X190752477Y-103174534D01*
X190784500Y-102972352D01*
X190784500Y-102767648D01*
X190752477Y-102565466D01*
X190689220Y-102370781D01*
X190596287Y-102188390D01*
X190475966Y-102022781D01*
X190372075Y-101918890D01*
X190309977Y-101828237D01*
X190284819Y-101721274D01*
X190284500Y-101707465D01*
X190284500Y-100852612D01*
X190304691Y-100744601D01*
X190362536Y-100651177D01*
X190450224Y-100584958D01*
X190555912Y-100554887D01*
X190583500Y-100553612D01*
X190592012Y-100553612D01*
X190643402Y-100548362D01*
X190694797Y-100543112D01*
X190861334Y-100487927D01*
X191010656Y-100395825D01*
X191134712Y-100271769D01*
X191226814Y-100122447D01*
X191230141Y-100112409D01*
X191281997Y-99955915D01*
X191281999Y-99955910D01*
X191292500Y-99853122D01*
X191292499Y-98653105D01*
X191292171Y-98649897D01*
X191283090Y-98560994D01*
X191281999Y-98550316D01*
X191226814Y-98383779D01*
X191224909Y-98380691D01*
X191125570Y-98219635D01*
X191128401Y-98217888D01*
X191090742Y-98146288D01*
X191078176Y-98037127D01*
X191105893Y-97930797D01*
X191110029Y-97922354D01*
X191196756Y-97752142D01*
X191196758Y-97752137D01*
X191259989Y-97557531D01*
X191291999Y-97355428D01*
X191292000Y-97355422D01*
X191292000Y-97150803D01*
X191291999Y-97150797D01*
X191259989Y-96948694D01*
X191196758Y-96754088D01*
X191196756Y-96754083D01*
X191104451Y-96572924D01*
X191073405Y-96467519D01*
X191082532Y-96358016D01*
X191130600Y-96259205D01*
X191211117Y-96184431D01*
X191313208Y-96143792D01*
X191423086Y-96142777D01*
X191494678Y-96165609D01*
X191494756Y-96165422D01*
X191496979Y-96166343D01*
X191498726Y-96166900D01*
X191501520Y-96168221D01*
X191501538Y-96168231D01*
X191571314Y-96197133D01*
X191819287Y-96299847D01*
X191819289Y-96299847D01*
X191819295Y-96299850D01*
X192148422Y-96399690D01*
X192485750Y-96466789D01*
X192614105Y-96479430D01*
X192828026Y-96500500D01*
X192828031Y-96500500D01*
X193171974Y-96500500D01*
X193380174Y-96479994D01*
X193514250Y-96466789D01*
X193851578Y-96399690D01*
X194180705Y-96299850D01*
X194498462Y-96168231D01*
X194801787Y-96006100D01*
X195087760Y-95815019D01*
X195353627Y-95596828D01*
X195596828Y-95353627D01*
X195815019Y-95087760D01*
X196006100Y-94801787D01*
X196168231Y-94498462D01*
X196299850Y-94180705D01*
X196399690Y-93851578D01*
X196466789Y-93514250D01*
X196481771Y-93362125D01*
X196500500Y-93171974D01*
X196500500Y-92828025D01*
X196477512Y-92594623D01*
X196466789Y-92485750D01*
X196399690Y-92148422D01*
X196299850Y-91819295D01*
X196273685Y-91756128D01*
X196168237Y-91501552D01*
X196168235Y-91501549D01*
X196168231Y-91501538D01*
X196006100Y-91198213D01*
X196006098Y-91198209D01*
X196006094Y-91198203D01*
X195815028Y-90912253D01*
X195815013Y-90912232D01*
X195596831Y-90646376D01*
X195353623Y-90403168D01*
X195087767Y-90184986D01*
X195087746Y-90184971D01*
X194801796Y-89993905D01*
X194801790Y-89993901D01*
X194744340Y-89963194D01*
X194658601Y-89894471D01*
X194603477Y-89799417D01*
X194586413Y-89690867D01*
X194609713Y-89583484D01*
X194670232Y-89491769D01*
X194759795Y-89428110D01*
X194866307Y-89401103D01*
X194885288Y-89400500D01*
X197320500Y-89400500D01*
X197428511Y-89420691D01*
G37*
%TD.AperFunction*%
%TA.AperFunction,Conductor*%
G36*
X188541505Y-96991651D02*
G01*
X188625224Y-97062822D01*
X188677580Y-97159429D01*
X188692000Y-97251165D01*
X188692000Y-97355428D01*
X188724010Y-97557531D01*
X188787241Y-97752137D01*
X188873971Y-97922355D01*
X188905016Y-98027760D01*
X188895888Y-98137263D01*
X188856420Y-98218395D01*
X188858430Y-98219635D01*
X188757187Y-98383775D01*
X188757183Y-98383783D01*
X188702002Y-98550310D01*
X188702000Y-98550318D01*
X188697228Y-98597038D01*
X188691501Y-98653101D01*
X188691500Y-98653108D01*
X188691500Y-99612602D01*
X188685756Y-99670927D01*
X188683501Y-99682264D01*
X188683500Y-99682276D01*
X188683500Y-101707465D01*
X188663309Y-101815476D01*
X188605464Y-101908900D01*
X188595925Y-101918890D01*
X188492039Y-102022775D01*
X188492033Y-102022782D01*
X188371714Y-102188387D01*
X188371711Y-102188392D01*
X188278779Y-102370781D01*
X188278778Y-102370785D01*
X188215523Y-102565464D01*
X188183500Y-102767646D01*
X188183500Y-102914571D01*
X188163309Y-103022582D01*
X188105464Y-103116006D01*
X188095925Y-103125996D01*
X187218711Y-104003211D01*
X187107210Y-104114711D01*
X187019606Y-104245821D01*
X186959262Y-104391505D01*
X186928500Y-104546159D01*
X186928500Y-104546368D01*
X186928456Y-104546598D01*
X186927060Y-104560780D01*
X186925828Y-104560658D01*
X186908309Y-104654379D01*
X186850464Y-104747803D01*
X186762776Y-104814022D01*
X186657088Y-104844093D01*
X186547675Y-104833954D01*
X186515157Y-104821185D01*
X186514657Y-104822393D01*
X186503798Y-104817895D01*
X186279259Y-104744937D01*
X186279254Y-104744935D01*
X186046054Y-104708000D01*
X185809945Y-104708000D01*
X185576745Y-104744935D01*
X185576740Y-104744937D01*
X185352201Y-104817895D01*
X185352195Y-104817897D01*
X185141836Y-104925080D01*
X185141819Y-104925090D01*
X185099849Y-104955584D01*
X185813534Y-105669269D01*
X185715708Y-105695482D01*
X185590292Y-105767890D01*
X185487890Y-105870292D01*
X185415482Y-105995708D01*
X185389269Y-106093534D01*
X184675584Y-105379849D01*
X184645090Y-105421819D01*
X184645080Y-105421836D01*
X184537897Y-105632195D01*
X184537895Y-105632201D01*
X184464937Y-105856740D01*
X184464935Y-105856745D01*
X184428000Y-106089945D01*
X184428000Y-106326054D01*
X184464935Y-106559254D01*
X184464937Y-106559259D01*
X184537895Y-106783798D01*
X184645084Y-106994169D01*
X184645087Y-106994174D01*
X184675584Y-107036149D01*
X185389268Y-106322464D01*
X185415482Y-106420292D01*
X185487890Y-106545708D01*
X185590292Y-106648110D01*
X185715708Y-106720518D01*
X185813531Y-106746730D01*
X185099849Y-107460413D01*
X185099849Y-107460414D01*
X185141825Y-107490912D01*
X185141827Y-107490913D01*
X185240302Y-107541089D01*
X185327374Y-107608115D01*
X185384354Y-107702069D01*
X185403546Y-107810262D01*
X185382358Y-107918082D01*
X185323652Y-108010968D01*
X185235356Y-108076374D01*
X185129396Y-108105467D01*
X185104559Y-108106500D01*
X185103159Y-108106500D01*
X185026184Y-108121811D01*
X184948506Y-108137262D01*
X184802822Y-108197606D01*
X184671712Y-108285210D01*
X183274210Y-109682712D01*
X183186606Y-109813822D01*
X183126262Y-109959506D01*
X183116499Y-110008590D01*
X183095500Y-110114159D01*
X183095500Y-111935158D01*
X183095500Y-112727842D01*
X183097036Y-112735564D01*
X183102035Y-112760695D01*
X183102262Y-112780418D01*
X183107143Y-112799529D01*
X183102890Y-112834924D01*
X183103302Y-112870569D01*
X183096389Y-112889041D01*
X183094037Y-112908627D01*
X183077286Y-112940095D01*
X183064793Y-112973483D01*
X183050488Y-112990438D01*
X183042405Y-113005624D01*
X183016477Y-113030751D01*
X183004140Y-113045375D01*
X182996271Y-113052166D01*
X182942454Y-113092454D01*
X182929421Y-113109863D01*
X182904861Y-113131061D01*
X182884930Y-113142664D01*
X182867954Y-113158270D01*
X182837848Y-113170076D01*
X182809901Y-113186348D01*
X182787126Y-113189968D01*
X182765657Y-113198388D01*
X182733319Y-113198521D01*
X182701381Y-113203599D01*
X182678836Y-113198747D01*
X182655776Y-113198843D01*
X182625570Y-113187284D01*
X182593958Y-113180482D01*
X182574689Y-113167815D01*
X182553150Y-113159573D01*
X182529160Y-113137884D01*
X182502139Y-113120121D01*
X182488746Y-113101347D01*
X182471641Y-113085883D01*
X182457106Y-113056994D01*
X182438326Y-113030668D01*
X182432619Y-113008325D01*
X182422255Y-112987724D01*
X182415903Y-112942872D01*
X182411136Y-112924203D01*
X182412111Y-112916086D01*
X182410500Y-112904709D01*
X182410500Y-109649161D01*
X182410500Y-109649158D01*
X182379737Y-109494503D01*
X182319394Y-109348821D01*
X182231789Y-109217711D01*
X182120289Y-109106211D01*
X180554822Y-107540744D01*
X180492724Y-107450091D01*
X180467566Y-107343128D01*
X180482747Y-107234299D01*
X180536216Y-107138304D01*
X180620752Y-107068106D01*
X180668927Y-107051959D01*
X180710914Y-106994171D01*
X180710919Y-106994162D01*
X180818102Y-106783804D01*
X180818104Y-106783798D01*
X180891062Y-106559259D01*
X180891064Y-106559254D01*
X180927999Y-106326054D01*
X180928000Y-106326052D01*
X180928000Y-106089947D01*
X180927999Y-106089945D01*
X180891064Y-105856745D01*
X180891062Y-105856740D01*
X180818104Y-105632201D01*
X180710913Y-105421827D01*
X180710912Y-105421825D01*
X180680413Y-105379848D01*
X180627299Y-105375668D01*
X180622102Y-105402844D01*
X180563865Y-105496024D01*
X180555173Y-105505089D01*
X179966730Y-106093531D01*
X179940518Y-105995708D01*
X179868110Y-105870292D01*
X179765708Y-105767890D01*
X179640292Y-105695482D01*
X179542464Y-105669269D01*
X180121074Y-105090660D01*
X180153302Y-105062733D01*
X180164311Y-105054493D01*
X180164316Y-105054487D01*
X180164563Y-105054303D01*
X180263130Y-105005737D01*
X180283757Y-105003912D01*
X180290107Y-104967131D01*
X180346652Y-104872914D01*
X180358946Y-104859857D01*
X188174007Y-97044795D01*
X188219309Y-97007617D01*
X188226889Y-97002552D01*
X188231638Y-97000521D01*
X188234234Y-96998268D01*
X188251034Y-96992223D01*
X188327913Y-96959335D01*
X188437729Y-96955530D01*
X188541505Y-96991651D01*
G37*
%TD.AperFunction*%
%TA.AperFunction,Conductor*%
G36*
X126875025Y-92160761D02*
G01*
X126943943Y-92155339D01*
X127053205Y-92166995D01*
X127150878Y-92217334D01*
X127180363Y-92243545D01*
X127196106Y-92259520D01*
X127239896Y-92319792D01*
X127390208Y-92470104D01*
X127437471Y-92504442D01*
X127454760Y-92521986D01*
X127471940Y-92547465D01*
X127493058Y-92569787D01*
X127514232Y-92610183D01*
X127516193Y-92613091D01*
X127516527Y-92614562D01*
X127518034Y-92617436D01*
X127556632Y-92710620D01*
X127560606Y-92720213D01*
X127596543Y-92773997D01*
X127636689Y-92834080D01*
X127648211Y-92851323D01*
X130345177Y-95548289D01*
X130456677Y-95659789D01*
X130587787Y-95747394D01*
X130733469Y-95807737D01*
X130888124Y-95838500D01*
X132461621Y-95838500D01*
X132495572Y-95844846D01*
X132530077Y-95846442D01*
X132549144Y-95854861D01*
X132569632Y-95858691D01*
X132598999Y-95876874D01*
X132630597Y-95890826D01*
X132657168Y-95912890D01*
X132663056Y-95916536D01*
X132673046Y-95926075D01*
X132673925Y-95926954D01*
X132736023Y-96017607D01*
X132761181Y-96124570D01*
X132761500Y-96138379D01*
X132761500Y-99441621D01*
X132741309Y-99549632D01*
X132683464Y-99643056D01*
X132673925Y-99653046D01*
X132377046Y-99949925D01*
X132286393Y-100012023D01*
X132179430Y-100037181D01*
X132165621Y-100037500D01*
X129618842Y-100037500D01*
X129461157Y-100037500D01*
X129306502Y-100068263D01*
X129269145Y-100083736D01*
X129269144Y-100083737D01*
X129160824Y-100128603D01*
X129160823Y-100128604D01*
X129037907Y-100210733D01*
X129037902Y-100210738D01*
X129029712Y-100216210D01*
X129029706Y-100216215D01*
X128410210Y-100835711D01*
X128322606Y-100966821D01*
X128262262Y-101112505D01*
X128231500Y-101267159D01*
X128231500Y-103507543D01*
X128211309Y-103615554D01*
X128153464Y-103708978D01*
X128065776Y-103775197D01*
X127960088Y-103805268D01*
X127850675Y-103795129D01*
X127752312Y-103746150D01*
X127715278Y-103708963D01*
X127714310Y-103709932D01*
X127699186Y-103694808D01*
X127584090Y-103608647D01*
X127449381Y-103558403D01*
X127389828Y-103552000D01*
X126792000Y-103552000D01*
X126792000Y-104497855D01*
X126684993Y-104436075D01*
X126557826Y-104402000D01*
X126426174Y-104402000D01*
X126299007Y-104436075D01*
X126192000Y-104497855D01*
X126192000Y-103552000D01*
X125594171Y-103552000D01*
X125534620Y-103558403D01*
X125534617Y-103558403D01*
X125399909Y-103608647D01*
X125284813Y-103694808D01*
X125284808Y-103694813D01*
X125198647Y-103809909D01*
X125148403Y-103944617D01*
X125148403Y-103944620D01*
X125142000Y-104004171D01*
X125142000Y-104602000D01*
X126087856Y-104602000D01*
X126026075Y-104709007D01*
X125992000Y-104836174D01*
X125992000Y-104967826D01*
X126026075Y-105094993D01*
X126087856Y-105202000D01*
X125142000Y-105202000D01*
X125142000Y-105799828D01*
X125148403Y-105859379D01*
X125148403Y-105859382D01*
X125203748Y-106007768D01*
X125222576Y-106116026D01*
X125201026Y-106223774D01*
X125142007Y-106316461D01*
X125053492Y-106381569D01*
X125038026Y-106388495D01*
X124926715Y-106434603D01*
X124926708Y-106434606D01*
X124795599Y-106522210D01*
X123960884Y-107356925D01*
X123870231Y-107419023D01*
X123763268Y-107444181D01*
X123749459Y-107444500D01*
X123143092Y-107444500D01*
X123043616Y-107464287D01*
X122988440Y-107475262D01*
X122988439Y-107475262D01*
X122988436Y-107475263D01*
X122842761Y-107535604D01*
X122842757Y-107535606D01*
X122711648Y-107623210D01*
X121876933Y-108457925D01*
X121848437Y-108477444D01*
X121822911Y-108500715D01*
X121803474Y-108508244D01*
X121786280Y-108520023D01*
X121752659Y-108527930D01*
X121720449Y-108540409D01*
X121686056Y-108543595D01*
X121679317Y-108545181D01*
X121665508Y-108545500D01*
X121099500Y-108545500D01*
X120991489Y-108525309D01*
X120898065Y-108467464D01*
X120831846Y-108379776D01*
X120801775Y-108274088D01*
X120800500Y-108246500D01*
X120800499Y-107399988D01*
X120789999Y-107297206D01*
X120789999Y-107297203D01*
X120734814Y-107130666D01*
X120728045Y-107119691D01*
X120701014Y-107075866D01*
X120661497Y-106973335D01*
X120656500Y-106918901D01*
X120656500Y-105542713D01*
X120656500Y-105530271D01*
X120656299Y-105529263D01*
X120625737Y-105375616D01*
X120607322Y-105331158D01*
X120565394Y-105229934D01*
X120487304Y-105113065D01*
X120475543Y-105083198D01*
X120471118Y-105060235D01*
X120461919Y-105038732D01*
X120460809Y-105006734D01*
X120454753Y-104975301D01*
X120458922Y-104952290D01*
X120458112Y-104928916D01*
X120468636Y-104898677D01*
X120474344Y-104867179D01*
X120486543Y-104847229D01*
X120494232Y-104825140D01*
X120514969Y-104800745D01*
X120531670Y-104773436D01*
X120550253Y-104759239D01*
X120565402Y-104741420D01*
X120593548Y-104726165D01*
X120618989Y-104706731D01*
X120641447Y-104700205D01*
X120662008Y-104689063D01*
X120693763Y-104685006D01*
X120724508Y-104676074D01*
X120747806Y-104678102D01*
X120771005Y-104675139D01*
X120800520Y-104678322D01*
X120801638Y-104678499D01*
X120801646Y-104678499D01*
X120801648Y-104678500D01*
X120801649Y-104678500D01*
X121006351Y-104678500D01*
X121006352Y-104678500D01*
X121208534Y-104646477D01*
X121403219Y-104583220D01*
X121585610Y-104490287D01*
X121751219Y-104369966D01*
X121895966Y-104225219D01*
X122016287Y-104059610D01*
X122109220Y-103877219D01*
X122172477Y-103682534D01*
X122204500Y-103480352D01*
X122204500Y-103275648D01*
X122172477Y-103073466D01*
X122109220Y-102878781D01*
X122016287Y-102696390D01*
X121895966Y-102530781D01*
X121751219Y-102386034D01*
X121618546Y-102289642D01*
X121585612Y-102265714D01*
X121585607Y-102265711D01*
X121403218Y-102172779D01*
X121403214Y-102172778D01*
X121208535Y-102109523D01*
X121006353Y-102077500D01*
X121006352Y-102077500D01*
X120801648Y-102077500D01*
X120801646Y-102077500D01*
X120599464Y-102109523D01*
X120404785Y-102172778D01*
X120404781Y-102172779D01*
X120222392Y-102265711D01*
X120222387Y-102265714D01*
X120056782Y-102386033D01*
X120056775Y-102386039D01*
X119912039Y-102530775D01*
X119912033Y-102530782D01*
X119791714Y-102696387D01*
X119791711Y-102696392D01*
X119698779Y-102878781D01*
X119698778Y-102878785D01*
X119635523Y-103073464D01*
X119603500Y-103275646D01*
X119603500Y-103492100D01*
X119602207Y-103492100D01*
X119591827Y-103589397D01*
X119541488Y-103687071D01*
X119459264Y-103759964D01*
X119356261Y-103798232D01*
X119246390Y-103796707D01*
X119144488Y-103755595D01*
X119093979Y-103715014D01*
X115456204Y-100077239D01*
X115394106Y-99986586D01*
X115368948Y-99879623D01*
X115384129Y-99770794D01*
X115437598Y-99674799D01*
X115522134Y-99604601D01*
X115620860Y-99570494D01*
X115649307Y-99565988D01*
X115843911Y-99502758D01*
X115843921Y-99502753D01*
X116026229Y-99409864D01*
X116026234Y-99409861D01*
X116029853Y-99407230D01*
X115344180Y-98721557D01*
X115328043Y-98698000D01*
X115397548Y-98698000D01*
X115499281Y-98670741D01*
X115590493Y-98618080D01*
X115664967Y-98543606D01*
X115717628Y-98452394D01*
X115744887Y-98350661D01*
X115744887Y-98276934D01*
X115748034Y-98278687D01*
X115768444Y-98297293D01*
X116454117Y-98982966D01*
X116456748Y-98979347D01*
X116456751Y-98979342D01*
X116549640Y-98797034D01*
X116549645Y-98797024D01*
X116612876Y-98602418D01*
X116644886Y-98400315D01*
X116644887Y-98400309D01*
X116644887Y-98195690D01*
X116644886Y-98195689D01*
X116626899Y-98082122D01*
X116629944Y-97972282D01*
X116672462Y-97870959D01*
X116748711Y-97791837D01*
X116848393Y-97745603D01*
X116958046Y-97738500D01*
X117062860Y-97771488D01*
X117133643Y-97823921D01*
X117315010Y-98005288D01*
X117315011Y-98005289D01*
X117426511Y-98116789D01*
X117557621Y-98204394D01*
X117597666Y-98220981D01*
X117623744Y-98237973D01*
X117652219Y-98250546D01*
X117685669Y-98278323D01*
X117689726Y-98280966D01*
X117694668Y-98285795D01*
X117777115Y-98368242D01*
X117777118Y-98368246D01*
X117794161Y-98385289D01*
X117905661Y-98496789D01*
X118036771Y-98584394D01*
X118067297Y-98597038D01*
X118093221Y-98607776D01*
X118185283Y-98667763D01*
X118249459Y-98756957D01*
X118255039Y-98769594D01*
X118289604Y-98853043D01*
X118373997Y-98979347D01*
X118377211Y-98984156D01*
X119455844Y-100062789D01*
X119586954Y-100150394D01*
X119732636Y-100210738D01*
X119887291Y-100241500D01*
X119887293Y-100241500D01*
X121412705Y-100241500D01*
X121412709Y-100241500D01*
X121567364Y-100210737D01*
X121713046Y-100150394D01*
X121844156Y-100062789D01*
X122702100Y-99204843D01*
X122792749Y-99142748D01*
X122899713Y-99117590D01*
X122960298Y-99120953D01*
X123083701Y-99140499D01*
X123083712Y-99140499D01*
X123083713Y-99140500D01*
X123083714Y-99140500D01*
X123296286Y-99140500D01*
X123296287Y-99140500D01*
X123506243Y-99107246D01*
X123708412Y-99041557D01*
X123897816Y-98945051D01*
X124069792Y-98820104D01*
X124220104Y-98669792D01*
X124220113Y-98669778D01*
X124227728Y-98660864D01*
X124229159Y-98662086D01*
X124297911Y-98597038D01*
X124399620Y-98555451D01*
X124509483Y-98553414D01*
X124612663Y-98591202D01*
X124692126Y-98660988D01*
X124692272Y-98660864D01*
X124693135Y-98661875D01*
X124695226Y-98663711D01*
X124699217Y-98668996D01*
X124699891Y-98669786D01*
X124699896Y-98669792D01*
X124850208Y-98820104D01*
X125022184Y-98945051D01*
X125211588Y-99041557D01*
X125413754Y-99107245D01*
X125413757Y-99107246D01*
X125623713Y-99140500D01*
X125623714Y-99140500D01*
X125836286Y-99140500D01*
X125836287Y-99140500D01*
X126046243Y-99107246D01*
X126248412Y-99041557D01*
X126437816Y-98945051D01*
X126609792Y-98820104D01*
X126760104Y-98669792D01*
X126760113Y-98669778D01*
X126767728Y-98660864D01*
X126769159Y-98662086D01*
X126837911Y-98597038D01*
X126939620Y-98555451D01*
X127049483Y-98553414D01*
X127152663Y-98591202D01*
X127232126Y-98660988D01*
X127232272Y-98660864D01*
X127233135Y-98661875D01*
X127235226Y-98663711D01*
X127239217Y-98668996D01*
X127239891Y-98669786D01*
X127239896Y-98669792D01*
X127390208Y-98820104D01*
X127562184Y-98945051D01*
X127751588Y-99041557D01*
X127953754Y-99107245D01*
X127953757Y-99107246D01*
X128163713Y-99140500D01*
X128163714Y-99140500D01*
X128376286Y-99140500D01*
X128376287Y-99140500D01*
X128586243Y-99107246D01*
X128788412Y-99041557D01*
X128977816Y-98945051D01*
X129118487Y-98842847D01*
X129217734Y-98795697D01*
X129327316Y-98787581D01*
X129432430Y-98819599D01*
X129518879Y-98887427D01*
X129533593Y-98905560D01*
X129602452Y-98997544D01*
X129602455Y-98997547D01*
X129625737Y-99014976D01*
X129717669Y-99083796D01*
X129731847Y-99089084D01*
X129852514Y-99134090D01*
X129852516Y-99134091D01*
X129875419Y-99136553D01*
X129912127Y-99140500D01*
X131707872Y-99140499D01*
X131707873Y-99140499D01*
X131719794Y-99139217D01*
X131767483Y-99134091D01*
X131767487Y-99134089D01*
X131767489Y-99134089D01*
X131873801Y-99094437D01*
X131902331Y-99083796D01*
X132017546Y-98997546D01*
X132103796Y-98882331D01*
X132154091Y-98747483D01*
X132160500Y-98687873D01*
X132160499Y-96892128D01*
X132154091Y-96832517D01*
X132154089Y-96832513D01*
X132154089Y-96832510D01*
X132103798Y-96697674D01*
X132103797Y-96697673D01*
X132103796Y-96697669D01*
X132017546Y-96582454D01*
X132017544Y-96582452D01*
X131920033Y-96509456D01*
X131902331Y-96496204D01*
X131902329Y-96496203D01*
X131902327Y-96496202D01*
X131767485Y-96445909D01*
X131767483Y-96445908D01*
X131707889Y-96439501D01*
X131707876Y-96439500D01*
X131707873Y-96439500D01*
X131707869Y-96439500D01*
X130510295Y-96439500D01*
X130402284Y-96419309D01*
X130308860Y-96361464D01*
X130298870Y-96351925D01*
X129464155Y-95517210D01*
X129384797Y-95464185D01*
X129333046Y-95429606D01*
X129187364Y-95369263D01*
X129187362Y-95369262D01*
X129187361Y-95369262D01*
X129108757Y-95353627D01*
X129032709Y-95338500D01*
X129032706Y-95338500D01*
X128631478Y-95338500D01*
X128523467Y-95318309D01*
X128430043Y-95260464D01*
X128420053Y-95250925D01*
X127355962Y-94186834D01*
X126282186Y-93113059D01*
X126220089Y-93022407D01*
X126194931Y-92915444D01*
X126210112Y-92806615D01*
X126263581Y-92710620D01*
X126348117Y-92640422D01*
X126357871Y-92635223D01*
X126437552Y-92594623D01*
X126450761Y-92585025D01*
X125803641Y-91937905D01*
X125922993Y-91905925D01*
X126037007Y-91840099D01*
X126130099Y-91747007D01*
X126195925Y-91632993D01*
X126227905Y-91513641D01*
X126875025Y-92160761D01*
G37*
%TD.AperFunction*%
%TA.AperFunction,Conductor*%
G36*
X155415190Y-89020191D02*
G01*
X155508614Y-89078036D01*
X155566120Y-89149499D01*
X155599497Y-89207310D01*
X155599498Y-89207311D01*
X155599500Y-89207314D01*
X155692686Y-89300500D01*
X155692688Y-89300501D01*
X155692689Y-89300502D01*
X155806810Y-89366390D01*
X155806811Y-89366390D01*
X155806814Y-89366392D01*
X155934108Y-89400500D01*
X191114712Y-89400500D01*
X191222723Y-89420691D01*
X191316147Y-89478536D01*
X191382366Y-89566224D01*
X191412437Y-89671912D01*
X191402298Y-89781325D01*
X191353319Y-89879688D01*
X191272115Y-89953715D01*
X191255660Y-89963194D01*
X191198209Y-89993901D01*
X191198203Y-89993905D01*
X190912253Y-90184971D01*
X190912232Y-90184986D01*
X190646376Y-90403168D01*
X190403168Y-90646376D01*
X190184986Y-90912232D01*
X190184971Y-90912253D01*
X189993905Y-91198203D01*
X189993901Y-91198209D01*
X189831771Y-91501534D01*
X189831762Y-91501552D01*
X189700152Y-91819287D01*
X189600310Y-92148422D01*
X189533210Y-92485753D01*
X189499500Y-92828025D01*
X189499500Y-93171974D01*
X189533210Y-93514246D01*
X189533211Y-93514250D01*
X189600310Y-93851578D01*
X189642285Y-93989949D01*
X189700152Y-94180712D01*
X189831762Y-94498447D01*
X189831771Y-94498465D01*
X189993901Y-94801790D01*
X189993905Y-94801796D01*
X190184971Y-95087746D01*
X190184986Y-95087767D01*
X190403168Y-95353623D01*
X190522901Y-95473356D01*
X190584999Y-95564009D01*
X190610157Y-95670972D01*
X190594976Y-95779801D01*
X190541507Y-95875796D01*
X190456971Y-95945994D01*
X190352785Y-95980914D01*
X190264702Y-95980100D01*
X190094315Y-95953113D01*
X189889684Y-95953113D01*
X189687581Y-95985123D01*
X189492975Y-96048354D01*
X189492970Y-96048356D01*
X189310659Y-96141248D01*
X189310645Y-96141257D01*
X189307032Y-96143881D01*
X189992707Y-96829556D01*
X190008843Y-96853113D01*
X189939339Y-96853113D01*
X189837606Y-96880372D01*
X189746394Y-96933033D01*
X189671920Y-97007507D01*
X189619259Y-97098719D01*
X189592000Y-97200452D01*
X189592000Y-97274178D01*
X189588853Y-97272426D01*
X189568443Y-97253820D01*
X188882767Y-96568144D01*
X188829259Y-96572362D01*
X188719996Y-96560722D01*
X188622315Y-96510396D01*
X188549411Y-96428183D01*
X188513598Y-96337846D01*
X188512314Y-96331946D01*
X188510255Y-96326426D01*
X188462031Y-96197133D01*
X188428546Y-96135810D01*
X188342322Y-96020629D01*
X184780144Y-92458451D01*
X184708027Y-92398617D01*
X184670240Y-92372779D01*
X184655871Y-92364799D01*
X184632325Y-92343317D01*
X184631649Y-92342422D01*
X184614927Y-92329191D01*
X184223641Y-91937905D01*
X184342993Y-91905925D01*
X184457007Y-91840099D01*
X184550099Y-91747007D01*
X184615925Y-91632993D01*
X184647905Y-91513641D01*
X185040434Y-91906170D01*
X185304746Y-92147312D01*
X185401094Y-91958218D01*
X185401097Y-91958212D01*
X185466757Y-91756128D01*
X185499999Y-91546248D01*
X185500000Y-91546246D01*
X185500000Y-91333753D01*
X185499999Y-91333751D01*
X185466757Y-91123871D01*
X185401097Y-90921787D01*
X185401096Y-90921786D01*
X185304620Y-90732442D01*
X185295026Y-90719237D01*
X184647905Y-91366357D01*
X184615925Y-91247007D01*
X184550099Y-91132993D01*
X184457007Y-91039901D01*
X184342993Y-90974075D01*
X184223640Y-90942093D01*
X184870761Y-90294973D01*
X184857552Y-90285376D01*
X184857551Y-90285375D01*
X184668218Y-90188905D01*
X184668212Y-90188902D01*
X184466128Y-90123242D01*
X184256248Y-90090000D01*
X184043751Y-90090000D01*
X183833871Y-90123242D01*
X183631787Y-90188902D01*
X183631781Y-90188905D01*
X183442450Y-90285374D01*
X183442436Y-90285383D01*
X183429236Y-90294972D01*
X184076358Y-90942094D01*
X183957007Y-90974075D01*
X183842993Y-91039901D01*
X183749901Y-91132993D01*
X183684075Y-91247007D01*
X183652094Y-91366358D01*
X183004972Y-90719236D01*
X182936068Y-90724661D01*
X182921513Y-90723108D01*
X182907080Y-90725532D01*
X182867250Y-90717322D01*
X182826805Y-90713009D01*
X182813792Y-90706303D01*
X182799460Y-90703349D01*
X182765284Y-90681304D01*
X182729130Y-90662673D01*
X182717040Y-90650186D01*
X182707121Y-90643788D01*
X182670711Y-90602336D01*
X182640104Y-90560208D01*
X182489792Y-90409896D01*
X182397126Y-90342571D01*
X182317818Y-90284950D01*
X182317813Y-90284947D01*
X182128411Y-90188442D01*
X182128407Y-90188441D01*
X181926244Y-90122754D01*
X181926246Y-90122754D01*
X181716288Y-90089500D01*
X181716287Y-90089500D01*
X181503713Y-90089500D01*
X181503711Y-90089500D01*
X181293754Y-90122754D01*
X181091592Y-90188441D01*
X181091588Y-90188442D01*
X180902186Y-90284947D01*
X180902181Y-90284950D01*
X180730209Y-90409895D01*
X180730202Y-90409901D01*
X180635672Y-90504432D01*
X180579896Y-90560208D01*
X180579890Y-90560216D01*
X180572274Y-90569134D01*
X180570844Y-90567913D01*
X180502065Y-90632977D01*
X180400352Y-90674554D01*
X180290488Y-90676580D01*
X180187312Y-90638782D01*
X180107878Y-90569007D01*
X180107728Y-90569136D01*
X180106837Y-90568093D01*
X180104756Y-90566265D01*
X180100787Y-90561009D01*
X180100109Y-90560214D01*
X180100104Y-90560208D01*
X179949792Y-90409896D01*
X179857126Y-90342571D01*
X179777818Y-90284950D01*
X179777813Y-90284947D01*
X179588411Y-90188442D01*
X179588407Y-90188441D01*
X179386244Y-90122754D01*
X179386246Y-90122754D01*
X179176288Y-90089500D01*
X179176287Y-90089500D01*
X178963713Y-90089500D01*
X178963711Y-90089500D01*
X178753754Y-90122754D01*
X178551592Y-90188441D01*
X178551588Y-90188442D01*
X178362186Y-90284947D01*
X178362181Y-90284950D01*
X178190209Y-90409895D01*
X178190202Y-90409901D01*
X178095672Y-90504432D01*
X178039896Y-90560208D01*
X178039890Y-90560216D01*
X178032274Y-90569134D01*
X178030844Y-90567913D01*
X177962065Y-90632977D01*
X177860352Y-90674554D01*
X177750488Y-90676580D01*
X177647312Y-90638782D01*
X177567878Y-90569007D01*
X177567728Y-90569136D01*
X177566837Y-90568093D01*
X177564756Y-90566265D01*
X177560787Y-90561009D01*
X177560109Y-90560214D01*
X177560104Y-90560208D01*
X177409792Y-90409896D01*
X177317126Y-90342571D01*
X177237818Y-90284950D01*
X177237813Y-90284947D01*
X177048411Y-90188442D01*
X177048407Y-90188441D01*
X176846244Y-90122754D01*
X176846246Y-90122754D01*
X176636288Y-90089500D01*
X176636287Y-90089500D01*
X176423713Y-90089500D01*
X176423711Y-90089500D01*
X176213754Y-90122754D01*
X176011592Y-90188441D01*
X176011588Y-90188442D01*
X175822186Y-90284947D01*
X175822181Y-90284950D01*
X175650209Y-90409895D01*
X175650202Y-90409901D01*
X175555672Y-90504432D01*
X175499896Y-90560208D01*
X175499890Y-90560216D01*
X175492274Y-90569134D01*
X175490844Y-90567913D01*
X175422065Y-90632977D01*
X175320352Y-90674554D01*
X175210488Y-90676580D01*
X175107312Y-90638782D01*
X175027878Y-90569007D01*
X175027728Y-90569136D01*
X175026837Y-90568093D01*
X175024756Y-90566265D01*
X175020787Y-90561009D01*
X175020109Y-90560214D01*
X175020104Y-90560208D01*
X174869792Y-90409896D01*
X174777126Y-90342571D01*
X174697818Y-90284950D01*
X174697813Y-90284947D01*
X174508411Y-90188442D01*
X174508407Y-90188441D01*
X174306244Y-90122754D01*
X174306246Y-90122754D01*
X174096288Y-90089500D01*
X174096287Y-90089500D01*
X173883713Y-90089500D01*
X173883711Y-90089500D01*
X173673754Y-90122754D01*
X173471592Y-90188441D01*
X173471588Y-90188442D01*
X173282186Y-90284947D01*
X173282181Y-90284950D01*
X173110209Y-90409895D01*
X173110202Y-90409901D01*
X172959901Y-90560202D01*
X172952272Y-90569136D01*
X172950841Y-90567914D01*
X172882071Y-90632973D01*
X172780360Y-90674552D01*
X172670496Y-90676581D01*
X172567318Y-90638787D01*
X172487876Y-90569008D01*
X172487728Y-90569136D01*
X172486846Y-90568103D01*
X172484761Y-90566272D01*
X172480786Y-90561007D01*
X172480108Y-90560214D01*
X172480104Y-90560208D01*
X172329792Y-90409896D01*
X172237126Y-90342571D01*
X172157818Y-90284950D01*
X172157813Y-90284947D01*
X171968411Y-90188442D01*
X171968407Y-90188441D01*
X171766244Y-90122754D01*
X171766246Y-90122754D01*
X171556288Y-90089500D01*
X171556287Y-90089500D01*
X171343713Y-90089500D01*
X171343711Y-90089500D01*
X171133754Y-90122754D01*
X170931592Y-90188441D01*
X170931588Y-90188442D01*
X170742186Y-90284947D01*
X170742181Y-90284950D01*
X170570209Y-90409895D01*
X170570202Y-90409901D01*
X170419901Y-90560202D01*
X170412272Y-90569136D01*
X170410841Y-90567914D01*
X170342071Y-90632973D01*
X170240360Y-90674552D01*
X170130496Y-90676581D01*
X170027318Y-90638787D01*
X169947876Y-90569008D01*
X169947728Y-90569136D01*
X169946846Y-90568103D01*
X169944761Y-90566272D01*
X169940786Y-90561007D01*
X169940108Y-90560214D01*
X169940104Y-90560208D01*
X169789792Y-90409896D01*
X169697126Y-90342571D01*
X169617818Y-90284950D01*
X169617813Y-90284947D01*
X169428411Y-90188442D01*
X169428407Y-90188441D01*
X169226244Y-90122754D01*
X169226246Y-90122754D01*
X169016288Y-90089500D01*
X169016287Y-90089500D01*
X168803713Y-90089500D01*
X168803711Y-90089500D01*
X168593754Y-90122754D01*
X168391592Y-90188441D01*
X168391588Y-90188442D01*
X168202186Y-90284947D01*
X168202181Y-90284950D01*
X168030209Y-90409895D01*
X168030202Y-90409901D01*
X167879901Y-90560202D01*
X167872272Y-90569136D01*
X167870841Y-90567914D01*
X167802071Y-90632973D01*
X167700360Y-90674552D01*
X167590496Y-90676581D01*
X167487318Y-90638787D01*
X167407876Y-90569008D01*
X167407728Y-90569136D01*
X167406846Y-90568103D01*
X167404761Y-90566272D01*
X167400786Y-90561007D01*
X167400108Y-90560214D01*
X167400104Y-90560208D01*
X167249792Y-90409896D01*
X167157126Y-90342571D01*
X167077818Y-90284950D01*
X167077813Y-90284947D01*
X166888411Y-90188442D01*
X166888407Y-90188441D01*
X166686244Y-90122754D01*
X166686246Y-90122754D01*
X166476288Y-90089500D01*
X166476287Y-90089500D01*
X166263713Y-90089500D01*
X166263711Y-90089500D01*
X166053754Y-90122754D01*
X165851592Y-90188441D01*
X165851588Y-90188442D01*
X165662186Y-90284947D01*
X165662181Y-90284950D01*
X165490209Y-90409895D01*
X165490202Y-90409901D01*
X165339901Y-90560202D01*
X165332272Y-90569136D01*
X165330841Y-90567914D01*
X165262071Y-90632973D01*
X165160360Y-90674552D01*
X165050496Y-90676581D01*
X164947318Y-90638787D01*
X164867876Y-90569008D01*
X164867728Y-90569136D01*
X164866846Y-90568103D01*
X164864761Y-90566272D01*
X164860786Y-90561007D01*
X164860108Y-90560214D01*
X164860104Y-90560208D01*
X164709792Y-90409896D01*
X164617126Y-90342571D01*
X164537818Y-90284950D01*
X164537813Y-90284947D01*
X164348411Y-90188442D01*
X164348407Y-90188441D01*
X164146244Y-90122754D01*
X164146246Y-90122754D01*
X163936288Y-90089500D01*
X163936287Y-90089500D01*
X163723713Y-90089500D01*
X163723711Y-90089500D01*
X163513754Y-90122754D01*
X163311592Y-90188441D01*
X163311588Y-90188442D01*
X163122186Y-90284947D01*
X163122183Y-90284949D01*
X162981514Y-90387151D01*
X162882263Y-90434303D01*
X162772681Y-90442418D01*
X162667567Y-90410399D01*
X162581118Y-90342571D01*
X162566406Y-90324439D01*
X162557584Y-90312655D01*
X162497546Y-90232454D01*
X162497545Y-90232453D01*
X162497544Y-90232452D01*
X162382332Y-90146205D01*
X162382331Y-90146204D01*
X162382329Y-90146203D01*
X162382327Y-90146202D01*
X162247485Y-90095909D01*
X162247483Y-90095908D01*
X162187889Y-90089501D01*
X162187876Y-90089500D01*
X162187873Y-90089500D01*
X162187869Y-90089500D01*
X160392126Y-90089500D01*
X160332520Y-90095908D01*
X160332510Y-90095910D01*
X160197674Y-90146201D01*
X160197667Y-90146205D01*
X160082455Y-90232452D01*
X160082452Y-90232455D01*
X159996205Y-90347667D01*
X159996202Y-90347672D01*
X159945909Y-90482514D01*
X159945908Y-90482516D01*
X159939501Y-90542110D01*
X159939500Y-90542130D01*
X159939500Y-92337873D01*
X159945908Y-92397479D01*
X159945910Y-92397489D01*
X159996201Y-92532325D01*
X159996203Y-92532328D01*
X159996204Y-92532331D01*
X160007533Y-92547465D01*
X160082452Y-92647544D01*
X160082454Y-92647546D01*
X160197669Y-92733796D01*
X160197672Y-92733797D01*
X160332514Y-92784090D01*
X160332516Y-92784091D01*
X160355419Y-92786553D01*
X160392127Y-92790500D01*
X162025803Y-92790499D01*
X162133814Y-92810690D01*
X162227238Y-92868535D01*
X162293457Y-92956223D01*
X162323528Y-93061911D01*
X162313389Y-93171324D01*
X162302047Y-93203911D01*
X162285272Y-93244409D01*
X162280262Y-93256505D01*
X162249500Y-93411159D01*
X162249500Y-94794571D01*
X162229309Y-94902582D01*
X162171464Y-94996006D01*
X162161925Y-95005996D01*
X161595996Y-95571925D01*
X161505343Y-95634023D01*
X161398380Y-95659181D01*
X161384571Y-95659500D01*
X160392126Y-95659500D01*
X160332520Y-95665908D01*
X160332510Y-95665910D01*
X160197674Y-95716201D01*
X160197667Y-95716205D01*
X160082455Y-95802452D01*
X160082452Y-95802455D01*
X159996205Y-95917667D01*
X159996202Y-95917672D01*
X159945909Y-96052514D01*
X159945908Y-96052516D01*
X159939501Y-96112110D01*
X159939500Y-96112130D01*
X159939500Y-97907873D01*
X159945908Y-97967479D01*
X159945910Y-97967489D01*
X159996201Y-98102325D01*
X159996205Y-98102332D01*
X160082452Y-98217544D01*
X160082455Y-98217547D01*
X160087040Y-98220979D01*
X160197669Y-98303796D01*
X160210045Y-98308412D01*
X160332514Y-98354090D01*
X160332516Y-98354091D01*
X160355419Y-98356553D01*
X160392127Y-98360500D01*
X162187872Y-98360499D01*
X162187873Y-98360499D01*
X162199794Y-98359217D01*
X162247483Y-98354091D01*
X162247487Y-98354089D01*
X162247489Y-98354089D01*
X162341253Y-98319117D01*
X162382331Y-98303796D01*
X162497546Y-98217546D01*
X162566408Y-98125558D01*
X162647298Y-98051193D01*
X162749592Y-98011069D01*
X162859473Y-98010608D01*
X162962101Y-98049871D01*
X162981502Y-98062840D01*
X163122184Y-98165051D01*
X163311588Y-98261557D01*
X163513754Y-98327245D01*
X163513757Y-98327246D01*
X163723713Y-98360500D01*
X163723714Y-98360500D01*
X163936286Y-98360500D01*
X163936287Y-98360500D01*
X164146243Y-98327246D01*
X164348412Y-98261557D01*
X164537816Y-98165051D01*
X164709792Y-98040104D01*
X164860104Y-97889792D01*
X164860113Y-97889778D01*
X164867728Y-97880864D01*
X164869159Y-97882086D01*
X164937911Y-97817038D01*
X165039620Y-97775451D01*
X165149483Y-97773414D01*
X165252663Y-97811202D01*
X165332126Y-97880988D01*
X165332272Y-97880864D01*
X165333135Y-97881875D01*
X165335226Y-97883711D01*
X165339217Y-97888996D01*
X165339891Y-97889786D01*
X165339896Y-97889792D01*
X165490208Y-98040104D01*
X165662184Y-98165051D01*
X165851588Y-98261557D01*
X166053754Y-98327245D01*
X166053757Y-98327246D01*
X166263713Y-98360500D01*
X166263714Y-98360500D01*
X166345045Y-98360500D01*
X166363728Y-98363992D01*
X166382701Y-98362881D01*
X166417313Y-98374009D01*
X166453056Y-98380691D01*
X166469216Y-98390696D01*
X166487309Y-98396514D01*
X166515563Y-98419393D01*
X166546480Y-98438536D01*
X166557934Y-98453704D01*
X166572704Y-98465664D01*
X166590785Y-98497205D01*
X166612699Y-98526224D01*
X166617901Y-98544507D01*
X166627352Y-98560994D01*
X166632817Y-98596933D01*
X166642770Y-98631912D01*
X166641015Y-98650840D01*
X166643873Y-98669627D01*
X166635986Y-98705116D01*
X166632631Y-98741325D01*
X166624158Y-98758339D01*
X166620036Y-98776892D01*
X166599860Y-98807137D01*
X166583652Y-98839688D01*
X166568152Y-98854671D01*
X166559059Y-98868303D01*
X166517051Y-98904069D01*
X166512778Y-98907076D01*
X166412813Y-98952695D01*
X166340775Y-98961503D01*
X166097147Y-98961503D01*
X165960143Y-98988755D01*
X165901813Y-98994500D01*
X146212310Y-98994500D01*
X146203297Y-98994580D01*
X146198963Y-98994657D01*
X146198909Y-98994658D01*
X146198878Y-98994659D01*
X146189853Y-98994901D01*
X146176199Y-98997364D01*
X146048265Y-99020446D01*
X146048254Y-99020449D01*
X145988063Y-99040483D01*
X145983754Y-99041815D01*
X145981959Y-99042513D01*
X145853297Y-99106921D01*
X145747994Y-99204964D01*
X145704156Y-99259366D01*
X145704154Y-99259369D01*
X145693665Y-99277048D01*
X145630741Y-99383103D01*
X145624832Y-99397369D01*
X145564841Y-99489430D01*
X145475645Y-99553603D01*
X145369290Y-99581221D01*
X145260140Y-99568554D01*
X145162937Y-99517314D01*
X145137172Y-99494365D01*
X145095121Y-99452315D01*
X145095117Y-99452312D01*
X145010985Y-99384513D01*
X145010983Y-99384512D01*
X145010981Y-99384510D01*
X144966634Y-99356009D01*
X144966631Y-99356007D01*
X144869983Y-99307629D01*
X144753661Y-99282326D01*
X144729393Y-99277047D01*
X144729388Y-99277046D01*
X144729378Y-99277045D01*
X144659707Y-99272063D01*
X144659697Y-99272063D01*
X144516192Y-99282326D01*
X144381389Y-99332605D01*
X144381383Y-99332608D01*
X144320054Y-99366096D01*
X144204880Y-99452314D01*
X144162825Y-99494368D01*
X144072171Y-99556465D01*
X143965207Y-99581620D01*
X143856379Y-99566437D01*
X143760384Y-99512966D01*
X143690188Y-99428428D01*
X143675163Y-99397359D01*
X143669260Y-99383106D01*
X143665723Y-99374779D01*
X143663956Y-99370720D01*
X143660289Y-99362496D01*
X143660288Y-99362494D01*
X143660287Y-99362492D01*
X143605374Y-99277048D01*
X143582501Y-99241457D01*
X143582496Y-99241451D01*
X143536750Y-99188657D01*
X143536739Y-99188646D01*
X143428018Y-99094437D01*
X143428012Y-99094433D01*
X143297133Y-99034661D01*
X143297134Y-99034661D01*
X143230097Y-99014977D01*
X143230094Y-99014976D01*
X143230092Y-99014976D01*
X143087676Y-98994500D01*
X143087671Y-98994500D01*
X135762500Y-98994500D01*
X135654489Y-98974309D01*
X135561065Y-98916464D01*
X135494846Y-98828776D01*
X135464775Y-98723088D01*
X135463500Y-98695500D01*
X135463500Y-95148063D01*
X135463500Y-95148060D01*
X135432737Y-94993405D01*
X135372394Y-94847723D01*
X135284789Y-94716613D01*
X135173289Y-94605113D01*
X133852379Y-93284203D01*
X133721269Y-93196598D01*
X133575587Y-93136255D01*
X133575585Y-93136254D01*
X133575584Y-93136254D01*
X133513218Y-93123848D01*
X133420932Y-93105492D01*
X133420929Y-93105492D01*
X132272058Y-93105492D01*
X132164047Y-93085301D01*
X132070623Y-93027456D01*
X132004404Y-92939768D01*
X131974333Y-92834080D01*
X131984472Y-92724667D01*
X132032697Y-92627307D01*
X132075756Y-92569787D01*
X132103796Y-92532331D01*
X132154091Y-92397483D01*
X132160500Y-92337873D01*
X132160499Y-90542128D01*
X132159820Y-90535815D01*
X132154091Y-90482520D01*
X132154091Y-90482517D01*
X132154089Y-90482513D01*
X132154089Y-90482510D01*
X132103798Y-90347674D01*
X132103797Y-90347672D01*
X132103796Y-90347669D01*
X132017546Y-90232454D01*
X132017545Y-90232453D01*
X132017544Y-90232452D01*
X131902332Y-90146205D01*
X131902331Y-90146204D01*
X131902329Y-90146203D01*
X131902327Y-90146202D01*
X131767485Y-90095909D01*
X131767483Y-90095908D01*
X131707889Y-90089501D01*
X131707876Y-90089500D01*
X131707873Y-90089500D01*
X131707869Y-90089500D01*
X129912126Y-90089500D01*
X129852520Y-90095908D01*
X129852510Y-90095910D01*
X129717674Y-90146201D01*
X129717667Y-90146205D01*
X129602455Y-90232452D01*
X129602454Y-90232453D01*
X129533592Y-90324441D01*
X129452699Y-90398807D01*
X129350404Y-90438930D01*
X129240523Y-90439391D01*
X129137895Y-90400126D01*
X129118491Y-90387154D01*
X129049690Y-90337168D01*
X128977818Y-90284950D01*
X128977813Y-90284947D01*
X128788411Y-90188442D01*
X128788407Y-90188441D01*
X128586244Y-90122754D01*
X128586246Y-90122754D01*
X128376288Y-90089500D01*
X128376287Y-90089500D01*
X128163713Y-90089500D01*
X128163711Y-90089500D01*
X127953754Y-90122754D01*
X127751592Y-90188441D01*
X127751588Y-90188442D01*
X127562186Y-90284947D01*
X127562181Y-90284950D01*
X127390209Y-90409895D01*
X127390202Y-90409901D01*
X127239901Y-90560202D01*
X127239895Y-90560209D01*
X127209291Y-90602332D01*
X127129468Y-90677846D01*
X127027756Y-90719425D01*
X126943940Y-90724659D01*
X126875027Y-90719235D01*
X126227905Y-91366357D01*
X126195925Y-91247007D01*
X126130099Y-91132993D01*
X126037007Y-91039901D01*
X125922993Y-90974075D01*
X125803640Y-90942093D01*
X126450761Y-90294973D01*
X126437552Y-90285376D01*
X126437551Y-90285375D01*
X126248218Y-90188905D01*
X126248212Y-90188902D01*
X126046128Y-90123242D01*
X125836248Y-90090000D01*
X125623751Y-90090000D01*
X125413871Y-90123242D01*
X125211787Y-90188902D01*
X125211781Y-90188905D01*
X125022450Y-90285374D01*
X125022436Y-90285383D01*
X125009236Y-90294972D01*
X125656358Y-90942094D01*
X125537007Y-90974075D01*
X125422993Y-91039901D01*
X125329901Y-91132993D01*
X125264075Y-91247007D01*
X125232094Y-91366358D01*
X124584972Y-90719236D01*
X124516068Y-90724661D01*
X124501513Y-90723108D01*
X124487080Y-90725532D01*
X124447250Y-90717322D01*
X124406805Y-90713009D01*
X124393792Y-90706303D01*
X124379460Y-90703349D01*
X124345284Y-90681304D01*
X124309130Y-90662673D01*
X124297040Y-90650186D01*
X124287121Y-90643788D01*
X124250711Y-90602336D01*
X124220104Y-90560208D01*
X124069792Y-90409896D01*
X123977126Y-90342571D01*
X123897818Y-90284950D01*
X123897813Y-90284947D01*
X123708411Y-90188442D01*
X123708407Y-90188441D01*
X123506244Y-90122754D01*
X123506246Y-90122754D01*
X123296288Y-90089500D01*
X123296287Y-90089500D01*
X123083713Y-90089500D01*
X123083711Y-90089500D01*
X122873754Y-90122754D01*
X122671592Y-90188441D01*
X122671588Y-90188442D01*
X122482186Y-90284947D01*
X122482181Y-90284950D01*
X122310209Y-90409895D01*
X122310202Y-90409901D01*
X122159901Y-90560202D01*
X122152272Y-90569136D01*
X122150841Y-90567914D01*
X122082071Y-90632973D01*
X121980360Y-90674552D01*
X121870496Y-90676581D01*
X121767318Y-90638787D01*
X121687876Y-90569008D01*
X121687728Y-90569136D01*
X121686846Y-90568103D01*
X121684761Y-90566272D01*
X121680786Y-90561007D01*
X121680108Y-90560214D01*
X121680104Y-90560208D01*
X121529792Y-90409896D01*
X121437126Y-90342571D01*
X121357818Y-90284950D01*
X121357813Y-90284947D01*
X121168411Y-90188442D01*
X121168407Y-90188441D01*
X120966244Y-90122754D01*
X120966246Y-90122754D01*
X120756288Y-90089500D01*
X120756287Y-90089500D01*
X120543713Y-90089500D01*
X120543711Y-90089500D01*
X120333754Y-90122754D01*
X120131592Y-90188441D01*
X120131588Y-90188442D01*
X119942186Y-90284947D01*
X119942181Y-90284950D01*
X119770209Y-90409895D01*
X119770202Y-90409901D01*
X119619901Y-90560202D01*
X119612272Y-90569136D01*
X119610841Y-90567914D01*
X119542071Y-90632973D01*
X119440360Y-90674552D01*
X119330496Y-90676581D01*
X119227318Y-90638787D01*
X119147876Y-90569008D01*
X119147728Y-90569136D01*
X119146846Y-90568103D01*
X119144761Y-90566272D01*
X119140786Y-90561007D01*
X119140108Y-90560214D01*
X119140104Y-90560208D01*
X118989792Y-90409896D01*
X118897126Y-90342571D01*
X118817818Y-90284950D01*
X118817813Y-90284947D01*
X118628411Y-90188442D01*
X118628407Y-90188441D01*
X118426244Y-90122754D01*
X118426246Y-90122754D01*
X118216288Y-90089500D01*
X118216287Y-90089500D01*
X118003713Y-90089500D01*
X118003711Y-90089500D01*
X117793754Y-90122754D01*
X117591592Y-90188441D01*
X117591588Y-90188442D01*
X117402186Y-90284947D01*
X117402181Y-90284950D01*
X117230209Y-90409895D01*
X117230202Y-90409901D01*
X117079901Y-90560202D01*
X117072272Y-90569136D01*
X117070841Y-90567914D01*
X117002071Y-90632973D01*
X116900360Y-90674552D01*
X116790496Y-90676581D01*
X116687318Y-90638787D01*
X116607876Y-90569008D01*
X116607728Y-90569136D01*
X116606846Y-90568103D01*
X116604761Y-90566272D01*
X116600786Y-90561007D01*
X116600108Y-90560214D01*
X116600104Y-90560208D01*
X116449792Y-90409896D01*
X116357126Y-90342571D01*
X116277818Y-90284950D01*
X116277813Y-90284947D01*
X116088411Y-90188442D01*
X116088407Y-90188441D01*
X115886244Y-90122754D01*
X115886246Y-90122754D01*
X115676288Y-90089500D01*
X115676287Y-90089500D01*
X115463713Y-90089500D01*
X115463711Y-90089500D01*
X115253754Y-90122754D01*
X115051592Y-90188441D01*
X115051587Y-90188443D01*
X114868734Y-90281610D01*
X114763329Y-90312655D01*
X114653826Y-90303527D01*
X114572501Y-90267474D01*
X114542480Y-90248375D01*
X114540789Y-90245844D01*
X114429289Y-90134344D01*
X114298179Y-90046739D01*
X114152497Y-89986396D01*
X114120750Y-89980081D01*
X114076258Y-89951776D01*
X114065508Y-89941733D01*
X114052455Y-89934949D01*
X114025628Y-89904477D01*
X113995963Y-89876764D01*
X113989567Y-89863516D01*
X113979846Y-89852475D01*
X113965837Y-89814368D01*
X113948188Y-89777812D01*
X113947009Y-89763149D01*
X113941933Y-89749340D01*
X113942636Y-89708746D01*
X113939384Y-89668283D01*
X113943582Y-89654184D01*
X113943837Y-89639475D01*
X113959156Y-89601877D01*
X113970742Y-89562970D01*
X113979749Y-89551339D01*
X113985301Y-89537716D01*
X114013164Y-89508195D01*
X114038025Y-89476096D01*
X114050627Y-89468503D01*
X114060724Y-89457807D01*
X114097366Y-89440346D01*
X114132147Y-89419394D01*
X114146641Y-89416866D01*
X114159920Y-89410540D01*
X114236750Y-89400500D01*
X136565892Y-89400500D01*
X136693186Y-89366392D01*
X136807314Y-89300500D01*
X136900500Y-89207314D01*
X136933880Y-89149499D01*
X137005371Y-89066054D01*
X137102179Y-89014070D01*
X137192821Y-89000000D01*
X155307179Y-89000000D01*
X155415190Y-89020191D01*
G37*
%TD.AperFunction*%
%TD*%
%TA.AperFunction,Conductor*%
%TO.N,3V3*%
G36*
X183338106Y-92519685D02*
G01*
X183343952Y-92523682D01*
X183413196Y-92573990D01*
X183442184Y-92595051D01*
X183631588Y-92691557D01*
X183833757Y-92757246D01*
X184043713Y-92790500D01*
X184043714Y-92790500D01*
X184256284Y-92790500D01*
X184256287Y-92790500D01*
X184315625Y-92781101D01*
X184384915Y-92790055D01*
X184422702Y-92815893D01*
X187984880Y-96378071D01*
X188018365Y-96439394D01*
X188013381Y-96509086D01*
X187971509Y-96565019D01*
X187966090Y-96568854D01*
X187872598Y-96631323D01*
X187872594Y-96631326D01*
X179806869Y-104697051D01*
X179745546Y-104730536D01*
X179699790Y-104731843D01*
X179546097Y-104707500D01*
X179546092Y-104707500D01*
X179309908Y-104707500D01*
X179309903Y-104707500D01*
X179076631Y-104744446D01*
X178852004Y-104817433D01*
X178849511Y-104818704D01*
X178848458Y-104818901D01*
X178847499Y-104819299D01*
X178847415Y-104819097D01*
X178780840Y-104831595D01*
X178716102Y-104805315D01*
X178675849Y-104748205D01*
X178672861Y-104678400D01*
X178705540Y-104620536D01*
X179119978Y-104206098D01*
X179181299Y-104172615D01*
X179217404Y-104170165D01*
X179221643Y-104170499D01*
X179221648Y-104170500D01*
X179221653Y-104170500D01*
X179426351Y-104170500D01*
X179426352Y-104170500D01*
X179628534Y-104138477D01*
X179823219Y-104075220D01*
X180005610Y-103982287D01*
X180098590Y-103914732D01*
X180171213Y-103861971D01*
X180171215Y-103861968D01*
X180171219Y-103861966D01*
X180315966Y-103717219D01*
X180315968Y-103717215D01*
X180315971Y-103717213D01*
X180401140Y-103599986D01*
X180436287Y-103551610D01*
X180529220Y-103369219D01*
X180592477Y-103174534D01*
X180624500Y-102972352D01*
X180624500Y-102767648D01*
X180592477Y-102565466D01*
X180529220Y-102370781D01*
X180529218Y-102370778D01*
X180529218Y-102370776D01*
X180495503Y-102304607D01*
X180436287Y-102188390D01*
X180394504Y-102130880D01*
X180315971Y-102022786D01*
X180171213Y-101878028D01*
X180005613Y-101757715D01*
X180005612Y-101757714D01*
X180005610Y-101757713D01*
X179948653Y-101728691D01*
X179823223Y-101664781D01*
X179628534Y-101601522D01*
X179453995Y-101573878D01*
X179426352Y-101569500D01*
X179221648Y-101569500D01*
X179197329Y-101573351D01*
X179019465Y-101601522D01*
X178824776Y-101664781D01*
X178642386Y-101757715D01*
X178476786Y-101878028D01*
X178332028Y-102022786D01*
X178211715Y-102188386D01*
X178118781Y-102370776D01*
X178055522Y-102565465D01*
X178023500Y-102767648D01*
X178023500Y-102972359D01*
X178023835Y-102976619D01*
X178009467Y-103044996D01*
X177987898Y-103074022D01*
X176996741Y-104065181D01*
X176935418Y-104098666D01*
X176909060Y-104101500D01*
X173313201Y-104101500D01*
X173246162Y-104081815D01*
X173200407Y-104029011D01*
X173190463Y-103959853D01*
X173207662Y-103912404D01*
X173234354Y-103869128D01*
X173234358Y-103869119D01*
X173289505Y-103702697D01*
X173289506Y-103702690D01*
X173299999Y-103599986D01*
X173300000Y-103599973D01*
X173300000Y-103250000D01*
X172315686Y-103250000D01*
X172320080Y-103245606D01*
X172372741Y-103154394D01*
X172400000Y-103052661D01*
X172400000Y-102947339D01*
X172372741Y-102845606D01*
X172320080Y-102754394D01*
X172315686Y-102750000D01*
X173299999Y-102750000D01*
X173299999Y-102400028D01*
X173299998Y-102400013D01*
X173289505Y-102297302D01*
X173234358Y-102130880D01*
X173234356Y-102130875D01*
X173142315Y-101981654D01*
X173035842Y-101875181D01*
X173002357Y-101813858D01*
X173007341Y-101744166D01*
X173049213Y-101688233D01*
X173114677Y-101663816D01*
X173123523Y-101663500D01*
X174702953Y-101663500D01*
X174769992Y-101683185D01*
X174790634Y-101699819D01*
X174920786Y-101829971D01*
X175055512Y-101927853D01*
X175086390Y-101950287D01*
X175178091Y-101997011D01*
X175268776Y-102043218D01*
X175268778Y-102043218D01*
X175268781Y-102043220D01*
X175349663Y-102069500D01*
X175463465Y-102106477D01*
X175564557Y-102122488D01*
X175665648Y-102138500D01*
X175665649Y-102138500D01*
X175870351Y-102138500D01*
X175870352Y-102138500D01*
X176072534Y-102106477D01*
X176267219Y-102043220D01*
X176449610Y-101950287D01*
X176549067Y-101878028D01*
X176615213Y-101829971D01*
X176615215Y-101829968D01*
X176615219Y-101829966D01*
X176759966Y-101685219D01*
X176759968Y-101685215D01*
X176759971Y-101685213D01*
X176816259Y-101607738D01*
X176880287Y-101519610D01*
X176973220Y-101337219D01*
X177036477Y-101142534D01*
X177068500Y-100940352D01*
X177068500Y-100735648D01*
X177036477Y-100533466D01*
X176973220Y-100338781D01*
X176973218Y-100338778D01*
X176973218Y-100338776D01*
X176923507Y-100241214D01*
X176880287Y-100156390D01*
X176872556Y-100145749D01*
X176759971Y-99990786D01*
X176615213Y-99846028D01*
X176449613Y-99725715D01*
X176449612Y-99725714D01*
X176449610Y-99725713D01*
X176392653Y-99696691D01*
X176267223Y-99632781D01*
X176072534Y-99569522D01*
X175897995Y-99541878D01*
X175870352Y-99537500D01*
X175665648Y-99537500D01*
X175641329Y-99541351D01*
X175463465Y-99569522D01*
X175268776Y-99632781D01*
X175086386Y-99725715D01*
X174920786Y-99846028D01*
X174776035Y-99990779D01*
X174776030Y-99990785D01*
X174761064Y-100011385D01*
X174705734Y-100054051D01*
X174660746Y-100062500D01*
X171593292Y-100062500D01*
X171593232Y-100062503D01*
X168613052Y-100062503D01*
X168458407Y-100093264D01*
X168458395Y-100093267D01*
X168312724Y-100153605D01*
X168312711Y-100153612D01*
X168181608Y-100241213D01*
X168181604Y-100241216D01*
X165857528Y-102565294D01*
X165796205Y-102598779D01*
X165769847Y-102601613D01*
X165505040Y-102601613D01*
X165350397Y-102632373D01*
X165350389Y-102632375D01*
X165204711Y-102692717D01*
X165204701Y-102692722D01*
X165073598Y-102780323D01*
X165073594Y-102780326D01*
X164795791Y-103058131D01*
X164734468Y-103091616D01*
X164708110Y-103094450D01*
X160186205Y-103094450D01*
X160076547Y-103116263D01*
X160076546Y-103116263D01*
X160031560Y-103125211D01*
X160031548Y-103125214D01*
X159885877Y-103185552D01*
X159885864Y-103185559D01*
X159790654Y-103249178D01*
X159754758Y-103273162D01*
X159754755Y-103273165D01*
X159564241Y-103463681D01*
X159502918Y-103497166D01*
X159476560Y-103500000D01*
X131577965Y-103500000D01*
X131510926Y-103480315D01*
X131465171Y-103427511D01*
X131454923Y-103360620D01*
X131656610Y-101747120D01*
X131684457Y-101683040D01*
X131742529Y-101644187D01*
X131779652Y-101638500D01*
X132699893Y-101638500D01*
X132699894Y-101638499D01*
X132854546Y-101607737D01*
X133000228Y-101547394D01*
X133131338Y-101459789D01*
X134183789Y-100407338D01*
X134271394Y-100276228D01*
X134331738Y-100130546D01*
X134362500Y-99975891D01*
X134362500Y-99818206D01*
X134362500Y-99624000D01*
X134382185Y-99556961D01*
X134434989Y-99511206D01*
X134486500Y-99500000D01*
X143087676Y-99500000D01*
X143154715Y-99519685D01*
X143200470Y-99572489D01*
X143202237Y-99576548D01*
X143240602Y-99669172D01*
X143240609Y-99669185D01*
X143328210Y-99800288D01*
X143328213Y-99800292D01*
X143439707Y-99911786D01*
X143439711Y-99911789D01*
X143570814Y-99999390D01*
X143570827Y-99999397D01*
X143716498Y-100059735D01*
X143716503Y-100059737D01*
X143871153Y-100090499D01*
X143871156Y-100090500D01*
X143871158Y-100090500D01*
X144028844Y-100090500D01*
X144028845Y-100090499D01*
X144183497Y-100059737D01*
X144329179Y-99999394D01*
X144460289Y-99911789D01*
X144460292Y-99911786D01*
X144562319Y-99809760D01*
X144623642Y-99776275D01*
X144693334Y-99781259D01*
X144737681Y-99809760D01*
X144839707Y-99911786D01*
X144839711Y-99911789D01*
X144970814Y-99999390D01*
X144970827Y-99999397D01*
X145116498Y-100059735D01*
X145116503Y-100059737D01*
X145271153Y-100090499D01*
X145271156Y-100090500D01*
X145271158Y-100090500D01*
X145428844Y-100090500D01*
X145428845Y-100090499D01*
X145583497Y-100059737D01*
X145729179Y-99999394D01*
X145860289Y-99911789D01*
X145971789Y-99800289D01*
X146059394Y-99669179D01*
X146070798Y-99641647D01*
X146097763Y-99576548D01*
X146141603Y-99522144D01*
X146207897Y-99500079D01*
X146212324Y-99500000D01*
X166154124Y-99500000D01*
X166221163Y-99519685D01*
X166266918Y-99572489D01*
X166276862Y-99641647D01*
X166247837Y-99705203D01*
X166227799Y-99723738D01*
X166175997Y-99762003D01*
X168284465Y-98278886D01*
X168350618Y-98256418D01*
X168394117Y-98262378D01*
X168593757Y-98327246D01*
X168803713Y-98360500D01*
X168803714Y-98360500D01*
X169016285Y-98360500D01*
X169016287Y-98360500D01*
X169050686Y-98355051D01*
X169119977Y-98364005D01*
X169157765Y-98389843D01*
X170050707Y-99282786D01*
X170050711Y-99282789D01*
X170181814Y-99370390D01*
X170181818Y-99370392D01*
X170181821Y-99370394D01*
X170327503Y-99430738D01*
X170467433Y-99458571D01*
X170482153Y-99461499D01*
X170482157Y-99461500D01*
X170482158Y-99461500D01*
X170657839Y-99461500D01*
X170657842Y-99461500D01*
X170657844Y-99461499D01*
X170660394Y-99461248D01*
X170684734Y-99461248D01*
X170687283Y-99461499D01*
X170687286Y-99461500D01*
X170687289Y-99461500D01*
X172212711Y-99461500D01*
X172212712Y-99461499D01*
X172367364Y-99430737D01*
X172513046Y-99370394D01*
X172644156Y-99282789D01*
X173722789Y-98204156D01*
X173810394Y-98073046D01*
X173870738Y-97927364D01*
X173901500Y-97772709D01*
X173901500Y-97615024D01*
X173901500Y-97383089D01*
X173921185Y-97316050D01*
X173937819Y-97295408D01*
X175103409Y-96129818D01*
X175164732Y-96096333D01*
X175191090Y-96093499D01*
X175664812Y-96093499D01*
X175664813Y-96093498D01*
X175819465Y-96062736D01*
X175965147Y-96002393D01*
X176096257Y-95914787D01*
X176207757Y-95803287D01*
X176207757Y-95803286D01*
X176982224Y-95028819D01*
X177043547Y-94995334D01*
X177069905Y-94992500D01*
X177748762Y-94992500D01*
X177748763Y-94992499D01*
X177800311Y-94982245D01*
X177903407Y-94961739D01*
X177903411Y-94961737D01*
X177903415Y-94961737D01*
X177946083Y-94944062D01*
X178049096Y-94901394D01*
X178180206Y-94813789D01*
X178291706Y-94702289D01*
X178291706Y-94702288D01*
X179066175Y-93927819D01*
X179127498Y-93894334D01*
X179153856Y-93891500D01*
X179832711Y-93891500D01*
X179832712Y-93891499D01*
X179987364Y-93860737D01*
X180133046Y-93800394D01*
X180264156Y-93712789D01*
X181185150Y-92791793D01*
X181246471Y-92758310D01*
X181292227Y-92757003D01*
X181293752Y-92757244D01*
X181293757Y-92757246D01*
X181503713Y-92790500D01*
X181503714Y-92790500D01*
X181716286Y-92790500D01*
X181716287Y-92790500D01*
X181926243Y-92757246D01*
X182128412Y-92691557D01*
X182317816Y-92595051D01*
X182416048Y-92523682D01*
X182481854Y-92500202D01*
X182488933Y-92500000D01*
X183271067Y-92500000D01*
X183338106Y-92519685D01*
G37*
%TD.AperFunction*%
%TD*%
%TA.AperFunction,Conductor*%
%TO.N,VIN*%
G36*
X138292539Y-116771185D02*
G01*
X138338294Y-116823989D01*
X138349500Y-116875500D01*
X138349500Y-116946286D01*
X138382753Y-117156239D01*
X138448444Y-117358414D01*
X138544951Y-117547820D01*
X138669890Y-117719786D01*
X138820213Y-117870109D01*
X138992179Y-117995048D01*
X138992181Y-117995049D01*
X138992184Y-117995051D01*
X139181588Y-118091557D01*
X139383757Y-118157246D01*
X139593713Y-118190500D01*
X139593714Y-118190500D01*
X139806286Y-118190500D01*
X139806287Y-118190500D01*
X140016243Y-118157246D01*
X140218412Y-118091557D01*
X140407816Y-117995051D01*
X140494138Y-117932335D01*
X140579786Y-117870109D01*
X140579788Y-117870106D01*
X140579792Y-117870104D01*
X140730104Y-117719792D01*
X140730106Y-117719788D01*
X140730109Y-117719786D01*
X140852096Y-117551883D01*
X140855051Y-117547816D01*
X140859514Y-117539054D01*
X140907488Y-117488259D01*
X140975308Y-117471463D01*
X141041444Y-117493999D01*
X141080484Y-117539054D01*
X141082279Y-117542575D01*
X141084951Y-117547820D01*
X141209890Y-117719786D01*
X141360213Y-117870109D01*
X141532179Y-117995048D01*
X141532181Y-117995049D01*
X141532184Y-117995051D01*
X141721588Y-118091557D01*
X141923757Y-118157246D01*
X142133713Y-118190500D01*
X142133714Y-118190500D01*
X142346286Y-118190500D01*
X142346287Y-118190500D01*
X142556243Y-118157246D01*
X142758412Y-118091557D01*
X142947816Y-117995051D01*
X143034138Y-117932335D01*
X143119786Y-117870109D01*
X143119788Y-117870106D01*
X143119792Y-117870104D01*
X143270104Y-117719792D01*
X143270106Y-117719788D01*
X143270109Y-117719786D01*
X143392096Y-117551883D01*
X143395051Y-117547816D01*
X143399514Y-117539054D01*
X143447488Y-117488259D01*
X143515308Y-117471463D01*
X143581444Y-117493999D01*
X143620484Y-117539054D01*
X143622279Y-117542575D01*
X143624951Y-117547820D01*
X143749890Y-117719786D01*
X143900213Y-117870109D01*
X144072179Y-117995048D01*
X144072181Y-117995049D01*
X144072184Y-117995051D01*
X144261588Y-118091557D01*
X144463757Y-118157246D01*
X144673713Y-118190500D01*
X144673714Y-118190500D01*
X144886286Y-118190500D01*
X144886287Y-118190500D01*
X145096243Y-118157246D01*
X145298412Y-118091557D01*
X145487816Y-117995051D01*
X145574138Y-117932335D01*
X145659786Y-117870109D01*
X145659788Y-117870106D01*
X145659792Y-117870104D01*
X145810104Y-117719792D01*
X145810106Y-117719788D01*
X145810109Y-117719786D01*
X145932096Y-117551883D01*
X145935051Y-117547816D01*
X145939514Y-117539054D01*
X145987488Y-117488259D01*
X146055308Y-117471463D01*
X146121444Y-117493999D01*
X146160484Y-117539054D01*
X146162279Y-117542575D01*
X146164951Y-117547820D01*
X146289890Y-117719786D01*
X146440213Y-117870109D01*
X146612179Y-117995048D01*
X146612181Y-117995049D01*
X146612184Y-117995051D01*
X146801588Y-118091557D01*
X147003757Y-118157246D01*
X147213713Y-118190500D01*
X147213714Y-118190500D01*
X147426286Y-118190500D01*
X147426287Y-118190500D01*
X147636243Y-118157246D01*
X147838412Y-118091557D01*
X148027816Y-117995051D01*
X148114138Y-117932335D01*
X148199786Y-117870109D01*
X148199788Y-117870106D01*
X148199792Y-117870104D01*
X148350104Y-117719792D01*
X148443725Y-117590932D01*
X148467011Y-117572975D01*
X148488536Y-117552935D01*
X148494362Y-117551883D01*
X148499051Y-117548268D01*
X148528353Y-117545750D01*
X148557295Y-117540529D01*
X148565314Y-117542575D01*
X148568665Y-117542288D01*
X148591493Y-117549258D01*
X148591820Y-117549393D01*
X148591821Y-117549394D01*
X148722979Y-117603721D01*
X148775843Y-117645394D01*
X148829892Y-117719786D01*
X148829896Y-117719792D01*
X148980213Y-117870109D01*
X149152179Y-117995048D01*
X149152181Y-117995049D01*
X149152184Y-117995051D01*
X149341588Y-118091557D01*
X149543757Y-118157246D01*
X149753713Y-118190500D01*
X149753714Y-118190500D01*
X149966286Y-118190500D01*
X149966287Y-118190500D01*
X150176243Y-118157246D01*
X150378412Y-118091557D01*
X150567816Y-117995051D01*
X150654138Y-117932335D01*
X150739786Y-117870109D01*
X150739788Y-117870106D01*
X150739792Y-117870104D01*
X150890104Y-117719792D01*
X150983725Y-117590932D01*
X151007011Y-117572975D01*
X151028536Y-117552935D01*
X151034362Y-117551883D01*
X151039051Y-117548268D01*
X151068353Y-117545750D01*
X151097295Y-117540529D01*
X151105314Y-117542575D01*
X151108665Y-117542288D01*
X151131493Y-117549258D01*
X151131820Y-117549393D01*
X151131821Y-117549394D01*
X151262979Y-117603721D01*
X151315843Y-117645394D01*
X151369892Y-117719786D01*
X151369896Y-117719792D01*
X151520213Y-117870109D01*
X151692179Y-117995048D01*
X151692181Y-117995049D01*
X151692184Y-117995051D01*
X151881588Y-118091557D01*
X152083757Y-118157246D01*
X152293713Y-118190500D01*
X152293714Y-118190500D01*
X152506286Y-118190500D01*
X152506287Y-118190500D01*
X152716243Y-118157246D01*
X152918412Y-118091557D01*
X153107816Y-117995051D01*
X153279792Y-117870104D01*
X153393329Y-117756566D01*
X153454648Y-117723084D01*
X153524340Y-117728068D01*
X153580274Y-117769939D01*
X153597189Y-117800917D01*
X153646202Y-117932328D01*
X153646206Y-117932335D01*
X153732452Y-118047544D01*
X153732455Y-118047547D01*
X153847664Y-118133793D01*
X153847671Y-118133797D01*
X153982517Y-118184091D01*
X153982516Y-118184091D01*
X153989444Y-118184835D01*
X154042127Y-118190500D01*
X155837872Y-118190499D01*
X155897483Y-118184091D01*
X156032331Y-118133796D01*
X156147546Y-118047546D01*
X156233796Y-117932331D01*
X156259818Y-117862563D01*
X156301689Y-117806629D01*
X156367153Y-117782212D01*
X156435426Y-117797063D01*
X156484832Y-117846468D01*
X156500000Y-117905896D01*
X156500000Y-119469059D01*
X156491354Y-119498503D01*
X156484830Y-119528490D01*
X156481078Y-119533501D01*
X156480315Y-119536098D01*
X156463678Y-119556743D01*
X156449271Y-119571149D01*
X156387947Y-119604632D01*
X156318255Y-119599645D01*
X156302169Y-119592299D01*
X156298331Y-119590203D01*
X156163482Y-119539908D01*
X156163483Y-119539908D01*
X156103883Y-119533501D01*
X156103881Y-119533500D01*
X156103873Y-119533500D01*
X156103864Y-119533500D01*
X154308129Y-119533500D01*
X154308123Y-119533501D01*
X154248516Y-119539908D01*
X154113671Y-119590202D01*
X154113664Y-119590206D01*
X153998455Y-119676452D01*
X153998452Y-119676455D01*
X153912206Y-119791664D01*
X153912202Y-119791671D01*
X153861908Y-119926517D01*
X153855501Y-119986116D01*
X153855500Y-119986135D01*
X153855500Y-121781870D01*
X153855501Y-121781876D01*
X153861908Y-121841483D01*
X153912202Y-121976328D01*
X153912206Y-121976335D01*
X153998452Y-122091544D01*
X153998455Y-122091547D01*
X154113664Y-122177793D01*
X154113671Y-122177797D01*
X154248517Y-122228091D01*
X154248516Y-122228091D01*
X154255444Y-122228835D01*
X154308127Y-122234500D01*
X154966140Y-122234499D01*
X155033177Y-122254183D01*
X155078932Y-122306987D01*
X155088876Y-122376146D01*
X155059851Y-122439702D01*
X155053819Y-122446180D01*
X154846819Y-122653181D01*
X154785496Y-122686666D01*
X154759138Y-122689500D01*
X133974500Y-122689500D01*
X133907461Y-122669815D01*
X133861706Y-122617011D01*
X133850500Y-122565500D01*
X133850500Y-120777753D01*
X136076000Y-120777753D01*
X136076000Y-120990246D01*
X136109242Y-121200127D01*
X136109242Y-121200130D01*
X136174904Y-121402217D01*
X136271375Y-121591550D01*
X136310728Y-121645716D01*
X136943037Y-121013408D01*
X136960075Y-121076993D01*
X137025901Y-121191007D01*
X137118993Y-121284099D01*
X137233007Y-121349925D01*
X137296590Y-121366962D01*
X136664282Y-121999269D01*
X136664282Y-121999270D01*
X136718449Y-122038624D01*
X136907782Y-122135095D01*
X137109870Y-122200757D01*
X137319754Y-122234000D01*
X137532246Y-122234000D01*
X137742127Y-122200757D01*
X137742130Y-122200757D01*
X137944217Y-122135095D01*
X138133554Y-122038622D01*
X138187716Y-121999270D01*
X138187717Y-121999270D01*
X137555408Y-121366962D01*
X137618993Y-121349925D01*
X137733007Y-121284099D01*
X137826099Y-121191007D01*
X137891925Y-121076993D01*
X137908962Y-121013408D01*
X138541270Y-121645717D01*
X138541270Y-121645716D01*
X138580622Y-121591555D01*
X138585232Y-121582507D01*
X138633205Y-121531709D01*
X138701025Y-121514912D01*
X138767161Y-121537447D01*
X138806204Y-121582504D01*
X138810949Y-121591817D01*
X138935890Y-121763786D01*
X139086213Y-121914109D01*
X139258179Y-122039048D01*
X139258181Y-122039049D01*
X139258184Y-122039051D01*
X139447588Y-122135557D01*
X139649757Y-122201246D01*
X139859713Y-122234500D01*
X139859714Y-122234500D01*
X140072286Y-122234500D01*
X140072287Y-122234500D01*
X140282243Y-122201246D01*
X140484412Y-122135557D01*
X140673816Y-122039051D01*
X140760138Y-121976335D01*
X140845786Y-121914109D01*
X140845788Y-121914106D01*
X140845792Y-121914104D01*
X140996104Y-121763792D01*
X140996106Y-121763788D01*
X140996109Y-121763786D01*
X141121048Y-121591820D01*
X141121050Y-121591817D01*
X141121051Y-121591816D01*
X141125514Y-121583054D01*
X141173488Y-121532259D01*
X141241308Y-121515463D01*
X141307444Y-121537999D01*
X141346486Y-121583056D01*
X141350951Y-121591820D01*
X141475890Y-121763786D01*
X141626213Y-121914109D01*
X141798179Y-122039048D01*
X141798181Y-122039049D01*
X141798184Y-122039051D01*
X141987588Y-122135557D01*
X142189757Y-122201246D01*
X142399713Y-122234500D01*
X142399714Y-122234500D01*
X142612286Y-122234500D01*
X142612287Y-122234500D01*
X142822243Y-122201246D01*
X143024412Y-122135557D01*
X143213816Y-122039051D01*
X143300138Y-121976335D01*
X143385786Y-121914109D01*
X143385788Y-121914106D01*
X143385792Y-121914104D01*
X143536104Y-121763792D01*
X143536106Y-121763788D01*
X143536109Y-121763786D01*
X143661048Y-121591820D01*
X143661050Y-121591817D01*
X143661051Y-121591816D01*
X143757557Y-121402412D01*
X143823246Y-121200243D01*
X143856500Y-120990287D01*
X143856500Y-120777713D01*
X143823246Y-120567757D01*
X143757557Y-120365588D01*
X143661051Y-120176184D01*
X143661049Y-120176181D01*
X143661048Y-120176179D01*
X143536109Y-120004213D01*
X143385786Y-119853890D01*
X143213820Y-119728951D01*
X143024414Y-119632444D01*
X143024413Y-119632443D01*
X143024412Y-119632443D01*
X142822243Y-119566754D01*
X142822241Y-119566753D01*
X142822240Y-119566753D01*
X142660957Y-119541208D01*
X142612287Y-119533500D01*
X142399713Y-119533500D01*
X142351042Y-119541208D01*
X142189760Y-119566753D01*
X141987585Y-119632444D01*
X141798179Y-119728951D01*
X141626213Y-119853890D01*
X141475890Y-120004213D01*
X141350949Y-120176182D01*
X141346484Y-120184946D01*
X141298509Y-120235742D01*
X141230688Y-120252536D01*
X141164553Y-120229998D01*
X141125516Y-120184946D01*
X141121050Y-120176182D01*
X140996109Y-120004213D01*
X140845786Y-119853890D01*
X140673820Y-119728951D01*
X140484414Y-119632444D01*
X140484413Y-119632443D01*
X140484412Y-119632443D01*
X140282243Y-119566754D01*
X140282241Y-119566753D01*
X140282240Y-119566753D01*
X140120957Y-119541208D01*
X140072287Y-119533500D01*
X139859713Y-119533500D01*
X139811042Y-119541208D01*
X139649760Y-119566753D01*
X139447585Y-119632444D01*
X139258179Y-119728951D01*
X139086213Y-119853890D01*
X138935890Y-120004213D01*
X138810949Y-120176182D01*
X138806202Y-120185499D01*
X138758227Y-120236293D01*
X138690405Y-120253087D01*
X138624271Y-120230548D01*
X138585234Y-120185495D01*
X138580626Y-120176452D01*
X138541270Y-120122282D01*
X138541269Y-120122282D01*
X137908962Y-120754590D01*
X137891925Y-120691007D01*
X137826099Y-120576993D01*
X137733007Y-120483901D01*
X137618993Y-120418075D01*
X137555409Y-120401037D01*
X138187716Y-119768728D01*
X138133550Y-119729375D01*
X137944217Y-119632904D01*
X137742129Y-119567242D01*
X137532246Y-119534000D01*
X137319754Y-119534000D01*
X137109872Y-119567242D01*
X137109869Y-119567242D01*
X136907782Y-119632904D01*
X136718439Y-119729380D01*
X136664282Y-119768727D01*
X136664282Y-119768728D01*
X137296591Y-120401037D01*
X137233007Y-120418075D01*
X137118993Y-120483901D01*
X137025901Y-120576993D01*
X136960075Y-120691007D01*
X136943037Y-120754591D01*
X136310728Y-120122282D01*
X136310727Y-120122282D01*
X136271380Y-120176439D01*
X136174904Y-120365782D01*
X136109242Y-120567869D01*
X136109242Y-120567872D01*
X136076000Y-120777753D01*
X133850500Y-120777753D01*
X133850500Y-116875500D01*
X133870185Y-116808461D01*
X133922989Y-116762706D01*
X133974500Y-116751500D01*
X138225500Y-116751500D01*
X138292539Y-116771185D01*
G37*
%TD.AperFunction*%
%TA.AperFunction,Conductor*%
G36*
X160195039Y-104019685D02*
G01*
X160240794Y-104072489D01*
X160250738Y-104141647D01*
X160221713Y-104205203D01*
X160202400Y-104223200D01*
X158252400Y-105685700D01*
X158186958Y-105710176D01*
X158178000Y-105710500D01*
X157857205Y-105710500D01*
X157702560Y-105741261D01*
X157702548Y-105741264D01*
X157556877Y-105801602D01*
X157556864Y-105801609D01*
X157425761Y-105889210D01*
X157425757Y-105889213D01*
X157181711Y-106133261D01*
X157139179Y-106175793D01*
X157070209Y-106244762D01*
X156982609Y-106375864D01*
X156982602Y-106375877D01*
X156922266Y-106521545D01*
X156922261Y-106521558D01*
X156893703Y-106665126D01*
X156861318Y-106727037D01*
X156846486Y-106740134D01*
X156500000Y-106999999D01*
X156500000Y-115774103D01*
X156480315Y-115841142D01*
X156427511Y-115886897D01*
X156358353Y-115896841D01*
X156294797Y-115867816D01*
X156259818Y-115817436D01*
X156233797Y-115747671D01*
X156233793Y-115747664D01*
X156147547Y-115632455D01*
X156147544Y-115632452D01*
X156032335Y-115546206D01*
X156032328Y-115546202D01*
X155897482Y-115495908D01*
X155897483Y-115495908D01*
X155837883Y-115489501D01*
X155837881Y-115489500D01*
X155837873Y-115489500D01*
X155837865Y-115489500D01*
X154567807Y-115489500D01*
X154500768Y-115469815D01*
X154480126Y-115453181D01*
X153594159Y-114567213D01*
X153594155Y-114567210D01*
X153463052Y-114479609D01*
X153463039Y-114479602D01*
X153317368Y-114419264D01*
X153317356Y-114419261D01*
X153162712Y-114388500D01*
X153162709Y-114388500D01*
X152483857Y-114388500D01*
X152416818Y-114368815D01*
X152396176Y-114352181D01*
X151510209Y-113466213D01*
X151510205Y-113466210D01*
X151379102Y-113378609D01*
X151379089Y-113378602D01*
X151233418Y-113318264D01*
X151233406Y-113318261D01*
X151078762Y-113287500D01*
X151078759Y-113287500D01*
X150399905Y-113287500D01*
X150332866Y-113267815D01*
X150312224Y-113251181D01*
X149426256Y-112365212D01*
X149426253Y-112365209D01*
X149295151Y-112277609D01*
X149295138Y-112277602D01*
X149179007Y-112229500D01*
X149149467Y-112217264D01*
X149149457Y-112217261D01*
X148994812Y-112186500D01*
X148994809Y-112186500D01*
X148994808Y-112186500D01*
X148521090Y-112186500D01*
X148454051Y-112166815D01*
X148433409Y-112150181D01*
X145388441Y-109105213D01*
X145388437Y-109105210D01*
X145257334Y-109017609D01*
X145257321Y-109017602D01*
X145111650Y-108957264D01*
X145111638Y-108957261D01*
X144956994Y-108926500D01*
X144956991Y-108926500D01*
X143295187Y-108926500D01*
X143265746Y-108917855D01*
X143235760Y-108911332D01*
X143230744Y-108907577D01*
X143228148Y-108906815D01*
X143207506Y-108890181D01*
X143153036Y-108835711D01*
X143041536Y-108724211D01*
X143041535Y-108724210D01*
X143041534Y-108724209D01*
X142910432Y-108636609D01*
X142910419Y-108636602D01*
X142792555Y-108587782D01*
X142764746Y-108576263D01*
X142764737Y-108576260D01*
X142640849Y-108551617D01*
X142640849Y-108551616D01*
X142610094Y-108545500D01*
X142610089Y-108545500D01*
X141642494Y-108545500D01*
X141630650Y-108544933D01*
X141626252Y-108544511D01*
X141625758Y-108544462D01*
X141547949Y-108544500D01*
X136358055Y-108544500D01*
X136291016Y-108524815D01*
X136270374Y-108508181D01*
X134284409Y-106522216D01*
X134284406Y-106522213D01*
X134283418Y-106521553D01*
X134153297Y-106434608D01*
X134153294Y-106434606D01*
X134153293Y-106434606D01*
X134153292Y-106434605D01*
X134007619Y-106374266D01*
X134007607Y-106374263D01*
X133852964Y-106343502D01*
X133852962Y-106343501D01*
X133124000Y-106343501D01*
X133056960Y-106323816D01*
X133011206Y-106271012D01*
X133000000Y-106219501D01*
X133000000Y-104129500D01*
X133019685Y-104062461D01*
X133072489Y-104016706D01*
X133124000Y-104005500D01*
X159476562Y-104005500D01*
X159483938Y-104005104D01*
X159530600Y-104002603D01*
X159548197Y-104000710D01*
X159561454Y-104000000D01*
X160128000Y-104000000D01*
X160195039Y-104019685D01*
G37*
%TD.AperFunction*%
%TD*%
M02*
